<svg class="main-svg" xmlns="http://www.w3.org/2000/svg" xmlns:xlink="http://www.w3.org/1999/xlink" width="756" height="756" style="" viewBox="0 0 378 378"><rect x="0" y="0" width="378" height="378" style="fill: rgb(255, 255, 255); fill-opacity: 1;"/><defs id="defs-afbba3"><g class="clips"><clipPath id="clipafbba3xyplot" class="plotclip"><rect width="294" height="198"/></clipPath><clipPath id="clipafbba3xy2plot" class="plotclip"><rect width="294" height="198"/></clipPath><clipPath class="axesclip" id="clipafbba3x"><rect x="50" y="0" width="294" height="378"/></clipPath><clipPath class="axesclip" id="clipafbba3y"><rect x="0" y="140" width="378" height="198"/></clipPath><clipPath class="axesclip" id="clipafbba3xy"><rect x="50" y="140" width="294" height="198"/></clipPath><clipPath class="axesclip" id="clipafbba3y2"><rect x="0" y="140" width="378" height="198"/></clipPath><clipPath class="axesclip" id="clipafbba3xy2"><rect x="50" y="140" width="294" height="198"/></clipPath></g><g class="gradients"/><g class="patterns"/></defs><g class="bglayer"/><g class="layer-below"><g class="imagelayer"/><g class="shapelayer"/></g><g class="cartesianlayer"><g class="subplot xy"><g class="layer-subplot"><g class="shapelayer"/><g class="imagelayer"/></g><g class="minor-gridlayer"><g class="x"/><g class="y"/><g class="y2"/></g><g class="gridlayer"><g class="x"><path class="xgrid crisp" transform="translate(63.36,0)" d="M0,140v198" style="stroke: rgb(232, 232, 232); stroke-opacity: 1; stroke-width: 1px;"/><path class="xgrid crisp" transform="translate(116.82,0)" d="M0,140v198" style="stroke: rgb(232, 232, 232); stroke-opacity: 1; stroke-width: 1px;"/><path class="xgrid crisp" transform="translate(170.26999999999998,0)" d="M0,140v198" style="stroke: rgb(232, 232, 232); stroke-opacity: 1; stroke-width: 1px;"/><path class="xgrid crisp" transform="translate(223.73,0)" d="M0,140v198" style="stroke: rgb(232, 232, 232); stroke-opacity: 1; stroke-width: 1px;"/><path class="xgrid crisp" transform="translate(277.18,0)" d="M0,140v198" style="stroke: rgb(232, 232, 232); stroke-opacity: 1; stroke-width: 1px;"/><path class="xgrid crisp" transform="translate(330.64,0)" d="M0,140v198" style="stroke: rgb(232, 232, 232); stroke-opacity: 1; stroke-width: 1px;"/></g><g class="y"><path class="ygrid crisp" transform="translate(0,299.25)" d="M50,0h294" style="stroke: rgb(232, 232, 232); stroke-opacity: 1; stroke-width: 1px;"/><path class="ygrid crisp" transform="translate(0,260.5)" d="M50,0h294" style="stroke: rgb(232, 232, 232); stroke-opacity: 1; stroke-width: 1px;"/><path class="ygrid crisp" transform="translate(0,221.76)" d="M50,0h294" style="stroke: rgb(232, 232, 232); stroke-opacity: 1; stroke-width: 1px;"/><path class="ygrid crisp" transform="translate(0,183.01)" d="M50,0h294" style="stroke: rgb(232, 232, 232); stroke-opacity: 1; stroke-width: 1px;"/><path class="ygrid crisp" transform="translate(0,144.26)" d="M50,0h294" style="stroke: rgb(232, 232, 232); stroke-opacity: 1; stroke-width: 1px;"/></g><g class="y2"/></g><g class="zerolinelayer"/><g class="layer-between"><g class="shapelayer"/><g class="imagelayer"/></g><path class="xlines-below"/><path class="ylines-below"/><g class="overlines-below"><path class="xy2-x"/><path class="xy2-y"/></g><g class="xaxislayer-below"/><g class="yaxislayer-below"/><g class="overaxes-below"><g class="xy2-x"/><g class="xy2-y"/></g><g class="overplot"><g class="xy" transform="translate(50,140)" clip-path="url(#clipafbba3xyplot)"><g class="barlayer mlayer"><g class="trace bars" shape-rendering="crispEdges" style="opacity: 1;"><g class="points"><g class="point"><path d="M-259.25,198V194.11H-248.56V198Z" style="vector-effect: none; opacity: 1; stroke-width: 0.5px; fill: rgb(74, 20, 140); fill-opacity: 1; stroke: rgb(255, 255, 255); stroke-opacity: 1;"/></g><g class="point"><path d="M-232.53,198V197.33H-221.84V198Z" style="vector-effect: none; opacity: 1; stroke-width: 0.5px; fill: rgb(74, 20, 140); fill-opacity: 1; stroke: rgb(255, 255, 255); stroke-opacity: 1;"/></g><g class="point"><path d="M-205.8,198V195.78H-195.11V198Z" style="vector-effect: none; opacity: 1; stroke-width: 0.5px; fill: rgb(74, 20, 140); fill-opacity: 1; stroke: rgb(255, 255, 255); stroke-opacity: 1;"/></g><g class="point"><path d="M-179.07,198V194.75H-168.38V198Z" style="vector-effect: none; opacity: 1; stroke-width: 0.5px; fill: rgb(74, 20, 140); fill-opacity: 1; stroke: rgb(255, 255, 255); stroke-opacity: 1;"/></g><g class="point"><path d="M-152.35,198V181.22H-141.65V198Z" style="vector-effect: none; opacity: 1; stroke-width: 0.5px; fill: rgb(74, 20, 140); fill-opacity: 1; stroke: rgb(255, 255, 255); stroke-opacity: 1;"/></g><g class="point"><path d="M-125.62,198V187.34H-114.93V198Z" style="vector-effect: none; opacity: 1; stroke-width: 0.5px; fill: rgb(74, 20, 140); fill-opacity: 1; stroke: rgb(255, 255, 255); stroke-opacity: 1;"/></g><g class="point"><path d="M-98.89,198V191.05H-88.2V198Z" style="vector-effect: none; opacity: 1; stroke-width: 0.5px; fill: rgb(74, 20, 140); fill-opacity: 1; stroke: rgb(255, 255, 255); stroke-opacity: 1;"/></g><g class="point"><path d="M-72.16,198V185.87H-61.47V198Z" style="vector-effect: none; opacity: 1; stroke-width: 0.5px; fill: rgb(74, 20, 140); fill-opacity: 1; stroke: rgb(255, 255, 255); stroke-opacity: 1;"/></g><g class="point"><path d="M-45.44,198V195.44H-34.75V198Z" style="vector-effect: none; opacity: 1; stroke-width: 0.5px; fill: rgb(74, 20, 140); fill-opacity: 1; stroke: rgb(255, 255, 255); stroke-opacity: 1;"/></g><g class="point"><path d="M-18.71,198V190.42H-8.02V198Z" style="vector-effect: none; opacity: 1; stroke-width: 0.5px; fill: rgb(74, 20, 140); fill-opacity: 1; stroke: rgb(255, 255, 255); stroke-opacity: 1;"/></g><g class="point"><path d="M8.02,198V191.2H18.71V198Z" style="vector-effect: none; opacity: 1; stroke-width: 0.5px; fill: rgb(74, 20, 140); fill-opacity: 1; stroke: rgb(255, 255, 255); stroke-opacity: 1;"/></g><g class="point"><path d="M34.75,198V180.8H45.44V198Z" style="vector-effect: none; opacity: 1; stroke-width: 0.5px; fill: rgb(74, 20, 140); fill-opacity: 1; stroke: rgb(255, 255, 255); stroke-opacity: 1;"/></g><g class="point"><path d="M88.2,198V186.2H98.89V198Z" style="vector-effect: none; opacity: 1; stroke-width: 0.5px; fill: rgb(74, 20, 140); fill-opacity: 1; stroke: rgb(255, 255, 255); stroke-opacity: 1;"/></g><g class="point"><path d="M114.93,198V171.54H125.62V198Z" style="vector-effect: none; opacity: 1; stroke-width: 0.5px; fill: rgb(74, 20, 140); fill-opacity: 1; stroke: rgb(255, 255, 255); stroke-opacity: 1;"/></g><g class="point"><path d="M141.65,198V171.28H152.35V198Z" style="vector-effect: none; opacity: 1; stroke-width: 0.5px; fill: rgb(74, 20, 140); fill-opacity: 1; stroke: rgb(255, 255, 255); stroke-opacity: 1;"/></g><g class="point"><path d="M168.38,198V174.91H179.07V198Z" style="vector-effect: none; opacity: 1; stroke-width: 0.5px; fill: rgb(74, 20, 140); fill-opacity: 1; stroke: rgb(255, 255, 255); stroke-opacity: 1;"/></g><g class="point"><path d="M195.11,198V188.41H205.8V198Z" style="vector-effect: none; opacity: 1; stroke-width: 0.5px; fill: rgb(74, 20, 140); fill-opacity: 1; stroke: rgb(255, 255, 255); stroke-opacity: 1;"/></g><g class="point"><path d="M221.84,198V182.98H232.53V198Z" style="vector-effect: none; opacity: 1; stroke-width: 0.5px; fill: rgb(74, 20, 140); fill-opacity: 1; stroke: rgb(255, 255, 255); stroke-opacity: 1;"/></g><g class="point"><path d="M248.56,198V172.17H259.25V198Z" style="vector-effect: none; opacity: 1; stroke-width: 0.5px; fill: rgb(74, 20, 140); fill-opacity: 1; stroke: rgb(255, 255, 255); stroke-opacity: 1;"/></g></g></g><g class="trace bars" shape-rendering="crispEdges" style="opacity: 1;"><g class="points"><g class="point"><path d="M-259.25,194.11V182.73H-248.56V194.11Z" style="vector-effect: none; opacity: 1; stroke-width: 0.5px; fill: rgb(0, 137, 123); fill-opacity: 1; stroke: rgb(255, 255, 255); stroke-opacity: 1;"/></g><g class="point"><path d="M-232.53,197.33V190.66H-221.84V197.33Z" style="vector-effect: none; opacity: 1; stroke-width: 0.5px; fill: rgb(0, 137, 123); fill-opacity: 1; stroke: rgb(255, 255, 255); stroke-opacity: 1;"/></g><g class="point"><path d="M-205.8,195.78V189.87H-195.11V195.78Z" style="vector-effect: none; opacity: 1; stroke-width: 0.5px; fill: rgb(0, 137, 123); fill-opacity: 1; stroke: rgb(255, 255, 255); stroke-opacity: 1;"/></g><g class="point"><path d="M-179.07,194.75V187.41H-168.38V194.75Z" style="vector-effect: none; opacity: 1; stroke-width: 0.5px; fill: rgb(0, 137, 123); fill-opacity: 1; stroke: rgb(255, 255, 255); stroke-opacity: 1;"/></g><g class="point"><path d="M-152.35,181.22V170.34H-141.65V181.22Z" style="vector-effect: none; opacity: 1; stroke-width: 0.5px; fill: rgb(0, 137, 123); fill-opacity: 1; stroke: rgb(255, 255, 255); stroke-opacity: 1;"/></g><g class="point"><path d="M-125.62,187.34V173.99H-114.93V187.34Z" style="vector-effect: none; opacity: 1; stroke-width: 0.5px; fill: rgb(0, 137, 123); fill-opacity: 1; stroke: rgb(255, 255, 255); stroke-opacity: 1;"/></g><g class="point"><path d="M-98.89,191.05V178.53H-88.2V191.05Z" style="vector-effect: none; opacity: 1; stroke-width: 0.5px; fill: rgb(0, 137, 123); fill-opacity: 1; stroke: rgb(255, 255, 255); stroke-opacity: 1;"/></g><g class="point"><path d="M-72.16,185.87V167.84H-61.47V185.87Z" style="vector-effect: none; opacity: 1; stroke-width: 0.5px; fill: rgb(0, 137, 123); fill-opacity: 1; stroke: rgb(255, 255, 255); stroke-opacity: 1;"/></g><g class="point"><path d="M-45.44,195.44V177.1H-34.75V195.44Z" style="vector-effect: none; opacity: 1; stroke-width: 0.5px; fill: rgb(0, 137, 123); fill-opacity: 1; stroke: rgb(255, 255, 255); stroke-opacity: 1;"/></g><g class="point"><path d="M-18.71,190.42V163.64H-8.02V190.42Z" style="vector-effect: none; opacity: 1; stroke-width: 0.5px; fill: rgb(0, 137, 123); fill-opacity: 1; stroke: rgb(255, 255, 255); stroke-opacity: 1;"/></g><g class="point"><path d="M8.02,191.2V168.19H18.71V191.2Z" style="vector-effect: none; opacity: 1; stroke-width: 0.5px; fill: rgb(0, 137, 123); fill-opacity: 1; stroke: rgb(255, 255, 255); stroke-opacity: 1;"/></g><g class="point"><path d="M34.75,180.8V155.53H45.44V180.8Z" style="vector-effect: none; opacity: 1; stroke-width: 0.5px; fill: rgb(0, 137, 123); fill-opacity: 1; stroke: rgb(255, 255, 255); stroke-opacity: 1;"/></g><g class="point"><path d="M88.2,186.2V157.29H98.89V186.2Z" style="vector-effect: none; opacity: 1; stroke-width: 0.5px; fill: rgb(0, 137, 123); fill-opacity: 1; stroke: rgb(255, 255, 255); stroke-opacity: 1;"/></g><g class="point"><path d="M114.93,171.54V147.04H125.62V171.54Z" style="vector-effect: none; opacity: 1; stroke-width: 0.5px; fill: rgb(0, 137, 123); fill-opacity: 1; stroke: rgb(255, 255, 255); stroke-opacity: 1;"/></g><g class="point"><path d="M141.65,171.28V110.95H152.35V171.28Z" style="vector-effect: none; opacity: 1; stroke-width: 0.5px; fill: rgb(0, 137, 123); fill-opacity: 1; stroke: rgb(255, 255, 255); stroke-opacity: 1;"/></g><g class="point"><path d="M168.38,174.91V127.06H179.07V174.91Z" style="vector-effect: none; opacity: 1; stroke-width: 0.5px; fill: rgb(0, 137, 123); fill-opacity: 1; stroke: rgb(255, 255, 255); stroke-opacity: 1;"/></g><g class="point"><path d="M195.11,188.41V157.77H205.8V188.41Z" style="vector-effect: none; opacity: 1; stroke-width: 0.5px; fill: rgb(0, 137, 123); fill-opacity: 1; stroke: rgb(255, 255, 255); stroke-opacity: 1;"/></g><g class="point"><path d="M221.84,182.98V150.27H232.53V182.98Z" style="vector-effect: none; opacity: 1; stroke-width: 0.5px; fill: rgb(0, 137, 123); fill-opacity: 1; stroke: rgb(255, 255, 255); stroke-opacity: 1;"/></g><g class="point"><path d="M248.56,172.17V127.11H259.25V172.17Z" style="vector-effect: none; opacity: 1; stroke-width: 0.5px; fill: rgb(0, 137, 123); fill-opacity: 1; stroke: rgb(255, 255, 255); stroke-opacity: 1;"/></g></g></g><g class="trace bars" shape-rendering="crispEdges" style="opacity: 1;"><g class="points"><g class="point"><path d="M-259.25,182.73V169.1H-248.56V182.73Z" style="vector-effect: none; opacity: 1; stroke-width: 0.5px; fill: rgb(230, 81, 0); fill-opacity: 1; stroke: rgb(255, 255, 255); stroke-opacity: 1;"/></g><g class="point"><path d="M-232.53,190.66V180.73H-221.84V190.66Z" style="vector-effect: none; opacity: 1; stroke-width: 0.5px; fill: rgb(230, 81, 0); fill-opacity: 1; stroke: rgb(255, 255, 255); stroke-opacity: 1;"/></g><g class="point"><path d="M-205.8,189.87V182.63H-195.11V189.87Z" style="vector-effect: none; opacity: 1; stroke-width: 0.5px; fill: rgb(230, 81, 0); fill-opacity: 1; stroke: rgb(255, 255, 255); stroke-opacity: 1;"/></g><g class="point"><path d="M-179.07,187.41V181.66H-168.38V187.41Z" style="vector-effect: none; opacity: 1; stroke-width: 0.5px; fill: rgb(230, 81, 0); fill-opacity: 1; stroke: rgb(255, 255, 255); stroke-opacity: 1;"/></g><g class="point"><path d="M-152.35,170.34V160.11H-141.65V170.34Z" style="vector-effect: none; opacity: 1; stroke-width: 0.5px; fill: rgb(230, 81, 0); fill-opacity: 1; stroke: rgb(255, 255, 255); stroke-opacity: 1;"/></g><g class="point"><path d="M-125.62,173.99V161.65H-114.93V173.99Z" style="vector-effect: none; opacity: 1; stroke-width: 0.5px; fill: rgb(230, 81, 0); fill-opacity: 1; stroke: rgb(255, 255, 255); stroke-opacity: 1;"/></g><g class="point"><path d="M-98.89,178.53V168.8H-88.2V178.53Z" style="vector-effect: none; opacity: 1; stroke-width: 0.5px; fill: rgb(230, 81, 0); fill-opacity: 1; stroke: rgb(255, 255, 255); stroke-opacity: 1;"/></g><g class="point"><path d="M-72.16,167.84V149.81H-61.47V167.84Z" style="vector-effect: none; opacity: 1; stroke-width: 0.5px; fill: rgb(230, 81, 0); fill-opacity: 1; stroke: rgb(255, 255, 255); stroke-opacity: 1;"/></g><g class="point"><path d="M-45.44,177.1V159.8H-34.75V177.1Z" style="vector-effect: none; opacity: 1; stroke-width: 0.5px; fill: rgb(230, 81, 0); fill-opacity: 1; stroke: rgb(255, 255, 255); stroke-opacity: 1;"/></g><g class="point"><path d="M-18.71,163.64V149.44H-8.02V163.64Z" style="vector-effect: none; opacity: 1; stroke-width: 0.5px; fill: rgb(230, 81, 0); fill-opacity: 1; stroke: rgb(255, 255, 255); stroke-opacity: 1;"/></g><g class="point"><path d="M8.02,168.19V158.07H18.71V168.19Z" style="vector-effect: none; opacity: 1; stroke-width: 0.5px; fill: rgb(230, 81, 0); fill-opacity: 1; stroke: rgb(255, 255, 255); stroke-opacity: 1;"/></g><g class="point"><path d="M34.75,155.53V141.91H45.44V155.53Z" style="vector-effect: none; opacity: 1; stroke-width: 0.5px; fill: rgb(230, 81, 0); fill-opacity: 1; stroke: rgb(255, 255, 255); stroke-opacity: 1;"/></g><g class="point"><path d="M88.2,157.29V151.29H98.89V157.29Z" style="vector-effect: none; opacity: 1; stroke-width: 0.5px; fill: rgb(230, 81, 0); fill-opacity: 1; stroke: rgb(255, 255, 255); stroke-opacity: 1;"/></g><g class="point"><path d="M114.93,147.04V137.08H125.62V147.04Z" style="vector-effect: none; opacity: 1; stroke-width: 0.5px; fill: rgb(230, 81, 0); fill-opacity: 1; stroke: rgb(255, 255, 255); stroke-opacity: 1;"/></g><g class="point"><path d="M141.65,110.95V93.72H152.35V110.95Z" style="vector-effect: none; opacity: 1; stroke-width: 0.5px; fill: rgb(230, 81, 0); fill-opacity: 1; stroke: rgb(255, 255, 255); stroke-opacity: 1;"/></g><g class="point"><path d="M168.38,127.06V116.06H179.07V127.06Z" style="vector-effect: none; opacity: 1; stroke-width: 0.5px; fill: rgb(230, 81, 0); fill-opacity: 1; stroke: rgb(255, 255, 255); stroke-opacity: 1;"/></g><g class="point"><path d="M195.11,157.77V150.86H205.8V157.77Z" style="vector-effect: none; opacity: 1; stroke-width: 0.5px; fill: rgb(230, 81, 0); fill-opacity: 1; stroke: rgb(255, 255, 255); stroke-opacity: 1;"/></g><g class="point"><path d="M221.84,150.27V134.73H232.53V150.27Z" style="vector-effect: none; opacity: 1; stroke-width: 0.5px; fill: rgb(230, 81, 0); fill-opacity: 1; stroke: rgb(255, 255, 255); stroke-opacity: 1;"/></g><g class="point"><path d="M248.56,127.11V110.22H259.25V127.11Z" style="vector-effect: none; opacity: 1; stroke-width: 0.5px; fill: rgb(230, 81, 0); fill-opacity: 1; stroke: rgb(255, 255, 255); stroke-opacity: 1;"/></g></g></g><g class="trace bars" shape-rendering="crispEdges" style="opacity: 1;"><g class="points"><g class="point"><path d="M-259.25,169.1V163.76H-248.56V169.1Z" style="vector-effect: none; opacity: 1; stroke-width: 0.5px; fill: rgb(173, 20, 87); fill-opacity: 1; stroke: rgb(255, 255, 255); stroke-opacity: 1;"/></g><g class="point"><path d="M-232.53,180.73V175.76H-221.84V180.73Z" style="vector-effect: none; opacity: 1; stroke-width: 0.5px; fill: rgb(173, 20, 87); fill-opacity: 1; stroke: rgb(255, 255, 255); stroke-opacity: 1;"/></g><g class="point"><path d="M-205.8,182.63V180.58H-195.11V182.63Z" style="vector-effect: none; opacity: 1; stroke-width: 0.5px; fill: rgb(173, 20, 87); fill-opacity: 1; stroke: rgb(255, 255, 255); stroke-opacity: 1;"/></g><g class="point"><path d="M-179.07,181.66V181.39H-168.38V181.66Z" style="vector-effect: none; opacity: 1; stroke-width: 0.5px; fill: rgb(173, 20, 87); fill-opacity: 1; stroke: rgb(255, 255, 255); stroke-opacity: 1;"/></g><g class="point"><path d="M-152.35,160.11V158.99H-141.65V160.11Z" style="vector-effect: none; opacity: 1; stroke-width: 0.5px; fill: rgb(173, 20, 87); fill-opacity: 1; stroke: rgb(255, 255, 255); stroke-opacity: 1;"/></g><g class="point"><path d="M-125.62,161.65V155.77H-114.93V161.65Z" style="vector-effect: none; opacity: 1; stroke-width: 0.5px; fill: rgb(173, 20, 87); fill-opacity: 1; stroke: rgb(255, 255, 255); stroke-opacity: 1;"/></g><g class="point"><path d="M-98.89,168.8V162.8H-88.2V168.8Z" style="vector-effect: none; opacity: 1; stroke-width: 0.5px; fill: rgb(173, 20, 87); fill-opacity: 1; stroke: rgb(255, 255, 255); stroke-opacity: 1;"/></g><g class="point"><path d="M-72.16,149.81V144.01H-61.47V149.81Z" style="vector-effect: none; opacity: 1; stroke-width: 0.5px; fill: rgb(173, 20, 87); fill-opacity: 1; stroke: rgb(255, 255, 255); stroke-opacity: 1;"/></g><g class="point"><path d="M-45.44,159.8V156.03H-34.75V159.8Z" style="vector-effect: none; opacity: 1; stroke-width: 0.5px; fill: rgb(173, 20, 87); fill-opacity: 1; stroke: rgb(255, 255, 255); stroke-opacity: 1;"/></g><g class="point"><path d="M-18.71,149.44V142.07H-8.02V149.44Z" style="vector-effect: none; opacity: 1; stroke-width: 0.5px; fill: rgb(173, 20, 87); fill-opacity: 1; stroke: rgb(255, 255, 255); stroke-opacity: 1;"/></g><g class="point"><path d="M8.02,158.07V144.44H18.71V158.07Z" style="vector-effect: none; opacity: 1; stroke-width: 0.5px; fill: rgb(173, 20, 87); fill-opacity: 1; stroke: rgb(255, 255, 255); stroke-opacity: 1;"/></g><g class="point"><path d="M34.75,141.91V119.94H45.44V141.91Z" style="vector-effect: none; opacity: 1; stroke-width: 0.5px; fill: rgb(173, 20, 87); fill-opacity: 1; stroke: rgb(255, 255, 255); stroke-opacity: 1;"/></g><g class="point"><path d="M88.2,151.29V131.39H98.89V151.29Z" style="vector-effect: none; opacity: 1; stroke-width: 0.5px; fill: rgb(173, 20, 87); fill-opacity: 1; stroke: rgb(255, 255, 255); stroke-opacity: 1;"/></g><g class="point"><path d="M114.93,137.08V115.75H125.62V137.08Z" style="vector-effect: none; opacity: 1; stroke-width: 0.5px; fill: rgb(173, 20, 87); fill-opacity: 1; stroke: rgb(255, 255, 255); stroke-opacity: 1;"/></g><g class="point"><path d="M141.65,93.72V78.83H152.35V93.72Z" style="vector-effect: none; opacity: 1; stroke-width: 0.5px; fill: rgb(173, 20, 87); fill-opacity: 1; stroke: rgb(255, 255, 255); stroke-opacity: 1;"/></g><g class="point"><path d="M168.38,116.06V104.76H179.07V116.06Z" style="vector-effect: none; opacity: 1; stroke-width: 0.5px; fill: rgb(173, 20, 87); fill-opacity: 1; stroke: rgb(255, 255, 255); stroke-opacity: 1;"/></g><g class="point"><path d="M195.11,150.86V148.19H205.8V150.86Z" style="vector-effect: none; opacity: 1; stroke-width: 0.5px; fill: rgb(173, 20, 87); fill-opacity: 1; stroke: rgb(255, 255, 255); stroke-opacity: 1;"/></g><g class="point"><path d="M221.84,134.73V127.07H232.53V134.73Z" style="vector-effect: none; opacity: 1; stroke-width: 0.5px; fill: rgb(173, 20, 87); fill-opacity: 1; stroke: rgb(255, 255, 255); stroke-opacity: 1;"/></g><g class="point"><path d="M248.56,110.22V105.65H259.25V110.22Z" style="vector-effect: none; opacity: 1; stroke-width: 0.5px; fill: rgb(173, 20, 87); fill-opacity: 1; stroke: rgb(255, 255, 255); stroke-opacity: 1;"/></g></g></g><g class="trace bars" shape-rendering="crispEdges" style="opacity: 1;"><g class="points"><g class="point"><path d="M-259.25,163.76V157.33H-248.56V163.76Z" style="vector-effect: none; opacity: 1; stroke-width: 0.5px; fill: rgb(117, 117, 117); fill-opacity: 1; stroke: rgb(255, 255, 255); stroke-opacity: 1;"/></g><g class="point"><path d="M-232.53,175.76V169.42H-221.84V175.76Z" style="vector-effect: none; opacity: 1; stroke-width: 0.5px; fill: rgb(117, 117, 117); fill-opacity: 1; stroke: rgb(255, 255, 255); stroke-opacity: 1;"/></g><g class="point"><path d="M-205.8,180.58V177.69H-195.11V180.58Z" style="vector-effect: none; opacity: 1; stroke-width: 0.5px; fill: rgb(117, 117, 117); fill-opacity: 1; stroke: rgb(255, 255, 255); stroke-opacity: 1;"/></g><g class="point"><path d="M-179.07,181.39V178.52H-168.38V181.39Z" style="vector-effect: none; opacity: 1; stroke-width: 0.5px; fill: rgb(117, 117, 117); fill-opacity: 1; stroke: rgb(255, 255, 255); stroke-opacity: 1;"/></g><g class="point"><path d="M-152.35,158.99V157.1H-141.65V158.99Z" style="vector-effect: none; opacity: 1; stroke-width: 0.5px; fill: rgb(117, 117, 117); fill-opacity: 1; stroke: rgb(255, 255, 255); stroke-opacity: 1;"/></g><g class="point"><path d="M-125.62,155.77V152.11H-114.93V155.77Z" style="vector-effect: none; opacity: 1; stroke-width: 0.5px; fill: rgb(117, 117, 117); fill-opacity: 1; stroke: rgb(255, 255, 255); stroke-opacity: 1;"/></g><g class="point"><path d="M-98.89,162.8V158.2H-88.2V162.8Z" style="vector-effect: none; opacity: 1; stroke-width: 0.5px; fill: rgb(117, 117, 117); fill-opacity: 1; stroke: rgb(255, 255, 255); stroke-opacity: 1;"/></g><g class="point"><path d="M-72.16,144.01V141.22H-61.47V144.01Z" style="vector-effect: none; opacity: 1; stroke-width: 0.5px; fill: rgb(117, 117, 117); fill-opacity: 1; stroke: rgb(255, 255, 255); stroke-opacity: 1;"/></g><g class="point"><path d="M-45.44,156.03V147.65H-34.75V156.03Z" style="vector-effect: none; opacity: 1; stroke-width: 0.5px; fill: rgb(117, 117, 117); fill-opacity: 1; stroke: rgb(255, 255, 255); stroke-opacity: 1;"/></g><g class="point"><path d="M-18.71,142.07V136.1H-8.02V142.07Z" style="vector-effect: none; opacity: 1; stroke-width: 0.5px; fill: rgb(117, 117, 117); fill-opacity: 1; stroke: rgb(255, 255, 255); stroke-opacity: 1;"/></g><g class="point"><path d="M8.02,144.44V140.15H18.71V144.44Z" style="vector-effect: none; opacity: 1; stroke-width: 0.5px; fill: rgb(117, 117, 117); fill-opacity: 1; stroke: rgb(255, 255, 255); stroke-opacity: 1;"/></g><g class="point"><path d="M34.75,119.94V94.89H45.44V119.94Z" style="vector-effect: none; opacity: 1; stroke-width: 0.5px; fill: rgb(117, 117, 117); fill-opacity: 1; stroke: rgb(255, 255, 255); stroke-opacity: 1;"/></g><g class="point"><path d="M88.2,131.39V102.9H98.89V131.39Z" style="vector-effect: none; opacity: 1; stroke-width: 0.5px; fill: rgb(117, 117, 117); fill-opacity: 1; stroke: rgb(255, 255, 255); stroke-opacity: 1;"/></g><g class="point"><path d="M114.93,115.75V80.18H125.62V115.75Z" style="vector-effect: none; opacity: 1; stroke-width: 0.5px; fill: rgb(117, 117, 117); fill-opacity: 1; stroke: rgb(255, 255, 255); stroke-opacity: 1;"/></g><g class="point"><path d="M141.65,78.83V47.11H152.35V78.83Z" style="vector-effect: none; opacity: 1; stroke-width: 0.5px; fill: rgb(117, 117, 117); fill-opacity: 1; stroke: rgb(255, 255, 255); stroke-opacity: 1;"/></g><g class="point"><path d="M168.38,104.76V71.63H179.07V104.76Z" style="vector-effect: none; opacity: 1; stroke-width: 0.5px; fill: rgb(117, 117, 117); fill-opacity: 1; stroke: rgb(255, 255, 255); stroke-opacity: 1;"/></g><g class="point"><path d="M195.11,148.19V131.51H205.8V148.19Z" style="vector-effect: none; opacity: 1; stroke-width: 0.5px; fill: rgb(117, 117, 117); fill-opacity: 1; stroke: rgb(255, 255, 255); stroke-opacity: 1;"/></g><g class="point"><path d="M221.84,127.07V104.7H232.53V127.07Z" style="vector-effect: none; opacity: 1; stroke-width: 0.5px; fill: rgb(117, 117, 117); fill-opacity: 1; stroke: rgb(255, 255, 255); stroke-opacity: 1;"/></g><g class="point"><path d="M248.56,105.65V72.42H259.25V105.65Z" style="vector-effect: none; opacity: 1; stroke-width: 0.5px; fill: rgb(117, 117, 117); fill-opacity: 1; stroke: rgb(255, 255, 255); stroke-opacity: 1;"/></g></g></g><g class="trace bars" shape-rendering="crispEdges" style="opacity: 1;"><g class="points"><g class="point"><path d="M53.45,198V177.07H80.18V198Z" style="vector-effect: none; opacity: 1; stroke-width: 0.5px; fill: rgb(74, 20, 140); fill-opacity: 1; stroke: rgb(255, 255, 255); stroke-opacity: 1;"/></g><g class="point"><path d="M267.27,198V163.91H294V198Z" style="vector-effect: none; opacity: 1; stroke-width: 0.5px; fill: rgb(74, 20, 140); fill-opacity: 1; stroke: rgb(255, 255, 255); stroke-opacity: 1;"/></g></g></g><g class="trace bars" shape-rendering="crispEdges" style="opacity: 1;"><g class="points"><g class="point"><path d="M53.45,177.07V150.74H80.18V177.07Z" style="vector-effect: none; opacity: 1; stroke-width: 0.5px; fill: rgb(0, 137, 123); fill-opacity: 1; stroke: rgb(255, 255, 255); stroke-opacity: 1;"/></g><g class="point"><path d="M267.27,163.91V91.06H294V163.91Z" style="vector-effect: none; opacity: 1; stroke-width: 0.5px; fill: rgb(0, 137, 123); fill-opacity: 1; stroke: rgb(255, 255, 255); stroke-opacity: 1;"/></g></g></g><g class="trace bars" shape-rendering="crispEdges" style="opacity: 1;"><g class="points"><g class="point"><path d="M53.45,150.74V135.81H80.18V150.74Z" style="vector-effect: none; opacity: 1; stroke-width: 0.5px; fill: rgb(230, 81, 0); fill-opacity: 1; stroke: rgb(255, 255, 255); stroke-opacity: 1;"/></g><g class="point"><path d="M267.27,91.06V62.41H294V91.06Z" style="vector-effect: none; opacity: 1; stroke-width: 0.5px; fill: rgb(230, 81, 0); fill-opacity: 1; stroke: rgb(255, 255, 255); stroke-opacity: 1;"/></g></g></g><g class="trace bars" shape-rendering="crispEdges" style="opacity: 1;"><g class="points"><g class="point"><path d="M53.45,135.81V106.89H80.18V135.81Z" style="vector-effect: none; opacity: 1; stroke-width: 0.5px; fill: rgb(173, 20, 87); fill-opacity: 1; stroke: rgb(255, 255, 255); stroke-opacity: 1;"/></g><g class="point"><path d="M267.27,62.41V52.25H294V62.41Z" style="vector-effect: none; opacity: 1; stroke-width: 0.5px; fill: rgb(173, 20, 87); fill-opacity: 1; stroke: rgb(255, 255, 255); stroke-opacity: 1;"/></g></g></g><g class="trace bars" shape-rendering="crispEdges" style="opacity: 1;"><g class="points"><g class="point"><path d="M53.45,106.89V72.25H80.18V106.89Z" style="vector-effect: none; opacity: 1; stroke-width: 0.5px; fill: rgb(117, 117, 117); fill-opacity: 1; stroke: rgb(255, 255, 255); stroke-opacity: 1;"/></g><g class="point"><path d="M267.27,52.25V19.22H294V52.25Z" style="vector-effect: none; opacity: 1; stroke-width: 0.5px; fill: rgb(117, 117, 117); fill-opacity: 1; stroke: rgb(255, 255, 255); stroke-opacity: 1;"/></g></g></g></g></g><g class="xy2" transform="translate(50,140)" clip-path="url(#clipafbba3xy2plot)"><g class="scatterlayer mlayer"><g class="trace scatter traceab7e03" style="stroke-miterlimit: 2; opacity: 1;"><g class="fills"/><g class="errorbars"/><g class="lines"><path class="js-line" d="M13.36,146.58L40.09,126.24L66.82,180.45L93.55,184.6L120.27,173.5L147,155.46L173.73,198L200.45,143.27L227.18,83.11L253.91,25.83L280.64,67.2" style="vector-effect: none; fill: none; stroke: rgb(30, 136, 229); stroke-opacity: 1; stroke-width: 3.5px; opacity: 1;"/></g><g class="points"><path class="point" transform="translate(13.36,146.58)" d="M3.5,0A3.5,3.5 0 1,1 0,-3.5A3.5,3.5 0 0,1 3.5,0Z" style="opacity: 1; stroke-width: 0px; fill: rgb(30, 136, 229); fill-opacity: 1;"/><path class="point" transform="translate(40.09,126.24)" d="M3.5,0A3.5,3.5 0 1,1 0,-3.5A3.5,3.5 0 0,1 3.5,0Z" style="opacity: 1; stroke-width: 0px; fill: rgb(30, 136, 229); fill-opacity: 1;"/><path class="point" transform="translate(66.82,180.45)" d="M3.5,0A3.5,3.5 0 1,1 0,-3.5A3.5,3.5 0 0,1 3.5,0Z" style="opacity: 1; stroke-width: 0px; fill: rgb(30, 136, 229); fill-opacity: 1;"/><path class="point" transform="translate(93.55,184.6)" d="M3.5,0A3.5,3.5 0 1,1 0,-3.5A3.5,3.5 0 0,1 3.5,0Z" style="opacity: 1; stroke-width: 0px; fill: rgb(30, 136, 229); fill-opacity: 1;"/><path class="point" transform="translate(120.27,173.5)" d="M3.5,0A3.5,3.5 0 1,1 0,-3.5A3.5,3.5 0 0,1 3.5,0Z" style="opacity: 1; stroke-width: 0px; fill: rgb(30, 136, 229); fill-opacity: 1;"/><path class="point" transform="translate(147,155.46)" d="M3.5,0A3.5,3.5 0 1,1 0,-3.5A3.5,3.5 0 0,1 3.5,0Z" style="opacity: 1; stroke-width: 0px; fill: rgb(30, 136, 229); fill-opacity: 1;"/><path class="point" transform="translate(173.73,198)" d="M3.5,0A3.5,3.5 0 1,1 0,-3.5A3.5,3.5 0 0,1 3.5,0Z" style="opacity: 1; stroke-width: 0px; fill: rgb(30, 136, 229); fill-opacity: 1;"/><path class="point" transform="translate(200.45,143.27)" d="M3.5,0A3.5,3.5 0 1,1 0,-3.5A3.5,3.5 0 0,1 3.5,0Z" style="opacity: 1; stroke-width: 0px; fill: rgb(30, 136, 229); fill-opacity: 1;"/><path class="point" transform="translate(227.18,83.11)" d="M3.5,0A3.5,3.5 0 1,1 0,-3.5A3.5,3.5 0 0,1 3.5,0Z" style="opacity: 1; stroke-width: 0px; fill: rgb(30, 136, 229); fill-opacity: 1;"/><path class="point" transform="translate(253.91,25.83)" d="M3.5,0A3.5,3.5 0 1,1 0,-3.5A3.5,3.5 0 0,1 3.5,0Z" style="opacity: 1; stroke-width: 0px; fill: rgb(30, 136, 229); fill-opacity: 1;"/><path class="point" transform="translate(280.64,67.2)" d="M3.5,0A3.5,3.5 0 1,1 0,-3.5A3.5,3.5 0 0,1 3.5,0Z" style="opacity: 1; stroke-width: 0px; fill: rgb(30, 136, 229); fill-opacity: 1;"/></g><g class="text"/></g></g></g></g><g class="zerolinelayer-above"/><path class="xlines-above crisp" d="M49,338.5H345" style="fill: none; stroke-width: 1px; stroke: rgb(0, 0, 0); stroke-opacity: 1;"/><path class="ylines-above crisp" d="M49.5,140V338" style="fill: none; stroke-width: 1px; stroke: rgb(0, 0, 0); stroke-opacity: 1;"/><g class="overlines-above"><path class="xy2-x crisp" d="M0,0" style="fill: none;"/><path class="xy2-y crisp" d="M344.5,140V338" style="fill: none; stroke-width: 1px; stroke: rgb(30, 136, 229); stroke-opacity: 1;"/></g><g class="xaxislayer-above"><path class="xtick ticks crisp" d="M0,338v-5" transform="translate(63.36,0)" style="stroke: rgb(68, 68, 68); stroke-opacity: 1; stroke-width: 1px;"/><path class="xtick ticks crisp" d="M0,338v-5" transform="translate(116.82,0)" style="stroke: rgb(68, 68, 68); stroke-opacity: 1; stroke-width: 1px;"/><path class="xtick ticks crisp" d="M0,338v-5" transform="translate(170.26999999999998,0)" style="stroke: rgb(68, 68, 68); stroke-opacity: 1; stroke-width: 1px;"/><path class="xtick ticks crisp" d="M0,338v-5" transform="translate(223.73,0)" style="stroke: rgb(68, 68, 68); stroke-opacity: 1; stroke-width: 1px;"/><path class="xtick ticks crisp" d="M0,338v-5" transform="translate(277.18,0)" style="stroke: rgb(68, 68, 68); stroke-opacity: 1; stroke-width: 1px;"/><path class="xtick ticks crisp" d="M0,338v-5" transform="translate(330.64,0)" style="stroke: rgb(68, 68, 68); stroke-opacity: 1; stroke-width: 1px;"/><g class="xtick"><text text-anchor="middle" x="0" y="355.8" transform="translate(63.36,0)" style="font-family: 'Open Sans', verdana, arial, sans-serif; font-size: 14px; fill: rgb(36, 36, 36); fill-opacity: 1; white-space: pre;"><tspan style="font-size:9px">2015</tspan></text></g><g class="xtick"><text text-anchor="middle" x="0" y="355.8" style="font-family: 'Open Sans', verdana, arial, sans-serif; font-size: 14px; fill: rgb(36, 36, 36); fill-opacity: 1; white-space: pre;" transform="translate(116.82,0)">2017</text></g><g class="xtick"><text text-anchor="middle" x="0" y="355.8" style="font-family: 'Open Sans', verdana, arial, sans-serif; font-size: 14px; fill: rgb(36, 36, 36); fill-opacity: 1; white-space: pre;" transform="translate(170.26999999999998,0)"><tspan style="font-size:9px">2019</tspan></text></g><g class="xtick"><text text-anchor="middle" x="0" y="355.8" style="font-family: 'Open Sans', verdana, arial, sans-serif; font-size: 14px; fill: rgb(36, 36, 36); fill-opacity: 1; white-space: pre;" transform="translate(223.73,0)"><tspan style="font-size:9px">2021</tspan></text></g><g class="xtick"><text text-anchor="middle" x="0" y="355.8" style="font-family: 'Open Sans', verdana, arial, sans-serif; font-size: 14px; fill: rgb(36, 36, 36); fill-opacity: 1; white-space: pre;" transform="translate(277.18,0)"><tspan style="font-size:9px">2023</tspan></text></g><g class="xtick"><text text-anchor="middle" x="0" y="355.8" style="font-family: 'Open Sans', verdana, arial, sans-serif; font-size: 14px; fill: rgb(36, 36, 36); fill-opacity: 1; white-space: pre;" transform="translate(330.64,0)">2025</text></g></g><g class="yaxislayer-above"><path class="ytick ticks crisp" d="M50,0h5" transform="translate(0,299.25)" style="stroke: rgb(68, 68, 68); stroke-opacity: 1; stroke-width: 1px;"/><path class="ytick ticks crisp" d="M50,0h5" transform="translate(0,260.5)" style="stroke: rgb(68, 68, 68); stroke-opacity: 1; stroke-width: 1px;"/><path class="ytick ticks crisp" d="M50,0h5" transform="translate(0,221.76)" style="stroke: rgb(68, 68, 68); stroke-opacity: 1; stroke-width: 1px;"/><path class="ytick ticks crisp" d="M50,0h5" transform="translate(0,183.01)" style="stroke: rgb(68, 68, 68); stroke-opacity: 1; stroke-width: 1px;"/><path class="ytick ticks crisp" d="M50,0h5" transform="translate(0,144.26)" style="stroke: rgb(68, 68, 68); stroke-opacity: 1; stroke-width: 1px;"/><g class="ytick"><text text-anchor="end" x="46.2" y="4.8999999999999995" transform="translate(0,338)" style="font-family: 'Open Sans', verdana, arial, sans-serif; font-size: 14px; fill: rgb(36, 36, 36); fill-opacity: 1; white-space: pre;">0</text></g><g class="ytick"><text text-anchor="end" x="46.2" y="4.8999999999999995" style="font-family: 'Open Sans', verdana, arial, sans-serif; font-size: 14px; fill: rgb(36, 36, 36); fill-opacity: 1; white-space: pre;" transform="translate(0,299.25)">50</text></g><g class="ytick"><text text-anchor="end" x="46.2" y="4.8999999999999995" style="font-family: 'Open Sans', verdana, arial, sans-serif; font-size: 14px; fill: rgb(36, 36, 36); fill-opacity: 1; white-space: pre;" transform="translate(0,260.5)">100</text></g><g class="ytick"><text text-anchor="end" x="46.2" y="4.8999999999999995" style="font-family: 'Open Sans', verdana, arial, sans-serif; font-size: 14px; fill: rgb(36, 36, 36); fill-opacity: 1; white-space: pre;" transform="translate(0,221.76)">150</text></g><g class="ytick"><text text-anchor="end" x="46.2" y="4.8999999999999995" style="font-family: 'Open Sans', verdana, arial, sans-serif; font-size: 14px; fill: rgb(36, 36, 36); fill-opacity: 1; white-space: pre;" transform="translate(0,183.01)">200</text></g><g class="ytick"><text text-anchor="end" x="46.2" y="4.8999999999999995" style="font-family: 'Open Sans', verdana, arial, sans-serif; font-size: 14px; fill: rgb(36, 36, 36); fill-opacity: 1; white-space: pre;" transform="translate(0,144.26)">250</text></g></g><g class="overaxes-above"><g class="xy2-x"/><g class="xy2-y"><path class="y2tick ticks crisp" d="M344,0h-5" transform="translate(0,283.85)" style="stroke: rgb(30, 136, 229); stroke-opacity: 1; stroke-width: 1px;"/><path class="y2tick ticks crisp" d="M344,0h-5" transform="translate(0,229.7)" style="stroke: rgb(30, 136, 229); stroke-opacity: 1; stroke-width: 1px;"/><path class="y2tick ticks crisp" d="M344,0h-5" transform="translate(0,175.55)" style="stroke: rgb(30, 136, 229); stroke-opacity: 1; stroke-width: 1px;"/><g class="y2tick"><text text-anchor="start" x="347.8" y="4.8999999999999995" transform="translate(0,338)" style="font-family: 'Open Sans', verdana, arial, sans-serif; font-size: 14px; fill: rgb(30, 136, 229); fill-opacity: 1; white-space: pre;">0</text></g><g class="y2tick"><text text-anchor="start" x="347.8" y="4.8999999999999995" style="font-family: 'Open Sans', verdana, arial, sans-serif; font-size: 14px; fill: rgb(30, 136, 229); fill-opacity: 1; white-space: pre;" transform="translate(0,283.85)">5</text></g><g class="y2tick"><text text-anchor="start" x="347.8" y="4.8999999999999995" style="font-family: 'Open Sans', verdana, arial, sans-serif; font-size: 14px; fill: rgb(30, 136, 229); fill-opacity: 1; white-space: pre;" transform="translate(0,229.7)">10</text></g><g class="y2tick"><text text-anchor="start" x="347.8" y="4.8999999999999995" style="font-family: 'Open Sans', verdana, arial, sans-serif; font-size: 14px; fill: rgb(30, 136, 229); fill-opacity: 1; white-space: pre;" transform="translate(0,175.55)">15</text></g></g></g></g><g class="subplot xy2"/></g><g class="polarlayer"/><g class="smithlayer"/><g class="ternarylayer"/><g class="geolayer"/><g class="funnelarealayer"/><g class="pielayer"/><g class="iciclelayer"/><g class="treemaplayer"/><g class="sunburstlayer"/><g class="glimages"/><defs id="topdefs-afbba3"><g class="clips"/><clipPath id="legendafbba3"><rect width="157" height="124" x="0" y="0"/></clipPath></defs><g class="layer-above"><g class="imagelayer"/><g class="shapelayer"/></g><g class="infolayer"><g class="legend" pointer-events="all" transform="translate(118.5,12.039999999999992)"><rect class="bg" shape-rendering="crispEdges" width="157" height="124" x="0" y="0" style="stroke: rgb(68, 68, 68); stroke-opacity: 1; fill: rgb(255, 255, 255); fill-opacity: 1; stroke-width: 0px;"/><g class="scrollbox" transform="" clip-path="url(#legendafbba3)"><g class="groups"><g class="traces" transform="translate(0,14.5)" style="opacity: 1;"><text class="legendtext" text-anchor="start" x="40" y="4.680000000000001" style="font-family: 'Open Sans', verdana, arial, sans-serif; font-size: 12px; fill: rgb(36, 36, 36); fill-opacity: 1; white-space: pre;">AA-A</text><g class="layers" style="opacity: 1;"><g class="legendfill"/><g class="legendlines"/><g class="legendsymbols"><g class="legendpoints"><path class="legendundefined" d="M6,6H-6V-6H6Z" transform="translate(20,0)" style="stroke-width: 0.5px; fill: rgb(74, 20, 140); fill-opacity: 1; stroke: rgb(255, 255, 255); stroke-opacity: 1;"/></g></g></g><rect class="legendtoggle" x="0" y="-9.5" width="72.5625" height="19" style="fill: rgb(0, 0, 0); fill-opacity: 0;"/></g><g class="traces" transform="translate(0,33.5)" style="opacity: 1;"><text class="legendtext" text-anchor="start" x="40" y="4.680000000000001" style="font-family: 'Open Sans', verdana, arial, sans-serif; font-size: 12px; fill: rgb(36, 36, 36); fill-opacity: 1; white-space: pre;">BBB</text><g class="layers" style="opacity: 1;"><g class="legendfill"/><g class="legendlines"/><g class="legendsymbols"><g class="legendpoints"><path class="legendundefined" d="M6,6H-6V-6H6Z" transform="translate(20,0)" style="stroke-width: 0.5px; fill: rgb(0, 137, 123); fill-opacity: 1; stroke: rgb(255, 255, 255); stroke-opacity: 1;"/></g></g></g><rect class="legendtoggle" x="0" y="-9.5" width="67.1875" height="19" style="fill: rgb(0, 0, 0); fill-opacity: 0;"/></g><g class="traces" transform="translate(0,52.5)" style="opacity: 1;"><text class="legendtext" text-anchor="start" x="40" y="4.680000000000001" style="font-family: 'Open Sans', verdana, arial, sans-serif; font-size: 12px; fill: rgb(36, 36, 36); fill-opacity: 1; white-space: pre;">BB</text><g class="layers" style="opacity: 1;"><g class="legendfill"/><g class="legendlines"/><g class="legendsymbols"><g class="legendpoints"><path class="legendundefined" d="M6,6H-6V-6H6Z" transform="translate(20,0)" style="stroke-width: 0.5px; fill: rgb(230, 81, 0); fill-opacity: 1; stroke: rgb(255, 255, 255); stroke-opacity: 1;"/></g></g></g><rect class="legendtoggle" x="0" y="-9.5" width="58.953125" height="19" style="fill: rgb(0, 0, 0); fill-opacity: 0;"/></g><g class="traces" transform="translate(0,71.5)" style="opacity: 1;"><text class="legendtext" text-anchor="start" x="40" y="4.680000000000001" style="font-family: 'Open Sans', verdana, arial, sans-serif; font-size: 12px; fill: rgb(36, 36, 36); fill-opacity: 1; white-space: pre;">B</text><g class="layers" style="opacity: 1;"><g class="legendfill"/><g class="legendlines"/><g class="legendsymbols"><g class="legendpoints"><path class="legendundefined" d="M6,6H-6V-6H6Z" transform="translate(20,0)" style="stroke-width: 0.5px; fill: rgb(173, 20, 87); fill-opacity: 1; stroke: rgb(255, 255, 255); stroke-opacity: 1;"/></g></g></g><rect class="legendtoggle" x="0" y="-9.5" width="50.734375" height="19" style="fill: rgb(0, 0, 0); fill-opacity: 0;"/></g><g class="traces" transform="translate(0,90.5)" style="opacity: 1;"><text class="legendtext" text-anchor="start" x="40" y="4.680000000000001" style="font-family: 'Open Sans', verdana, arial, sans-serif; font-size: 12px; fill: rgb(36, 36, 36); fill-opacity: 1; white-space: pre;">NR</text><g class="layers" style="opacity: 1;"><g class="legendfill"/><g class="legendlines"/><g class="legendsymbols"><g class="legendpoints"><path class="legendundefined" d="M6,6H-6V-6H6Z" transform="translate(20,0)" style="stroke-width: 0.5px; fill: rgb(117, 117, 117); fill-opacity: 1; stroke: rgb(255, 255, 255); stroke-opacity: 1;"/></g></g></g><rect class="legendtoggle" x="0" y="-9.5" width="59.875" height="19" style="fill: rgb(0, 0, 0); fill-opacity: 0;"/></g><g class="traces" transform="translate(0,109.5)" style="opacity: 1;"><text class="legendtext" text-anchor="start" x="40" y="4.680000000000001" style="font-family: 'Open Sans', verdana, arial, sans-serif; font-size: 12px; fill: rgb(36, 36, 36); fill-opacity: 1; white-space: pre;">Poland (right axis)</text><g class="layers" style="opacity: 1;"><g class="legendfill"/><g class="legendlines"><path class="js-line" d="M5,0h30" style="fill: none; stroke: rgb(30, 136, 229); stroke-opacity: 1; stroke-width: 3.5px;"/></g><g class="legendsymbols"><g class="legendpoints"><path class="scatterpts" transform="translate(20,0)" d="M3.5,0A3.5,3.5 0 1,1 0,-3.5A3.5,3.5 0 0,1 3.5,0Z" style="opacity: 1; stroke-width: 0px; fill: rgb(30, 136, 229); fill-opacity: 1;"/></g></g></g><rect class="legendtoggle" x="0" y="-9.5" width="154" height="19" style="fill: rgb(0, 0, 0); fill-opacity: 0;"/></g></g></g><rect class="scrollbar" rx="20" ry="3" width="0" height="0" x="0" y="0" style="fill: rgb(128, 139, 164); fill-opacity: 1;"/></g><g class="g-gtitle"/><g class="g-xtitle"/><g class="g-ytitle"/><g class="g-y2title"/></g></svg>