<svg class="main-svg" xmlns="http://www.w3.org/2000/svg" xmlns:xlink="http://www.w3.org/1999/xlink" width="756" height="756" style="" viewBox="0 0 378 378"><rect x="0" y="0" width="378" height="378" style="fill: rgb(255, 255, 255); fill-opacity: 1;"/><defs id="defs-41da56"><g class="clips"><clipPath id="clip41da56xyplot" class="plotclip"><rect width="312" height="257"/></clipPath><clipPath class="axesclip" id="clip41da56x"><rect x="46" y="0" width="312" height="378"/></clipPath><clipPath class="axesclip" id="clip41da56y"><rect x="0" y="81" width="378" height="257"/></clipPath><clipPath class="axesclip" id="clip41da56xy"><rect x="46" y="81" width="312" height="257"/></clipPath></g><g class="gradients"/><g class="patterns"/></defs><g class="bglayer"/><g class="layer-below"><g class="imagelayer"/><g class="shapelayer"><g class="shape-group" data-index="0" clip-path="url(#clip41da56x)"><path data-index="0" fill-rule="evenodd" d="M307.41,338H358V81H307.41Z" style="opacity: 0.3; stroke: rgb(0, 0, 0); stroke-opacity: 0; fill: rgb(128, 128, 128); fill-opacity: 0.2; stroke-width: 0px;"/></g></g></g><g class="cartesianlayer"><g class="subplot xy"><g class="layer-subplot"><g class="shapelayer"/><g class="imagelayer"/></g><g class="minor-gridlayer"><g class="x"/><g class="y"/></g><g class="gridlayer"><g class="x"><path class="xgrid crisp" transform="translate(92.38,0)" d="M0,81v257" style="stroke: rgb(0, 0, 0); stroke-opacity: 0.15; stroke-width: 1px;"/><path class="xgrid crisp" transform="translate(176.7,0)" d="M0,81v257" style="stroke: rgb(0, 0, 0); stroke-opacity: 0.15; stroke-width: 1px;"/><path class="xgrid crisp" transform="translate(261.03,0)" d="M0,81v257" style="stroke: rgb(0, 0, 0); stroke-opacity: 0.15; stroke-width: 1px;"/><path class="xgrid crisp" transform="translate(345.35,0)" d="M0,81v257" style="stroke: rgb(0, 0, 0); stroke-opacity: 0.15; stroke-width: 1px;"/></g><g class="y"><path class="ygrid crisp" transform="translate(0,318.21000000000004)" d="M46,0h312" style="stroke: rgb(0, 0, 0); stroke-opacity: 0.15; stroke-width: 1px;"/><path class="ygrid crisp" transform="translate(0,269)" d="M46,0h312" style="stroke: rgb(0, 0, 0); stroke-opacity: 0.15; stroke-width: 1px;"/><path class="ygrid crisp" transform="translate(0,170.57)" d="M46,0h312" style="stroke: rgb(0, 0, 0); stroke-opacity: 0.15; stroke-width: 1px;"/><path class="ygrid crisp" transform="translate(0,121.36)" d="M46,0h312" style="stroke: rgb(0, 0, 0); stroke-opacity: 0.15; stroke-width: 1px;"/></g></g><g class="zerolinelayer"><path class="yzl zl crisp" transform="translate(0,219.79)" d="M46,0h312" style="stroke: rgb(0, 0, 0); stroke-opacity: 1; stroke-width: 1px;"/></g><g class="layer-between"><g class="shapelayer"/><g class="imagelayer"/></g><path class="xlines-below"/><path class="ylines-below"/><g class="overlines-below"/><g class="xaxislayer-below"/><g class="yaxislayer-below"/><g class="overaxes-below"/><g class="overplot"><g class="xy" transform="translate(46,81)" clip-path="url(#clip41da56xyplot)"><g class="scatterlayer mlayer"><g class="trace scatter trace86ca57" style="stroke-miterlimit: 2; opacity: 1;"><g class="fills"><g><path class="js-fill" d="M4.22,111.02L12.65,102.39L21.08,114.38L29.51,107.57L37.95,110.65L46.38,128L54.81,111.09L63.24,116.47L71.68,114.79L80.11,129.11L88.54,124.57L96.97,135.1L105.41,136.22L113.84,115.37L122.27,66.98L130.7,113.15L139.14,113.07L147.57,95.14L156,103.81L164.43,109.19L172.86,125.09L181.3,129.19L189.73,138.59L198.16,138.61L206.59,137.76L215.03,53.17L223.46,160.58L231.89,159.81L240.32,139.1L248.76,135.74L257.19,136.25L265.62,137.91L274.05,138.44L282.49,139.16L290.92,137.33L299.35,135.98L307.78,136.67L307.78,149.71L299.35,150.06L290.92,150.97L282.49,153.92L274.05,153.14L265.62,158.98L257.19,170.04L248.76,173.98L240.32,209.67L231.89,233.63L223.46,242.95L215.03,137.64L206.59,160.38L198.16,163.72L189.73,161.84L181.3,150.59L172.86,165.34L164.43,154.02L156,144.41L147.57,144.59L139.14,153.06L130.7,152.79L122.27,131.91L113.84,150.16L105.41,161.04L96.97,159.63L88.54,157.39L80.11,157.26L71.68,153.86L63.24,151.69L54.81,151.24L46.38,160.71L37.95,146.34L29.51,151.56L21.08,149.24L12.65,144.27L4.22,144.88Z" style="fill: rgb(106, 27, 154); fill-opacity: 0.1; stroke-width: 0;"/></g></g><g class="errorbars"/><g class="lines"><path class="js-line" d="M4.22,111.02L12.65,102.39L21.08,114.38L29.51,107.57L37.95,110.65L46.38,128L54.81,111.09L63.24,116.47L71.68,114.79L80.11,129.11L88.54,124.57L96.97,135.1L105.41,136.22L113.84,115.37L122.27,66.98L130.7,113.15L139.14,113.07L147.57,95.14L156,103.81L164.43,109.19L172.86,125.09L181.3,129.19L189.73,138.59L198.16,138.61L206.59,137.76L215.03,53.17L223.46,160.58L231.89,159.81L240.32,139.1L248.76,135.74L257.19,136.25L265.62,137.91L274.05,138.44L282.49,139.16L290.92,137.33L299.35,135.98L307.78,136.67L307.78,149.71L299.35,150.06L290.92,150.97L282.49,153.92L274.05,153.14L265.62,158.98L257.19,170.04L248.76,173.98L240.32,209.67L231.89,233.63L223.46,242.95L215.03,137.64L206.59,160.38L198.16,163.72L189.73,161.84L181.3,150.59L172.86,165.34L164.43,154.02L156,144.41L147.57,144.59L139.14,153.06L130.7,152.79L122.27,131.91L113.84,150.16L105.41,161.04L96.97,159.63L88.54,157.39L80.11,157.26L71.68,153.86L63.24,151.69L54.81,151.24L46.38,160.71L37.95,146.34L29.51,151.56L21.08,149.24L12.65,144.27L4.22,144.88" style="vector-effect: none; fill: none; stroke: rgb(255, 255, 255); stroke-opacity: 0; stroke-width: 2px; opacity: 1;"/></g><g class="points"/><g class="text"/></g><g class="trace scatter traceae84a4" style="stroke-miterlimit: 2; opacity: 1;"><g class="fills"><g><path class="js-fill" d="M4.22,118.84L12.65,117.09L21.08,120.96L29.51,121.37L37.95,123.93L46.38,135.01L54.81,128.21L63.24,123.77L71.68,125.41L80.11,137.61L88.54,136.77L96.97,140.52L105.41,141.1L113.84,125.04L122.27,92.38L130.7,128.36L139.14,128.06L147.57,120.55L156,124.83L164.43,132.8L172.86,135.07L181.3,137.62L189.73,143.61L206.59,141.38L215.03,80.24L223.46,168.68L231.89,168.61L240.32,147.09L248.76,141.2L257.19,141.62L265.62,142.82L307.78,139.28L307.78,146.29L282.49,151.02L274.05,151.18L257.19,154.09L248.76,159.36L240.32,189.33L231.89,208.83L223.46,214.17L215.03,129.7L206.59,153.76L198.16,155.37L189.73,155.52L181.3,146.58L172.86,148.21L164.43,145.62L156,140.8L147.57,138.54L139.14,143.68L130.7,145.47L122.27,121.17L113.84,141.9L105.41,153.23L96.97,154.58L88.54,149.03L80.11,149.69L71.68,145.95L63.24,143.2L54.81,142L46.38,147.06L37.95,138.31L29.51,140.59L21.08,141.8L12.65,137.51L4.22,137.92Z" style="fill: rgb(106, 27, 154); fill-opacity: 0.25; stroke-width: 0;"/></g></g><g class="errorbars"/><g class="lines"><path class="js-line" d="M4.22,118.84L12.65,117.09L21.08,120.96L29.51,121.37L37.95,123.93L46.38,135.01L54.81,128.21L63.24,123.77L71.68,125.41L80.11,137.61L88.54,136.77L96.97,140.52L105.41,141.1L113.84,125.04L122.27,92.38L130.7,128.36L139.14,128.06L147.57,120.55L156,124.83L164.43,132.8L172.86,135.07L181.3,137.62L189.73,143.61L206.59,141.38L215.03,80.24L223.46,168.68L231.89,168.61L240.32,147.09L248.76,141.2L257.19,141.62L265.62,142.82L307.78,139.28L307.78,146.29L282.49,151.02L274.05,151.18L257.19,154.09L248.76,159.36L240.32,189.33L231.89,208.83L223.46,214.17L215.03,129.7L206.59,153.76L198.16,155.37L189.73,155.52L181.3,146.58L172.86,148.21L164.43,145.62L156,140.8L147.57,138.54L139.14,143.68L130.7,145.47L122.27,121.17L113.84,141.9L105.41,153.23L96.97,154.58L88.54,149.03L80.11,149.69L71.68,145.95L63.24,143.2L54.81,142L46.38,147.06L37.95,138.31L29.51,140.59L21.08,141.8L12.65,137.51L4.22,137.92" style="vector-effect: none; fill: none; stroke: rgb(255, 255, 255); stroke-opacity: 0; stroke-width: 2px; opacity: 1;"/></g><g class="points"/><g class="text"/></g><g class="trace scatter trace82c875" style="stroke-miterlimit: 2; opacity: 1;"><g class="fills"/><g class="errorbars"/><g class="lines"><path class="js-line" d="M4.22,127.79L12.65,125.53L21.08,134.06L29.51,133.65L37.95,131.54L46.38,141.81L54.81,137.48L63.24,133.09L71.68,138.38L80.11,142.43L88.54,140.28L96.97,144.9L105.41,145.64L113.84,135.87L122.27,104.76L130.7,138.83L139.14,138.4L147.57,130.88L156,136.51L172.86,139.53L181.3,142.84L189.73,150.11L198.16,149.66L206.59,148.44L215.03,117.91L223.46,184.77L231.89,184.34L240.32,164.73L248.76,149.35L257.19,150.32L265.62,147.65L274.05,145.77L282.49,145.33L299.35,143.06L307.78,142.61" style="vector-effect: none; fill: none; stroke: rgb(106, 27, 154); stroke-opacity: 1; stroke-width: 3.5px; opacity: 1;"/></g><g class="points"/><g class="text"/></g><g class="trace scatter trace20447b" style="stroke-miterlimit: 2; opacity: 1;"><g class="fills"/><g class="errorbars"/><g class="lines"><path class="js-line" d="M4.22,118.84L12.65,130.05L21.08,119.26L29.51,88.84L37.95,89.59L46.38,127.48L54.81,101.23L63.24,94.95L71.68,108.43L80.11,127.1L88.54,124.53L105.41,127.73L113.84,85.01L122.27,12.85L130.7,152.6L139.14,84.7L147.57,132.41L156,151.97L164.43,169.23L172.86,194.52L181.3,145.03L189.73,153.36L198.16,136.19L206.59,132.15L215.03,57.87L223.46,200.62L231.89,167.2L240.32,238.49L248.76,186.89L257.19,217.75L265.62,163.78L274.05,183.77L282.49,168L299.35,164.48L307.78,158.68" style="vector-effect: none; fill: none; stroke: rgb(0, 137, 123); stroke-opacity: 1; stroke-width: 3.5px; opacity: 1;"/></g><g class="points"/><g class="text"/></g></g></g></g><g class="zerolinelayer-above"/><path class="xlines-above crisp" d="M44.5,338.75H358" style="fill: none; stroke-width: 1.5px; stroke: rgb(0, 0, 0); stroke-opacity: 1;"/><path class="ylines-above crisp" d="M45.25,81V338" style="fill: none; stroke-width: 1.5px; stroke: rgb(0, 0, 0); stroke-opacity: 1;"/><g class="overlines-above"/><g class="xaxislayer-above"><path class="xtick ticks crisp" d="M0,338v-5" transform="translate(92.38,0)" style="stroke: rgb(68, 68, 68); stroke-opacity: 1; stroke-width: 1px;"/><path class="xtick ticks crisp" d="M0,338v-5" transform="translate(176.7,0)" style="stroke: rgb(68, 68, 68); stroke-opacity: 1; stroke-width: 1px;"/><path class="xtick ticks crisp" d="M0,338v-5" transform="translate(261.03,0)" style="stroke: rgb(68, 68, 68); stroke-opacity: 1; stroke-width: 1px;"/><path class="xtick ticks crisp" d="M0,338v-5" transform="translate(345.35,0)" style="stroke: rgb(68, 68, 68); stroke-opacity: 1; stroke-width: 1px;"/><g class="xtick"><text text-anchor="middle" x="0" y="356.3" transform="translate(92.38,0)" style="font-family: 'Open Sans', verdana, arial, sans-serif; font-size: 14px; fill: rgb(36, 36, 36); fill-opacity: 1; white-space: pre;">2000</text></g><g class="xtick"><text text-anchor="middle" x="0" y="356.3" style="font-family: 'Open Sans', verdana, arial, sans-serif; font-size: 14px; fill: rgb(36, 36, 36); fill-opacity: 1; white-space: pre;" transform="translate(176.7,0)">10</text></g><g class="xtick"><text text-anchor="middle" x="0" y="356.3" style="font-family: 'Open Sans', verdana, arial, sans-serif; font-size: 14px; fill: rgb(36, 36, 36); fill-opacity: 1; white-space: pre;" transform="translate(261.03,0)">20</text></g><g class="xtick"><text text-anchor="middle" x="0" y="356.3" style="font-family: 'Open Sans', verdana, arial, sans-serif; font-size: 14px; fill: rgb(36, 36, 36); fill-opacity: 1; white-space: pre;" transform="translate(345.35,0)">30</text></g></g><g class="yaxislayer-above"><path class="ytick ticks crisp" d="M46,0h5" transform="translate(0,318.21000000000004)" style="stroke: rgb(68, 68, 68); stroke-opacity: 1; stroke-width: 1px;"/><path class="ytick ticks crisp" d="M46,0h5" transform="translate(0,269)" style="stroke: rgb(68, 68, 68); stroke-opacity: 1; stroke-width: 1px;"/><path class="ytick ticks crisp" d="M46,0h5" transform="translate(0,219.79)" style="stroke: rgb(68, 68, 68); stroke-opacity: 1; stroke-width: 1px;"/><path class="ytick ticks crisp" d="M46,0h5" transform="translate(0,170.57)" style="stroke: rgb(68, 68, 68); stroke-opacity: 1; stroke-width: 1px;"/><path class="ytick ticks crisp" d="M46,0h5" transform="translate(0,121.36)" style="stroke: rgb(68, 68, 68); stroke-opacity: 1; stroke-width: 1px;"/><g class="ytick"><text text-anchor="end" x="41.7" y="4.8999999999999995" transform="translate(0,318.21000000000004)" style="font-family: 'Open Sans', verdana, arial, sans-serif; font-size: 14px; fill: rgb(36, 36, 36); fill-opacity: 1; white-space: pre;">−10</text></g><g class="ytick"><text text-anchor="end" x="41.7" y="4.8999999999999995" style="font-family: 'Open Sans', verdana, arial, sans-serif; font-size: 14px; fill: rgb(36, 36, 36); fill-opacity: 1; white-space: pre;" transform="translate(0,269)">−5</text></g><g class="ytick"><text text-anchor="end" x="41.7" y="4.8999999999999995" style="font-family: 'Open Sans', verdana, arial, sans-serif; font-size: 14px; fill: rgb(36, 36, 36); fill-opacity: 1; white-space: pre;" transform="translate(0,219.79)">0</text></g><g class="ytick"><text text-anchor="end" x="41.7" y="4.8999999999999995" style="font-family: 'Open Sans', verdana, arial, sans-serif; font-size: 14px; fill: rgb(36, 36, 36); fill-opacity: 1; white-space: pre;" transform="translate(0,170.57)">5</text></g><g class="ytick"><text text-anchor="end" x="41.7" y="4.8999999999999995" style="font-family: 'Open Sans', verdana, arial, sans-serif; font-size: 14px; fill: rgb(36, 36, 36); fill-opacity: 1; white-space: pre;" transform="translate(0,121.36)">10</text></g></g><g class="overaxes-above"/></g></g><g class="polarlayer"/><g class="smithlayer"/><g class="ternarylayer"/><g class="geolayer"/><g class="funnelarealayer"/><g class="pielayer"/><g class="iciclelayer"/><g class="treemaplayer"/><g class="sunburstlayer"/><g class="glimages"/><defs id="topdefs-41da56"><g class="clips"/><clipPath id="legend41da56"><rect width="252" height="64" x="0" y="0"/></clipPath></defs><g class="layer-above"><g class="imagelayer"/><g class="shapelayer"/></g><g class="infolayer"><g class="legend" pointer-events="all" transform="translate(76,11.86)"><rect class="bg" shape-rendering="crispEdges" width="252" height="64" x="0" y="0" style="stroke: rgb(68, 68, 68); stroke-opacity: 1; fill: rgb(255, 255, 255); fill-opacity: 0; stroke-width: 0px;"/><g class="scrollbox" transform="" clip-path="url(#legend41da56)"><g class="groups"><g class="traces" transform="translate(0,14.5)" style="opacity: 1;"><text class="legendtext" text-anchor="start" x="40" y="4.680000000000001" style="font-family: 'Open Sans', verdana, arial, sans-serif; font-size: 12px; fill: rgb(36, 36, 36); fill-opacity: 1; white-space: pre;">Japan</text><g class="layers" style="opacity: 1;"><g class="legendfill"/><g class="legendlines"><path class="js-line" d="M5,0h30" style="fill: none; stroke: rgb(0, 137, 123); stroke-opacity: 1; stroke-width: 3.5px;"/></g><g class="legendsymbols"><g class="legendpoints"/></g></g><rect class="legendtoggle" x="0" y="-9.5" width="77.453125" height="19" style="fill: rgb(0, 0, 0); fill-opacity: 0;"/></g><g class="traces" transform="translate(125.625,14.5)" style="opacity: 1;"><text class="legendtext" text-anchor="start" x="40" y="4.680000000000001" style="font-family: 'Open Sans', verdana, arial, sans-serif; font-size: 12px; fill: rgb(36, 36, 36); fill-opacity: 1; white-space: pre;">AE Median</text><g class="layers" style="opacity: 1;"><g class="legendfill"/><g class="legendlines"><path class="js-line" d="M5,0h30" style="fill: none; stroke: rgb(106, 27, 154); stroke-opacity: 1; stroke-width: 3.5px;"/></g><g class="legendsymbols"><g class="legendpoints"/></g></g><rect class="legendtoggle" x="0" y="-9.5" width="105.34375" height="19" style="fill: rgb(0, 0, 0); fill-opacity: 0;"/></g><g class="traces" transform="translate(0,41.1)" style="opacity: 1;"><text class="legendtext" text-anchor="start" x="40" y="-3.1200000000000006" style="font-family: 'Open Sans', verdana, arial, sans-serif; font-size: 12px; fill: rgb(36, 36, 36); fill-opacity: 1; white-space: pre;"><tspan class="line" dy="0em" x="40" y="-3.1200000000000006">AE 25th-75th</tspan><tspan class="line" dy="1.3em" x="40" y="-3.1200000000000006">percentile</tspan></text><g class="layers" style="opacity: 1;"><g class="legendfill"><path class="js-fill" d="M5,-2h30v6h-30z" style="stroke-width: 0; fill: rgb(106, 27, 154); fill-opacity: 0.25;"/></g><g class="legendlines"><path class="js-line" d="M5,-2h30" style="fill: none; stroke: rgb(255, 255, 255); stroke-opacity: 0; stroke-width: 2px;"/></g><g class="legendsymbols"><g class="legendpoints"/></g></g><rect class="legendtoggle" x="0" y="-17.1" width="123.125" height="34.2" style="fill: rgb(0, 0, 0); fill-opacity: 0;"/></g><g class="traces" transform="translate(125.625,41.1)" style="opacity: 1;"><text class="legendtext" text-anchor="start" x="40" y="-3.1200000000000006" style="font-family: 'Open Sans', verdana, arial, sans-serif; font-size: 12px; fill: rgb(36, 36, 36); fill-opacity: 1; white-space: pre;"><tspan class="line" dy="0em" x="40" y="-3.1200000000000006">AE 10th-90th</tspan><tspan class="line" dy="1.3em" x="40" y="-3.1200000000000006">percentile</tspan></text><g class="layers" style="opacity: 1;"><g class="legendfill"><path class="js-fill" d="M5,-2h30v6h-30z" style="stroke-width: 0; fill: rgb(106, 27, 154); fill-opacity: 0.1;"/></g><g class="legendlines"><path class="js-line" d="M5,-2h30" style="fill: none; stroke: rgb(255, 255, 255); stroke-opacity: 0; stroke-width: 2px;"/></g><g class="legendsymbols"><g class="legendpoints"/></g></g><rect class="legendtoggle" x="0" y="-17.1" width="123.125" height="34.2" style="fill: rgb(0, 0, 0); fill-opacity: 0;"/></g></g></g><rect class="scrollbar" rx="20" ry="3" width="0" height="0" x="0" y="0" style="fill: rgb(128, 139, 164); fill-opacity: 1;"/></g><g class="g-gtitle"/><g class="g-xtitle"/><g class="g-ytitle"/><g class="annotation" data-index="0" style="opacity: 1;"><g class="annotation-text-g" transform="rotate(0,303.49,329)"><g class="cursor-pointer" transform="translate(253,320)"><rect class="bg" x="0.5" y="0.5" width="100" height="17" style="stroke-width: 1px; stroke: rgb(0, 0, 0); stroke-opacity: 0; fill: rgb(255, 255, 200); fill-opacity: 0.9;"/><text class="annotation-text" text-anchor="middle" x="50.53125" y="13" style="font-family: 'Open Sans', verdana, arial, sans-serif; font-size: 11px; fill: rgb(0, 137, 123); fill-opacity: 1; white-space: pre;">Σ 2026-31: -17.5</text></g></g><g class="annotation-arrow-g" style="opacity: 1;"><path d="M306.14625,320.5L328.49,249" style="stroke-width: 1px; stroke: rgb(0, 137, 123); stroke-opacity: 1; stroke-dasharray: 0px, 0px, 74.9099px, 74.9099px;"/></g></g><g class="annotation" data-index="1" style="opacity: 1;"><g class="annotation-text-g" transform="rotate(0,303.49,146.33)"><g class="cursor-pointer" transform="translate(256,137)"><rect class="bg" x="0.5" y="0.5" width="93" height="17" style="stroke-width: 1px; stroke: rgb(0, 0, 0); stroke-opacity: 0; fill: rgb(255, 255, 200); fill-opacity: 0.9;"/><text class="annotation-text" text-anchor="middle" x="47.03125" y="13" style="font-family: 'Open Sans', verdana, arial, sans-serif; font-size: 11px; fill: rgb(106, 27, 154); fill-opacity: 1; white-space: pre;">Σ 2026-31: -3.6</text></g></g><g class="annotation-arrow-g" style="opacity: 1;"><path d="M306.14625,154.83L328.49,226.33" style="stroke-width: 1px; stroke: rgb(106, 27, 154); stroke-opacity: 1; stroke-dasharray: 0px, 0px, 74.9099px, 74.9099px;"/></g></g></g></svg>