<svg class="main-svg" xmlns="http://www.w3.org/2000/svg" xmlns:xlink="http://www.w3.org/1999/xlink" width="756" height="756" style="" viewBox="0 0 378 378"><rect x="0" y="0" width="378" height="378" style="fill: rgb(255, 255, 255); fill-opacity: 1;"/><defs id="defs-34f2b0"><g class="clips"><clipPath id="clip34f2b0xyplot" class="plotclip"><rect width="314" height="263"/></clipPath><clipPath class="axesclip" id="clip34f2b0x"><rect x="39" y="0" width="314" height="378"/></clipPath><clipPath class="axesclip" id="clip34f2b0y"><rect x="0" y="63" width="378" height="263"/></clipPath><clipPath class="axesclip" id="clip34f2b0xy"><rect x="39" y="63" width="314" height="263"/></clipPath></g><g class="gradients"/><g class="patterns"/></defs><g class="bglayer"/><g class="layer-below"><g class="imagelayer"/><g class="shapelayer"/></g><g class="cartesianlayer"><g class="subplot xy"><g class="layer-subplot"><g class="shapelayer"/><g class="imagelayer"/></g><g class="minor-gridlayer"><g class="x"/><g class="y"/></g><g class="gridlayer"><g class="x"><path class="xgrid crisp" transform="translate(86.4,0)" d="M0,63v263" style="stroke: rgb(0, 0, 0); stroke-opacity: 0.15; stroke-width: 1px;"/><path class="xgrid crisp" transform="translate(138.97,0)" d="M0,63v263" style="stroke: rgb(0, 0, 0); stroke-opacity: 0.15; stroke-width: 1px;"/><path class="xgrid crisp" transform="translate(191.55,0)" d="M0,63v263" style="stroke: rgb(0, 0, 0); stroke-opacity: 0.15; stroke-width: 1px;"/><path class="xgrid crisp" transform="translate(244.12,0)" d="M0,63v263" style="stroke: rgb(0, 0, 0); stroke-opacity: 0.15; stroke-width: 1px;"/><path class="xgrid crisp" transform="translate(296.41,0)" d="M0,63v263" style="stroke: rgb(0, 0, 0); stroke-opacity: 0.15; stroke-width: 1px;"/><path class="xgrid crisp" transform="translate(348.98,0)" d="M0,63v263" style="stroke: rgb(0, 0, 0); stroke-opacity: 0.15; stroke-width: 1px;"/></g><g class="y"><path class="ygrid crisp" transform="translate(0,274.26)" d="M39,0h314" style="stroke: rgb(0, 0, 0); stroke-opacity: 0.15; stroke-width: 1px;"/><path class="ygrid crisp" transform="translate(0,234.99)" d="M39,0h314" style="stroke: rgb(0, 0, 0); stroke-opacity: 0.15; stroke-width: 1px;"/><path class="ygrid crisp" transform="translate(0,195.72)" d="M39,0h314" style="stroke: rgb(0, 0, 0); stroke-opacity: 0.15; stroke-width: 1px;"/><path class="ygrid crisp" transform="translate(0,156.44)" d="M39,0h314" style="stroke: rgb(0, 0, 0); stroke-opacity: 0.15; stroke-width: 1px;"/><path class="ygrid crisp" transform="translate(0,117.17)" d="M39,0h314" style="stroke: rgb(0, 0, 0); stroke-opacity: 0.15; stroke-width: 1px;"/><path class="ygrid crisp" transform="translate(0,77.9)" d="M39,0h314" style="stroke: rgb(0, 0, 0); stroke-opacity: 0.15; stroke-width: 1px;"/></g></g><g class="zerolinelayer"><path class="yzl zl crisp" transform="translate(0,313.53999999999996)" d="M39,0h314" style="stroke: rgb(0, 0, 0); stroke-opacity: 1; stroke-width: 1px;"/></g><g class="layer-between"><g class="shapelayer"/><g class="imagelayer"/></g><path class="xlines-below"/><path class="ylines-below"/><g class="overlines-below"/><g class="xaxislayer-below"/><g class="yaxislayer-below"/><g class="overaxes-below"/><g class="overplot"><g class="xy" transform="translate(39,63)" clip-path="url(#clip34f2b0xyplot)"><g class="barlayer mlayer"><g class="trace bars" style="opacity: 0.8;"><g class="points"><g class="point"><path d="M0.8,250.54V247.06H7.24V250.54Z" style="vector-effect: none; opacity: 1; stroke-width: 0.5px; fill: rgb(0, 137, 123); fill-opacity: 1; stroke: rgb(255, 255, 255); stroke-opacity: 1;"/></g><g class="point"><path d="M9.71,250.54V224.18H16.15V250.54Z" style="vector-effect: none; opacity: 1; stroke-width: 0.5px; fill: rgb(0, 137, 123); fill-opacity: 1; stroke: rgb(255, 255, 255); stroke-opacity: 1;"/></g><g class="point"><path d="M17.75,250.54V193.92H24.19V250.54Z" style="vector-effect: none; opacity: 1; stroke-width: 0.5px; fill: rgb(0, 137, 123); fill-opacity: 1; stroke: rgb(255, 255, 255); stroke-opacity: 1;"/></g><g class="point"><path d="M26.66,250.54V173.9H33.09V250.54Z" style="vector-effect: none; opacity: 1; stroke-width: 0.5px; fill: rgb(0, 137, 123); fill-opacity: 1; stroke: rgb(255, 255, 255); stroke-opacity: 1;"/></g><g class="point"><path d="M35.28,250.54V161.5H41.71V250.54Z" style="vector-effect: none; opacity: 1; stroke-width: 0.5px; fill: rgb(0, 137, 123); fill-opacity: 1; stroke: rgb(255, 255, 255); stroke-opacity: 1;"/></g><g class="point"><path d="M44.18,250.54V182.04H50.62V250.54Z" style="vector-effect: none; opacity: 1; stroke-width: 0.5px; fill: rgb(0, 137, 123); fill-opacity: 1; stroke: rgb(255, 255, 255); stroke-opacity: 1;"/></g><g class="point"><path d="M52.8,250.54V175.17H59.24V250.54Z" style="vector-effect: none; opacity: 1; stroke-width: 0.5px; fill: rgb(0, 137, 123); fill-opacity: 1; stroke: rgb(255, 255, 255); stroke-opacity: 1;"/></g><g class="point"><path d="M61.71,250.54V132.38H68.14V250.54Z" style="vector-effect: none; opacity: 1; stroke-width: 0.5px; fill: rgb(0, 137, 123); fill-opacity: 1; stroke: rgb(255, 255, 255); stroke-opacity: 1;"/></g><g class="point"><path d="M70.61,250.54V181.57H77.05V250.54Z" style="vector-effect: none; opacity: 1; stroke-width: 0.5px; fill: rgb(0, 137, 123); fill-opacity: 1; stroke: rgb(255, 255, 255); stroke-opacity: 1;"/></g><g class="point"><path d="M79.23,250.54V20.87H85.67V250.54Z" style="vector-effect: none; opacity: 1; stroke-width: 0.5px; fill: rgb(0, 137, 123); fill-opacity: 1; stroke: rgb(255, 255, 255); stroke-opacity: 1;"/></g><g class="point"><path d="M88.14,250.54V160.94H94.57V250.54Z" style="vector-effect: none; opacity: 1; stroke-width: 0.5px; fill: rgb(0, 137, 123); fill-opacity: 1; stroke: rgb(255, 255, 255); stroke-opacity: 1;"/></g><g class="point"><path d="M96.76,250.54V233.85H103.19V250.54Z" style="vector-effect: none; opacity: 1; stroke-width: 0.5px; fill: rgb(0, 137, 123); fill-opacity: 1; stroke: rgb(255, 255, 255); stroke-opacity: 1;"/></g><g class="point"><path d="M105.66,250.54V209.48H112.1V250.54Z" style="vector-effect: none; opacity: 1; stroke-width: 0.5px; fill: rgb(0, 137, 123); fill-opacity: 1; stroke: rgb(255, 255, 255); stroke-opacity: 1;"/></g><g class="point"><path d="M114.57,250.54V219.24H121V250.54Z" style="vector-effect: none; opacity: 1; stroke-width: 0.5px; fill: rgb(0, 137, 123); fill-opacity: 1; stroke: rgb(255, 255, 255); stroke-opacity: 1;"/></g><g class="point"><path d="M122.9,250.54V179.24H129.33V250.54Z" style="vector-effect: none; opacity: 1; stroke-width: 0.5px; fill: rgb(0, 137, 123); fill-opacity: 1; stroke: rgb(255, 255, 255); stroke-opacity: 1;"/></g><g class="point"><path d="M131.81,250.54V208.24H138.24V250.54Z" style="vector-effect: none; opacity: 1; stroke-width: 0.5px; fill: rgb(0, 137, 123); fill-opacity: 1; stroke: rgb(255, 255, 255); stroke-opacity: 1;"/></g><g class="point"><path d="M140.42,250.54V167.75H146.86V250.54Z" style="vector-effect: none; opacity: 1; stroke-width: 0.5px; fill: rgb(0, 137, 123); fill-opacity: 1; stroke: rgb(255, 255, 255); stroke-opacity: 1;"/></g><g class="point"><path d="M149.33,250.54V191.96H155.76V250.54Z" style="vector-effect: none; opacity: 1; stroke-width: 0.5px; fill: rgb(0, 137, 123); fill-opacity: 1; stroke: rgb(255, 255, 255); stroke-opacity: 1;"/></g><g class="point"><path d="M157.95,250.54V173.8H164.38V250.54Z" style="vector-effect: none; opacity: 1; stroke-width: 0.5px; fill: rgb(0, 137, 123); fill-opacity: 1; stroke: rgb(255, 255, 255); stroke-opacity: 1;"/></g><g class="point"><path d="M166.85,250.54V199.15H173.29V250.54Z" style="vector-effect: none; opacity: 1; stroke-width: 0.5px; fill: rgb(0, 137, 123); fill-opacity: 1; stroke: rgb(255, 255, 255); stroke-opacity: 1;"/></g><g class="point"><path d="M175.76,250.54V220.63H182.19V250.54Z" style="vector-effect: none; opacity: 1; stroke-width: 0.5px; fill: rgb(0, 137, 123); fill-opacity: 1; stroke: rgb(255, 255, 255); stroke-opacity: 1;"/></g><g class="point"><path d="M184.38,250.54V182.28H190.81V250.54Z" style="vector-effect: none; opacity: 1; stroke-width: 0.5px; fill: rgb(0, 137, 123); fill-opacity: 1; stroke: rgb(255, 255, 255); stroke-opacity: 1;"/></g><g class="point"><path d="M193.28,250.54V13.15H199.72V250.54Z" style="vector-effect: none; opacity: 1; stroke-width: 0.5px; fill: rgb(0, 137, 123); fill-opacity: 1; stroke: rgb(255, 255, 255); stroke-opacity: 1;"/></g><g class="point"><path d="M201.9,250.54V45.14H208.34V250.54Z" style="vector-effect: none; opacity: 1; stroke-width: 0.5px; fill: rgb(0, 137, 123); fill-opacity: 1; stroke: rgb(255, 255, 255); stroke-opacity: 1;"/></g><g class="point"><path d="M210.81,250.54V201.01H217.24V250.54Z" style="vector-effect: none; opacity: 1; stroke-width: 0.5px; fill: rgb(0, 137, 123); fill-opacity: 1; stroke: rgb(255, 255, 255); stroke-opacity: 1;"/></g><g class="point"><path d="M219.71,250.54V91.64H226.15V250.54Z" style="vector-effect: none; opacity: 1; stroke-width: 0.5px; fill: rgb(0, 137, 123); fill-opacity: 1; stroke: rgb(255, 255, 255); stroke-opacity: 1;"/></g><g class="point"><path d="M227.76,250.54V144.24H234.19V250.54Z" style="vector-effect: none; opacity: 1; stroke-width: 0.5px; fill: rgb(0, 137, 123); fill-opacity: 1; stroke: rgb(255, 255, 255); stroke-opacity: 1;"/></g><g class="point"><path d="M236.66,250.54V164.16H243.1V250.54Z" style="vector-effect: none; opacity: 1; stroke-width: 0.5px; fill: rgb(0, 137, 123); fill-opacity: 1; stroke: rgb(255, 255, 255); stroke-opacity: 1;"/></g><g class="point"><path d="M245.28,250.54V194.06H251.72V250.54Z" style="vector-effect: none; opacity: 1; stroke-width: 0.5px; fill: rgb(0, 137, 123); fill-opacity: 1; stroke: rgb(255, 255, 255); stroke-opacity: 1;"/></g><g class="point"><path d="M254.19,250.54V143.09H260.62V250.54Z" style="vector-effect: none; opacity: 1; stroke-width: 0.5px; fill: rgb(0, 137, 123); fill-opacity: 1; stroke: rgb(255, 255, 255); stroke-opacity: 1;"/></g><g class="point"><path d="M262.81,250.54V150.33H269.24V250.54Z" style="vector-effect: none; opacity: 1; stroke-width: 0.5px; fill: rgb(0, 137, 123); fill-opacity: 1; stroke: rgb(255, 255, 255); stroke-opacity: 1;"/></g><g class="point"><path d="M271.71,250.54V170.3H278.15V250.54Z" style="vector-effect: none; opacity: 1; stroke-width: 0.5px; fill: rgb(0, 137, 123); fill-opacity: 1; stroke: rgb(255, 255, 255); stroke-opacity: 1;"/></g><g class="point"><path d="M280.62,250.54V174.39H287.05V250.54Z" style="vector-effect: none; opacity: 1; stroke-width: 0.5px; fill: rgb(0, 137, 123); fill-opacity: 1; stroke: rgb(255, 255, 255); stroke-opacity: 1;"/></g><g class="point"><path d="M289.24,250.54V200.5H295.67V250.54Z" style="vector-effect: none; opacity: 1; stroke-width: 0.5px; fill: rgb(0, 137, 123); fill-opacity: 1; stroke: rgb(255, 255, 255); stroke-opacity: 1;"/></g><g class="point"><path d="M298.14,250.54V176.13H304.58V250.54Z" style="vector-effect: none; opacity: 1; stroke-width: 0.5px; fill: rgb(0, 137, 123); fill-opacity: 1; stroke: rgb(255, 255, 255); stroke-opacity: 1;"/></g><g class="point"><path d="M306.76,250.54V228.84H313.2V250.54Z" style="vector-effect: none; opacity: 1; stroke-width: 0.5px; fill: rgb(0, 137, 123); fill-opacity: 1; stroke: rgb(255, 255, 255); stroke-opacity: 1;"/></g></g></g></g><g class="scatterlayer mlayer"><g class="trace scatter tracecbbe15" style="stroke-miterlimit: 2; opacity: 1;"><g class="fills"/><g class="errorbars"/><g class="lines"><path class="js-line" d="M4.02,249.85L12.93,240.5L20.97,190.1L29.88,166.26L38.5,201.41L47.4,134.35L56.02,172.85L64.93,134.43L73.83,128.1L82.45,212.29L91.36,225.07L99.97,231.41L108.88,225.83L117.79,221.73L126.12,182.85L135.02,193.79L143.64,197.77L152.55,163.08L161.17,148.49L170.07,175.84L178.98,215.45L187.6,228.86L196.5,224.46L205.12,241.52L214.03,234.53L222.93,244.06L230.98,230.98L248.5,206.34L257.41,157.75L266.02,171.77L274.93,152.85L283.84,169.87L292.45,200.09L301.36,198.78L309.98,227.25" style="vector-effect: none; fill: none; stroke: rgb(0, 0, 0); stroke-opacity: 1; stroke-width: 3px; opacity: 1;"/></g><g class="points"/><g class="text"/></g></g></g></g><g class="zerolinelayer-above"/><path class="xlines-above crisp" d="M37.5,326.75H353" style="fill: none; stroke-width: 1.5px; stroke: rgb(0, 0, 0); stroke-opacity: 1;"/><path class="ylines-above crisp" d="M38.25,63V326" style="fill: none; stroke-width: 1.5px; stroke: rgb(0, 0, 0); stroke-opacity: 1;"/><g class="overlines-above"/><g class="xaxislayer-above"><path class="xtick ticks crisp" d="M0,326v-5" transform="translate(86.4,0)" style="stroke: rgb(68, 68, 68); stroke-opacity: 1; stroke-width: 1px;"/><path class="xtick ticks crisp" d="M0,326v-5" transform="translate(138.97,0)" style="stroke: rgb(68, 68, 68); stroke-opacity: 1; stroke-width: 1px;"/><path class="xtick ticks crisp" d="M0,326v-5" transform="translate(191.55,0)" style="stroke: rgb(68, 68, 68); stroke-opacity: 1; stroke-width: 1px;"/><path class="xtick ticks crisp" d="M0,326v-5" transform="translate(244.12,0)" style="stroke: rgb(68, 68, 68); stroke-opacity: 1; stroke-width: 1px;"/><path class="xtick ticks crisp" d="M0,326v-5" transform="translate(296.41,0)" style="stroke: rgb(68, 68, 68); stroke-opacity: 1; stroke-width: 1px;"/><path class="xtick ticks crisp" d="M0,326v-5" transform="translate(348.98,0)" style="stroke: rgb(68, 68, 68); stroke-opacity: 1; stroke-width: 1px;"/><g class="xtick"><text text-anchor="middle" x="0" y="344.3" transform="translate(86.4,0)" style="font-family: 'Open Sans', verdana, arial, sans-serif; font-size: 14px; fill: rgb(36, 36, 36); fill-opacity: 1; white-space: pre;"><tspan class="line" dy="0em" x="0" y="344.3">Jun</tspan><tspan class="line" dy="1.3em" x="0" y="344.3">23</tspan></text></g><g class="xtick"><text text-anchor="middle" x="0" y="344.3" style="font-family: 'Open Sans', verdana, arial, sans-serif; font-size: 14px; fill: rgb(36, 36, 36); fill-opacity: 1; white-space: pre;" transform="translate(138.97,0)"><tspan class="line" dy="0em" x="0" y="344.3">Dec</tspan><tspan class="line" dy="1.3em" x="0" y="344.3">23</tspan></text></g><g class="xtick"><text text-anchor="middle" x="0" y="344.3" style="font-family: 'Open Sans', verdana, arial, sans-serif; font-size: 14px; fill: rgb(36, 36, 36); fill-opacity: 1; white-space: pre;" transform="translate(191.55,0)"><tspan class="line" dy="0em" x="0" y="344.3">Jun</tspan><tspan class="line" dy="1.3em" x="0" y="344.3">24</tspan></text></g><g class="xtick"><text text-anchor="middle" x="0" y="344.3" style="font-family: 'Open Sans', verdana, arial, sans-serif; font-size: 14px; fill: rgb(36, 36, 36); fill-opacity: 1; white-space: pre;" transform="translate(244.12,0)"><tspan class="line" dy="0em" x="0" y="344.3">Dec</tspan><tspan class="line" dy="1.3em" x="0" y="344.3">24</tspan></text></g><g class="xtick"><text text-anchor="middle" x="0" y="344.3" style="font-family: 'Open Sans', verdana, arial, sans-serif; font-size: 14px; fill: rgb(36, 36, 36); fill-opacity: 1; white-space: pre;" transform="translate(296.41,0)"><tspan class="line" dy="0em" x="0" y="344.3">Jun</tspan><tspan class="line" dy="1.3em" x="0" y="344.3">25</tspan></text></g><g class="xtick"><text text-anchor="middle" x="0" y="344.3" style="font-family: 'Open Sans', verdana, arial, sans-serif; font-size: 14px; fill: rgb(36, 36, 36); fill-opacity: 1; white-space: pre;" transform="translate(348.98,0)"><tspan class="line" dy="0em" x="0" y="344.3">Dec</tspan><tspan class="line" dy="1.3em" x="0" y="344.3">25</tspan></text></g></g><g class="yaxislayer-above"><path class="ytick ticks crisp" d="M39,0h5" transform="translate(0,313.53999999999996)" style="stroke: rgb(68, 68, 68); stroke-opacity: 1; stroke-width: 1px;"/><path class="ytick ticks crisp" d="M39,0h5" transform="translate(0,274.26)" style="stroke: rgb(68, 68, 68); stroke-opacity: 1; stroke-width: 1px;"/><path class="ytick ticks crisp" d="M39,0h5" transform="translate(0,234.99)" style="stroke: rgb(68, 68, 68); stroke-opacity: 1; stroke-width: 1px;"/><path class="ytick ticks crisp" d="M39,0h5" transform="translate(0,195.72)" style="stroke: rgb(68, 68, 68); stroke-opacity: 1; stroke-width: 1px;"/><path class="ytick ticks crisp" d="M39,0h5" transform="translate(0,156.44)" style="stroke: rgb(68, 68, 68); stroke-opacity: 1; stroke-width: 1px;"/><path class="ytick ticks crisp" d="M39,0h5" transform="translate(0,117.17)" style="stroke: rgb(68, 68, 68); stroke-opacity: 1; stroke-width: 1px;"/><path class="ytick ticks crisp" d="M39,0h5" transform="translate(0,77.9)" style="stroke: rgb(68, 68, 68); stroke-opacity: 1; stroke-width: 1px;"/><g class="ytick"><text text-anchor="end" x="34.7" y="4.8999999999999995" transform="translate(0,313.53999999999996)" style="font-family: 'Open Sans', verdana, arial, sans-serif; font-size: 14px; fill: rgb(36, 36, 36); fill-opacity: 1; white-space: pre;">0</text></g><g class="ytick"><text text-anchor="end" x="34.7" y="4.8999999999999995" style="font-family: 'Open Sans', verdana, arial, sans-serif; font-size: 14px; fill: rgb(36, 36, 36); fill-opacity: 1; white-space: pre;" transform="translate(0,274.26)">0.2</text></g><g class="ytick"><text text-anchor="end" x="34.7" y="4.8999999999999995" style="font-family: 'Open Sans', verdana, arial, sans-serif; font-size: 14px; fill: rgb(36, 36, 36); fill-opacity: 1; white-space: pre;" transform="translate(0,234.99)">0.4</text></g><g class="ytick"><text text-anchor="end" x="34.7" y="4.8999999999999995" style="font-family: 'Open Sans', verdana, arial, sans-serif; font-size: 14px; fill: rgb(36, 36, 36); fill-opacity: 1; white-space: pre;" transform="translate(0,195.72)">0.6</text></g><g class="ytick"><text text-anchor="end" x="34.7" y="4.8999999999999995" style="font-family: 'Open Sans', verdana, arial, sans-serif; font-size: 14px; fill: rgb(36, 36, 36); fill-opacity: 1; white-space: pre;" transform="translate(0,156.44)">0.8</text></g><g class="ytick"><text text-anchor="end" x="34.7" y="4.8999999999999995" style="font-family: 'Open Sans', verdana, arial, sans-serif; font-size: 14px; fill: rgb(36, 36, 36); fill-opacity: 1; white-space: pre;" transform="translate(0,117.17)">1</text></g><g class="ytick"><text text-anchor="end" x="34.7" y="4.8999999999999995" style="font-family: 'Open Sans', verdana, arial, sans-serif; font-size: 14px; fill: rgb(36, 36, 36); fill-opacity: 1; white-space: pre;" transform="translate(0,77.9)">1.2</text></g></g><g class="overaxes-above"/></g></g><g class="polarlayer"/><g class="smithlayer"/><g class="ternarylayer"/><g class="geolayer"/><g class="funnelarealayer"/><g class="pielayer"/><g class="iciclelayer"/><g class="treemaplayer"/><g class="sunburstlayer"/><g class="glimages"/><defs id="topdefs-34f2b0"><g class="clips"/><clipPath id="legend34f2b0"><rect width="196" height="48" x="0" y="0"/></clipPath></defs><g class="layer-above"><g class="imagelayer"/><g class="shapelayer"/></g><g class="infolayer"><g class="legend" pointer-events="all" transform="translate(98,12.369999999999997)"><rect class="bg" shape-rendering="crispEdges" width="196" height="48" x="0" y="0" style="stroke: rgb(68, 68, 68); stroke-opacity: 1; fill: rgb(255, 255, 255); fill-opacity: 1; stroke-width: 0px;"/><g class="scrollbox" transform="" clip-path="url(#legend34f2b0)"><g class="groups"><g class="traces" transform="translate(0,14.5)" style="opacity: 1;"><text class="legendtext" text-anchor="start" x="40" y="4.680000000000001" style="font-family: 'Open Sans', verdana, arial, sans-serif; font-size: 12px; fill: rgb(36, 36, 36); fill-opacity: 1; white-space: pre;">Refinancing/swap bonds</text><g class="layers" style="opacity: 0.8;"><g class="legendfill"/><g class="legendlines"/><g class="legendsymbols"><g class="legendpoints"><path class="legendundefined" d="M6,6H-6V-6H6Z" transform="translate(20,0)" style="stroke-width: 0.5px; fill: rgb(0, 137, 123); fill-opacity: 1; stroke: rgb(255, 255, 255); stroke-opacity: 1;"/></g></g></g><rect class="legendtoggle" x="0" y="-9.5" width="189.03125" height="19" style="fill: rgb(0, 0, 0); fill-opacity: 0;"/></g><g class="traces" transform="translate(0,33.5)" style="opacity: 1;"><text class="legendtext" text-anchor="start" x="40" y="4.680000000000001" style="font-family: 'Open Sans', verdana, arial, sans-serif; font-size: 12px; fill: rgb(36, 36, 36); fill-opacity: 1; white-space: pre;">Official bond repayments</text><g class="layers" style="opacity: 1;"><g class="legendfill"/><g class="legendlines"><path class="js-line" d="M5,0h30" style="fill: none; stroke: rgb(0, 0, 0); stroke-opacity: 1; stroke-width: 3px;"/></g><g class="legendsymbols"><g class="legendpoints"/></g></g><rect class="legendtoggle" x="0" y="-9.5" width="193.4375" height="19" style="fill: rgb(0, 0, 0); fill-opacity: 0;"/></g></g></g><rect class="scrollbar" rx="20" ry="3" width="0" height="0" x="0" y="0" style="fill: rgb(128, 139, 164); fill-opacity: 1;"/></g><g class="g-gtitle"/><g class="g-xtitle"/><g class="g-ytitle"/></g></svg>