<svg class="main-svg" xmlns="http://www.w3.org/2000/svg" xmlns:xlink="http://www.w3.org/1999/xlink" width="1134" height="756" style="" viewBox="0 0 567 378"><rect x="0" y="0" width="567" height="378" style="fill: rgb(255, 255, 255); fill-opacity: 1;"/><defs id="defs-91e8dd"><g class="clips"><clipPath id="clip91e8ddxyplot" class="plotclip"><rect width="497" height="275"/></clipPath><clipPath class="axesclip" id="clip91e8ddx"><rect x="50" y="0" width="497" height="378"/></clipPath><clipPath class="axesclip" id="clip91e8ddy"><rect x="0" y="63" width="567" height="275"/></clipPath><clipPath class="axesclip" id="clip91e8ddxy"><rect x="50" y="63" width="497" height="275"/></clipPath></g><g class="gradients"/><g class="patterns"/></defs><g class="bglayer"/><g class="layer-below"><g class="imagelayer"/><g class="shapelayer"/></g><g class="cartesianlayer"><g class="subplot xy"><g class="layer-subplot"><g class="shapelayer"/><g class="imagelayer"/></g><g class="minor-gridlayer"><g class="x"/><g class="y"/></g><g class="gridlayer"><g class="x"><path class="xgrid crisp" transform="translate(196.56,0)" d="M0,63v275" style="stroke: rgb(0, 0, 0); stroke-opacity: 0.15; stroke-width: 1px;"/><path class="xgrid crisp" transform="translate(343.13,0)" d="M0,63v275" style="stroke: rgb(0, 0, 0); stroke-opacity: 0.15; stroke-width: 1px;"/><path class="xgrid crisp" transform="translate(489.77,0)" d="M0,63v275" style="stroke: rgb(0, 0, 0); stroke-opacity: 0.15; stroke-width: 1px;"/></g><g class="y"><path class="ygrid crisp" transform="translate(0,323.42)" d="M50,0h497" style="stroke: rgb(0, 0, 0); stroke-opacity: 0.15; stroke-width: 1px;"/><path class="ygrid crisp" transform="translate(0,284.95)" d="M50,0h497" style="stroke: rgb(0, 0, 0); stroke-opacity: 0.15; stroke-width: 1px;"/><path class="ygrid crisp" transform="translate(0,246.47)" d="M50,0h497" style="stroke: rgb(0, 0, 0); stroke-opacity: 0.15; stroke-width: 1px;"/><path class="ygrid crisp" transform="translate(0,208)" d="M50,0h497" style="stroke: rgb(0, 0, 0); stroke-opacity: 0.15; stroke-width: 1px;"/><path class="ygrid crisp" transform="translate(0,169.53)" d="M50,0h497" style="stroke: rgb(0, 0, 0); stroke-opacity: 0.15; stroke-width: 1px;"/><path class="ygrid crisp" transform="translate(0,131.06)" d="M50,0h497" style="stroke: rgb(0, 0, 0); stroke-opacity: 0.15; stroke-width: 1px;"/><path class="ygrid crisp" transform="translate(0,92.58)" d="M50,0h497" style="stroke: rgb(0, 0, 0); stroke-opacity: 0.15; stroke-width: 1px;"/></g></g><g class="zerolinelayer"/><g class="layer-between"><g class="shapelayer"/><g class="imagelayer"/></g><path class="xlines-below"/><path class="ylines-below"/><g class="overlines-below"/><g class="xaxislayer-below"/><g class="yaxislayer-below"/><g class="overaxes-below"/><g class="overplot"><g class="xy" transform="translate(50,63)" clip-path="url(#clip91e8ddxyplot)"><g class="scatterlayer mlayer"><g class="trace scatter traceb45d25" style="stroke-miterlimit: 2; opacity: 1;"><g class="fills"/><g class="errorbars"/><g class="lines"><path class="js-line" d="M0,107.03" style="vector-effect: none; fill: none; stroke: rgb(106, 27, 154); stroke-opacity: 1; stroke-width: 3.5px; opacity: 1;"/><path class="js-line" d="M0.24,102.52" style="vector-effect: none; fill: none; stroke: rgb(106, 27, 154); stroke-opacity: 1; stroke-width: 3.5px; opacity: 1;"/><path class="js-line" d="M0.32,102.91L0.4,103.6" style="vector-effect: none; fill: none; stroke: rgb(106, 27, 154); stroke-opacity: 1; stroke-width: 3.5px; opacity: 1;"/><path class="js-line" d="M0.48,104.03" style="vector-effect: none; fill: none; stroke: rgb(106, 27, 154); stroke-opacity: 1; stroke-width: 3.5px; opacity: 1;"/><path class="js-line" d="M0.56,104.12" style="vector-effect: none; fill: none; stroke: rgb(106, 27, 154); stroke-opacity: 1; stroke-width: 3.5px; opacity: 1;"/><path class="js-line" d="M0.8,105.91" style="vector-effect: none; fill: none; stroke: rgb(106, 27, 154); stroke-opacity: 1; stroke-width: 3.5px; opacity: 1;"/><path class="js-line" d="M0.88,107.55L0.96,107.72" style="vector-effect: none; fill: none; stroke: rgb(106, 27, 154); stroke-opacity: 1; stroke-width: 3.5px; opacity: 1;"/><path class="js-line" d="M1.04,107.71" style="vector-effect: none; fill: none; stroke: rgb(106, 27, 154); stroke-opacity: 1; stroke-width: 3.5px; opacity: 1;"/><path class="js-line" d="M1.12,107.56L1.36,108.11" style="vector-effect: none; fill: none; stroke: rgb(106, 27, 154); stroke-opacity: 1; stroke-width: 3.5px; opacity: 1;"/><path class="js-line" d="M1.44,107.96" style="vector-effect: none; fill: none; stroke: rgb(106, 27, 154); stroke-opacity: 1; stroke-width: 3.5px; opacity: 1;"/><path class="js-line" d="M1.53,107.79" style="vector-effect: none; fill: none; stroke: rgb(106, 27, 154); stroke-opacity: 1; stroke-width: 3.5px; opacity: 1;"/><path class="js-line" d="M1.61,107.42" style="vector-effect: none; fill: none; stroke: rgb(106, 27, 154); stroke-opacity: 1; stroke-width: 3.5px; opacity: 1;"/><path class="js-line" d="M1.69,106.42" style="vector-effect: none; fill: none; stroke: rgb(106, 27, 154); stroke-opacity: 1; stroke-width: 3.5px; opacity: 1;"/><path class="js-line" d="M1.93,105.13L2.01,103.89" style="vector-effect: none; fill: none; stroke: rgb(106, 27, 154); stroke-opacity: 1; stroke-width: 3.5px; opacity: 1;"/><path class="js-line" d="M2.09,103.46" style="vector-effect: none; fill: none; stroke: rgb(106, 27, 154); stroke-opacity: 1; stroke-width: 3.5px; opacity: 1;"/><path class="js-line" d="M2.17,101.79" style="vector-effect: none; fill: none; stroke: rgb(106, 27, 154); stroke-opacity: 1; stroke-width: 3.5px; opacity: 1;"/><path class="js-line" d="M2.25,100.42L2.49,99.42" style="vector-effect: none; fill: none; stroke: rgb(106, 27, 154); stroke-opacity: 1; stroke-width: 3.5px; opacity: 1;"/><path class="js-line" d="M2.57,98.27" style="vector-effect: none; fill: none; stroke: rgb(106, 27, 154); stroke-opacity: 1; stroke-width: 3.5px; opacity: 1;"/><path class="js-line" d="M2.65,96.92" style="vector-effect: none; fill: none; stroke: rgb(106, 27, 154); stroke-opacity: 1; stroke-width: 3.5px; opacity: 1;"/><path class="js-line" d="M2.73,95.22" style="vector-effect: none; fill: none; stroke: rgb(106, 27, 154); stroke-opacity: 1; stroke-width: 3.5px; opacity: 1;"/><path class="js-line" d="M2.81,94.42L3.05,94.29" style="vector-effect: none; fill: none; stroke: rgb(106, 27, 154); stroke-opacity: 1; stroke-width: 3.5px; opacity: 1;"/><path class="js-line" d="M3.13,94.23" style="vector-effect: none; fill: none; stroke: rgb(106, 27, 154); stroke-opacity: 1; stroke-width: 3.5px; opacity: 1;"/><path class="js-line" d="M3.29,93.99" style="vector-effect: none; fill: none; stroke: rgb(106, 27, 154); stroke-opacity: 1; stroke-width: 3.5px; opacity: 1;"/><path class="js-line" d="M3.37,94.65L3.61,95.34" style="vector-effect: none; fill: none; stroke: rgb(106, 27, 154); stroke-opacity: 1; stroke-width: 3.5px; opacity: 1;"/><path class="js-line" d="M3.69,96.49" style="vector-effect: none; fill: none; stroke: rgb(106, 27, 154); stroke-opacity: 1; stroke-width: 3.5px; opacity: 1;"/><path class="js-line" d="M3.77,97.73L3.85,99.64" style="vector-effect: none; fill: none; stroke: rgb(106, 27, 154); stroke-opacity: 1; stroke-width: 3.5px; opacity: 1;"/><path class="js-line" d="M3.93,102.25" style="vector-effect: none; fill: none; stroke: rgb(106, 27, 154); stroke-opacity: 1; stroke-width: 3.5px; opacity: 1;"/><path class="js-line" d="M4.17,105.41" style="vector-effect: none; fill: none; stroke: rgb(106, 27, 154); stroke-opacity: 1; stroke-width: 3.5px; opacity: 1;"/><path class="js-line" d="M4.25,108.87" style="vector-effect: none; fill: none; stroke: rgb(106, 27, 154); stroke-opacity: 1; stroke-width: 3.5px; opacity: 1;"/><path class="js-line" d="M4.33,112.38" style="vector-effect: none; fill: none; stroke: rgb(106, 27, 154); stroke-opacity: 1; stroke-width: 3.5px; opacity: 1;"/><path class="js-line" d="M4.41,116.03" style="vector-effect: none; fill: none; stroke: rgb(106, 27, 154); stroke-opacity: 1; stroke-width: 3.5px; opacity: 1;"/><path class="js-line" d="M4.49,119.46" style="vector-effect: none; fill: none; stroke: rgb(106, 27, 154); stroke-opacity: 1; stroke-width: 3.5px; opacity: 1;"/><path class="js-line" d="M4.74,122.49" style="vector-effect: none; fill: none; stroke: rgb(106, 27, 154); stroke-opacity: 1; stroke-width: 3.5px; opacity: 1;"/><path class="js-line" d="M4.82,126.13L4.9,128.81" style="vector-effect: none; fill: none; stroke: rgb(106, 27, 154); stroke-opacity: 1; stroke-width: 3.5px; opacity: 1;"/><path class="js-line" d="M4.98,131.66L5.06,133.1" style="vector-effect: none; fill: none; stroke: rgb(106, 27, 154); stroke-opacity: 1; stroke-width: 3.5px; opacity: 1;"/><path class="js-line" d="M5.3,134.33L5.38,135.53" style="vector-effect: none; fill: none; stroke: rgb(106, 27, 154); stroke-opacity: 1; stroke-width: 3.5px; opacity: 1;"/><path class="js-line" d="M5.46,136.87L5.54,137.85" style="vector-effect: none; fill: none; stroke: rgb(106, 27, 154); stroke-opacity: 1; stroke-width: 3.5px; opacity: 1;"/><path class="js-line" d="M5.62,139.08" style="vector-effect: none; fill: none; stroke: rgb(106, 27, 154); stroke-opacity: 1; stroke-width: 3.5px; opacity: 1;"/><path class="js-line" d="M5.86,139.11" style="vector-effect: none; fill: none; stroke: rgb(106, 27, 154); stroke-opacity: 1; stroke-width: 3.5px; opacity: 1;"/><path class="js-line" d="M5.94,139.37" style="vector-effect: none; fill: none; stroke: rgb(106, 27, 154); stroke-opacity: 1; stroke-width: 3.5px; opacity: 1;"/><path class="js-line" d="M6.02,138.74" style="vector-effect: none; fill: none; stroke: rgb(106, 27, 154); stroke-opacity: 1; stroke-width: 3.5px; opacity: 1;"/><path class="js-line" d="M6.1,138.55L6.18,136.97" style="vector-effect: none; fill: none; stroke: rgb(106, 27, 154); stroke-opacity: 1; stroke-width: 3.5px; opacity: 1;"/><path class="js-line" d="M6.42,135.9" style="vector-effect: none; fill: none; stroke: rgb(106, 27, 154); stroke-opacity: 1; stroke-width: 3.5px; opacity: 1;"/><path class="js-line" d="M6.5,134.49" style="vector-effect: none; fill: none; stroke: rgb(106, 27, 154); stroke-opacity: 1; stroke-width: 3.5px; opacity: 1;"/><path class="js-line" d="M6.58,133.5L6.66,132.86" style="vector-effect: none; fill: none; stroke: rgb(106, 27, 154); stroke-opacity: 1; stroke-width: 3.5px; opacity: 1;"/><path class="js-line" d="M6.74,132.34" style="vector-effect: none; fill: none; stroke: rgb(106, 27, 154); stroke-opacity: 1; stroke-width: 3.5px; opacity: 1;"/><path class="js-line" d="M6.98,131.43L7.06,130.53" style="vector-effect: none; fill: none; stroke: rgb(106, 27, 154); stroke-opacity: 1; stroke-width: 3.5px; opacity: 1;"/><path class="js-line" d="M7.14,129.23L7.22,128.76" style="vector-effect: none; fill: none; stroke: rgb(106, 27, 154); stroke-opacity: 1; stroke-width: 3.5px; opacity: 1;"/><path class="js-line" d="M7.3,127.69L7.54,127.78" style="vector-effect: none; fill: none; stroke: rgb(106, 27, 154); stroke-opacity: 1; stroke-width: 3.5px; opacity: 1;"/><path class="js-line" d="M7.63,128.3" style="vector-effect: none; fill: none; stroke: rgb(106, 27, 154); stroke-opacity: 1; stroke-width: 3.5px; opacity: 1;"/><path class="js-line" d="M7.71,129.62" style="vector-effect: none; fill: none; stroke: rgb(106, 27, 154); stroke-opacity: 1; stroke-width: 3.5px; opacity: 1;"/><path class="js-line" d="M7.79,131.34" style="vector-effect: none; fill: none; stroke: rgb(106, 27, 154); stroke-opacity: 1; stroke-width: 3.5px; opacity: 1;"/><path class="js-line" d="M7.87,132.53L8.11,133.64" style="vector-effect: none; fill: none; stroke: rgb(106, 27, 154); stroke-opacity: 1; stroke-width: 3.5px; opacity: 1;"/><path class="js-line" d="M8.19,134.85L8.27,135.35" style="vector-effect: none; fill: none; stroke: rgb(106, 27, 154); stroke-opacity: 1; stroke-width: 3.5px; opacity: 1;"/><path class="js-line" d="M8.35,136.19" style="vector-effect: none; fill: none; stroke: rgb(106, 27, 154); stroke-opacity: 1; stroke-width: 3.5px; opacity: 1;"/><path class="js-line" d="M8.43,137.26" style="vector-effect: none; fill: none; stroke: rgb(106, 27, 154); stroke-opacity: 1; stroke-width: 3.5px; opacity: 1;"/><path class="js-line" d="M8.67,137.51" style="vector-effect: none; fill: none; stroke: rgb(106, 27, 154); stroke-opacity: 1; stroke-width: 3.5px; opacity: 1;"/><path class="js-line" d="M8.75,137.83" style="vector-effect: none; fill: none; stroke: rgb(106, 27, 154); stroke-opacity: 1; stroke-width: 3.5px; opacity: 1;"/><path class="js-line" d="M8.83,138.23" style="vector-effect: none; fill: none; stroke: rgb(106, 27, 154); stroke-opacity: 1; stroke-width: 3.5px; opacity: 1;"/><path class="js-line" d="M8.91,137.04L8.99,135.9" style="vector-effect: none; fill: none; stroke: rgb(106, 27, 154); stroke-opacity: 1; stroke-width: 3.5px; opacity: 1;"/><path class="js-line" d="M9.23,134.69" style="vector-effect: none; fill: none; stroke: rgb(106, 27, 154); stroke-opacity: 1; stroke-width: 3.5px; opacity: 1;"/><path class="js-line" d="M9.31,132.93" style="vector-effect: none; fill: none; stroke: rgb(106, 27, 154); stroke-opacity: 1; stroke-width: 3.5px; opacity: 1;"/><path class="js-line" d="M9.39,131.68" style="vector-effect: none; fill: none; stroke: rgb(106, 27, 154); stroke-opacity: 1; stroke-width: 3.5px; opacity: 1;"/><path class="js-line" d="M9.47,131.42" style="vector-effect: none; fill: none; stroke: rgb(106, 27, 154); stroke-opacity: 1; stroke-width: 3.5px; opacity: 1;"/><path class="js-line" d="M9.55,130.8L9.79,130.2" style="vector-effect: none; fill: none; stroke: rgb(106, 27, 154); stroke-opacity: 1; stroke-width: 3.5px; opacity: 1;"/><path class="js-line" d="M9.87,128.97" style="vector-effect: none; fill: none; stroke: rgb(106, 27, 154); stroke-opacity: 1; stroke-width: 3.5px; opacity: 1;"/><path class="js-line" d="M9.95,127.25" style="vector-effect: none; fill: none; stroke: rgb(106, 27, 154); stroke-opacity: 1; stroke-width: 3.5px; opacity: 1;"/><path class="js-line" d="M10.03,126.41" style="vector-effect: none; fill: none; stroke: rgb(106, 27, 154); stroke-opacity: 1; stroke-width: 3.5px; opacity: 1;"/><path class="js-line" d="M10.11,126.01L10.35,125.87L10.43,126.62" style="vector-effect: none; fill: none; stroke: rgb(106, 27, 154); stroke-opacity: 1; stroke-width: 3.5px; opacity: 1;"/><path class="js-line" d="M10.51,126.38" style="vector-effect: none; fill: none; stroke: rgb(106, 27, 154); stroke-opacity: 1; stroke-width: 3.5px; opacity: 1;"/><path class="js-line" d="M10.59,126.69" style="vector-effect: none; fill: none; stroke: rgb(106, 27, 154); stroke-opacity: 1; stroke-width: 3.5px; opacity: 1;"/><path class="js-line" d="M10.68,126.29L10.92,126.08" style="vector-effect: none; fill: none; stroke: rgb(106, 27, 154); stroke-opacity: 1; stroke-width: 3.5px; opacity: 1;"/><path class="js-line" d="M11,125.86" style="vector-effect: none; fill: none; stroke: rgb(106, 27, 154); stroke-opacity: 1; stroke-width: 3.5px; opacity: 1;"/><path class="js-line" d="M11.08,127.31" style="vector-effect: none; fill: none; stroke: rgb(106, 27, 154); stroke-opacity: 1; stroke-width: 3.5px; opacity: 1;"/><path class="js-line" d="M11.16,129.08" style="vector-effect: none; fill: none; stroke: rgb(106, 27, 154); stroke-opacity: 1; stroke-width: 3.5px; opacity: 1;"/><path class="js-line" d="M11.24,132.23" style="vector-effect: none; fill: none; stroke: rgb(106, 27, 154); stroke-opacity: 1; stroke-width: 3.5px; opacity: 1;"/><path class="js-line" d="M11.48,135.4L12.04,140.1L12.36,139.14L12.6,137.46L14.61,104.45L14.85,101.38L16.86,122.29L17.1,122.5L17.34,124.21L17.42,126.09L17.74,126.74L17.82,125.88L29.46,125.61L30.9,116.91L31.14,118L32.51,135.1L32.99,133.62L33.07,131.98L35.24,122.5L35.32,121.97L36.36,129.06L36.44,130.4L38.77,151.19L39.01,151.99L39.25,151.84L39.57,152.64L39.65,153.66L42.46,140.79L42.7,142.51L42.94,143.19L43.58,146.08L43.82,145.62L44.07,145.64L44.15,146.01L44.39,143.78L44.63,142.45L45.19,147.18L45.27,148.04L46.55,173.87L46.63,176.89L48,187.04L48.08,185.97L49.84,159.77L49.92,155.83L51.13,133.16L51.37,131.4L51.45,132.32L51.69,127.21L51.93,124.74L52.09,121.72L52.57,126.33L52.65,126.83L53.94,142.16L54.26,139.9L54.34,139.21L55.54,107.57L56.11,110.46L56.19,111.98L56.67,124.52L56.75,127.04L57.07,129.5L57.55,127.21L57.63,125.33L58.43,115.02L58.99,116.52L59.24,117.37L60.44,134.87L60.52,137.67L62.04,163.85L62.13,163.2L62.21,161.93L63.41,145.64L63.73,146.55L63.81,148.51L64.85,153.21L64.93,153.5L65.09,153.24L65.18,151.25L65.42,152.25L65.58,149.94L65.66,146.03L66.78,140.06L67.1,140.28L67.18,143.6L67.9,149.47L68.23,148L68.31,147L69.91,125.2L69.99,121.31L71.11,110.23L71.19,109.9L75.05,138.17L75.13,137.54L75.21,136.57L76.65,130.29L76.73,130.17L77.3,132.01L77.46,131.3L77.54,129.29L78.58,119.73L78.66,118.76L78.98,117.17L79.78,117.48L80.02,117.59L80.1,117.29L80.26,118.98L80.35,119.95L81.15,123.17L81.23,124.57L82.59,133.77L82.83,135.26L83.07,136.95L83.56,134.86L83.64,133.68L85.16,123.34L85.24,123.54L85.32,123.02L86.45,119.02L86.53,120.5L86.77,121.41L87.97,132.4L88.21,129.45L88.45,129.75L89.17,118.36L89.25,116.69L89.82,110.2L90.22,111.29L90.3,111.18L90.38,110.1L90.86,113.1L90.94,114.43L91.9,118.06L91.98,118.6L93.11,126.09L93.19,127.24L93.83,132.25L94.23,129.98L94.31,127.58L95.35,121.56L95.43,120.99L95.76,119.56L95.92,121.72L96.08,121.3L96.32,121.29L96.64,120.72L96.96,121.75L97.04,122.58L98.81,152.1L99.21,150.93L99.29,150.36L101.45,127.32L101.54,124.76L103.22,99.55L103.3,99.79L103.38,100.12L103.78,105.17L103.86,106.65L105.63,125L106.03,124.6L106.11,123.62L107.31,109.47L107.72,111.7L107.8,112.88L109.56,124.01L109.8,123.66L109.88,123.49L110.04,124.32L110.12,125.22L113.17,138.98L113.25,140.69L114.46,148.47L114.54,148.45L114.62,148.21L115.02,151.03L115.1,152.3L116.71,173.31L116.87,171.02L117.11,169.45L119.11,142.88L119.35,142.38L119.67,139.38L120.24,141.39L120.48,141.67L121.04,146.72L121.6,146.44L121.68,146.53L122.89,150.81L123.29,149.9L123.37,149.4L123.61,149.16L124.01,149.79L124.09,150.28L125.53,153.17L125.61,152.72L127.22,162.84L127.54,161.92L127.78,161.44L128.42,158.06L128.5,156.67L129.07,154.72L129.47,155.07L129.55,155.51L129.63,155.3L129.79,156.47L130.03,157.35L132.04,168.76L132.28,169.66L132.6,169.49L133.56,171.92L133.64,171.82L133.72,171.77L133.96,171.93L134.12,171.18L134.2,170.69L138.22,136.68L138.46,135.9L139.74,124.83L140.14,125.68L140.22,125.93L141.27,127.52L141.35,126.57L141.99,121.28L142.07,120.2L142.95,119.17L143.03,120.66L144.32,127.91L144.72,127.22L144.8,126.29L148.33,91.91L148.57,93.15L148.65,92.77L148.81,95.65L148.89,97.62L149.37,100.04L149.45,102.17L150.98,118.06L151.06,119.43L151.7,123.97L152.02,121.65L152.1,121.74L152.66,118.43L153.15,119.73L153.23,120.37L154.43,132.05L154.51,132.15L154.75,132.03L154.83,130.56L155.87,118.51L155.95,117.77L157.88,104.32L158.12,103.99L160.13,91.15L160.53,91.67L160.61,91.77L162.7,103.98L162.86,103.27L162.94,103.67L163.82,107.52L163.9,107.77L164.86,106.15L164.94,106.72L165.02,106.9L165.59,105.94L165.67,105.02L167.11,99.89L167.35,99.97L167.43,100.14L167.99,99.8L168.4,102.99L168.48,104.2L170.64,119.09L170.72,119.46L171.61,119.58L171.69,120.02L172.81,128.78L173.05,127.21L173.29,125.9L174.58,113.81L174.66,114.18L175.62,120.85L175.86,119.26L176.1,118.45L178.67,99.44L178.91,99.08L179.23,95.48L179.63,97.81L179.71,98.94L180.84,103.05L180.92,102.65L181.16,101.47L182.36,94.21L182.44,94.14L183.97,103.97L184.05,105.54L184.85,110.11L185.17,109.65L185.25,109.43L187.1,128.93L187.34,129.98L188.22,132.85L188.46,132.78L188.7,132.07L189.1,134.51L189.18,136.61L189.91,143.44L190.39,142.48L190.47,142.31L190.79,140.98L190.87,137.64L192.07,131.28L192.15,131.31L192.39,134.34L192.56,133.65L193.2,134.57L193.28,138.74L194.32,141.92L194.4,141.89L194.64,141.27L195.2,139.92L195.36,141.23L195.44,141.81L196.89,138.29L196.97,138.64L197.05,139.32L199.22,152.48L199.3,152.32L200.26,143.46L200.82,144.68L200.9,145.5L202.27,170.35L202.51,169.52L202.59,168.57L203.07,169.89L203.15,172.83L203.95,187.59L204.19,193.87L205,200.67L205.08,200.09L205.32,199.3L205.4,199.14L205.48,195.87L206.76,169.72L207,165.68L207.65,139.7L208.13,145.49L208.21,146.78L209.01,154.55L209.33,153.97L209.41,153.51L209.57,152.91L209.97,155.9L210.05,155.97L210.37,156.81L210.7,154.7L210.94,154.02L211.74,149.38L212.06,151.49L212.14,152.54L213.42,167.42L213.5,166.97L213.75,164.22L214.87,157.01L214.95,156.59L216.23,164.1L216.31,163.66L216.55,163.96L217.44,171.18L217.68,168.38L217.76,168.09L218.4,167.27L219.68,174.85L220.17,174.34L220.25,174L220.65,172.26L220.73,170.35L221.77,165.1L221.93,166.15L222.17,167.28L223.3,173.43L223.38,172.74L224.58,165.07L224.66,164.37L225.06,165.35L225.22,162.7L225.3,162.4L225.87,161.94L226.67,164.01L226.75,164.82L228.03,173.78L228.11,173.4L228.35,173.61L228.43,172.18L230.04,162.74L230.12,162.77L230.2,163.45L230.68,163.7L230.92,162.77L231.16,163.46L233.09,179.85L233.17,178.49L233.41,177.04L233.65,182.28L234.29,179.73L234.53,179.54L234.61,179.25L234.69,181.74L234.77,184.25L235.18,182.91L235.26,186.07L235.98,179L236.38,180.1L236.46,180.59L236.78,176.91L236.86,177.87L236.94,182.13L239.27,201.76L239.35,201.81L240.23,203.79L240.31,204.13L240.87,207.28L240.96,204.18L241.04,201.3L242.4,205.33L242.48,209.83L242.96,215.28L243.28,212.68L243.52,213.04L244.33,215.91L244.41,219.42L244.89,220.47L244.97,222.7L245.37,223.07L245.53,222.68L245.77,220.17L246.49,216.78L246.57,219.07L246.89,218.83L247.22,219.57L247.46,219.84L247.62,221.72L247.78,220.55L248.02,220.24L248.18,217.19L248.9,218.33L249.14,218.49L250.83,229.41L250.91,232.72L251.47,235.18L251.71,233.16L251.95,231.9L253.16,224.18L253.24,224.21L253.32,224.42L254.52,225.97L254.76,226.43L256.53,229.63L256.61,229.43L257.09,230L257.25,229.79L257.33,228L258.77,229.19L258.85,231.1L259.5,230.8L259.82,231.31L259.9,231.93L260.46,232.81L260.54,233.59L262.39,247.89L262.95,246.87L263.19,245.65L263.91,239.14L264.07,240.43L264.31,239.33L265.52,233.11L265.6,233L266,233.62L266.08,231.6L267.12,237.48L267.2,237.59L267.36,237.96L267.44,240.58L267.92,241.87L268,242.41L268.81,244.94L269.05,244.22L269.13,243.89L270.17,240.56L270.25,240.16L271.05,237.86L271.13,237.25L272.34,229.07L272.5,229.57L272.74,229.67L272.9,229.84L273.06,229.3L273.3,229.23L273.38,231.5L273.86,234.16L274.18,232.97L274.43,232.3L275.71,217.57L275.79,216.31L276.43,208.19L276.75,211.74L276.83,212.72L278.52,205.01L278.6,204.79L278.68,204.45L279.16,205.76L279.24,206.28L280.2,213.4L280.85,212.62L280.93,212.49L281.73,210.36L281.81,210L282.93,198.09L283.01,196.63L283.17,195.18L283.74,198.24L283.98,198.38L284.78,203.82L285.18,202.63L285.26,202.07L287.35,187.45L287.67,188.3L287.91,188.48L288.55,194.02L288.63,197.52L289.6,202.66L289.84,202L289.92,201.85L290.4,198.99L290.48,198.3L290.96,195.3L291.04,194.6L291.92,191.37L292,189.9L292.08,190.07L292.16,189.8L292.4,186.04L293.21,177.53L293.29,180.32L293.53,181.13L293.61,180.37L293.85,184.72L294.09,187.09L294.33,188.92L294.81,186.73L294.89,186.93L294.97,187.24L295.86,185.95L295.94,186.6L296.02,186.54L296.5,185.97L296.58,187.21L296.66,187.24L296.9,188.73L297.54,184.43L297.62,182.68L298.34,172.71L298.67,175.83L298.75,176.94L298.83,177.73L298.91,176.51L299.31,176.96L299.39,173.57L300.99,142.29L301.15,142.57L301.39,141.82L301.56,140.95L301.72,144.34L301.96,146.44L302.6,157.98L302.68,160.21L303.32,171.86L303.72,169.86L303.8,168.16L305.33,151.27L305.49,152.42L305.57,154.24L306.69,166.49L306.77,166.44L307.01,165.74L308.38,155.35L308.46,155.53L308.94,157.5L309.02,158.5L309.82,164.26L309.9,165.25L311.19,180.69L311.27,182L311.75,184.81L312.39,184L312.63,183.76L312.79,183.4L314.64,187.46L314.88,187.27L315.52,187.19L315.68,187.77L315.76,188.16L316.24,189.13L316.32,187.31L316.56,187.23L316.73,188.07L316.81,188.7L317.13,189.45L317.45,188.48L317.69,188.54L318.81,191.63L318.89,191.32L320.26,194.62L320.5,194.88L320.66,195.39L321.22,194.43L321.3,194.4L322.26,192.61L322.42,193.03L322.5,193.47L322.83,193.26L322.99,194.08L323.07,194.07L323.31,194.26L323.47,194.76L323.63,192.58L323.87,191.53L324.99,177.83L325.07,176.16L325.88,177.76L326.12,178.1L327.4,185.13L327.48,186L328.36,189.81L328.44,190.6L329.81,195.7L330.05,195.61L331.41,200.37L331.49,200.1L331.73,199.68L333.66,186.34L333.74,186.78L333.98,193.64L335.19,198.59L335.43,197.11L335.67,196.41L336.47,192.25L336.55,190.28L337.67,184.43L338,185.59L338.08,186.3L338.48,188.69L339.04,188.18L339.12,187.83L339.2,188.08L339.6,186.65L339.68,185.93L341.05,181.69L341.29,181.32L342.41,170.59L342.97,171.57L343.05,171.78L344.26,179.01L344.34,179.13L345.54,171.58L345.78,169.9L346.98,160.76L347.07,160.51L347.23,160.9L347.55,160.05L347.79,160.25L348.03,160.51L350.04,171.89L350.28,171.76L350.44,170.91L350.6,172.38L350.84,172.81L351.48,176.88L351.72,174.09L351.96,173.16L352.84,160.2L353.41,161.8L353.65,161.81L353.89,161.49L354.21,162.67L354.29,163.78L354.37,162.8L354.93,165.66L355.01,167.05L357.18,182.38L357.26,181.92L357.34,181.78L357.82,182.56L357.9,182.04L358.14,181.65L358.3,181.15L358.46,182.76L358.7,184.6L359.99,196.85L360.07,195.94L361.27,189.37L361.51,189.55L362.32,188.31L362.4,188.93L362.64,189.82L362.72,190.19L362.8,186.66L362.88,186.18L364.64,204.29L364.88,203.64L364.96,202.16L365.04,205.42L365.77,202.84L366.01,203.85L366.25,201.62L366.73,204.99L366.81,205.04L367.21,203.43L367.45,204.74L367.69,205.33L367.93,205.86L368.01,203.35L368.26,203.06L368.82,207.37L368.9,207.1L368.98,208.33L370.26,218.55L370.5,218.68L370.58,218.19L371.06,220.18L371.14,220.49L371.87,226.88L371.95,228.35L372.35,234.39L372.43,236.37L373.63,255.79L373.87,256.02L375.32,261.25L375.56,259.77L377.97,241.84L378.05,242.11L381.5,214.21L381.74,214.93L383.1,207.28L383.18,207.64L383.43,208.25L384.15,208.8L384.31,206.93L384.55,206.84L385.35,200.96L385.67,201.41L385.75,203.5L386.88,208.43L386.96,208.37L387.52,206.55L387.6,206.93L387.68,208.51L388,210.11L388.08,212.54L389.36,223.53L389.61,223.1L389.69,222.65L389.85,223.74L390.25,223.4L390.33,224.06L390.81,226.68L391.05,225.36L391.29,225.12L392.74,217.3L392.98,218.34L393.06,218.07L393.14,218.3L393.3,217.56L393.62,217.63L393.7,215.77L396.35,226.43L396.43,225.87L396.51,225.28L398.11,210.44L398.35,211.61L398.6,211.14L398.84,212.49L399.32,211.5L399.4,210.79L399.48,211.57L400.04,208.81L400.28,209.32L402.29,215.59L402.77,214.79L402.85,213.47L403.65,211.25L403.81,212.22L403.89,212.99L403.97,212.79L404.29,213.74L404.37,214.18L405.02,217.44L405.1,215.86L405.34,213.98L406.54,205.91L406.78,206.06L407.02,206.18L407.83,213.35L407.91,214.65L409.03,217.62L409.27,212.51L409.43,210.81L410.07,213.74L410.15,214.17L410.47,213.16L410.55,211.37L410.64,214.94L411.28,207.88L411.52,206.75L412.08,203.64L412.4,204.68L412.64,205.06L413.52,208.24L413.77,208.1L413.85,208.37L414.09,206.93L414.33,206.89L415.69,205.24L415.77,205.44L416.57,204.3L416.65,204.75L416.74,205.33L418.58,217.62L418.82,218.4L419.06,219.65L419.38,219.13L419.46,214.29L420.59,205.59L420.67,204.69L420.83,206.2L421.39,202.45L421.63,206.21L422.35,211.01L422.43,212.13L424.44,232.05L424.76,230.58L425,230.73L425.16,231.05L425.32,230.26L425.56,229.6L425.89,228.1L426.29,230.14L426.37,230.57L426.45,230.78L426.77,229.85L426.85,229.18L427.01,228.38L427.49,230.71L427.57,230.03L427.81,229.48L429.1,224.18L429.18,224.39L430.62,229.38L430.94,228.91L431.18,228.84L431.5,227.51L431.91,228.59L431.99,228.92L432.95,231.47L433.03,231.13L433.11,230.54L433.99,226.4L434.07,224.84L435.28,213.12L435.44,214.6L435.68,215.46L438.25,234.72L438.57,234.65L438.65,230.1L438.81,229.87L439.21,230.75L439.29,231.3L439.93,230.63L440.17,234.62L443.3,200.88L443.54,200.06L444.43,197.3L444.67,197.23L445.87,185.35L446.11,186.56L446.35,187.71L448.04,203.72L448.12,203.44L448.76,194.46L449.16,198.07L449.24,197.52L450.05,193.13L450.29,194.82L450.37,195.31L451.01,192.05L451.17,193.82L451.41,194.82L451.57,195.89L451.73,191.68L451.97,191.11L452.29,189.2L452.85,189.63L453.1,190.3L454.38,204L454.46,203.72L455.1,201.25L455.58,202.26L455.66,202.22L457.59,205.41L457.67,206.08L459.6,219.93L459.92,219.41L460,218.94L460.4,219.08L461.76,211.3L461.84,210.87L462.25,210.04L462.33,209.75L464.65,187.63L464.89,187.63L465.78,188.86L466.02,189L468.83,178.39L468.91,177.28L470.03,174.72L470.51,174.32L471.32,172.31L471.8,172.68L472.28,172.82L472.76,172.93L473.08,171.91L474.53,174.32L475.01,176.06L476.29,179.41L476.77,180.67L477.58,183.67L478.06,185.82L483.03,211.44L483.52,212.16L485.76,214.78L486.24,214.19L486.57,214.05L487.05,215.78L489.29,222.14L489.78,222.8L491.06,223.82L491.54,223.4L492.51,222.08L492.99,219.84L494.27,215.32L494.75,214.61L496.52,211.22L497,210.07" style="vector-effect: none; fill: none; stroke: rgb(106, 27, 154); stroke-opacity: 1; stroke-width: 3.5px; opacity: 1;"/></g><g class="points"/><g class="text"/></g><g class="trace scatter trace941dae" style="stroke-miterlimit: 2; opacity: 1;"><g class="fills"/><g class="errorbars"/><g class="lines"><path class="js-line" d="M0,83.82L0.48,80.49L0.56,113.17L0.8,113.02L0.8,81.82L1.53,124.32L1.61,83.42L2.25,131.02L2.25,86.53L2.49,87.87L3.13,133.97L3.21,91.04L3.29,134.63L3.29,91.2L3.93,137.48L4.17,94.35L4.9,143.69L4.98,144.19L4.98,107.44L5.38,144.83L5.62,142.21L5.86,115.25L5.86,141.3L6.58,113.04L6.66,112.21L7.06,110.06L7.22,142.61L7.3,110.24L7.54,110.66L7.54,143L7.87,109.92L8.27,137.13L8.35,112.11L8.35,136.22L8.99,127L9.23,116.97L9.23,125.24L9.95,104.75L10.03,111.69L10.68,92.54L10.68,104.19L10.92,103.57L11.48,84.45L11.64,107.12L11.72,108.48L12.6,115.02L12.76,113.96L12.84,113.08L13.89,103.82L13.97,101.52L15.09,84.7L15.17,84.99L15.41,84.75L15.97,85.8L16.05,85.03L16.13,83.78L16.53,84.36L16.61,83.49L16.7,82.11L16.86,82.06L17.1,83.85L17.82,96.39L29.46,96.71L30.34,104.01L30.58,104.88L31.3,111.06L31.38,113.63L31.78,113.99L32.35,110.26L32.43,108.97L33.15,102.72L33.39,104.26L33.47,104.65L34.11,108.32L34.27,106.92L34.51,106.1L34.83,102.03L35.32,103L35.4,103.71L36.28,116.93L36.36,118.52L37.89,127.65L37.97,127.75L38.45,131.56L38.77,129.37L39.01,129.02L41.34,117.12L41.5,117.95L41.58,118.65L41.98,121.01L42.46,120.5L42.54,119.94L43.66,108.57L43.74,108.24L44.71,103.04L44.79,103.2L45.27,102.88L45.35,105.48L45.43,104.5L45.51,102.65L45.75,101.93L45.83,99.21L46.87,43.2L46.95,38.13L48,15.96L48.08,15.96L48.16,14.71L48.56,19.25L48.64,22.56L50.41,39.6L50.49,39.26L51.37,34.82L51.45,35.56L51.69,35.74L51.93,36.71L52.09,36.15L52.57,37.26L52.65,36.66L52.73,37.42L54.34,20.14L54.5,20.64L54.74,21.75L54.9,22.68L55.06,21.47L55.3,19.68L55.54,19.42L55.62,20.19L55.86,21.23L56.11,24.39L56.51,20.55L56.59,20.25L56.67,20.91L57.15,19.32L57.23,17.86L57.63,13.75L57.87,17.97L58.11,20.36L60.68,86.45L60.92,86.99L63.17,112.01L63.25,111.53L63.33,111L63.73,111.26L64.05,110.83L64.29,110.98L64.53,109.94L64.61,111.64L64.85,112.47L65.09,112.27L65.42,113.05L65.5,112.13L65.58,110.13L66.86,93.02L67.1,94.47L68.39,108.17L68.55,107.89L68.79,107.71L69.59,99.47L69.67,98.2L71.28,82.17L71.36,82.56L71.6,83.1L72.48,86.31L72.72,86.82L76.09,104.42L76.17,103.92L76.41,102.08L76.89,103.9L76.97,104.82L77.54,108.2L77.78,109.57L79.46,126.33L79.54,126.19L79.62,126.71L80.83,114.11L80.91,115.2L81.15,115.9L82.27,121.66L82.35,121.69L83.96,115.52L84.04,114.82L84.76,110.3L84.84,110.5L85.08,110.92L85.96,115.95L86.2,115.81L86.28,115.17L86.85,113.23L87.09,114.15L87.33,114.47L89.74,142.91L89.9,142.78L90.14,142.66L90.86,141.78L91.02,142.17L91.26,142.42L92.06,145.4L92.14,144.33L92.38,144.2L92.55,144.4L92.71,143.76L92.95,144.08L93.03,143.55L93.27,144.51L93.59,142.88L93.67,142.8L94.71,135.39L94.95,136.05L95.19,136.94L95.92,137.63L96,137.57L96.08,137.86L97.04,136.34L97.2,136.97L97.44,137.22L98.57,139.5L98.65,139.26L100.97,145.6L101.13,145.34L101.37,145.61L102.74,148.96L102.82,149.36L103.94,150.75L104.18,150.31L104.26,149.37L104.42,149.06L104.5,149.56L104.75,150.89L105.95,155.63L106.03,154.98L107.31,149.17L107.55,149.39L109.48,155.26L109.56,154.54L109.8,155.11L109.88,153.65L109.96,153.26L110.12,152.22L110.52,153.98L110.6,153.89L110.69,153.74L111.01,153.25L111.09,154.41L111.17,155.12L111.65,158.13L111.81,156.95L112.05,157.05L113.25,163.46L113.33,163.45L113.41,163.12L114.46,156.47L114.54,154.6L115.42,149.4L115.58,150.48L115.66,150.64L116.87,164.04L117.11,164.42L117.91,162.49L117.99,162.07L118.39,161.73L118.47,161.23L118.79,161.08L118.87,159.96L119.43,155.84L119.67,157.49L119.92,157.78L120.24,157.07L120.48,157.64L120.56,158.44L121.68,152.7L121.76,153.98L121.84,153.86L122.89,156.57L123.29,155.77L123.37,155.5L123.61,156.03L125.05,153.66L125.13,153.79L125.21,154.39L125.61,155.8L125.86,155.59L126.1,155.64L126.42,157.08L126.82,155.72L126.9,155.5L127.46,154.33L127.54,153.63L127.78,153.97L127.86,152.29L129.15,144.42L129.23,145.25L129.47,145.21L130.59,149.4L130.91,148.75L131.15,148.38L131.71,149.29L131.79,148.77L131.88,147.34L132.52,145.68L132.6,146L132.84,147.03L134.12,153.15L134.28,152.62L134.52,152.39L136.93,134.82L137.09,135L137.33,135.75L138.54,146.53L138.78,145.93L139.02,145.43L139.26,146.32L139.34,145.55L139.58,145.22L139.66,145.05L139.82,145.86L139.9,146.4L140.22,148.82L140.7,148.14L140.78,147.68L141.83,139.49L141.91,138.02L142.63,131.78L142.95,133.75L143.03,134.88L144.64,142.07L144.72,141.64L144.8,140.78L145.44,134.39L145.52,132.2L146.4,124.03L146.64,125.66L146.88,126.72L146.96,127.64L147.45,125.76L147.53,125.39L148.01,122.56L148.09,121.71L149.21,108.64L149.29,108.81L149.45,108.61L149.69,110.12L150.02,109.86L150.58,114.54L150.82,115.06L151.14,114.15L151.46,114.37L151.54,116.14L151.94,117.2L152.1,115.27L152.18,113.42L153.39,108.41L153.63,109.35L153.79,112.44L154.43,111.03L154.51,110.4L154.99,109.55L155.07,108.33L156.52,103.06L156.6,103.05L157.08,103.3L157.16,104.05L157.32,104.64L157.72,103.79L157.8,103.84L157.88,103.79L158.2,103.35L158.44,103.85L158.68,104.04L159.89,110.11L159.97,111.14L160.61,112.11L160.69,111.98L160.93,111.65L161.01,110.83L161.25,111.79L161.65,111.15L161.73,112.23L163.18,128.92L163.34,127.91L163.42,128.14L165.43,112.02L165.51,109.94L166.55,101.41L166.63,101.11L167.19,102.62L167.43,102.42L167.67,101.31L168.96,89.29L169.36,90.18L169.44,90.53L169.68,90.62L169.92,88.78L172.81,55.28L173.05,59.06L173.29,61.93L174.17,76.47L174.42,75.66L174.5,75.14L174.74,71.56L174.98,73.27L175.06,75.73L176.26,95.77L176.34,95.05L176.42,93.94L176.66,93.38L176.82,94.45L176.9,95.28L178.03,104.66L178.43,103.3L178.51,102.37L180.68,78.14L180.84,81.37L180.92,82.67L182.04,100.52L182.36,97.98L182.44,96.45L183.41,93.24L183.49,93.44L184.29,96.67L184.61,96.2L184.69,95.2L185.89,84.73L185.97,84.4L186.78,87.75L187.02,86.05L187.1,85.47L187.9,75.26L187.98,73.35L189.26,63.15L189.34,62.79L189.59,62.33L189.67,60.22L191.03,49.02L191.27,48.21L192.48,25.06L192.56,23.31L193.04,17.19L193.28,19.88L193.52,22.25L196.09,57.3L196.33,57.89L196.97,46.12L197.05,41.27L197.69,21.17L198.01,22.92L198.09,22.79L198.33,19.95L198.66,23.47L198.74,25.42L199.14,28.72L199.38,24.36L199.46,23.15L199.86,23.12L199.94,22.36L200.5,28.89L200.58,32.11L201.46,39.02L201.63,37.47L201.71,35.16L202.51,20.21L202.83,23.87L203.07,25.11L203.95,35.23L204.19,34.14L204.27,30.55L204.76,24.4L205.08,26.08L205.32,27.15L208.45,69.32L208.69,69.19L208.85,67.89L208.93,66.7L209.41,62.47L209.57,64.55L209.81,66.51L212.38,100.71L212.62,100.05L212.86,97.9L212.94,96.25L213.91,89.15L213.99,87.96L214.39,85.53L214.63,86.63L214.87,87.71L215.75,91.49L215.99,91.44L216.07,90.9L216.63,88.45L216.88,89.74L217.12,89.88L218,94.9L218.32,94.07L218.4,93.09L218.56,91.73L218.96,95.09L219.04,96.06L220.25,113.4L220.49,113.9L221.93,127.5L222.17,126.15L222.25,124.22L223.94,107.84L224.02,107.57L225.7,124.09L225.87,121.25L226.11,119.76L227.87,75.62L228.11,76.78L228.35,76.62L228.59,74.91L229.08,75.84L229.16,76.08L229.24,76.68L229.56,75.07L229.8,75.39L230.04,75.74L230.68,74.94L230.76,75.49L230.84,75.69L231.72,80.77L231.8,79.9L231.89,77.96L233.41,55.85L233.49,58.21L233.57,64.13L234.85,137.27L235.1,135.29L235.18,132.73L236.46,111.24L236.54,110.92L236.86,112.14L237.02,110.94L237.1,110.28L237.99,112.83L238.07,111.19L238.15,109.1L239.35,90.14L239.59,90.58L240.96,109.08L241.04,110.3L241.52,109.88L242.72,116.18L242.96,118.19L244.41,133.23L244.65,135.07L245.21,140.2L245.53,138.97L245.77,137.49L246.01,134.83L246.49,136.92L246.57,137.35L248.34,156.55L248.58,157.18L248.66,157.01L248.74,158.03L248.82,158.67L249.14,158.07L249.3,159.15L249.38,159.49L250.59,162.51L250.83,162.76L251.15,163.02L251.47,162.23L251.63,162.68L251.71,162.92L253.72,169.83L253.8,170.95L254.84,176.76L255,176.38L255.08,175.81L255.32,176.34L255.4,176.15L255.48,172.52L256.77,126.89L257.01,127.78L258.29,119.69L258.37,118.96L259.01,121.48L259.26,121.31L259.34,120.92L261.1,149.12L261.18,152.06L262.23,168.15L262.31,167.52L262.39,164.8L262.71,164.55L262.79,165.55L263.19,165.35L263.83,175.78L263.91,179.82L264.31,181.47L264.55,179.89L264.63,179.01L265.03,175.29L265.11,172.72L265.76,165.71L266.08,166.74L266.16,166.5L266.72,170.97L266.8,170.89L266.88,172.04L267.68,176.21L268,175.14L268.25,175.74L269.45,178.33L269.53,178.79L270.57,178.01L270.65,178.09L270.73,178.55L271.38,176.77L271.62,176.08L271.94,174.51L272.18,173.57L273.38,164.92L273.62,165.52L273.86,165.95L274.59,169.6L274.75,169L274.99,168.64L275.23,167.45L275.71,168.74L275.79,168.8L276.11,169.39L276.27,168.03L276.35,167.22L277.48,158.52L277.88,160.5L277.96,161.83L279,168.22L279.16,167L279.24,166.05L280.28,155.27L280.61,156.48L280.69,157.67L282.05,166.89L282.29,167.82L283.17,182.22L283.58,180.97L283.66,180.49L284.78,162.48L284.86,156.76L286.22,120.88L286.39,125.9L286.47,129.07L288.55,170.07L288.63,171.78L290.32,198.83L290.48,198.22L290.72,196.04L292.49,155.3L292.57,157L292.65,159.16L293.69,172.57L293.85,172.24L294.09,172.68L294.33,172.23L294.97,175.44L295.21,176.08L296.42,183.61L296.66,182.75L296.9,182.26L297.46,173.42L297.54,168.72L299.71,17.81L299.95,29.71L300.03,36.51L302.68,119.57L302.76,121.96L303.8,133.47L303.88,133.66L305.49,153.24L305.89,150.66L305.97,149.57L307.01,144.32L307.17,144.56L307.25,144.76L307.82,145.72L308.14,145.58L308.22,145.57L309.34,145.68L309.42,146.34L312.23,157.39L312.63,157.09L312.71,156.41L312.79,156.72L312.95,155.46L313.19,155.03L313.35,155.69L313.76,154.4L313.84,154.24L314.08,154.85L314.32,152.28L315.6,137.54L315.76,139.07L316,140.14L316.24,139.7L316.32,139.26L317.29,138.78L317.37,137.82L317.77,138.48L317.93,138.04L318.01,137.42L318.25,137.47L318.33,137.06L318.41,136.57L319.37,134.48L319.45,135.84L319.61,137.12L320.1,135.09L320.18,134.2L321.14,126.39L321.3,128.82L321.38,130.54L322.18,146.66L322.26,149.26L323.31,163.55L323.39,163.09L324.43,157.62L324.51,157.65L324.59,157.32L324.67,157.1L324.75,157.67L324.99,158.7L326.12,165.92L326.2,165.85L326.28,165.63L328.44,153.15L328.52,152.94L329.01,150.89L329.25,152.2L329.49,152.62L329.81,153.9L330.37,153.46L330.61,153.31L331.73,152.17L331.81,152.38L334.86,161.61L335.11,161.62L336.39,160.15L336.47,160.49L336.55,160.61L338.64,162.23L338.72,162.5L340.32,169.31L340.4,169.19L340.8,168.69L341.05,169.17L341.29,169.46L342.41,172.18L342.57,172.11L342.65,172.3L343.61,167.79L343.69,165.65L345.38,139.2L345.46,138.28L346.02,135.26L346.34,136.27L346.42,136.87L346.58,138.19L347.15,137.37L347.23,136.65L347.71,130.11L347.79,127.79L348.67,119.96L348.83,122.75L348.91,124.23L349.31,132.7L349.39,136.01L350.52,157.17L350.6,157.02L350.84,157.46L351.16,159.51L351.4,162.62L351.48,163.35L351.72,161.35L351.96,161.41L352.04,161.09L353.25,162.58L353.33,162.05L354.37,158.03L354.45,156.9L355.57,147.06L355.65,142.81L356.46,119.3L356.54,117.07L357.1,109.31L357.34,113.96L357.58,114.72L359.43,134.11L359.51,134.18L359.59,133.75L359.83,135.65L359.91,136.94L359.99,137.17L360.07,134.91L361.83,79.95L362.32,83.75L362.4,83.77L362.88,87.14L362.96,89.05L363.28,88.48L364,94.4L364.08,95.76L364.4,99.04L364.64,95.28L364.88,92.89L365.77,77.37L366.01,78.98L367.13,127.6L367.21,134.09L368.26,159.98L368.34,161.21L369.06,154.48L369.14,155.17L369.38,157.29L369.46,157.15L369.54,157.37L369.62,155.16L369.94,155.29L370.02,154.05L371.22,147.2L371.31,147.42L371.39,149.6L371.63,150.27L371.79,149.66L371.87,147.94L372.99,124.49L373.07,116.95L374.19,67.48L374.52,79.16L374.6,86.24L375.8,134.45L375.88,132.88L376.12,132.93L377.33,141.69L377.41,145.75L378.45,167.46L378.61,167.16L378.69,165.46L379.01,163.75L379.09,160.16L379.73,155.21L379.81,155.91L380.05,157.91L381.42,194.08L381.5,193.09L381.74,191.89L382.38,187.76L382.46,186.53L383.67,177.17L383.75,176.18L384.79,166.78L384.87,163.73L385.11,163.03L385.19,159.73L387.6,97.47L387.68,97.64L387.92,100.98L389.2,147.11L389.28,147.86L389.69,151.22L389.77,150.36L389.85,148.07L390.17,144.35L390.49,145.97L390.73,147.72L391.93,158.81L392.17,155.81L392.41,154.86L392.66,159.06L392.98,157.83L393.06,156.27L394.18,146.59L394.26,147.2L394.34,148.24L395.55,159.11L395.79,159.06L395.87,158.35L396.11,160.55L396.35,161.44L397.23,167.59L397.55,166.9L397.63,166.27L398.68,162.44L398.76,162.52L398.92,161.82L399.24,162.45L399.32,162.82L399.4,162.52L399.72,164.01L399.8,164.73L399.96,164.71L400.6,167.06L400.84,167L401.4,166.09L401.73,169.13L401.97,169.92L402.05,170.47L402.13,167.49L402.21,164.71L403.41,136.33L403.65,137.43L404.53,144.63L404.78,143.89L404.86,135.34L405.02,134.32L405.5,135.55L405.58,135.52L405.98,134.89L406.06,135.71L406.14,136.49L406.78,148.81L407.02,149.14L408.47,156.49L408.71,156.17L410.64,176.7L410.72,176.31L410.96,176.39L411.2,177.11L411.52,176.28L411.6,176.5L411.68,176.12L412.96,172.39L413.2,172.23L415.05,163.16L415.21,163.51L415.45,163.76L415.69,163.71L415.77,164.68L417.22,168.67L417.3,168.35L417.38,168.04L417.7,168.29L417.94,167.77L418.02,166.65L419.06,162.91L419.14,161.52L420.59,150.04L420.83,150.75L421.07,151.33L422.92,158.01L423,157.92L423.08,157.37L423.4,158.28L423.56,157.59L423.64,157.08L423.96,156.27L424.44,156.73L424.52,157.27L425.16,160.81L425.32,160.71L425.56,160.61L425.89,162.48L426.13,161.68L426.21,161.14L427.33,157.86L427.41,158.16L427.49,158.34L427.89,157.83L428.69,162.64L428.94,162.19L430.62,171.55L430.7,170.93L432.87,133.62L432.95,134.46L433.03,135.85L433.99,147.6L434.07,146.72L434.15,145.54L435.36,133.48L435.44,134.18L435.68,135.05L437.36,147.8L437.44,150.14L440.17,165.05L440.25,164.96L441.62,156.43L441.94,158.22L442.02,158.75L443.14,169.68L443.54,167.58L443.62,166.36L444.83,151.1L444.91,151.29L444.99,151.3L445.39,152.09L445.47,152.69L446.35,154.93L446.43,153.74L447.8,158.71L448.04,158.82L448.2,158.8L448.28,157.42L449.16,151.66L449.24,150.51L449.8,147.76L450.05,148.71L450.29,148.56L451.41,151.37L451.49,153.23L452.77,172.57L453.1,171.24L453.18,170.12L454.3,166.86L454.46,167.11L454.54,167.46L454.78,167.49L454.86,166.61L455.02,167.2L455.1,165.76L455.34,164.38L455.42,163.05L455.9,165.58L455.98,165.36L456.06,165.57L456.23,166.72L456.47,165.85L456.55,164.68L456.79,165.46L457.03,164.58L457.11,163.07L458.23,155.42L458.31,155.49L458.79,156.63L459.03,155.98L459.28,155.45L460.08,159.38L460.16,169.77L460.4,169.75L460.48,170.98L460.64,172.65L460.96,168.4L461.04,165.97L462.17,147.47L462.33,150.12L462.41,150.7L462.89,149.94L462.97,149.05L463.77,145.45L463.93,146.37L464.01,147.27L464.97,151.71L465.22,150.87L465.46,150.39L466.34,154.01L466.58,154.02L466.9,148.9L467.14,146.31L468.27,136.4L468.35,136.8L468.51,137.62L468.91,136.33L468.99,135.65L470.51,133.26L470.83,132.77L471.8,133.33L472.28,133.16L473.08,134.21L473.56,135.48L475.81,140.01L476.29,140.06L478.54,144.64L479.02,145.72L483.03,155.27L483.52,155.48L484.8,155.05L485.28,154.63L487.05,150.95L487.53,149.74L490.26,144.86L490.74,144.37L493.31,139.35L493.79,138.05L497,131.46" style="vector-effect: none; fill: none; stroke: rgb(0, 137, 123); stroke-opacity: 1; stroke-width: 2.5px; opacity: 1;"/></g><g class="points"/><g class="text"/></g></g></g></g><g class="zerolinelayer-above"/><path class="xlines-above crisp" d="M48.5,338.75H547" style="fill: none; stroke-width: 1.5px; stroke: rgb(0, 0, 0); stroke-opacity: 1;"/><path class="ylines-above crisp" d="M49.25,63V338" style="fill: none; stroke-width: 1.5px; stroke: rgb(0, 0, 0); stroke-opacity: 1;"/><g class="overlines-above"/><g class="xaxislayer-above"><path class="xtick ticks crisp" d="M0,338v-5" transform="translate(196.56,0)" style="stroke: rgb(68, 68, 68); stroke-opacity: 1; stroke-width: 1px;"/><path class="xtick ticks crisp" d="M0,338v-5" transform="translate(343.13,0)" style="stroke: rgb(68, 68, 68); stroke-opacity: 1; stroke-width: 1px;"/><path class="xtick ticks crisp" d="M0,338v-5" transform="translate(489.77,0)" style="stroke: rgb(68, 68, 68); stroke-opacity: 1; stroke-width: 1px;"/><g class="xtick"><text text-anchor="middle" x="0" y="356.3" transform="translate(50,0)" style="font-family: 'Open Sans', verdana, arial, sans-serif; font-size: 14px; fill: rgb(36, 36, 36); fill-opacity: 1; white-space: pre;">2010</text></g><g class="xtick"><text text-anchor="middle" x="0" y="356.3" style="font-family: 'Open Sans', verdana, arial, sans-serif; font-size: 14px; fill: rgb(36, 36, 36); fill-opacity: 1; white-space: pre;" transform="translate(196.56,0)">15</text></g><g class="xtick"><text text-anchor="middle" x="0" y="356.3" style="font-family: 'Open Sans', verdana, arial, sans-serif; font-size: 14px; fill: rgb(36, 36, 36); fill-opacity: 1; white-space: pre;" transform="translate(343.13,0)">20</text></g><g class="xtick"><text text-anchor="middle" x="0" y="356.3" style="font-family: 'Open Sans', verdana, arial, sans-serif; font-size: 14px; fill: rgb(36, 36, 36); fill-opacity: 1; white-space: pre;" transform="translate(489.77,0)">25</text></g></g><g class="yaxislayer-above"><path class="ytick ticks crisp" d="M50,0h5" transform="translate(0,323.42)" style="stroke: rgb(68, 68, 68); stroke-opacity: 1; stroke-width: 1px;"/><path class="ytick ticks crisp" d="M50,0h5" transform="translate(0,284.95)" style="stroke: rgb(68, 68, 68); stroke-opacity: 1; stroke-width: 1px;"/><path class="ytick ticks crisp" d="M50,0h5" transform="translate(0,246.47)" style="stroke: rgb(68, 68, 68); stroke-opacity: 1; stroke-width: 1px;"/><path class="ytick ticks crisp" d="M50,0h5" transform="translate(0,208)" style="stroke: rgb(68, 68, 68); stroke-opacity: 1; stroke-width: 1px;"/><path class="ytick ticks crisp" d="M50,0h5" transform="translate(0,169.53)" style="stroke: rgb(68, 68, 68); stroke-opacity: 1; stroke-width: 1px;"/><path class="ytick ticks crisp" d="M50,0h5" transform="translate(0,131.06)" style="stroke: rgb(68, 68, 68); stroke-opacity: 1; stroke-width: 1px;"/><path class="ytick ticks crisp" d="M50,0h5" transform="translate(0,92.58)" style="stroke: rgb(68, 68, 68); stroke-opacity: 1; stroke-width: 1px;"/><g class="ytick"><text text-anchor="end" x="45.7" y="4.8999999999999995" transform="translate(0,323.42)" style="font-family: 'Open Sans', verdana, arial, sans-serif; font-size: 14px; fill: rgb(36, 36, 36); fill-opacity: 1; white-space: pre;">−40</text></g><g class="ytick"><text text-anchor="end" x="45.7" y="4.8999999999999995" style="font-family: 'Open Sans', verdana, arial, sans-serif; font-size: 14px; fill: rgb(36, 36, 36); fill-opacity: 1; white-space: pre;" transform="translate(0,284.95)">−20</text></g><g class="ytick"><text text-anchor="end" x="45.7" y="4.8999999999999995" style="font-family: 'Open Sans', verdana, arial, sans-serif; font-size: 14px; fill: rgb(36, 36, 36); fill-opacity: 1; white-space: pre;" transform="translate(0,246.47)">0</text></g><g class="ytick"><text text-anchor="end" x="45.7" y="4.8999999999999995" style="font-family: 'Open Sans', verdana, arial, sans-serif; font-size: 14px; fill: rgb(36, 36, 36); fill-opacity: 1; white-space: pre;" transform="translate(0,208)">20</text></g><g class="ytick"><text text-anchor="end" x="45.7" y="4.8999999999999995" style="font-family: 'Open Sans', verdana, arial, sans-serif; font-size: 14px; fill: rgb(36, 36, 36); fill-opacity: 1; white-space: pre;" transform="translate(0,169.53)">40</text></g><g class="ytick"><text text-anchor="end" x="45.7" y="4.8999999999999995" style="font-family: 'Open Sans', verdana, arial, sans-serif; font-size: 14px; fill: rgb(36, 36, 36); fill-opacity: 1; white-space: pre;" transform="translate(0,131.06)">60</text></g><g class="ytick"><text text-anchor="end" x="45.7" y="4.8999999999999995" style="font-family: 'Open Sans', verdana, arial, sans-serif; font-size: 14px; fill: rgb(36, 36, 36); fill-opacity: 1; white-space: pre;" transform="translate(0,92.58)">80</text></g></g><g class="overaxes-above"/></g></g><g class="polarlayer"/><g class="smithlayer"/><g class="ternarylayer"/><g class="geolayer"/><g class="funnelarealayer"/><g class="pielayer"/><g class="iciclelayer"/><g class="treemaplayer"/><g class="sunburstlayer"/><g class="glimages"/><defs id="topdefs-91e8dd"><g class="clips"/><clipPath id="legend91e8dd"><rect width="287" height="29" x="0" y="0"/></clipPath></defs><g class="layer-above"><g class="imagelayer"/><g class="shapelayer"><g class="shape-group" data-index="0" clip-path="url(#clip91e8ddy)"><path data-index="0" fill-rule="evenodd" d="M50,246.47L547,246.47" style="opacity: 0.6; stroke: rgb(0, 0, 0); stroke-opacity: 0; fill: rgb(0, 0, 0); fill-opacity: 1; stroke-width: 0px;"/></g></g></g><g class="infolayer"><g class="legend" pointer-events="all" transform="translate(155,11.999999999999979)"><rect class="bg" shape-rendering="crispEdges" width="287" height="29" x="0" y="0" style="stroke: rgb(68, 68, 68); stroke-opacity: 1; fill: rgb(255, 255, 255); fill-opacity: 1; stroke-width: 0px;"/><g class="scrollbox" transform="" clip-path="url(#legend91e8dd)"><g class="groups"><g class="traces" transform="translate(0,14.5)" style="opacity: 1;"><text class="legendtext" text-anchor="start" x="40" y="4.680000000000001" style="font-family: 'Open Sans', verdana, arial, sans-serif; font-size: 12px; fill: rgb(36, 36, 36); fill-opacity: 1; white-space: pre;">10-year median</text><g class="layers" style="opacity: 1;"><g class="legendfill"/><g class="legendlines"><path class="js-line" d="M5,0h30" style="fill: none; stroke: rgb(106, 27, 154); stroke-opacity: 1; stroke-width: 3.5px;"/></g><g class="legendsymbols"><g class="legendpoints"/></g></g><rect class="legendtoggle" x="0" y="-9.5" width="138.40625" height="19" style="fill: rgb(0, 0, 0); fill-opacity: 0;"/></g><g class="traces" transform="translate(140.90625,14.5)" style="opacity: 1;"><text class="legendtext" text-anchor="start" x="40" y="4.680000000000001" style="font-family: 'Open Sans', verdana, arial, sans-serif; font-size: 12px; fill: rgb(36, 36, 36); fill-opacity: 1; white-space: pre;">3-month median</text><g class="layers" style="opacity: 1;"><g class="legendfill"/><g class="legendlines"><path class="js-line" d="M5,0h30" style="fill: none; stroke: rgb(0, 137, 123); stroke-opacity: 1; stroke-width: 2.5px;"/></g><g class="legendsymbols"><g class="legendpoints"/></g></g><rect class="legendtoggle" x="0" y="-9.5" width="143.0625" height="19" style="fill: rgb(0, 0, 0); fill-opacity: 0;"/></g></g></g><rect class="scrollbar" rx="20" ry="3" width="0" height="0" x="0" y="0" style="fill: rgb(128, 139, 164); fill-opacity: 1;"/></g><g class="g-gtitle"/><g class="g-xtitle"/><g class="g-ytitle"/></g></svg>