<svg class="main-svg" xmlns="http://www.w3.org/2000/svg" xmlns:xlink="http://www.w3.org/1999/xlink" width="1134" height="756" style="" viewBox="0 0 567 378"><rect x="0" y="0" width="567" height="378" style="fill: rgb(255, 255, 255); fill-opacity: 1;"/><defs id="defs-b343c4"><g class="clips"><clipPath id="clipb343c4xyplot" class="plotclip"><rect width="497" height="308"/></clipPath><clipPath class="axesclip" id="clipb343c4x"><rect x="50" y="0" width="497" height="378"/></clipPath><clipPath class="axesclip" id="clipb343c4y"><rect x="0" y="30" width="567" height="308"/></clipPath><clipPath class="axesclip" id="clipb343c4xy"><rect x="50" y="30" width="497" height="308"/></clipPath></g><g class="gradients"/><g class="patterns"/></defs><g class="bglayer"/><g class="layer-below"><g class="imagelayer"/><g class="shapelayer"/></g><g class="cartesianlayer"><g class="subplot xy"><g class="layer-subplot"><g class="shapelayer"/><g class="imagelayer"/></g><g class="minor-gridlayer"><g class="x"/><g class="y"/></g><g class="gridlayer"><g class="x"><path class="xgrid crisp" transform="translate(121.62,0)" d="M0,30v308" style="stroke: rgb(0, 0, 0); stroke-opacity: 0.15; stroke-width: 1px;"/><path class="xgrid crisp" transform="translate(193.63,0)" d="M0,30v308" style="stroke: rgb(0, 0, 0); stroke-opacity: 0.15; stroke-width: 1px;"/><path class="xgrid crisp" transform="translate(265.45,0)" d="M0,30v308" style="stroke: rgb(0, 0, 0); stroke-opacity: 0.15; stroke-width: 1px;"/><path class="xgrid crisp" transform="translate(337.26,0)" d="M0,30v308" style="stroke: rgb(0, 0, 0); stroke-opacity: 0.15; stroke-width: 1px;"/><path class="xgrid crisp" transform="translate(409.08,0)" d="M0,30v308" style="stroke: rgb(0, 0, 0); stroke-opacity: 0.15; stroke-width: 1px;"/><path class="xgrid crisp" transform="translate(481.09,0)" d="M0,30v308" style="stroke: rgb(0, 0, 0); stroke-opacity: 0.15; stroke-width: 1px;"/></g><g class="y"><path class="ygrid crisp" transform="translate(0,327)" d="M50,0h497" style="stroke: rgb(0, 0, 0); stroke-opacity: 0.15; stroke-width: 1px;"/><path class="ygrid crisp" transform="translate(0,272)" d="M50,0h497" style="stroke: rgb(0, 0, 0); stroke-opacity: 0.15; stroke-width: 1px;"/><path class="ygrid crisp" transform="translate(0,217)" d="M50,0h497" style="stroke: rgb(0, 0, 0); stroke-opacity: 0.15; stroke-width: 1px;"/><path class="ygrid crisp" transform="translate(0,162)" d="M50,0h497" style="stroke: rgb(0, 0, 0); stroke-opacity: 0.15; stroke-width: 1px;"/><path class="ygrid crisp" transform="translate(0,107)" d="M50,0h497" style="stroke: rgb(0, 0, 0); stroke-opacity: 0.15; stroke-width: 1px;"/><path class="ygrid crisp" transform="translate(0,52)" d="M50,0h497" style="stroke: rgb(0, 0, 0); stroke-opacity: 0.15; stroke-width: 1px;"/></g></g><g class="zerolinelayer"/><g class="layer-between"><g class="shapelayer"/><g class="imagelayer"/></g><path class="xlines-below"/><path class="ylines-below"/><g class="overlines-below"/><g class="xaxislayer-below"/><g class="yaxislayer-below"/><g class="overaxes-below"/><g class="overplot"><g class="xy" transform="translate(50,30)" clip-path="url(#clipb343c4xyplot)"><g class="scatterlayer mlayer"><g class="trace scatter trace43f052" style="stroke-miterlimit: 2; opacity: 1;"><g class="fills"/><g class="errorbars"/><g class="lines"><path class="js-line" d="M0,182.6L0.2,176L0.39,178.2L0.98,182.6L1.77,191.4L2.36,189.2L2.95,200.2L3.15,206.8L3.74,206.8L3.94,209L5.12,215.6L5.31,213.4L5.51,213.4L5.71,215.6L6.89,224.4L7.08,220L7.28,215.6L7.87,220L8.07,220L8.26,222.2L8.66,217.8L9.25,217.8L10.03,213.4L10.62,215.6L11.21,211.2L11.41,217.8L13.38,206.8L13.58,209L13.77,209L13.97,211.2L14.17,211.2L14.76,213.4L14.95,213.4L15.15,211.2L15.54,213.4L16.13,213.4L16.33,213.4L16.53,211.2L16.72,209L16.92,211.2L17.31,211.2L17.71,211.2L17.9,213.4L18.89,213.4L19.09,215.6L19.28,215.6L19.48,217.8L20.27,222.2L20.46,220L20.86,220L21.64,217.8L22.04,220L22.23,217.8L22.43,217.8L23.02,217.8L23.22,215.6L23.41,215.6L23.61,213.4L23.81,213.4L24.4,211.2L25.77,198L25.97,200.2L26.17,200.2L26.56,202.4L27.15,202.4L27.35,202.4L27.55,200.2L27.94,198L28.53,198L29.32,191.4L29.91,189.2L30.3,189.2L30.5,191.4L31.68,198L31.87,198L32.07,198L32.66,200.2L34.04,213.4L34.24,202.4L35.22,215.6L35.42,217.8L36.79,217.8L36.99,213.4L37.58,217.8L38.17,217.8L38.76,217.8L38.96,220L39.55,217.8L39.74,222.2L40.14,222.2L40.33,224.4L41.12,224.4L41.32,222.2L42.7,193.6L42.89,200.2L43.09,200.2L43.68,198L43.88,200.2L44.27,198L44.47,200.2L45.06,202.4L45.84,209L46.43,209L46.63,209L46.83,206.8L47.02,206.8L47.22,209L48.2,204.6L48.4,204.6L49.19,204.6L49.39,202.4L49.98,206.8L50.57,206.8L50.76,206.8L50.96,209L51.35,213.4L51.94,211.2L52.14,211.2L52.34,209L52.73,211.2L53.32,209L53.52,209L53.71,204.6L53.91,202.4L54.11,204.6L54.7,204.6L55.09,204.6L55.29,206.8L56.47,217.8L56.67,217.8L57.65,222.2L57.85,220L58.83,226.6L59.03,224.4L59.62,215.6L60.21,217.8L61.58,226.6L61.78,226.6L62.17,222.2L62.37,224.4L62.96,224.4L63.16,224.4L63.35,220L63.75,217.8L64.34,220L65.13,226.6L65.32,222.2L65.72,222.2L65.91,220L66.5,226.6L67.09,226.6L67.29,226.6L67.49,224.4L68.47,235.4L68.67,235.4L69.06,237.6L69.26,235.4L69.85,237.6L71.42,237.6L71.82,235.4L72.8,224.4L73,226.6L73.98,231L74.18,228.8L74.57,228.8L74.77,233.2L75.55,233.2L75.75,235.4L77.52,217.8L78.11,217.8L78.9,228.8L79.49,226.6L79.69,226.6L79.88,228.8L81.06,228.8L81.26,226.6L82.64,204.6L82.83,193.6L83.23,182.6L83.62,184.8L83.82,191.4L84.21,184.8L84.41,156.2L86.77,-4.4L86.97,-72.6L87.16,-165L87.95,-52.8L88.15,4.4L89.33,74.8L89.52,55L89.72,61.6L89.92,50.6L90.51,61.6L91.88,125.4L92.08,132L92.28,116.6L92.67,127.6L93.26,123.2L93.46,114.4L93.85,125.4L94.05,121L94.64,123.2L95.43,121L96.02,123.2L96.21,125.4L96.41,123.2L96.61,114.4L96.8,114.4L97.39,110L97.59,110L97.79,114.4L97.98,110L98.18,116.6L98.77,132L99.16,156.2L99.56,154L100.15,154L101.33,176L101.52,178.2L101.72,178.2L101.92,187L102.12,184.8L102.31,191.4L102.9,195.8L103.1,187L103.3,184.8L103.49,171.6L103.69,171.6L104.28,173.8L104.48,195.8L105.07,187L105.66,187L107.03,171.6L107.23,173.8L108.41,189.2L108.61,189.2L108.8,187L109,191.4L109.2,189.2L109.79,191.4L109.99,189.2L110.18,193.6L110.38,195.8L111.36,202.4L111.56,200.2L111.76,200.2L111.95,198L112.54,198L112.74,195.8L113.33,191.4L113.92,193.6L114.12,189.2L114.51,193.6L114.71,198L115.69,195.8L115.89,191.4L116.87,184.8L117.07,187L117.46,184.8L118.05,189.2L118.45,189.2L118.64,184.8L119.63,191.4L119.82,193.6L120.81,189.2L121,189.2L121.59,187L122.18,187L122.77,193.6L122.97,191.4L123.56,189.2L124.94,176L125.14,178.2L126.91,200.2L127.1,198L127.69,198L127.89,200.2L128.09,198L128.28,195.8L129.07,198L129.27,198L129.46,198L129.66,200.2L130.45,202.4L130.64,202.4L131.43,193.6L131.83,195.8L133.2,213.4L133.6,211.2L133.79,206.8L135.17,215.6L135.37,215.6L135.96,215.6L136.15,217.8L136.74,220L137.33,222.2L137.92,233.2L138.12,231L138.71,228.8L139.5,217.8L140.09,217.8L140.29,217.8L140.48,222.2L140.88,224.4L141.47,222.2L142.06,226.6L142.84,226.6L143.43,231L144.22,226.6L144.42,224.4L144.81,226.6L145.01,226.6L145.6,228.8L145.79,226.6L146.19,235.4L146.38,233.2L146.98,233.2L147.17,235.4L147.37,233.2L147.57,231L148.35,226.6L148.55,228.8L148.94,226.6L149.14,231L149.53,231L149.73,226.6L151.11,237.6L151.3,235.4L152.48,235.4L152.68,239.8L153.27,244.2L153.86,239.8L154.06,237.6L154.25,239.8L154.45,242L154.65,244.2L155.04,242L155.24,239.8L155.63,239.8L155.83,237.6L157.01,226.6L157.21,233.2L158.39,233.2L158.58,237.6L159.37,239.8L159.57,235.4L159.76,235.4L159.96,233.2L161.34,250.8L162.13,248.6L162.52,248.6L162.72,250.8L163.9,250.8L164.09,248.6L164.29,248.6L164.88,244.2L165.47,244.2L165.67,246.4L166.65,246.4L166.85,248.6L167.04,246.4L167.63,248.6L167.83,244.2L168.22,246.4L168.42,248.6L169.01,248.6L169.21,244.2L169.4,244.2L169.6,246.4L170.39,250.8L170.59,248.6L170.98,248.6L171.18,250.8L173.54,250.8L173.73,248.6L175.31,248.6L175.9,250.8L176.09,250.8L176.29,253L176.49,255.2L176.68,253L177.28,253L177.87,253L178.06,255.2L179.24,255.2L179.44,253L180.23,253L180.42,248.6L180.82,246.4L181.41,248.6L181.8,248.6L182,246.4L182.19,246.4L182.78,239.8L182.98,237.6L183.18,239.8L183.37,242L184.36,242L184.56,244.2L184.75,246.4L185.15,244.2L185.54,242L186.33,237.6L186.92,237.6L187.31,237.6L187.51,239.8L188.69,239.8L188.88,233.2L190.46,244.2L191.05,244.2L192.43,244.2L192.62,242L193.21,244.2L193.8,246.4L194,246.4L194.2,244.2L194.39,244.2L194.59,246.4L195.38,244.2L195.57,246.4L195.77,246.4L195.97,250.8L196.56,255.2L196.75,250.8L196.95,253L197.15,248.6L197.34,248.6L198.52,248.6L198.72,246.4L199.31,246.4L199.51,244.2L200.1,250.8L200.69,248.6L200.89,250.8L201.28,248.6L201.48,248.6L202.07,246.4L202.26,248.6L202.46,250.8L202.66,248.6L202.85,246.4L203.44,246.4L203.64,244.2L203.84,244.2L204.03,246.4L204.82,250.8L205.02,244.2L206.2,237.6L206.39,237.6L206.79,237.6L206.98,239.8L207.77,235.4L207.97,233.2L208.17,233.2L208.36,224.4L208.95,224.4L209.15,222.2L209.54,217.8L209.74,224.4L210.92,228.8L211.12,226.6L211.71,228.8L211.9,226.6L212.1,224.4L212.49,226.6L213.08,224.4L214.86,239.8L215.05,237.6L215.25,239.8L215.84,235.4L216.23,244.2L216.63,242L217.22,237.6L217.81,237.6L218,235.4L218.59,235.4L218.79,233.2L219.97,217.8L220.17,220L220.36,224.4L220.76,206.8L221.35,209L221.54,215.6L221.74,220L221.94,213.4L222.13,215.6L222.73,213.4L223.51,222.2L224.1,220L226.07,191.4L226.27,193.6L226.86,200.2L227.64,191.4L228.23,178.2L228.43,171.6L228.63,182.6L228.82,176L229.02,178.2L229.61,176L229.81,178.2L230.99,220L231.19,222.2L231.58,213.4L231.78,220L232.37,220L232.56,222.2L233.94,235.4L234.14,228.8L234.33,231L234.53,226.6L235.12,222.2L235.51,211.2L235.71,213.4L236.5,215.6L238.27,200.2L238.47,200.2L239.25,198L239.45,202.4L239.84,200.2L240.04,202.4L240.63,200.2L241.22,193.6L241.42,195.8L242.01,191.4L242.2,193.6L242.4,191.4L242.6,189.2L242.79,187L243.38,191.4L243.58,191.4L243.78,198L244.17,213.4L244.76,211.2L245.16,220L245.55,213.4L246.14,217.8L247.52,195.8L247.71,202.4L247.91,209L248.3,204.6L248.89,204.6L249.09,206.8L249.29,200.2L249.48,198L249.68,204.6L250.27,206.8L250.47,202.4L250.66,202.4L250.86,195.8L251.65,195.8L251.84,189.2L252.44,211.2L253.03,209L253.22,209L254.99,224.4L255.19,220L255.98,213.4L256.17,217.8L256.96,222.2L257.16,220L257.94,215.6L258.53,215.6L258.73,211.2L258.93,217.8L259.12,224.4L259.32,226.6L259.91,224.4L260.11,226.6L260.5,224.4L260.7,220L261.49,217.8L261.68,220L261.88,222.2L262.08,217.8L262.67,215.6L262.86,215.6L263.06,209L263.26,209L263.45,206.8L264.04,206.8L264.24,204.6L265.42,215.6L265.62,213.4L266.01,217.8L266.21,215.6L266.8,215.6L268.37,193.6L268.57,189.2L268.77,184.8L268.96,191.4L269.55,198L270.14,209L270.34,206.8L270.93,204.6L271.32,189.2L271.72,195.8L272.31,195.8L273.09,202.4L273.68,206.8L274.08,206.8L274.27,211.2L274.47,211.2L275.06,213.4L275.26,213.4L275.46,215.6L275.65,211.2L275.85,215.6L276.44,217.8L276.83,215.6L277.03,222.2L277.23,222.2L277.82,228.8L278.6,235.4L279.19,235.4L279.39,235.4L279.59,237.6L279.78,237.6L279.98,239.8L280.57,239.8L280.77,235.4L281.16,235.4L281.36,237.6L281.95,237.6L282.14,235.4L282.74,233.2L283.33,233.2L284.9,217.8L285.1,222.2L285.29,222.2L285.49,224.4L286.28,224.4L286.47,220L286.87,226.6L287.06,224.4L287.65,220L288.24,220L288.83,224.4L289.62,231L290.21,231L290.41,233.2L290.8,231L291,228.8L291.59,231L291.79,226.6L291.98,226.6L292.18,231L292.97,231L293.16,228.8L293.36,228.8L293.56,233.2L293.75,233.2L294.34,231L294.54,231L294.74,228.8L295.72,228.8L295.92,231L296.11,231L296.31,228.8L297.29,224.4L297.49,226.6L298.48,226.6L298.67,222.2L298.87,222.2L299.07,226.6L299.85,231L300.05,226.6L300.64,213.4L301.23,200.2L301.43,204.6L301.62,193.6L302.02,202.4L302.61,204.6L303,217.8L303.39,213.4L303.98,213.4L305.36,226.6L305.56,224.4L305.95,222.2L306.74,222.2L307.53,231L308.12,233.2L308.51,233.2L308.71,231L309.49,231L309.69,228.8L309.89,228.8L310.08,231L311.46,217.8L311.66,222.2L312.25,220L312.44,222.2L312.84,222.2L313.04,224.4L313.82,220L314.02,222.2L315.2,228.8L315.4,228.8L316.38,233.2L316.58,233.2L316.97,233.2L317.17,235.4L318.15,231L318.35,228.8L318.54,228.8L319.13,226.6L319.92,235.4L320.51,235.4L320.71,235.4L320.91,233.2L321.1,235.4L321.3,233.2L321.89,231L323.27,239.8L323.46,239.8L324.84,239.8L325.04,242L325.23,242L325.43,237.6L326.61,237.6L326.81,239.8L327.79,239.8L327.99,244.2L328.78,246.4L328.97,246.4L329.37,242L329.56,244.2L330.15,242L331.92,242L332.12,239.8L332.91,239.8L333.1,242L333.69,248.6L334.28,248.6L334.87,248.6L335.07,246.4L335.66,246.4L335.86,248.6L337.04,248.6L337.24,246.4L337.43,246.4L337.63,248.6L338.61,248.6L338.81,253L339.99,253L340.19,250.8L341.37,244.2L341.56,244.2L341.96,248.6L342.55,246.4L342.75,246.4L342.94,250.8L343.93,250.8L344.12,248.6L344.71,242L345.3,242L345.7,248.6L346.09,246.4L346.68,244.2L347.07,244.2L347.27,250.8L348.65,250.8L348.84,253L350.02,259.6L350.22,261.8L351.01,264L351.21,268.4L351.4,268.4L351.6,270.6L352.39,270.6L352.58,272.8L352.98,277.2L353.57,275L354.94,266.2L355.14,268.4L355.53,275L355.73,270.6L356.32,268.4L357.11,261.8L357.9,261.8L358.49,264L358.88,264L359.47,253L359.67,255.2L359.86,257.4L360.45,257.4L360.65,261.8L361.83,272.8L362.03,272.8L362.22,272.8L362.42,275L362.62,275L363.21,272.8L363.4,272.8L363.6,277.2L363.8,277.2L363.99,279.4L364.78,270.6L364.98,264L365.17,261.8L365.37,264L365.96,266.2L366.55,270.6L366.75,268.4L367.34,266.2L367.54,266.2L367.73,268.4L368.13,270.6L368.72,270.6L368.91,270.6L369.11,272.8L369.31,275L369.5,268.4L370.49,264L370.68,259.6L370.88,259.6L371.47,261.8L371.67,259.6L372.06,261.8L372.26,264L372.85,264L373.05,266.2L373.64,275L374.23,277.2L375.01,272.8L375.6,270.6L376,268.4L376.19,270.6L376.78,268.4L377.77,272.8L378.36,272.8L378.75,272.8L378.95,275L379.93,268.4L380.13,268.4L380.52,268.4L381.11,270.6L381.9,272.8L382.49,272.8L382.69,272.8L382.88,275L383.08,275L383.28,277.2L383.87,277.2L384.06,275L384.46,275L384.65,272.8L385.83,270.6L386.03,272.8L386.62,272.8L386.82,270.6L387.41,268.4L388,268.4L388.79,270.6L389.38,270.6L389.97,266.2L390.16,268.4L390.75,268.4L391.15,268.4L391.34,266.2L392.33,259.6L392.52,259.6L392.92,257.4L393.51,259.6L393.9,257.4L394.1,259.6L394.29,261.8L394.69,261.8L394.88,268.4L395.67,270.6L396.26,270.6L396.66,270.6L396.85,268.4L397.64,270.6L397.84,268.4L398.23,266.2L398.43,268.4L399.02,268.4L399.61,264L399.8,266.2L400.39,264L400.98,257.4L401.18,248.6L401.77,235.4L401.97,244.2L402.16,248.6L402.56,253L403.15,250.8L403.94,264L404.53,264L404.92,264L405.12,266.2L406.1,270.6L406.3,268.4L406.49,268.4L406.69,270.6L407.87,264L408.07,264L408.66,264L408.85,261.8L409.05,261.8L409.25,264L410.23,270.6L410.43,272.8L410.82,277.2L411.41,277.2L411.61,279.4L411.81,277.2L412,275L412.79,277.2L412.99,275L413.58,283.8L414.17,281.6L414.56,281.6L414.76,283.8L415.54,286L415.74,283.8L416.33,286L416.92,281.6L417.51,277.2L417.71,279.4L418.3,281.6L418.5,281.6L418.69,279.4L419.09,275L419.68,277.2L419.87,277.2L420.07,283.8L420.27,288.2L420.46,286L421.05,286L421.25,286L421.45,283.8L421.64,279.4L421.84,281.6L422.43,283.8L423.22,279.4L423.81,279.4L424.79,275L425.18,277.2L425.38,277.2L425.58,279.4L425.78,279.4L425.97,277.2L426.56,277.2L426.76,279.4L427.35,281.6L427.94,281.6L428.73,275L429.32,277.2L429.51,277.2L429.91,279.4L430.1,279.4L430.69,277.2L432.46,277.2L432.66,279.4L433.45,277.2L433.65,277.2L434.24,279.4L434.83,279.4L435.22,279.4L435.42,281.6L435.61,281.6L436.2,279.4L436.6,279.4L436.79,277.2L437.78,272.8L437.97,272.8L438.37,270.6L438.96,270.6L439.74,277.2L440.33,277.2L440.73,279.4L440.93,277.2L441.12,275L441.71,275L441.91,270.6L442.11,270.6L442.3,268.4L443.09,264L443.29,264L443.48,266.2L443.88,264L444.47,259.6L445.06,253L445.25,257.4L445.84,259.6L446.63,264L447.22,266.2L448.8,253L448.99,255.2L449.98,222.2L450.17,228.8L450.37,226.6L450.57,237.6L451.94,253L452.73,250.8L452.93,250.8L453.12,255.2L454.11,259.6L454.3,255.2L454.7,250.8L454.89,255.2L455.48,257.4L455.88,257.4L456.08,261.8L456.27,261.8L456.86,266.2L457.65,270.6L458.24,272.8L458.83,272.8L459.03,270.6L459.62,270.6L459.81,272.8L460.21,272.8L460.4,270.6L461.19,281.6L461.39,279.4L461.58,277.2L462.37,279.4L462.57,279.4L462.76,279.4L462.96,277.2L463.16,275L463.75,279.4L464.34,275L464.54,277.2L465.13,272.8L465.32,275L465.52,272.8L465.72,270.6L467.29,283.8L467.88,283.8L468.08,283.8L468.27,279.4L469.26,279.4L469.45,281.6L469.85,281.6L470.04,283.8L470.63,283.8L470.83,281.6L471.42,283.8L472.01,283.8L472.8,277.2L473.39,279.4L473.59,279.4L473.78,281.6L474.18,283.8L474.77,281.6L475.55,292.6L476.14,290.4L476.54,286L476.93,288.2L477.52,290.4L479.1,279.4L479.29,281.6L479.69,283.8L480.28,281.6L480.47,281.6L480.67,283.8L480.87,283.8L481.06,286L481.65,288.2L481.85,286L482.05,283.8L482.24,288.2L482.44,288.2L483.03,288.2L483.23,286L483.62,281.6L483.82,283.8L484.41,283.8L484.8,283.8L485,286L485.19,286L485.79,288.2L487.16,277.2L487.36,277.2L487.95,281.6L488.54,283.8L488.93,279.4L489.13,283.8L489.33,283.8L490.31,286L490.51,279.4L491.49,268.4L491.69,272.8L491.88,272.8L492.08,270.6L493.26,272.8L493.46,272.8L494.05,272.8L494.25,270.6L494.44,272.8L494.84,270.6L495.43,272.8L496.21,279.4L496.61,277.2L497,279.4" style="vector-effect: none; fill: none; stroke: rgb(106, 27, 154); stroke-opacity: 1; stroke-width: 2.5px; opacity: 1;"/></g><g class="points"/><g class="text"/></g></g></g></g><g class="zerolinelayer-above"/><path class="xlines-above crisp" d="M48.5,338.75H547" style="fill: none; stroke-width: 1.5px; stroke: rgb(0, 0, 0); stroke-opacity: 1;"/><path class="ylines-above crisp" d="M49.25,30V338" style="fill: none; stroke-width: 1.5px; stroke: rgb(0, 0, 0); stroke-opacity: 1;"/><g class="overlines-above"/><g class="xaxislayer-above"><path class="xtick ticks crisp" d="M0,338v-5" transform="translate(121.62,0)" style="stroke: rgb(68, 68, 68); stroke-opacity: 1; stroke-width: 1px;"/><path class="xtick ticks crisp" d="M0,338v-5" transform="translate(193.63,0)" style="stroke: rgb(68, 68, 68); stroke-opacity: 1; stroke-width: 1px;"/><path class="xtick ticks crisp" d="M0,338v-5" transform="translate(265.45,0)" style="stroke: rgb(68, 68, 68); stroke-opacity: 1; stroke-width: 1px;"/><path class="xtick ticks crisp" d="M0,338v-5" transform="translate(337.26,0)" style="stroke: rgb(68, 68, 68); stroke-opacity: 1; stroke-width: 1px;"/><path class="xtick ticks crisp" d="M0,338v-5" transform="translate(409.08,0)" style="stroke: rgb(68, 68, 68); stroke-opacity: 1; stroke-width: 1px;"/><path class="xtick ticks crisp" d="M0,338v-5" transform="translate(481.09,0)" style="stroke: rgb(68, 68, 68); stroke-opacity: 1; stroke-width: 1px;"/><g class="xtick"><text text-anchor="middle" x="0" y="356.3" transform="translate(121.62,0)" style="font-family: 'Open Sans', verdana, arial, sans-serif; font-size: 14px; fill: rgb(36, 36, 36); fill-opacity: 1; white-space: pre;">2020</text></g><g class="xtick"><text text-anchor="middle" x="0" y="356.3" style="font-family: 'Open Sans', verdana, arial, sans-serif; font-size: 14px; fill: rgb(36, 36, 36); fill-opacity: 1; white-space: pre;" transform="translate(193.63,0)">21</text></g><g class="xtick"><text text-anchor="middle" x="0" y="356.3" style="font-family: 'Open Sans', verdana, arial, sans-serif; font-size: 14px; fill: rgb(36, 36, 36); fill-opacity: 1; white-space: pre;" transform="translate(265.45,0)">22</text></g><g class="xtick"><text text-anchor="middle" x="0" y="356.3" style="font-family: 'Open Sans', verdana, arial, sans-serif; font-size: 14px; fill: rgb(36, 36, 36); fill-opacity: 1; white-space: pre;" transform="translate(337.26,0)">23</text></g><g class="xtick"><text text-anchor="middle" x="0" y="356.3" style="font-family: 'Open Sans', verdana, arial, sans-serif; font-size: 14px; fill: rgb(36, 36, 36); fill-opacity: 1; white-space: pre;" transform="translate(409.08,0)">24</text></g><g class="xtick"><text text-anchor="middle" x="0" y="356.3" style="font-family: 'Open Sans', verdana, arial, sans-serif; font-size: 14px; fill: rgb(36, 36, 36); fill-opacity: 1; white-space: pre;" transform="translate(481.09,0)">25</text></g></g><g class="yaxislayer-above"><path class="ytick ticks crisp" d="M50,0h5" transform="translate(0,327)" style="stroke: rgb(68, 68, 68); stroke-opacity: 1; stroke-width: 1px;"/><path class="ytick ticks crisp" d="M50,0h5" transform="translate(0,272)" style="stroke: rgb(68, 68, 68); stroke-opacity: 1; stroke-width: 1px;"/><path class="ytick ticks crisp" d="M50,0h5" transform="translate(0,217)" style="stroke: rgb(68, 68, 68); stroke-opacity: 1; stroke-width: 1px;"/><path class="ytick ticks crisp" d="M50,0h5" transform="translate(0,162)" style="stroke: rgb(68, 68, 68); stroke-opacity: 1; stroke-width: 1px;"/><path class="ytick ticks crisp" d="M50,0h5" transform="translate(0,107)" style="stroke: rgb(68, 68, 68); stroke-opacity: 1; stroke-width: 1px;"/><path class="ytick ticks crisp" d="M50,0h5" transform="translate(0,52)" style="stroke: rgb(68, 68, 68); stroke-opacity: 1; stroke-width: 1px;"/><g class="ytick"><text text-anchor="end" x="45.7" y="4.8999999999999995" transform="translate(0,327)" style="font-family: 'Open Sans', verdana, arial, sans-serif; font-size: 14px; fill: rgb(36, 36, 36); fill-opacity: 1; white-space: pre;">25</text></g><g class="ytick"><text text-anchor="end" x="45.7" y="4.8999999999999995" style="font-family: 'Open Sans', verdana, arial, sans-serif; font-size: 14px; fill: rgb(36, 36, 36); fill-opacity: 1; white-space: pre;" transform="translate(0,272)">50</text></g><g class="ytick"><text text-anchor="end" x="45.7" y="4.8999999999999995" style="font-family: 'Open Sans', verdana, arial, sans-serif; font-size: 14px; fill: rgb(36, 36, 36); fill-opacity: 1; white-space: pre;" transform="translate(0,217)">75</text></g><g class="ytick"><text text-anchor="end" x="45.7" y="4.8999999999999995" style="font-family: 'Open Sans', verdana, arial, sans-serif; font-size: 14px; fill: rgb(36, 36, 36); fill-opacity: 1; white-space: pre;" transform="translate(0,162)">100</text></g><g class="ytick"><text text-anchor="end" x="45.7" y="4.8999999999999995" style="font-family: 'Open Sans', verdana, arial, sans-serif; font-size: 14px; fill: rgb(36, 36, 36); fill-opacity: 1; white-space: pre;" transform="translate(0,107)">125</text></g><g class="ytick"><text text-anchor="end" x="45.7" y="4.8999999999999995" style="font-family: 'Open Sans', verdana, arial, sans-serif; font-size: 14px; fill: rgb(36, 36, 36); fill-opacity: 1; white-space: pre;" transform="translate(0,52)">150</text></g></g><g class="overaxes-above"/></g></g><g class="polarlayer"/><g class="smithlayer"/><g class="ternarylayer"/><g class="geolayer"/><g class="funnelarealayer"/><g class="pielayer"/><g class="iciclelayer"/><g class="treemaplayer"/><g class="sunburstlayer"/><g class="glimages"/><defs id="topdefs-b343c4"><g class="clips"/></defs><g class="layer-above"><g class="imagelayer"/><g class="shapelayer"><g class="shape-group" data-index="0" clip-path="url(#clipb343c4y)"><path data-index="0" fill-rule="evenodd" d="M50,382L547,382" style="opacity: 0.6; stroke: rgb(0, 0, 0); stroke-opacity: 0; fill: rgb(0, 0, 0); fill-opacity: 1; stroke-width: 0px;"/></g></g></g><g class="infolayer"><g class="g-gtitle"/><g class="g-xtitle"/><g class="g-ytitle"/><g class="annotation" data-index="0" style="opacity: 1;"><g class="annotation-text-g" transform="rotate(0,177.16,44)"><g class="cursor-pointer" transform="translate(146,36)"><rect class="bg" x="0" y="0" width="63" height="17" style="stroke-width: 0px; stroke: rgb(0, 0, 0); stroke-opacity: 0; fill: rgb(225, 190, 231); fill-opacity: 0.5;"/><text class="annotation-text" text-anchor="middle" x="31.625" y="13" style="font-family: 'Open Sans', verdana, arial, sans-serif; font-size: 12px; fill: rgb(106, 27, 154); fill-opacity: 1; white-space: pre;">Peak: 235</text></g></g><g class="annotation-arrow-g" style="opacity: 1;"><path d="M165.82666666666665,52.5L137.16,74" style="stroke-width: 1px; stroke: rgb(106, 27, 154); stroke-opacity: 1; stroke-dasharray: 0px, 0px, 34.5333px, 35.8333px;"/><path d="M-3.7,-2.5V2.5L1.3,0Z" transform="translate(138.1999969482422,73.22000122070312)rotate(143.13185088258297)" style="fill: rgb(106, 27, 154); stroke-width: 0;"/></g></g></g></svg>