<svg class="main-svg" xmlns="http://www.w3.org/2000/svg" xmlns:xlink="http://www.w3.org/1999/xlink" width="756" height="756" style="" viewBox="0 0 378 378"><rect x="0" y="0" width="378" height="378" style="fill: rgb(255, 255, 255); fill-opacity: 1;"/><defs id="defs-fb7554"><g class="clips"><clipPath id="clipfb7554xyplot" class="plotclip"><rect width="273.53999999999996" height="279"/></clipPath><clipPath id="clipfb7554xy2plot" class="plotclip"><rect width="273.53999999999996" height="279"/></clipPath><clipPath class="axesclip" id="clipfb7554x"><rect x="34" y="0" width="273.53999999999996" height="378"/></clipPath><clipPath class="axesclip" id="clipfb7554y"><rect x="0" y="66" width="378" height="279"/></clipPath><clipPath class="axesclip" id="clipfb7554xy"><rect x="34" y="66" width="273.53999999999996" height="279"/></clipPath><clipPath class="axesclip" id="clipfb7554y2"><rect x="0" y="66" width="378" height="279"/></clipPath><clipPath class="axesclip" id="clipfb7554xy2"><rect x="34" y="66" width="273.53999999999996" height="279"/></clipPath></g><g class="gradients"/><g class="patterns"/></defs><g class="bglayer"/><g class="layer-below"><g class="imagelayer"/><g class="shapelayer"/></g><g class="cartesianlayer"><g class="subplot xy"><g class="layer-subplot"><g class="shapelayer"/><g class="imagelayer"/></g><g class="minor-gridlayer"><g class="x"/><g class="y"/><g class="y2"/></g><g class="gridlayer"><g class="x"><path class="xgrid crisp" transform="translate(154.74,0)" d="M0,66v279" style="stroke: rgb(0, 0, 0); stroke-opacity: 0.15; stroke-width: 0.5px;"/><path class="xgrid crisp" transform="translate(275.53999999999996,0)" d="M0,66v279" style="stroke: rgb(0, 0, 0); stroke-opacity: 0.15; stroke-width: 0.5px;"/></g><g class="y"><path class="ygrid crisp" transform="translate(0,302.63)" d="M34,0h273.53999999999996" style="stroke: rgb(0, 0, 0); stroke-opacity: 0.15; stroke-width: 0.5px;"/><path class="ygrid crisp" transform="translate(0,260.25)" d="M34,0h273.53999999999996" style="stroke: rgb(0, 0, 0); stroke-opacity: 0.15; stroke-width: 0.5px;"/><path class="ygrid crisp" transform="translate(0,217.88)" d="M34,0h273.53999999999996" style="stroke: rgb(0, 0, 0); stroke-opacity: 0.15; stroke-width: 0.5px;"/><path class="ygrid crisp" transform="translate(0,175.5)" d="M34,0h273.53999999999996" style="stroke: rgb(0, 0, 0); stroke-opacity: 0.15; stroke-width: 0.5px;"/><path class="ygrid crisp" transform="translate(0,133.13)" d="M34,0h273.53999999999996" style="stroke: rgb(0, 0, 0); stroke-opacity: 0.15; stroke-width: 0.5px;"/><path class="ygrid crisp" transform="translate(0,90.76)" d="M34,0h273.53999999999996" style="stroke: rgb(0, 0, 0); stroke-opacity: 0.15; stroke-width: 0.5px;"/></g><g class="y2"/></g><g class="zerolinelayer"/><g class="layer-between"><g class="shapelayer"/><g class="imagelayer"/></g><path class="xlines-below"/><path class="ylines-below"/><g class="overlines-below"><path class="xy2-x"/><path class="xy2-y"/></g><g class="xaxislayer-below"/><g class="yaxislayer-below"/><g class="overaxes-below"><g class="xy2-x"/><g class="xy2-y"/></g><g class="overplot"><g class="xy" transform="translate(34,66)" clip-path="url(#clipfb7554xyplot)"><g class="scatterlayer mlayer"><g class="trace scatter trace9dbe03" style="stroke-miterlimit: 2; opacity: 1;"><g class="fills"/><g class="errorbars"/><g class="lines"><path class="js-line" d="M5.88,256.74L7.87,249.93L9.92,257.41L11.9,254.07L13.95,248.48L16,262.83L17.98,251.9L20.03,249.88L22.02,254.54L24.07,254.5L26.12,253.17L28.04,257.47L30.08,254.65L32.07,255.29L34.12,258.43L38.15,253.07L40.2,253.97L42.18,252.34L44.23,252.99L48.27,254.88L50.32,253.85L52.17,257.9L54.22,256.4L56.2,253.5L58.25,258.48L62.29,251.98L64.34,254.02L66.32,251.87L68.37,251.55L70.35,252.73L72.4,252.67L74.45,251.98L76.3,256.33L80.34,249.78L82.39,253.84L86.42,243.75L88.47,242.99L90.45,240.25L92.5,231.96L94.49,225.74L96.54,228.22L98.59,222.83L100.44,235.98L104.47,234.61L106.52,237.18L112.6,219.63L114.59,221.09L116.64,213.26L118.62,220.18L120.67,224.35L122.72,220.37L124.64,225.73L126.69,238.2L128.67,244.14L130.72,246.52L136.8,229.03L138.79,227.73L140.84,226.83L142.82,228.45L144.87,227.75L146.92,229.25L148.77,225.41L150.82,225.82L152.8,218.59L154.85,224.49L156.84,218.41L158.89,215.36L160.94,217.38L162.92,212.41L164.97,213.15L166.95,212.76L171.05,206.23L172.9,210.79L174.95,209.92L176.94,201.35L178.99,210.39L180.97,208.12L183.02,206.71L185.07,207.34L187.05,204.92L189.1,209.82L193.14,223.47L195.19,221.05L197.04,225.19L199.09,226.87L201.07,225.19L203.12,224.99L205.11,224.12L207.16,220.44L209.2,225.4L211.19,222.4L213.24,220.5L215.22,225.64L217.27,230.32L219.32,224.11L223.29,227.61L225.27,225.05L227.32,234.72L229.31,225.41L231.36,218.55L233.4,219.28L235.39,217.56L237.44,217.16L239.42,222.12L241.47,221.25L243.52,216.78L245.37,217.58L247.42,209.78L249.41,146.51L253.44,53.3L255.49,44.5L257.54,28.97L259.52,27.51L261.57,13.29L263.56,18.35L265.61,42.62L267.66,43.89L269.51,53.62L271.56,91.24L273.54,91.5" style="vector-effect: none; fill: none; stroke: rgb(106, 27, 154); stroke-opacity: 1; stroke-width: 3.5px; opacity: 1;"/></g><g class="points"/><g class="text"/></g></g></g><g class="xy2" transform="translate(34,66)" clip-path="url(#clipfb7554xy2plot)"><g class="scatterlayer mlayer"><g class="trace scatter trace7f40a1" style="stroke-miterlimit: 2; opacity: 1;"><g class="fills"/><g class="errorbars"/><g class="lines"><path class="js-line" d="M24.13,236.42L48.27,236.42" style="vector-effect: none; fill: none; stroke: rgb(0, 0, 0); stroke-opacity: 0.4; stroke-width: 3.5px; opacity: 1;"/><path class="js-line" d="M48.33,237.26L72.4,237.26" style="vector-effect: none; fill: none; stroke: rgb(0, 0, 0); stroke-opacity: 0.4; stroke-width: 3.5px; opacity: 1;"/><path class="js-line" d="M72.47,223.08L96.54,223.08" style="vector-effect: none; fill: none; stroke: rgb(0, 0, 0); stroke-opacity: 0.4; stroke-width: 3.5px; opacity: 1;"/><path class="js-line" d="M96.6,199.01L120.67,199.01" style="vector-effect: none; fill: none; stroke: rgb(0, 0, 0); stroke-opacity: 0.4; stroke-width: 3.5px; opacity: 1;"/><path class="js-line" d="M120.74,207.68L144.87,207.68" style="vector-effect: none; fill: none; stroke: rgb(0, 0, 0); stroke-opacity: 0.4; stroke-width: 3.5px; opacity: 1;"/><path class="js-line" d="M144.94,195.13L169,195.13" style="vector-effect: none; fill: none; stroke: rgb(0, 0, 0); stroke-opacity: 0.4; stroke-width: 3.5px; opacity: 1;"/><path class="js-line" d="M169.07,191.53L193.14,191.53" style="vector-effect: none; fill: none; stroke: rgb(0, 0, 0); stroke-opacity: 0.4; stroke-width: 3.5px; opacity: 1;"/><path class="js-line" d="M193.2,214.3L217.27,214.3" style="vector-effect: none; fill: none; stroke: rgb(0, 0, 0); stroke-opacity: 0.4; stroke-width: 3.5px; opacity: 1;"/><path class="js-line" d="M217.34,216.37L241.47,216.37" style="vector-effect: none; fill: none; stroke: rgb(0, 0, 0); stroke-opacity: 0.4; stroke-width: 3.5px; opacity: 1;"/><path class="js-line" d="M241.54,79.47L265.61,79.47" style="vector-effect: none; fill: none; stroke: rgb(0, 0, 0); stroke-opacity: 0.4; stroke-width: 3.5px; opacity: 1;"/></g><g class="points"/><g class="text"/></g></g></g></g><g class="zerolinelayer-above"/><path class="xlines-above crisp" d="M32.5,345.75H308.53999999999996" style="fill: none; stroke-width: 1.5px; stroke: rgb(0, 0, 0); stroke-opacity: 1;"/><path class="ylines-above crisp" d="M33.25,66V345" style="fill: none; stroke-width: 1.5px; stroke: rgb(0, 0, 0); stroke-opacity: 1;"/><g class="overlines-above"><path class="xy2-x crisp" d="M0,0" style="fill: none;"/><path class="xy2-y crisp" d="M308.03999999999996,66V345" style="fill: none; stroke-width: 1px; stroke: rgb(36, 36, 36); stroke-opacity: 1;"/></g><g class="xaxislayer-above"><path class="xtick ticks crisp" d="M0,345v-5" transform="translate(154.74,0)" style="stroke: rgb(68, 68, 68); stroke-opacity: 1; stroke-width: 1px;"/><path class="xtick ticks crisp" d="M0,345v-5" transform="translate(275.53999999999996,0)" style="stroke: rgb(68, 68, 68); stroke-opacity: 1; stroke-width: 1px;"/><g class="xtick"><text text-anchor="middle" x="0" y="363.3" transform="translate(34,0)" style="font-family: 'Open Sans', verdana, arial, sans-serif; font-size: 14px; fill: rgb(36, 36, 36); fill-opacity: 1; white-space: pre;">2015</text></g><g class="xtick"><text text-anchor="middle" x="0" y="363.3" style="font-family: 'Open Sans', verdana, arial, sans-serif; font-size: 14px; fill: rgb(36, 36, 36); fill-opacity: 1; white-space: pre;" transform="translate(154.74,0)">20</text></g><g class="xtick"><text text-anchor="middle" x="0" y="363.3" style="font-family: 'Open Sans', verdana, arial, sans-serif; font-size: 14px; fill: rgb(36, 36, 36); fill-opacity: 1; white-space: pre;" transform="translate(275.53999999999996,0)">25</text></g></g><g class="yaxislayer-above"><path class="ytick ticks crisp" d="M34,0h5" transform="translate(0,302.63)" style="stroke: rgb(68, 68, 68); stroke-opacity: 1; stroke-width: 1px;"/><path class="ytick ticks crisp" d="M34,0h5" transform="translate(0,260.25)" style="stroke: rgb(68, 68, 68); stroke-opacity: 1; stroke-width: 1px;"/><path class="ytick ticks crisp" d="M34,0h5" transform="translate(0,217.88)" style="stroke: rgb(68, 68, 68); stroke-opacity: 1; stroke-width: 1px;"/><path class="ytick ticks crisp" d="M34,0h5" transform="translate(0,175.5)" style="stroke: rgb(68, 68, 68); stroke-opacity: 1; stroke-width: 1px;"/><path class="ytick ticks crisp" d="M34,0h5" transform="translate(0,133.13)" style="stroke: rgb(68, 68, 68); stroke-opacity: 1; stroke-width: 1px;"/><path class="ytick ticks crisp" d="M34,0h5" transform="translate(0,90.76)" style="stroke: rgb(68, 68, 68); stroke-opacity: 1; stroke-width: 1px;"/><g class="ytick"><text text-anchor="end" x="29.7" y="4.8999999999999995" transform="translate(0,345)" style="font-family: 'Open Sans', verdana, arial, sans-serif; font-size: 14px; fill: rgb(36, 36, 36); fill-opacity: 1; white-space: pre;">0</text></g><g class="ytick"><text text-anchor="end" x="29.7" y="4.8999999999999995" style="font-family: 'Open Sans', verdana, arial, sans-serif; font-size: 14px; fill: rgb(36, 36, 36); fill-opacity: 1; white-space: pre;" transform="translate(0,302.63)">5</text></g><g class="ytick"><text text-anchor="end" x="29.7" y="4.8999999999999995" style="font-family: 'Open Sans', verdana, arial, sans-serif; font-size: 14px; fill: rgb(36, 36, 36); fill-opacity: 1; white-space: pre;" transform="translate(0,260.25)">10</text></g><g class="ytick"><text text-anchor="end" x="29.7" y="4.8999999999999995" style="font-family: 'Open Sans', verdana, arial, sans-serif; font-size: 14px; fill: rgb(36, 36, 36); fill-opacity: 1; white-space: pre;" transform="translate(0,217.88)">15</text></g><g class="ytick"><text text-anchor="end" x="29.7" y="4.8999999999999995" style="font-family: 'Open Sans', verdana, arial, sans-serif; font-size: 14px; fill: rgb(36, 36, 36); fill-opacity: 1; white-space: pre;" transform="translate(0,175.5)">20</text></g><g class="ytick"><text text-anchor="end" x="29.7" y="4.8999999999999995" style="font-family: 'Open Sans', verdana, arial, sans-serif; font-size: 14px; fill: rgb(36, 36, 36); fill-opacity: 1; white-space: pre;" transform="translate(0,133.13)">25</text></g><g class="ytick"><text text-anchor="end" x="29.7" y="4.8999999999999995" style="font-family: 'Open Sans', verdana, arial, sans-serif; font-size: 14px; fill: rgb(36, 36, 36); fill-opacity: 1; white-space: pre;" transform="translate(0,90.76)">30</text></g></g><g class="overaxes-above"><g class="xy2-x"/><g class="xy2-y"><path class="y2tick ticks crisp" d="M307.53999999999996,0h-5" transform="translate(0,298.5)" style="stroke: rgb(68, 68, 68); stroke-opacity: 1; stroke-width: 1px;"/><path class="y2tick ticks crisp" d="M307.53999999999996,0h-5" transform="translate(0,252)" style="stroke: rgb(68, 68, 68); stroke-opacity: 1; stroke-width: 1px;"/><path class="y2tick ticks crisp" d="M307.53999999999996,0h-5" transform="translate(0,205.5)" style="stroke: rgb(68, 68, 68); stroke-opacity: 1; stroke-width: 1px;"/><path class="y2tick ticks crisp" d="M307.53999999999996,0h-5" transform="translate(0,159)" style="stroke: rgb(68, 68, 68); stroke-opacity: 1; stroke-width: 1px;"/><path class="y2tick ticks crisp" d="M307.53999999999996,0h-5" transform="translate(0,112.5)" style="stroke: rgb(68, 68, 68); stroke-opacity: 1; stroke-width: 1px;"/><g class="y2tick"><text text-anchor="start" x="311.34" y="4.8999999999999995" transform="translate(0,345)" style="font-family: 'Open Sans', verdana, arial, sans-serif; font-size: 14px; fill: rgb(36, 36, 36); fill-opacity: 1; white-space: pre;">0</text></g><g class="y2tick"><text text-anchor="start" x="311.34" y="4.8999999999999995" style="font-family: 'Open Sans', verdana, arial, sans-serif; font-size: 14px; fill: rgb(36, 36, 36); fill-opacity: 1; white-space: pre;" transform="translate(0,298.5)">0.2</text></g><g class="y2tick"><text text-anchor="start" x="311.34" y="4.8999999999999995" style="font-family: 'Open Sans', verdana, arial, sans-serif; font-size: 14px; fill: rgb(36, 36, 36); fill-opacity: 1; white-space: pre;" transform="translate(0,252)">0.4</text></g><g class="y2tick"><text text-anchor="start" x="311.34" y="4.8999999999999995" style="font-family: 'Open Sans', verdana, arial, sans-serif; font-size: 14px; fill: rgb(36, 36, 36); fill-opacity: 1; white-space: pre;" transform="translate(0,205.5)">0.6</text></g><g class="y2tick"><text text-anchor="start" x="311.34" y="4.8999999999999995" style="font-family: 'Open Sans', verdana, arial, sans-serif; font-size: 14px; fill: rgb(36, 36, 36); fill-opacity: 1; white-space: pre;" transform="translate(0,159)">0.8</text></g><g class="y2tick"><text text-anchor="start" x="311.34" y="4.8999999999999995" style="font-family: 'Open Sans', verdana, arial, sans-serif; font-size: 14px; fill: rgb(36, 36, 36); fill-opacity: 1; white-space: pre;" transform="translate(0,112.5)">1</text></g><g class="y2tick"><text text-anchor="start" x="311.34" y="4.8999999999999995" style="font-family: 'Open Sans', verdana, arial, sans-serif; font-size: 14px; fill: rgb(36, 36, 36); fill-opacity: 1; white-space: pre;" transform="translate(0,66)">1.2</text></g></g></g></g><g class="subplot xy2"/></g><g class="polarlayer"/><g class="smithlayer"/><g class="ternarylayer"/><g class="geolayer"/><g class="funnelarealayer"/><g class="pielayer"/><g class="iciclelayer"/><g class="treemaplayer"/><g class="sunburstlayer"/><g class="glimages"/><defs id="topdefs-fb7554"><g class="clips"/><clipPath id="legendfb7554"><rect width="272" height="48" x="0" y="0"/></clipPath></defs><g class="layer-above"><g class="imagelayer"/><g class="shapelayer"/></g><g class="infolayer"><g class="legend" pointer-events="all" transform="translate(43.5,12.419999999999995)"><rect class="bg" shape-rendering="crispEdges" width="272" height="48" x="0" y="0" style="stroke: rgb(68, 68, 68); stroke-opacity: 1; fill: rgb(255, 255, 255); fill-opacity: 1; stroke-width: 0px;"/><g class="scrollbox" transform="" clip-path="url(#legendfb7554)"><g class="groups"><g class="traces" transform="translate(0,14.5)" style="opacity: 1;"><text class="legendtext" text-anchor="start" x="40" y="4.680000000000001" style="font-family: 'Open Sans', verdana, arial, sans-serif; font-size: 12px; fill: rgb(36, 36, 36); fill-opacity: 1; white-space: pre;">Monthly (billions of dollars, left scale)</text><g class="layers" style="opacity: 1;"><g class="legendfill"/><g class="legendlines"><path class="js-line" d="M5,0h30" style="fill: none; stroke: rgb(106, 27, 154); stroke-opacity: 1; stroke-width: 3.5px;"/></g><g class="legendsymbols"><g class="legendpoints"/></g></g><rect class="legendtoggle" x="0" y="-9.5" width="269.3125" height="19" style="fill: rgb(0, 0, 0); fill-opacity: 0;"/></g><g class="traces" transform="translate(0,33.5)" style="opacity: 1;"><text class="legendtext" text-anchor="start" x="40" y="4.680000000000001" style="font-family: 'Open Sans', verdana, arial, sans-serif; font-size: 12px; fill: rgb(36, 36, 36); fill-opacity: 1; white-space: pre;">Annual (percent of GDP, right scale)</text><g class="layers" style="opacity: 1;"><g class="legendfill"/><g class="legendlines"><path class="js-line" d="M5,0h30" style="fill: none; stroke: rgb(0, 0, 0); stroke-opacity: 0.4; stroke-width: 3.5px;"/></g><g class="legendsymbols"><g class="legendpoints"/></g></g><rect class="legendtoggle" x="0" y="-9.5" width="261.46875" height="19" style="fill: rgb(0, 0, 0); fill-opacity: 0;"/></g></g></g><rect class="scrollbar" rx="20" ry="3" width="0" height="0" x="0" y="0" style="fill: rgb(128, 139, 164); fill-opacity: 1;"/></g><g class="g-gtitle"/><g class="g-xtitle"/><g class="g-ytitle"/><g class="g-y2title"/></g></svg>