<svg class="main-svg" xmlns="http://www.w3.org/2000/svg" xmlns:xlink="http://www.w3.org/1999/xlink" width="756" height="756" style="" viewBox="0 0 378 378"><rect x="0" y="0" width="378" height="378" style="fill: rgb(255, 255, 255); fill-opacity: 1;"/><defs id="defs-c06651"><g class="clips"><clipPath id="clipc06651xyplot" class="plotclip"><rect width="303" height="288"/></clipPath><clipPath class="axesclip" id="clipc06651x"><rect x="50" y="0" width="303" height="378"/></clipPath><clipPath class="axesclip" id="clipc06651y"><rect x="0" y="30" width="378" height="288"/></clipPath><clipPath class="axesclip" id="clipc06651xy"><rect x="50" y="30" width="303" height="288"/></clipPath></g><g class="gradients"/><g class="patterns"/></defs><g class="bglayer"/><g class="layer-below"><g class="imagelayer"/><g class="shapelayer"/></g><g class="cartesianlayer"><g class="subplot xy"><g class="layer-subplot"><g class="shapelayer"/><g class="imagelayer"/></g><g class="minor-gridlayer"><g class="x"/><g class="y"/></g><g class="gridlayer"><g class="x"><path class="xgrid crisp" transform="translate(125.75,0)" d="M0,30v288" style="stroke: rgb(0, 0, 0); stroke-opacity: 0.15; stroke-width: 1px;"/><path class="xgrid crisp" transform="translate(201.5,0)" d="M0,30v288" style="stroke: rgb(0, 0, 0); stroke-opacity: 0.15; stroke-width: 1px;"/><path class="xgrid crisp" transform="translate(277.25,0)" d="M0,30v288" style="stroke: rgb(0, 0, 0); stroke-opacity: 0.15; stroke-width: 1px;"/></g><g class="y"><path class="ygrid crisp" transform="translate(0,256.81)" d="M50,0h303" style="stroke: rgb(0, 0, 0); stroke-opacity: 0.15; stroke-width: 1px;"/><path class="ygrid crisp" transform="translate(0,195.62)" d="M50,0h303" style="stroke: rgb(0, 0, 0); stroke-opacity: 0.15; stroke-width: 1px;"/><path class="ygrid crisp" transform="translate(0,134.43)" d="M50,0h303" style="stroke: rgb(0, 0, 0); stroke-opacity: 0.15; stroke-width: 1px;"/><path class="ygrid crisp" transform="translate(0,73.25)" d="M50,0h303" style="stroke: rgb(0, 0, 0); stroke-opacity: 0.15; stroke-width: 1px;"/></g></g><g class="zerolinelayer"/><g class="layer-between"><g class="shapelayer"/><g class="imagelayer"/></g><path class="xlines-below"/><path class="ylines-below"/><g class="overlines-below"/><g class="xaxislayer-below"/><g class="yaxislayer-below"/><g class="overaxes-below"/><g class="overplot"><g class="xy" transform="translate(50,30)" clip-path="url(#clipc06651xyplot)"><g class="scatterlayer mlayer"><g class="trace scatter tracea8d3e7" style="stroke-miterlimit: 2; opacity: 1;"><g class="fills"/><g class="errorbars"/><g class="lines"><path class="js-line" d="M-606,288L-59.84,284.78L-59.08,284.67L-34.84,278.81L-34.09,278.53L-18.18,270.69L-17.42,270.21L-4.54,260.2L-3.79,259.49L6.82,248.07L7.58,247.14L18.94,231.27L19.7,230.08L32.57,207.44L33.33,205.97L48.48,173.89L49.24,172.18L90.9,78.48L91.66,77.06L103.02,58.34L103.78,57.28L112.87,46.63L113.63,45.92L121.2,40.4L121.96,40.01L128.77,37.8L129.53,37.7L136.35,38.07L137.11,38.25L143.93,41.1L144.68,41.55L152.26,47.35L153.01,48.06L162.11,58.17L162.86,59.13L174.23,75.5L174.98,76.7L191.65,105.31L192.41,106.68L231.8,176.47L232.55,177.69L250.73,204.57L251.49,205.58L267.4,224.96L268.16,225.79L282.55,240L283.31,240.67L298.46,252.53L299.21,253.05L320.42,265.19L321.18,265.54L350.72,276.06L351.48,276.25L399.2,284.05L399.96,284.12L555.25,287.92L556.01,287.92L1666.5,288" style="vector-effect: none; fill: none; stroke: rgb(106, 27, 154); stroke-opacity: 0.4; stroke-width: 4.5px; opacity: 1;"/></g><g class="points"/><g class="text"/></g><g class="trace scatter trace5d0727" style="stroke-miterlimit: 2; opacity: 1;"><g class="fills"/><g class="errorbars"/><g class="lines"/><g class="points"><path class="point" transform="translate(140.9,39.57)" d="M7,0A7,7 0 1,1 0,-7A7,7 0 0,1 7,0Z" style="opacity: 1; stroke-width: 4px; fill: rgb(255, 255, 255); fill-opacity: 1; stroke: rgb(106, 27, 154); stroke-opacity: 1;"/></g><g class="text"/></g><g class="trace scatter traced3cbfd" style="stroke-miterlimit: 2; opacity: 1;"><g class="fills"/><g class="errorbars"/><g class="lines"/><g class="points"><path class="point" transform="translate(281.79,239.33)" d="M7,0A7,7 0 1,1 0,-7A7,7 0 0,1 7,0Z" style="opacity: 1; stroke-width: 4px; fill: rgb(255, 255, 255); fill-opacity: 1; stroke: rgb(106, 27, 154); stroke-opacity: 1;"/></g><g class="text"/></g></g></g></g><g class="zerolinelayer-above"/><path class="xlines-above crisp" d="M49,318.75H353" style="fill: none; stroke-width: 1.5px; stroke: rgb(0, 0, 0); stroke-opacity: 1;"/><path class="ylines-above crisp" d="M49.5,30V318" style="fill: none; stroke-width: 1px; stroke: rgb(0, 0, 0); stroke-opacity: 1;"/><g class="overlines-above"/><g class="xaxislayer-above"><path class="xtick ticks crisp" d="M0,318v-5" transform="translate(125.75,0)" style="stroke: rgb(68, 68, 68); stroke-opacity: 1; stroke-width: 1px;"/><path class="xtick ticks crisp" d="M0,318v-5" transform="translate(201.5,0)" style="stroke: rgb(68, 68, 68); stroke-opacity: 1; stroke-width: 1px;"/><path class="xtick ticks crisp" d="M0,318v-5" transform="translate(277.25,0)" style="stroke: rgb(68, 68, 68); stroke-opacity: 1; stroke-width: 1px;"/><g class="xtick"><text text-anchor="middle" x="0" y="336.3" transform="translate(50,0)" style="font-family: 'Open Sans', verdana, arial, sans-serif; font-size: 14px; fill: rgb(36, 36, 36); fill-opacity: 1; white-space: pre;">80</text></g><g class="xtick"><text text-anchor="middle" x="0" y="336.3" style="font-family: 'Open Sans', verdana, arial, sans-serif; font-size: 14px; fill: rgb(36, 36, 36); fill-opacity: 1; white-space: pre;" transform="translate(125.75,0)">90</text></g><g class="xtick"><text text-anchor="middle" x="0" y="336.3" style="font-family: 'Open Sans', verdana, arial, sans-serif; font-size: 14px; fill: rgb(36, 36, 36); fill-opacity: 1; white-space: pre;" transform="translate(201.5,0)">100</text></g><g class="xtick"><text text-anchor="middle" x="0" y="336.3" style="font-family: 'Open Sans', verdana, arial, sans-serif; font-size: 14px; fill: rgb(36, 36, 36); fill-opacity: 1; white-space: pre;" transform="translate(277.25,0)">110</text></g><g class="xtick"><text text-anchor="middle" x="0" y="336.3" style="font-family: 'Open Sans', verdana, arial, sans-serif; font-size: 14px; fill: rgb(36, 36, 36); fill-opacity: 1; white-space: pre;" transform="translate(353,0)">120</text></g></g><g class="yaxislayer-above"/><g class="overaxes-above"/></g></g><g class="polarlayer"/><g class="smithlayer"/><g class="ternarylayer"/><g class="geolayer"/><g class="funnelarealayer"/><g class="pielayer"/><g class="iciclelayer"/><g class="treemaplayer"/><g class="sunburstlayer"/><g class="glimages"/><defs id="topdefs-c06651"><g class="clips"/></defs><g class="layer-above"><g class="imagelayer"/><g class="shapelayer"/></g><g class="infolayer"><g class="g-gtitle"/><g class="g-xtitle"><text class="xtitle" x="201.5" y="364.7625" text-anchor="middle" style="opacity: 1; font-family: 'Open Sans', verdana, arial, sans-serif; font-size: 16px; fill: rgb(36, 36, 36); fill-opacity: 1; white-space: pre;">2028 Debt-to-GDP ratio (Percent)</text></g><g class="g-ytitle"><text class="ytitle" transform="rotate(-90,28.9,174)" x="28.9" y="174" text-anchor="middle" style="opacity: 1; font-family: 'Open Sans', verdana, arial, sans-serif; font-size: 16px; fill: rgb(36, 36, 36); fill-opacity: 1; white-space: pre;">Density</text></g><g class="annotation" data-index="0" style="opacity: 1;"><g class="annotation-text-g" transform="rotate(0,190.9,41.56999999999999)"><g class="cursor-pointer" transform="translate(158,31)"><rect class="bg" x="0" y="0" width="66" height="21" style="stroke-width: 0px; stroke: rgb(0, 0, 0); stroke-opacity: 0; fill: rgb(225, 190, 231); fill-opacity: 1;"/><text class="annotation-text" text-anchor="middle" x="33.09375" y="15" style="font-family: 'Open Sans', verdana, arial, sans-serif; font-size: 14px; fill: rgb(106, 27, 154); fill-opacity: 1; white-space: pre;">98.8 ​<tspan style="font-size:70%" dy="0.3em">(p50)</tspan><tspan dy="-0.21em">​</tspan></text></g></g></g><g class="annotation" data-index="1" style="opacity: 1;"><g class="annotation-text-g" transform="rotate(0,276.79,269.33000000000004)"><g class="cursor-pointer" transform="translate(239,259)"><rect class="bg" x="0" y="0" width="75" height="21" style="stroke-width: 0px; stroke: rgb(0, 0, 0); stroke-opacity: 0; fill: rgb(225, 190, 231); fill-opacity: 1;"/><text class="annotation-text" text-anchor="middle" x="37.546875" y="15" style="font-family: 'Open Sans', verdana, arial, sans-serif; font-size: 14px; fill: rgb(106, 27, 154); fill-opacity: 1; white-space: pre;">117.2 ​<tspan style="font-size:70%" dy="0.3em">(p95)</tspan><tspan dy="-0.21em">​</tspan></text></g></g></g></g></svg>