<svg xmlns="http://www.w3.org/2000/svg" width="1280" height="520" viewBox="0 0 1280 520">
<rect x="0.0" y="0.0" width="1280.0" height="520.0" rx="0" ry="0" fill="#FFFFFF"/>
<rect x="40.0" y="16.0" width="220.0" height="46.0" rx="10" ry="10" fill="#C9CDD4"/>
<text x="150.0" y="45.0" font-family="Arial, Helvetica, sans-serif" font-size="17" font-weight="bold" fill="#2B2B2B" text-anchor="middle">System Dimension</text>
<rect x="276.0" y="16.0" width="466.0" height="46.0" rx="10" ry="10" fill="#6A1B9A"/>
<text x="509.0" y="37.0" font-family="Arial, Helvetica, sans-serif" font-size="18" font-weight="bold" fill="#FFFFFF" text-anchor="middle">SER v1.0</text>
<text x="509.0" y="54.0" font-family="Arial, Helvetica, sans-serif" font-size="12" font-weight="normal" fill="#FFFFFF" text-anchor="middle">(Current)</text>
<line x1="715" y1="39" x2="729" y2="25" stroke="#D9B8E8" stroke-width="2.4" stroke-linecap="round"/><polyline points="723,25 729,25 729,31" fill="none" stroke="#D9B8E8" stroke-width="2.4" stroke-linecap="round" stroke-linejoin="round"/>
<rect x="758.0" y="16.0" width="482.0" height="46.0" rx="10" ry="10" fill="#00897B"/>
<text x="999.0" y="37.0" font-family="Arial, Helvetica, sans-serif" font-size="18" font-weight="bold" fill="#FFFFFF" text-anchor="middle">SER v2.0</text>
<text x="999.0" y="54.0" font-family="Arial, Helvetica, sans-serif" font-size="12" font-weight="normal" fill="#FFFFFF" text-anchor="middle">(Upgraded &amp; more EU-aligned)</text>
<line x1="1213" y1="39" x2="1227" y2="25" stroke="#A7D8D0" stroke-width="2.4" stroke-linecap="round"/><polyline points="1221,25 1227,25 1227,31" fill="none" stroke="#A7D8D0" stroke-width="2.4" stroke-linecap="round" stroke-linejoin="round"/>
<rect x="40.0" y="72.0" width="220.0" height="80.0" rx="10" ry="10" fill="#ECEEF1"/>
<text x="150.0" y="118.0" font-family="Arial, Helvetica, sans-serif" font-size="17" font-weight="bold" fill="#2A2A2A" text-anchor="middle">Time Horizon</text>
<rect x="276.0" y="72.0" width="466.0" height="80.0" rx="10" ry="10" fill="#F3EAF8"/>
<circle cx="310" cy="112.0" r="13" fill="none" stroke="#6A1B9A" stroke-width="2.6" stroke-linecap="round" stroke-linejoin="round"/><line x1="310" y1="112.0" x2="310" y2="104.0" fill="none" stroke="#6A1B9A" stroke-width="2.6" stroke-linecap="round" stroke-linejoin="round"/><line x1="310" y1="112.0" x2="316" y2="115.0" fill="none" stroke="#6A1B9A" stroke-width="2.6" stroke-linecap="round" stroke-linejoin="round"/>
<text x="340.0" y="118.0" font-family="Arial, Helvetica, sans-serif" font-size="18" font-weight="normal" fill="#2A2A2A" text-anchor="start">1-year binding limit</text>
<polygon points="714,103.0 724,120.0 704,120.0" fill="#6A1B9A" stroke="none"/><line x1="714" y1="109.0" x2="714" y2="115.0" stroke="#FFFFFF" stroke-width="2" stroke-linecap="round"/><circle cx="714" cy="118.0" r="1.3" fill="#FFFFFF"/>
<rect x="758.0" y="72.0" width="482.0" height="80.0" rx="10" ry="10" fill="#E3F2EF"/>
<rect x="779" y="102.0" width="26" height="23" rx="3" fill="none" stroke="#00897B" stroke-width="2.6" stroke-linecap="round" stroke-linejoin="round"/><line x1="779" y1="109.0" x2="805" y2="109.0" fill="none" stroke="#00897B" stroke-width="2.6" stroke-linecap="round" stroke-linejoin="round"/><line x1="785" y1="97.0" x2="785" y2="105.0" fill="none" stroke="#00897B" stroke-width="2.6" stroke-linecap="round" stroke-linejoin="round"/><line x1="799" y1="97.0" x2="799" y2="105.0" fill="none" stroke="#00897B" stroke-width="2.6" stroke-linecap="round" stroke-linejoin="round"/>
<text x="822.0" y="106.0" font-family="Arial, Helvetica, sans-serif" font-size="18" font-weight="normal" fill="#2A2A2A" text-anchor="start">Multi-year binding limit</text><text x="822.0" y="130.0" font-family="Arial, Helvetica, sans-serif" font-size="18" font-weight="normal" fill="#2A2A2A" text-anchor="start">aligned with EU path</text>
<circle cx="1214" cy="112.0" r="10" fill="#00897B" stroke="none"/><polyline points="1209,112.0 1212.5,116.0 1219,108.0" fill="none" stroke="#FFFFFF" stroke-width="2.4" stroke-linecap="round" stroke-linejoin="round"/>
<rect x="40.0" y="160.0" width="220.0" height="80.0" rx="10" ry="10" fill="#ECEEF1"/>
<text x="150.0" y="206.0" font-family="Arial, Helvetica, sans-serif" font-size="17" font-weight="bold" fill="#2A2A2A" text-anchor="middle">Growth Formula</text>
<rect x="276.0" y="160.0" width="466.0" height="80.0" rx="10" ry="10" fill="#F3EAF8"/>
<line x1="323" y1="200.0" x2="299" y2="200.0" fill="none" stroke="#6A1B9A" stroke-width="2.6" stroke-linecap="round" stroke-linejoin="round"/><polyline points="306,193.0 299,200.0 306,207.0" fill="none" stroke="#6A1B9A" stroke-width="2.6" stroke-linecap="round" stroke-linejoin="round"/>
<text x="340.0" y="194.0" font-family="Arial, Helvetica, sans-serif" font-size="18" font-weight="normal" fill="#2A2A2A" text-anchor="start">Largely backward-looking average</text><text x="340.0" y="218.0" font-family="Arial, Helvetica, sans-serif" font-size="18" font-weight="normal" fill="#2A2A2A" text-anchor="start">(t–6 to t+1)</text>
<polygon points="714,191.0 724,208.0 704,208.0" fill="#6A1B9A" stroke="none"/><line x1="714" y1="197.0" x2="714" y2="203.0" stroke="#FFFFFF" stroke-width="2" stroke-linecap="round"/><circle cx="714" cy="206.0" r="1.3" fill="#FFFFFF"/>
<rect x="758.0" y="160.0" width="482.0" height="80.0" rx="10" ry="10" fill="#E3F2EF"/>
<line x1="779" y1="200.0" x2="803" y2="200.0" fill="none" stroke="#00897B" stroke-width="2.6" stroke-linecap="round" stroke-linejoin="round"/><polyline points="796,193.0 803,200.0 796,207.0" fill="none" stroke="#00897B" stroke-width="2.6" stroke-linecap="round" stroke-linejoin="round"/>
<text x="822.0" y="194.0" font-family="Arial, Helvetica, sans-serif" font-size="18" font-weight="normal" fill="#2A2A2A" text-anchor="start">3-year forward projection +</text><text x="822.0" y="218.0" font-family="Arial, Helvetica, sans-serif" font-size="18" font-weight="normal" fill="#2A2A2A" text-anchor="start">error correction</text>
<circle cx="1214" cy="200.0" r="10" fill="#00897B" stroke="none"/><polyline points="1209,200.0 1212.5,204.0 1219,196.0" fill="none" stroke="#FFFFFF" stroke-width="2.4" stroke-linecap="round" stroke-linejoin="round"/>
<rect x="40.0" y="248.0" width="220.0" height="80.0" rx="10" ry="10" fill="#ECEEF1"/>
<text x="150.0" y="294.0" font-family="Arial, Helvetica, sans-serif" font-size="17" font-weight="bold" fill="#2A2A2A" text-anchor="middle">Coverage</text>
<rect x="276.0" y="248.0" width="466.0" height="80.0" rx="10" ry="10" fill="#F3EAF8"/>
<path d="M 316.5 299.3 A 13 13 0 1 0 303.5 299.3" fill="none" stroke="#6A1B9A" stroke-width="2.6" stroke-linecap="round" stroke-linejoin="round"/>
<text x="340.0" y="282.0" font-family="Arial, Helvetica, sans-serif" font-size="18" font-weight="normal" fill="#2A2A2A" text-anchor="start">~70% binding with</text><text x="340.0" y="306.0" font-family="Arial, Helvetica, sans-serif" font-size="18" font-weight="normal" fill="#2A2A2A" text-anchor="start">off-budget leaks</text>
<polygon points="714,279.0 724,296.0 704,296.0" fill="#6A1B9A" stroke="none"/><line x1="714" y1="285.0" x2="714" y2="291.0" stroke="#FFFFFF" stroke-width="2" stroke-linecap="round"/><circle cx="714" cy="294.0" r="1.3" fill="#FFFFFF"/>
<rect x="758.0" y="248.0" width="482.0" height="80.0" rx="10" ry="10" fill="#E3F2EF"/>
<path d="M 792 275.0 L 803 280.0 L 803 289.0 Q 803 298.0 792 301.0 Q 781 298.0 781 289.0 L 781 280.0 Z" fill="none" stroke="#00897B" stroke-width="2.6" stroke-linecap="round" stroke-linejoin="round"/><polyline points="787,288.0 791,293.0 798,283.0" fill="none" stroke="#00897B" stroke-width="2.6" stroke-linecap="round" stroke-linejoin="round"/>
<text x="822.0" y="282.0" font-family="Arial, Helvetica, sans-serif" font-size="18" font-weight="normal" fill="#2A2A2A" text-anchor="start">Broadened ESA 2010 alignment</text><text x="822.0" y="306.0" font-family="Arial, Helvetica, sans-serif" font-size="18" font-weight="normal" fill="#2A2A2A" text-anchor="start">(including securities transfers)</text>
<circle cx="1214" cy="288.0" r="10" fill="#00897B" stroke="none"/><polyline points="1209,288.0 1212.5,292.0 1219,284.0" fill="none" stroke="#FFFFFF" stroke-width="2.4" stroke-linecap="round" stroke-linejoin="round"/>
<rect x="40.0" y="336.0" width="220.0" height="80.0" rx="10" ry="10" fill="#ECEEF1"/>
<text x="150.0" y="382.0" font-family="Arial, Helvetica, sans-serif" font-size="17" font-weight="bold" fill="#2A2A2A" text-anchor="middle">Oversight</text>
<rect x="276.0" y="336.0" width="466.0" height="80.0" rx="10" ry="10" fill="#F3EAF8"/>
<circle cx="307" cy="373.0" r="9" fill="none" stroke="#6A1B9A" stroke-width="2.6" stroke-linecap="round" stroke-linejoin="round"/><line x1="314" y1="380.0" x2="322" y2="388.0" fill="none" stroke="#6A1B9A" stroke-width="2.6" stroke-linecap="round" stroke-linejoin="round"/>
<text x="340.0" y="382.0" font-family="Arial, Helvetica, sans-serif" font-size="18" font-weight="normal" fill="#2A2A2A" text-anchor="start">Ex-post NIK legal audit only</text>
<polygon points="714,367.0 724,384.0 704,384.0" fill="#6A1B9A" stroke="none"/><line x1="714" y1="373.0" x2="714" y2="379.0" stroke="#FFFFFF" stroke-width="2" stroke-linecap="round"/><circle cx="714" cy="382.0" r="1.3" fill="#FFFFFF"/>
<rect x="758.0" y="336.0" width="482.0" height="80.0" rx="10" ry="10" fill="#E3F2EF"/>
<circle cx="792" cy="376.0" r="13" fill="none" stroke="#00897B" stroke-width="2.6" stroke-linecap="round" stroke-linejoin="round"/><polyline points="786,376.0 790,381.0 799,370.0" fill="none" stroke="#00897B" stroke-width="2.6" stroke-linecap="round" stroke-linejoin="round"/>
<text x="822.0" y="370.0" font-family="Arial, Helvetica, sans-serif" font-size="18" font-weight="normal" fill="#2A2A2A" text-anchor="start">Ex-ante &amp; Ex-post Independent</text><text x="822.0" y="394.0" font-family="Arial, Helvetica, sans-serif" font-size="18" font-weight="normal" fill="#2A2A2A" text-anchor="start">Fiscal Council validation</text>
<circle cx="1214" cy="376.0" r="10" fill="#00897B" stroke="none"/><polyline points="1209,376.0 1212.5,380.0 1219,372.0" fill="none" stroke="#FFFFFF" stroke-width="2.4" stroke-linecap="round" stroke-linejoin="round"/>
<rect x="40.0" y="424.0" width="220.0" height="80.0" rx="10" ry="10" fill="#ECEEF1"/>
<text x="150.0" y="470.0" font-family="Arial, Helvetica, sans-serif" font-size="17" font-weight="bold" fill="#2A2A2A" text-anchor="middle">Shock Response</text>
<rect x="276.0" y="424.0" width="466.0" height="80.0" rx="10" ry="10" fill="#F3EAF8"/>
<polygon points="313,451.0 301,466.0 309,466.0 307,477.0 319,462.0 311,462.0" fill="none" stroke="#6A1B9A" stroke-width="2.6" stroke-linejoin="round"/>
<text x="340.0" y="458.0" font-family="Arial, Helvetica, sans-serif" font-size="18" font-weight="normal" fill="#2A2A2A" text-anchor="start">Ad-hoc amendments /</text><text x="340.0" y="482.0" font-family="Arial, Helvetica, sans-serif" font-size="18" font-weight="normal" fill="#2A2A2A" text-anchor="start">Epidemic trigger</text>
<polygon points="714,455.0 724,472.0 704,472.0" fill="#6A1B9A" stroke="none"/><line x1="714" y1="461.0" x2="714" y2="467.0" stroke="#FFFFFF" stroke-width="2" stroke-linecap="round"/><circle cx="714" cy="470.0" r="1.3" fill="#FFFFFF"/>
<rect x="758.0" y="424.0" width="482.0" height="80.0" rx="10" ry="10" fill="#E3F2EF"/>
<circle cx="792" cy="464.0" r="13" fill="none" stroke="#00897B" stroke-width="2.6" stroke-linecap="round" stroke-linejoin="round"/><circle cx="792" cy="464.0" r="6.5" fill="none" stroke="#00897B" stroke-width="2.6" stroke-linecap="round" stroke-linejoin="round"/><circle cx="792" cy="464.0" r="1.6" fill="#00897B" stroke="none"/>
<text x="822.0" y="458.0" font-family="Arial, Helvetica, sans-serif" font-size="18" font-weight="normal" fill="#2A2A2A" text-anchor="start">Standalone recession trigger +</text><text x="822.0" y="482.0" font-family="Arial, Helvetica, sans-serif" font-size="18" font-weight="normal" fill="#2A2A2A" text-anchor="start">debt-linked return trajectory</text>
<circle cx="1214" cy="464.0" r="10" fill="#00897B" stroke="none"/><polyline points="1209,464.0 1212.5,468.0 1219,460.0" fill="none" stroke="#FFFFFF" stroke-width="2.4" stroke-linecap="round" stroke-linejoin="round"/>
</svg>