<svg class="main-svg" xmlns="http://www.w3.org/2000/svg" xmlns:xlink="http://www.w3.org/1999/xlink" width="756" height="756" style="" viewBox="0 0 378 378"><rect x="0" y="0" width="378" height="378" style="fill: rgb(255, 255, 255); fill-opacity: 1;"/><defs id="defs-e1857f"><g class="clips"><clipPath id="clipe1857fxyplot" class="plotclip"><rect width="317" height="98.99999999999999"/></clipPath><clipPath id="clipe1857fx2y2plot" class="plotclip"><rect width="317" height="99"/></clipPath><clipPath class="axesclip" id="clipe1857fx"><rect x="46" y="0" width="317" height="378"/></clipPath><clipPath class="axesclip" id="clipe1857fy"><rect x="0" y="120" width="378" height="98.99999999999999"/></clipPath><clipPath class="axesclip" id="clipe1857fxy"><rect x="46" y="120" width="317" height="98.99999999999999"/></clipPath><clipPath class="axesclip" id="clipe1857fy2"><rect x="0" y="246" width="378" height="99"/></clipPath><clipPath class="axesclip" id="clipe1857fxy2"><rect x="46" y="246" width="317" height="99"/></clipPath><clipPath class="axesclip" id="clipe1857fx2"><rect x="46" y="0" width="317" height="378"/></clipPath><clipPath class="axesclip" id="clipe1857fx2y"><rect x="46" y="120" width="317" height="98.99999999999999"/></clipPath><clipPath class="axesclip" id="clipe1857fx2y2"><rect x="46" y="246" width="317" height="99"/></clipPath></g><g class="gradients"/><g class="patterns"/></defs><g class="bglayer"/><g class="layer-below"><g class="imagelayer"/><g class="shapelayer"><g class="shape-group" data-index="0" clip-path="url(#clipe1857fx)"><path data-index="0" fill-rule="evenodd" d="M251.12,219H363V120H251.12Z" style="opacity: 0.3; stroke: rgb(0, 0, 0); stroke-opacity: 0; fill: rgb(128, 128, 128); fill-opacity: 0.3; stroke-width: 0px;"/></g><g class="shape-group" data-index="1" clip-path="url(#clipe1857fx2)"><path data-index="1" fill-rule="evenodd" d="M251.12,345H363V246H251.12Z" style="opacity: 0.3; stroke: rgb(0, 0, 0); stroke-opacity: 0; fill: rgb(128, 128, 128); fill-opacity: 0.3; stroke-width: 0px;"/></g></g></g><g class="cartesianlayer"><g class="subplot xy"><g class="layer-subplot"><g class="shapelayer"/><g class="imagelayer"/></g><g class="minor-gridlayer"><g class="x"/><g class="y"/></g><g class="gridlayer"><g class="x"><path class="xgrid crisp" transform="translate(55.32,0)" d="M0,120v98.99999999999999" style="stroke: rgb(0, 0, 0); stroke-opacity: 0.15; stroke-width: 1px;"/><path class="xgrid crisp" transform="translate(148.56,0)" d="M0,120v98.99999999999999" style="stroke: rgb(0, 0, 0); stroke-opacity: 0.15; stroke-width: 1px;"/><path class="xgrid crisp" transform="translate(241.79,0)" d="M0,120v98.99999999999999" style="stroke: rgb(0, 0, 0); stroke-opacity: 0.15; stroke-width: 1px;"/><path class="xgrid crisp" transform="translate(335.03,0)" d="M0,120v98.99999999999999" style="stroke: rgb(0, 0, 0); stroke-opacity: 0.15; stroke-width: 1px;"/></g><g class="y"><path class="ygrid crisp" transform="translate(0,187.05)" d="M46,0h317" style="stroke: rgb(0, 0, 0); stroke-opacity: 0.15; stroke-width: 1px;"/><path class="ygrid crisp" transform="translate(0,154.34)" d="M46,0h317" style="stroke: rgb(0, 0, 0); stroke-opacity: 0.15; stroke-width: 1px;"/></g></g><g class="zerolinelayer"><path class="yzl zl crisp" transform="translate(0,121.63)" d="M46,0h317" style="stroke: rgb(0, 0, 0); stroke-opacity: 1; stroke-width: 1px;"/></g><g class="layer-between"><g class="shapelayer"/><g class="imagelayer"/></g><path class="xlines-below"/><path class="ylines-below"/><g class="overlines-below"/><g class="xaxislayer-below"/><g class="yaxislayer-below"/><g class="overaxes-below"/><g class="overplot"><g class="xy" transform="translate(46,120)" clip-path="url(#clipe1857fxyplot)"><g class="scatterlayer mlayer"><g class="trace scatter traceb83723" style="stroke-miterlimit: 2; opacity: 1;"><g class="fills"/><g class="errorbars"/><g class="lines"><path class="js-line" d="M9.32,17.98L27.97,23.39L46.62,23.47L65.26,29.12L83.91,40.91L102.56,64.19L121.21,40.24L139.85,49.51L158.5,45.51L177.15,48.13L195.79,53.1L233.09,56.31L251.74,55.33L270.38,54.17L289.03,53.81L307.68,54.06" style="vector-effect: none; fill: none; stroke: rgb(229, 57, 53); stroke-opacity: 0.15; stroke-width: 3px; opacity: 1;"/></g><g class="points"/><g class="text"/></g><g class="trace scatter trace9b6f3f" style="stroke-miterlimit: 2; opacity: 1;"><g class="fills"/><g class="errorbars"/><g class="lines"/><g class="points"><path class="point" transform="translate(195.79,53.1)" d="M5.5,0A5.5,5.5 0 1,1 0,-5.5A5.5,5.5 0 0,1 5.5,0Z" style="opacity: 1; stroke: rgb(229, 57, 53); stroke-opacity: 0.15; stroke-width: 1.8px; fill: none;"/><path class="point" transform="translate(307.68,54.06)" d="M5.5,0A5.5,5.5 0 1,1 0,-5.5A5.5,5.5 0 0,1 5.5,0Z" style="opacity: 1; stroke: rgb(229, 57, 53); stroke-opacity: 0.15; stroke-width: 1.8px; fill: none;"/></g><g class="text"/></g><g class="trace scatter tracefe007c" style="stroke-miterlimit: 2; opacity: 1;"><g class="fills"/><g class="errorbars"/><g class="lines"><path class="js-line" d="M9.32,24.72L27.97,30.13L46.62,32.99L83.91,39.61L102.56,94.05L121.21,76.61L139.85,25.98L158.5,53.23L177.15,53.04L195.79,46.27L214.44,50.71L233.09,49.87L251.74,51.32L270.38,50.39L289.03,50.47L307.68,49.97" style="vector-effect: none; fill: none; stroke: rgb(0, 137, 123); stroke-opacity: 1; stroke-width: 3px; opacity: 1;"/></g><g class="points"/><g class="text"/></g><g class="trace scatter traced1cfa9" style="stroke-miterlimit: 2; opacity: 1;"><g class="fills"/><g class="errorbars"/><g class="lines"/><g class="points"><path class="point" transform="translate(195.79,46.27)" d="M5.5,0A5.5,5.5 0 1,1 0,-5.5A5.5,5.5 0 0,1 5.5,0Z" style="opacity: 1; stroke: rgb(0, 137, 123); stroke-opacity: 1; stroke-width: 1.8px; fill: none;"/><path class="point" transform="translate(307.68,49.97)" d="M5.5,0A5.5,5.5 0 1,1 0,-5.5A5.5,5.5 0 0,1 5.5,0Z" style="opacity: 1; stroke: rgb(0, 137, 123); stroke-opacity: 1; stroke-width: 1.8px; fill: none;"/></g><g class="text"/></g><g class="trace scatter trace83c760" style="stroke-miterlimit: 2; opacity: 1;"><g class="fills"/><g class="errorbars"/><g class="lines"><path class="js-line" d="M9.32,14.33L27.97,11.42L46.62,7.49L65.26,4.95L83.91,8.2L102.56,50.79L121.21,30.17L139.85,16.44L158.5,18.3L195.79,17.33L214.44,18.78L307.68,16.39" style="vector-effect: none; fill: none; stroke: rgb(30, 136, 229); stroke-opacity: 0.15; stroke-width: 2.5px; opacity: 1;"/></g><g class="points"/><g class="text"/></g><g class="trace scatter trace8084f5" style="stroke-miterlimit: 2; opacity: 1;"><g class="fills"/><g class="errorbars"/><g class="lines"/><g class="points"><path class="point" transform="translate(195.79,17.33)" d="M5.25,0A5.25,5.25 0 1,1 0,-5.25A5.25,5.25 0 0,1 5.25,0Z" style="opacity: 1; stroke: rgb(30, 136, 229); stroke-opacity: 0.15; stroke-width: 1.5px; fill: none;"/><path class="point" transform="translate(307.68,16.39)" d="M5.25,0A5.25,5.25 0 1,1 0,-5.25A5.25,5.25 0 0,1 5.25,0Z" style="opacity: 1; stroke: rgb(30, 136, 229); stroke-opacity: 0.15; stroke-width: 1.5px; fill: none;"/></g><g class="text"/></g><g class="trace scatter tracef4b58b" style="stroke-miterlimit: 2; opacity: 1;"><g class="fills"/><g class="errorbars"/><g class="lines"><path class="js-line" d="M9.32,34.57L27.97,34.87L46.62,28.11L65.26,20.28L83.91,22.1L102.56,52.73L121.21,28.77L139.85,20.01L158.5,28.85L177.15,29.56L195.79,32.79L214.44,30.29L233.09,28.6L270.38,25.14L289.03,24.61L307.68,24.48" style="vector-effect: none; fill: none; stroke: rgb(255, 152, 0); stroke-opacity: 0.15; stroke-width: 2.5px; opacity: 1;"/></g><g class="points"/><g class="text"/></g><g class="trace scatter trace9113fd" style="stroke-miterlimit: 2; opacity: 1;"><g class="fills"/><g class="errorbars"/><g class="lines"/><g class="points"><path class="point" transform="translate(195.79,32.79)" d="M5.25,0A5.25,5.25 0 1,1 0,-5.25A5.25,5.25 0 0,1 5.25,0Z" style="opacity: 1; stroke: rgb(255, 152, 0); stroke-opacity: 0.15; stroke-width: 1.5px; fill: none;"/><path class="point" transform="translate(307.68,24.48)" d="M5.25,0A5.25,5.25 0 1,1 0,-5.25A5.25,5.25 0 0,1 5.25,0Z" style="opacity: 1; stroke: rgb(255, 152, 0); stroke-opacity: 0.15; stroke-width: 1.5px; fill: none;"/></g><g class="text"/></g><g class="trace scatter trace5d4d18" style="stroke-miterlimit: 2; opacity: 1;"><g class="fills"/><g class="errorbars"/><g class="lines"><path class="js-line" d="M9.32,22.26L27.97,22.82L46.62,24.99L65.26,23.25L83.91,26.03L102.56,34.3L121.21,29.19L139.85,29.04L158.5,26.26L177.15,21.16L195.79,19.67L214.44,24.62L233.09,22.77L307.68,21.96" style="vector-effect: none; fill: none; stroke: rgb(121, 85, 72); stroke-opacity: 0.15; stroke-width: 2.5px; opacity: 1;"/></g><g class="points"/><g class="text"/></g><g class="trace scatter trace770ed5" style="stroke-miterlimit: 2; opacity: 1;"><g class="fills"/><g class="errorbars"/><g class="lines"/><g class="points"><path class="point" transform="translate(195.79,19.67)" d="M5.25,0A5.25,5.25 0 1,1 0,-5.25A5.25,5.25 0 0,1 5.25,0Z" style="opacity: 1; stroke: rgb(121, 85, 72); stroke-opacity: 0.15; stroke-width: 1.5px; fill: none;"/><path class="point" transform="translate(307.68,21.96)" d="M5.25,0A5.25,5.25 0 1,1 0,-5.25A5.25,5.25 0 0,1 5.25,0Z" style="opacity: 1; stroke: rgb(121, 85, 72); stroke-opacity: 0.15; stroke-width: 1.5px; fill: none;"/></g><g class="text"/></g><g class="trace scatter trace5ee3c7" style="stroke-miterlimit: 2; opacity: 1;"><g class="fills"/><g class="errorbars"/><g class="lines"><path class="js-line" d="M9.32,22.04L27.97,23.1L46.62,21.05L65.26,20.1L83.91,24.68L102.56,63.83L121.21,42.92L139.85,25.86L158.5,34.53L233.09,35.16L251.74,34.82L289.03,33.48L307.68,33.33" style="vector-effect: none; fill: none; stroke: rgb(106, 27, 154); stroke-opacity: 0.15; stroke-width: 6px; opacity: 1;"/></g><g class="points"/><g class="text"/></g><g class="trace scatter trace2209d0" style="stroke-miterlimit: 2; opacity: 1;"><g class="fills"/><g class="errorbars"/><g class="lines"/><g class="points"><path class="point" transform="translate(195.79,34.34)" d="M7,0A7,7 0 1,1 0,-7A7,7 0 0,1 7,0Z" style="opacity: 1; stroke: rgb(106, 27, 154); stroke-opacity: 0.15; stroke-width: 3.6px; fill: none;"/><path class="point" transform="translate(307.68,33.33)" d="M7,0A7,7 0 1,1 0,-7A7,7 0 0,1 7,0Z" style="opacity: 1; stroke: rgb(106, 27, 154); stroke-opacity: 0.15; stroke-width: 3.6px; fill: none;"/></g><g class="text"/></g></g></g></g><g class="zerolinelayer-above"/><path class="xlines-above crisp" d="M44.5,219.75H363" style="fill: none; stroke-width: 1.5px; stroke: rgb(0, 0, 0); stroke-opacity: 1;"/><path class="ylines-above crisp" d="M45.25,120V219" style="fill: none; stroke-width: 1.5px; stroke: rgb(0, 0, 0); stroke-opacity: 1;"/><g class="overlines-above"/><g class="xaxislayer-above"><path class="xtick ticks crisp" d="M0,219v-5" transform="translate(55.32,0)" style="stroke: rgb(68, 68, 68); stroke-opacity: 1; stroke-width: 1px;"/><path class="xtick ticks crisp" d="M0,219v-5" transform="translate(148.56,0)" style="stroke: rgb(68, 68, 68); stroke-opacity: 1; stroke-width: 1px;"/><path class="xtick ticks crisp" d="M0,219v-5" transform="translate(241.79,0)" style="stroke: rgb(68, 68, 68); stroke-opacity: 1; stroke-width: 1px;"/><path class="xtick ticks crisp" d="M0,219v-5" transform="translate(335.03,0)" style="stroke: rgb(68, 68, 68); stroke-opacity: 1; stroke-width: 1px;"/></g><g class="yaxislayer-above"><path class="ytick ticks crisp" d="M46,0h5" transform="translate(0,187.05)" style="stroke: rgb(68, 68, 68); stroke-opacity: 1; stroke-width: 1px;"/><path class="ytick ticks crisp" d="M46,0h5" transform="translate(0,154.34)" style="stroke: rgb(68, 68, 68); stroke-opacity: 1; stroke-width: 1px;"/><path class="ytick ticks crisp" d="M46,0h5" transform="translate(0,121.63)" style="stroke: rgb(68, 68, 68); stroke-opacity: 1; stroke-width: 1px;"/><g class="ytick"><text text-anchor="end" x="41.7" y="4.8999999999999995" transform="translate(0,187.05)" style="font-family: 'Open Sans', verdana, arial, sans-serif; font-size: 14px; fill: rgb(36, 36, 36); fill-opacity: 1; white-space: pre;">−10</text></g><g class="ytick"><text text-anchor="end" x="41.7" y="4.8999999999999995" style="font-family: 'Open Sans', verdana, arial, sans-serif; font-size: 14px; fill: rgb(36, 36, 36); fill-opacity: 1; white-space: pre;" transform="translate(0,154.34)">−5</text></g><g class="ytick"><text text-anchor="end" x="41.7" y="4.8999999999999995" style="font-family: 'Open Sans', verdana, arial, sans-serif; font-size: 14px; fill: rgb(36, 36, 36); fill-opacity: 1; white-space: pre;" transform="translate(0,121.63)">0</text></g></g><g class="overaxes-above"/></g><g class="subplot x2y2"><g class="layer-subplot"><g class="shapelayer"/><g class="imagelayer"/></g><g class="minor-gridlayer"><g class="x2"/><g class="y2"/></g><g class="gridlayer"><g class="x2"><path class="x2grid crisp" transform="translate(55.32,0)" d="M0,246v99" style="stroke: rgb(0, 0, 0); stroke-opacity: 0.15; stroke-width: 1px;"/><path class="x2grid crisp" transform="translate(148.56,0)" d="M0,246v99" style="stroke: rgb(0, 0, 0); stroke-opacity: 0.15; stroke-width: 1px;"/><path class="x2grid crisp" transform="translate(241.79,0)" d="M0,246v99" style="stroke: rgb(0, 0, 0); stroke-opacity: 0.15; stroke-width: 1px;"/><path class="x2grid crisp" transform="translate(335.03,0)" d="M0,246v99" style="stroke: rgb(0, 0, 0); stroke-opacity: 0.15; stroke-width: 1px;"/></g><g class="y2"><path class="y2grid crisp" transform="translate(0,325.02)" d="M46,0h317" style="stroke: rgb(0, 0, 0); stroke-opacity: 0.15; stroke-width: 1px;"/><path class="y2grid crisp" transform="translate(0,288.55)" d="M46,0h317" style="stroke: rgb(0, 0, 0); stroke-opacity: 0.15; stroke-width: 1px;"/><path class="y2grid crisp" transform="translate(0,252.07)" d="M46,0h317" style="stroke: rgb(0, 0, 0); stroke-opacity: 0.15; stroke-width: 1px;"/></g></g><g class="zerolinelayer"/><g class="layer-between"><g class="shapelayer"/><g class="imagelayer"/></g><path class="xlines-below"/><path class="ylines-below"/><g class="overlines-below"/><g class="xaxislayer-below"/><g class="yaxislayer-below"/><g class="overaxes-below"/><g class="overplot"><g class="x2y2" transform="translate(46,246)" clip-path="url(#clipe1857fx2y2plot)"><g class="scatterlayer mlayer"><g class="trace scatter trace962ee3" style="stroke-miterlimit: 2; opacity: 1;"><g class="fills"/><g class="errorbars"/><g class="lines"><path class="js-line" d="M9.32,85.74L27.97,79L46.62,76.18L65.26,74.73L83.91,71.84L102.56,64.33L121.21,62.88L139.85,59.11L158.5,54.16L177.15,49.53L195.79,43.1L214.44,37.52L233.09,33.45L270.38,27.7L289.03,25.19L307.68,23.01" style="vector-effect: none; fill: none; stroke: rgb(229, 57, 53); stroke-opacity: 0.15; stroke-width: 3px; opacity: 1;"/></g><g class="points"/><g class="text"/></g><g class="trace scatter trace1637a8" style="stroke-miterlimit: 2; opacity: 1;"><g class="fills"/><g class="errorbars"/><g class="lines"/><g class="points"><path class="point" transform="translate(195.79,43.1)" d="M5.5,0A5.5,5.5 0 1,1 0,-5.5A5.5,5.5 0 0,1 5.5,0Z" style="opacity: 1; stroke: rgb(229, 57, 53); stroke-opacity: 0.15; stroke-width: 1.8px; fill: none;"/><path class="point" transform="translate(307.68,23.01)" d="M5.5,0A5.5,5.5 0 1,1 0,-5.5A5.5,5.5 0 0,1 5.5,0Z" style="opacity: 1; stroke: rgb(229, 57, 53); stroke-opacity: 0.15; stroke-width: 1.8px; fill: none;"/></g><g class="text"/></g><g class="trace scatter tracea29cf9" style="stroke-miterlimit: 2; opacity: 1;"><g class="fills"/><g class="errorbars"/><g class="lines"><path class="js-line" d="M9.32,38.58L27.97,37.14L46.62,37.88L83.91,36.14L102.56,18.8L121.21,24.27L139.85,28.58L158.5,27.98L177.15,26.3L214.44,23.74L233.09,21.7L307.68,11.82" style="vector-effect: none; fill: none; stroke: rgb(0, 137, 123); stroke-opacity: 1; stroke-width: 3px; opacity: 1;"/></g><g class="points"/><g class="text"/></g><g class="trace scatter trace00b937" style="stroke-miterlimit: 2; opacity: 1;"><g class="fills"/><g class="errorbars"/><g class="lines"/><g class="points"><path class="point" transform="translate(195.79,25.12)" d="M5.5,0A5.5,5.5 0 1,1 0,-5.5A5.5,5.5 0 0,1 5.5,0Z" style="opacity: 1; stroke: rgb(0, 137, 123); stroke-opacity: 1; stroke-width: 1.8px; fill: none;"/><path class="point" transform="translate(307.68,11.82)" d="M5.5,0A5.5,5.5 0 1,1 0,-5.5A5.5,5.5 0 0,1 5.5,0Z" style="opacity: 1; stroke: rgb(0, 137, 123); stroke-opacity: 1; stroke-width: 1.8px; fill: none;"/></g><g class="text"/></g><g class="trace scatter tracec6909b" style="stroke-miterlimit: 2; opacity: 1;"><g class="fills"/><g class="errorbars"/><g class="lines"><path class="js-line" d="M9.32,44.46L27.97,43.13L46.62,45.09L65.26,46.22L83.91,45.83L102.56,35.26L121.21,39.2L139.85,43.25L158.5,44.88L214.44,46.6L233.09,46.64L307.68,47.31" style="vector-effect: none; fill: none; stroke: rgb(30, 136, 229); stroke-opacity: 0.15; stroke-width: 2.5px; opacity: 1;"/></g><g class="points"/><g class="text"/></g><g class="trace scatter tracefb580b" style="stroke-miterlimit: 2; opacity: 1;"><g class="fills"/><g class="errorbars"/><g class="lines"/><g class="points"><path class="point" transform="translate(195.79,45.93)" d="M5.25,0A5.25,5.25 0 1,1 0,-5.25A5.25,5.25 0 0,1 5.25,0Z" style="opacity: 1; stroke: rgb(30, 136, 229); stroke-opacity: 0.15; stroke-width: 1.5px; fill: none;"/><path class="point" transform="translate(307.68,47.31)" d="M5.25,0A5.25,5.25 0 1,1 0,-5.25A5.25,5.25 0 0,1 5.25,0Z" style="opacity: 1; stroke: rgb(30, 136, 229); stroke-opacity: 0.15; stroke-width: 1.5px; fill: none;"/></g><g class="text"/></g><g class="trace scatter tracef970cc" style="stroke-miterlimit: 2; opacity: 1;"><g class="fills"/><g class="errorbars"/><g class="lines"><path class="js-line" d="M9.32,82.04L27.97,79.71L46.62,79.2L83.91,77.53L102.56,70.72L139.85,75.72L158.5,73.77L177.15,74.59L195.79,73.57L214.44,73.34L233.09,72.2L289.03,71.14L307.68,71.06" style="vector-effect: none; fill: none; stroke: rgb(255, 152, 0); stroke-opacity: 0.15; stroke-width: 2.5px; opacity: 1;"/></g><g class="points"/><g class="text"/></g><g class="trace scatter tracedd1c64" style="stroke-miterlimit: 2; opacity: 1;"><g class="fills"/><g class="errorbars"/><g class="lines"/><g class="points"><path class="point" transform="translate(195.79,73.57)" d="M5.25,0A5.25,5.25 0 1,1 0,-5.25A5.25,5.25 0 0,1 5.25,0Z" style="opacity: 1; stroke: rgb(255, 152, 0); stroke-opacity: 0.15; stroke-width: 1.5px; fill: none;"/><path class="point" transform="translate(307.68,71.06)" d="M5.25,0A5.25,5.25 0 1,1 0,-5.25A5.25,5.25 0 0,1 5.25,0Z" style="opacity: 1; stroke: rgb(255, 152, 0); stroke-opacity: 0.15; stroke-width: 1.5px; fill: none;"/></g><g class="text"/></g><g class="trace scatter trace2b3c18" style="stroke-miterlimit: 2; opacity: 1;"><g class="fills"/><g class="errorbars"/><g class="lines"><path class="js-line" d="M9.32,94.05L46.62,89.31L65.26,88.4L83.91,87.4L102.56,82.32L139.85,81.79L158.5,78.74L177.15,78.64L195.79,80.35L233.09,81.78L251.74,82.19L307.68,83.5" style="vector-effect: none; fill: none; stroke: rgb(121, 85, 72); stroke-opacity: 0.15; stroke-width: 2.5px; opacity: 1;"/></g><g class="points"/><g class="text"/></g><g class="trace scatter tracecea89f" style="stroke-miterlimit: 2; opacity: 1;"><g class="fills"/><g class="errorbars"/><g class="lines"/><g class="points"><path class="point" transform="translate(195.79,80.35)" d="M5.25,0A5.25,5.25 0 1,1 0,-5.25A5.25,5.25 0 0,1 5.25,0Z" style="opacity: 1; stroke: rgb(121, 85, 72); stroke-opacity: 0.15; stroke-width: 1.5px; fill: none;"/><path class="point" transform="translate(307.68,83.5)" d="M5.25,0A5.25,5.25 0 1,1 0,-5.25A5.25,5.25 0 0,1 5.25,0Z" style="opacity: 1; stroke: rgb(121, 85, 72); stroke-opacity: 0.15; stroke-width: 1.5px; fill: none;"/></g><g class="text"/></g><g class="trace scatter trace6a9845" style="stroke-miterlimit: 2; opacity: 1;"><g class="fills"/><g class="errorbars"/><g class="lines"><path class="js-line" d="M9.32,58.74L27.97,56.06L46.62,56.76L83.91,55.58L102.56,44.46L139.85,50.38L158.5,49.22L233.09,44.55L251.74,43.42L307.68,40.83" style="vector-effect: none; fill: none; stroke: rgb(106, 27, 154); stroke-opacity: 0.15; stroke-width: 6px; opacity: 1;"/></g><g class="points"/><g class="text"/></g><g class="trace scatter tracec4ba81" style="stroke-miterlimit: 2; opacity: 1;"><g class="fills"/><g class="errorbars"/><g class="lines"/><g class="points"><path class="point" transform="translate(195.79,46.96)" d="M7,0A7,7 0 1,1 0,-7A7,7 0 0,1 7,0Z" style="opacity: 1; stroke: rgb(106, 27, 154); stroke-opacity: 0.15; stroke-width: 3.6px; fill: none;"/><path class="point" transform="translate(307.68,40.83)" d="M7,0A7,7 0 1,1 0,-7A7,7 0 0,1 7,0Z" style="opacity: 1; stroke: rgb(106, 27, 154); stroke-opacity: 0.15; stroke-width: 3.6px; fill: none;"/></g><g class="text"/></g></g></g></g><g class="zerolinelayer-above"/><path class="xlines-above crisp" d="M44.5,345.75H363" style="fill: none; stroke-width: 1.5px; stroke: rgb(0, 0, 0); stroke-opacity: 1;"/><path class="ylines-above crisp" d="M45.25,246V345" style="fill: none; stroke-width: 1.5px; stroke: rgb(0, 0, 0); stroke-opacity: 1;"/><g class="overlines-above"/><g class="xaxislayer-above"><path class="x2tick ticks crisp" d="M0,345v-5" transform="translate(55.32,0)" style="stroke: rgb(68, 68, 68); stroke-opacity: 1; stroke-width: 1px;"/><path class="x2tick ticks crisp" d="M0,345v-5" transform="translate(148.56,0)" style="stroke: rgb(68, 68, 68); stroke-opacity: 1; stroke-width: 1px;"/><path class="x2tick ticks crisp" d="M0,345v-5" transform="translate(241.79,0)" style="stroke: rgb(68, 68, 68); stroke-opacity: 1; stroke-width: 1px;"/><path class="x2tick ticks crisp" d="M0,345v-5" transform="translate(335.03,0)" style="stroke: rgb(68, 68, 68); stroke-opacity: 1; stroke-width: 1px;"/><g class="x2tick"><text text-anchor="middle" x="0" y="363.3" transform="translate(55.32,0)" style="font-family: 'Open Sans', verdana, arial, sans-serif; font-size: 14px; fill: rgb(36, 36, 36); fill-opacity: 1; white-space: pre;">2015</text></g><g class="x2tick"><text text-anchor="middle" x="0" y="363.3" style="font-family: 'Open Sans', verdana, arial, sans-serif; font-size: 14px; fill: rgb(36, 36, 36); fill-opacity: 1; white-space: pre;" transform="translate(148.56,0)">20</text></g><g class="x2tick"><text text-anchor="middle" x="0" y="363.3" style="font-family: 'Open Sans', verdana, arial, sans-serif; font-size: 14px; fill: rgb(36, 36, 36); fill-opacity: 1; white-space: pre;" transform="translate(241.79,0)">25</text></g><g class="x2tick"><text text-anchor="middle" x="0" y="363.3" style="font-family: 'Open Sans', verdana, arial, sans-serif; font-size: 14px; fill: rgb(36, 36, 36); fill-opacity: 1; white-space: pre;" transform="translate(335.03,0)">30</text></g></g><g class="yaxislayer-above"><path class="y2tick ticks crisp" d="M46,0h5" transform="translate(0,325.02)" style="stroke: rgb(68, 68, 68); stroke-opacity: 1; stroke-width: 1px;"/><path class="y2tick ticks crisp" d="M46,0h5" transform="translate(0,288.55)" style="stroke: rgb(68, 68, 68); stroke-opacity: 1; stroke-width: 1px;"/><path class="y2tick ticks crisp" d="M46,0h5" transform="translate(0,252.07)" style="stroke: rgb(68, 68, 68); stroke-opacity: 1; stroke-width: 1px;"/><g class="y2tick"><text text-anchor="end" x="41.7" y="4.8999999999999995" transform="translate(0,325.02)" style="font-family: 'Open Sans', verdana, arial, sans-serif; font-size: 14px; fill: rgb(36, 36, 36); fill-opacity: 1; white-space: pre;">50</text></g><g class="y2tick"><text text-anchor="end" x="41.7" y="4.8999999999999995" style="font-family: 'Open Sans', verdana, arial, sans-serif; font-size: 14px; fill: rgb(36, 36, 36); fill-opacity: 1; white-space: pre;" transform="translate(0,288.55)">100</text></g><g class="y2tick"><text text-anchor="end" x="41.7" y="4.8999999999999995" style="font-family: 'Open Sans', verdana, arial, sans-serif; font-size: 14px; fill: rgb(36, 36, 36); fill-opacity: 1; white-space: pre;" transform="translate(0,252.07)">150</text></g></g><g class="overaxes-above"/></g></g><g class="polarlayer"/><g class="smithlayer"/><g class="ternarylayer"/><g class="geolayer"/><g class="funnelarealayer"/><g class="pielayer"/><g class="iciclelayer"/><g class="treemaplayer"/><g class="sunburstlayer"/><g class="glimages"/><defs id="topdefs-e1857f"><g class="clips"/><clipPath id="legende1857f"><rect width="253" height="86" x="0" y="0"/></clipPath></defs><g class="layer-above"><g class="imagelayer"/><g class="shapelayer"/></g><g class="infolayer"><g class="legend" pointer-events="all" transform="translate(78,11.499999999999972)"><rect class="bg" shape-rendering="crispEdges" width="253" height="86" x="0" y="0" style="stroke: rgb(68, 68, 68); stroke-opacity: 1; fill: rgb(255, 255, 255); fill-opacity: 1; stroke-width: 0px;"/><g class="scrollbox" transform="" clip-path="url(#legende1857f)"><g class="groups" transform=""><g class="traces" transform="translate(0,14.5)" style="opacity: 1;"><text class="legendtext" text-anchor="start" x="40" y="4.680000000000001" style="font-family: 'Open Sans', verdana, arial, sans-serif; font-size: 12px; fill: rgb(36, 36, 36); fill-opacity: 1; white-space: pre;">Global</text><g class="layers" style="opacity: 1;"><g class="legendfill"/><g class="legendlines"><path class="js-line" d="M5,0h30" style="fill: none; stroke: rgb(106, 27, 154); stroke-opacity: 0.15; stroke-width: 6px;"/></g><g class="legendsymbols"><g class="legendpoints"/></g></g><rect class="legendtoggle" x="0" y="-9.5" width="80.359375" height="19" style="fill: rgb(0, 0, 0); fill-opacity: 0;"/></g></g><g class="groups" transform="translate(82.859375,0)"><g class="traces" transform="translate(0,14.5)" style="opacity: 1;"><text class="legendtext" text-anchor="start" x="40" y="4.680000000000001" style="font-family: 'Open Sans', verdana, arial, sans-serif; font-size: 12px; fill: rgb(36, 36, 36); fill-opacity: 1; white-space: pre;">China</text><g class="layers" style="opacity: 1;"><g class="legendfill"/><g class="legendlines"><path class="js-line" d="M5,0h30" style="fill: none; stroke: rgb(229, 57, 53); stroke-opacity: 0.15; stroke-width: 3px;"/></g><g class="legendsymbols"><g class="legendpoints"/></g></g><rect class="legendtoggle" x="0" y="-9.5" width="76.578125" height="19" style="fill: rgb(0, 0, 0); fill-opacity: 0;"/></g></g><g class="groups" transform="translate(161.9375,0)"><g class="traces" transform="translate(0,14.5)" style="opacity: 1;"><text class="legendtext" text-anchor="start" x="40" y="4.680000000000001" style="font-family: 'Open Sans', verdana, arial, sans-serif; font-size: 12px; fill: rgb(36, 36, 36); fill-opacity: 1; white-space: pre;">USA</text><g class="layers" style="opacity: 1;"><g class="legendfill"/><g class="legendlines"><path class="js-line" d="M5,0h30" style="fill: none; stroke: rgb(0, 137, 123); stroke-opacity: 1; stroke-width: 3px;"/></g><g class="legendsymbols"><g class="legendpoints"/></g></g><rect class="legendtoggle" x="0" y="-9.5" width="67.703125" height="19" style="fill: rgb(0, 0, 0); fill-opacity: 0;"/></g></g><g class="groups" transform="translate(0,19)"><g class="traces" transform="translate(0,14.5)" style="opacity: 1;"><text class="legendtext" text-anchor="start" x="40" y="4.680000000000001" style="font-family: 'Open Sans', verdana, arial, sans-serif; font-size: 12px; fill: rgb(36, 36, 36); fill-opacity: 1; white-space: pre;">Advanced Economies excl. USA</text><g class="layers" style="opacity: 1;"><g class="legendfill"/><g class="legendlines"><path class="js-line" d="M5,0h30" style="fill: none; stroke: rgb(30, 136, 229); stroke-opacity: 0.15; stroke-width: 2.5px;"/></g><g class="legendsymbols"><g class="legendpoints"/></g></g><rect class="legendtoggle" x="0" y="-9.5" width="231.34375" height="19" style="fill: rgb(0, 0, 0); fill-opacity: 0;"/></g></g><g class="groups" transform="translate(0,38)"><g class="traces" transform="translate(0,14.5)" style="opacity: 1;"><text class="legendtext" text-anchor="start" x="40" y="4.680000000000001" style="font-family: 'Open Sans', verdana, arial, sans-serif; font-size: 12px; fill: rgb(36, 36, 36); fill-opacity: 1; white-space: pre;">Emerging Markets excl. China</text><g class="layers" style="opacity: 1;"><g class="legendfill"/><g class="legendlines"><path class="js-line" d="M5,0h30" style="fill: none; stroke: rgb(255, 152, 0); stroke-opacity: 0.15; stroke-width: 2.5px;"/></g><g class="legendsymbols"><g class="legendpoints"/></g></g><rect class="legendtoggle" x="0" y="-9.5" width="222.4375" height="19" style="fill: rgb(0, 0, 0); fill-opacity: 0;"/></g></g><g class="groups" transform="translate(0,57)"><g class="traces" transform="translate(0,14.5)" style="opacity: 1;"><text class="legendtext" text-anchor="start" x="40" y="4.680000000000001" style="font-family: 'Open Sans', verdana, arial, sans-serif; font-size: 12px; fill: rgb(36, 36, 36); fill-opacity: 1; white-space: pre;">Low-Income Developing Countries</text><g class="layers" style="opacity: 1;"><g class="legendfill"/><g class="legendlines"><path class="js-line" d="M5,0h30" style="fill: none; stroke: rgb(121, 85, 72); stroke-opacity: 0.15; stroke-width: 2.5px;"/></g><g class="legendsymbols"><g class="legendpoints"/></g></g><rect class="legendtoggle" x="0" y="-9.5" width="249.625" height="19" style="fill: rgb(0, 0, 0); fill-opacity: 0;"/></g></g></g><rect class="scrollbar" rx="20" ry="3" width="0" height="0" x="0" y="0" style="fill: rgb(128, 139, 164); fill-opacity: 1;"/></g><g class="g-gtitle"/><g class="g-xtitle"/><g class="g-x2title"/><g class="g-ytitle"/><g class="g-y2title"/><g class="annotation" data-index="0" style="opacity: 1;"><g class="annotation-text-g" transform="rotate(0,204.5,109.5)"><g class="cursor-pointer" transform="translate(148,99)"><rect class="bg" x="0.5" y="0.5" width="112" height="20" style="stroke-width: 1px; stroke: rgb(0, 0, 0); stroke-opacity: 0; fill: rgb(0, 0, 0); fill-opacity: 0;"/><text class="annotation-text" text-anchor="middle" x="56.703125" y="16" style="font-family: 'Open Sans', verdana, arial, sans-serif; font-size: 14px; fill: rgb(36, 36, 36); fill-opacity: 1; white-space: pre;">Overall Balance</text></g></g></g><g class="annotation" data-index="1" style="opacity: 1;"><g class="annotation-text-g" transform="rotate(0,204.5,235.5)"><g class="cursor-pointer" transform="translate(164,225)"><rect class="bg" x="0.5" y="0.5" width="81" height="20" style="stroke-width: 1px; stroke: rgb(0, 0, 0); stroke-opacity: 0; fill: rgb(0, 0, 0); fill-opacity: 0;"/><text class="annotation-text" text-anchor="middle" x="41.109375" y="16" style="font-family: 'Open Sans', verdana, arial, sans-serif; font-size: 14px; fill: rgb(36, 36, 36); fill-opacity: 1; white-space: pre;">Gross Debt</text></g></g></g></g></svg>