<svg class="main-svg" xmlns="http://www.w3.org/2000/svg" xmlns:xlink="http://www.w3.org/1999/xlink" width="756" height="756" style="" viewBox="0 0 378 378"><rect x="0" y="0" width="378" height="378" style="fill: rgb(255, 255, 255); fill-opacity: 1;"/><defs id="defs-18f116"><g class="clips"><clipPath id="clip18f116xyplot" class="plotclip"><rect width="335" height="228"/></clipPath><clipPath class="axesclip" id="clip18f116x"><rect x="35" y="0" width="335" height="378"/></clipPath><clipPath class="axesclip" id="clip18f116y"><rect x="0" y="110" width="378" height="228"/></clipPath><clipPath class="axesclip" id="clip18f116xy"><rect x="35" y="110" width="335" height="228"/></clipPath></g><g class="gradients"/><g class="patterns"/></defs><g class="bglayer"/><g class="layer-below"><g class="imagelayer"/><g class="shapelayer"><g class="shape-group" data-index="0" clip-path="url(#clip18f116x)"><path data-index="0" fill-rule="evenodd" d="M295.56,338H370V110H295.56Z" style="opacity: 0.3; stroke: rgb(0, 0, 0); stroke-opacity: 0; fill: rgb(128, 128, 128); fill-opacity: 0.4; stroke-width: 0px;"/></g></g></g><g class="cartesianlayer"><g class="subplot xy"><g class="layer-subplot"><g class="shapelayer"/><g class="imagelayer"/></g><g class="minor-gridlayer"><g class="x"/><g class="y"/></g><g class="gridlayer"><g class="x"><path class="xgrid crisp" transform="translate(41.2,0)" d="M0,110v228" style="stroke: rgb(0, 0, 0); stroke-opacity: 0.15; stroke-width: 1px;"/><path class="xgrid crisp" transform="translate(103.24,0)" d="M0,110v228" style="stroke: rgb(0, 0, 0); stroke-opacity: 0.15; stroke-width: 1px;"/><path class="xgrid crisp" transform="translate(165.28,0)" d="M0,110v228" style="stroke: rgb(0, 0, 0); stroke-opacity: 0.15; stroke-width: 1px;"/><path class="xgrid crisp" transform="translate(227.31,0)" d="M0,110v228" style="stroke: rgb(0, 0, 0); stroke-opacity: 0.15; stroke-width: 1px;"/><path class="xgrid crisp" transform="translate(289.35,0)" d="M0,110v228" style="stroke: rgb(0, 0, 0); stroke-opacity: 0.15; stroke-width: 1px;"/><path class="xgrid crisp" transform="translate(351.39,0)" d="M0,110v228" style="stroke: rgb(0, 0, 0); stroke-opacity: 0.15; stroke-width: 1px;"/></g><g class="y"><path class="ygrid crisp" transform="translate(0,282.97)" d="M35,0h335" style="stroke: rgb(0, 0, 0); stroke-opacity: 0.15; stroke-width: 1px;"/><path class="ygrid crisp" transform="translate(0,227.93)" d="M35,0h335" style="stroke: rgb(0, 0, 0); stroke-opacity: 0.15; stroke-width: 1px;"/><path class="ygrid crisp" transform="translate(0,172.9)" d="M35,0h335" style="stroke: rgb(0, 0, 0); stroke-opacity: 0.15; stroke-width: 1px;"/><path class="ygrid crisp" transform="translate(0,117.87)" d="M35,0h335" style="stroke: rgb(0, 0, 0); stroke-opacity: 0.15; stroke-width: 1px;"/></g></g><g class="zerolinelayer"/><g class="layer-between"><g class="shapelayer"/><g class="imagelayer"/></g><path class="xlines-below"/><path class="ylines-below"/><g class="overlines-below"/><g class="xaxislayer-below"/><g class="yaxislayer-below"/><g class="overaxes-below"/><g class="overplot"><g class="xy" transform="translate(35,110)" clip-path="url(#clip18f116xyplot)"><g class="scatterlayer mlayer"><g class="trace scatter trace76e7fb" style="stroke-miterlimit: 2; opacity: 1;"><g class="fills"><g><path class="js-fill" d="M6.2,165.81L18.61,188.2L31.02,186.94L43.43,183.47L55.83,185.11L68.24,195.6L80.65,192.23L93.06,193.51L105.46,190.45L117.87,189.59L130.28,184.63L142.69,180.69L155.09,173.88L167.5,171.09L179.91,164.87L192.31,157.17L204.72,159.27L217.13,160.85L229.54,151.29L241.94,138.71L254.35,144.59L266.76,142.14L279.17,143.78L291.57,148.3L303.98,147.98L328.8,148.22L328.8,202.38L303.98,205.08L291.57,203.07L279.17,202.35L266.76,202.95L254.35,208.45L241.94,211.02L217.13,211.69L204.72,215.11L192.31,212.95L179.91,211.95L155.09,216.35L142.69,218.04L130.28,217.87L117.87,218.58L105.46,219.64L93.06,218.79L68.24,218.98L55.83,217.49L43.43,217.51L31.02,215.74L18.61,215.85L6.2,210.46Z" style="fill: rgb(106, 27, 154); fill-opacity: 0.2; stroke-width: 0;"/></g></g><g class="errorbars"/><g class="lines"><path class="js-line" d="M6.2,165.81L18.61,188.2L31.02,186.94L43.43,183.47L55.83,185.11L68.24,195.6L80.65,192.23L93.06,193.51L105.46,190.45L117.87,189.59L130.28,184.63L142.69,180.69L155.09,173.88L167.5,171.09L179.91,164.87L192.31,157.17L204.72,159.27L217.13,160.85L229.54,151.29L241.94,138.71L254.35,144.59L266.76,142.14L279.17,143.78L291.57,148.3L303.98,147.98L328.8,148.22L328.8,202.38L303.98,205.08L291.57,203.07L279.17,202.35L266.76,202.95L254.35,208.45L241.94,211.02L217.13,211.69L204.72,215.11L192.31,212.95L179.91,211.95L155.09,216.35L142.69,218.04L130.28,217.87L117.87,218.58L105.46,219.64L93.06,218.79L68.24,218.98L55.83,217.49L43.43,217.51L31.02,215.74L18.61,215.85L6.2,210.46" style="vector-effect: none; fill: none; stroke: rgb(255, 255, 255); stroke-opacity: 0; stroke-width: 2px; opacity: 1;"/></g><g class="points"/><g class="text"/></g><g class="trace scatter trace8f7b0b" style="stroke-miterlimit: 2; opacity: 1;"><g class="fills"/><g class="errorbars"/><g class="lines"><path class="js-line" d="M6.2,183.95L18.61,198.54L31.02,198.56L43.43,200.34L55.83,191.83L68.24,196.15L80.65,198.15L117.87,187.26L130.28,177.94L142.69,169.81L155.09,167.26L167.5,159.76L179.91,156.06L192.31,144.85L204.72,143.37L217.13,149.53L229.54,142.45L241.94,147.53L254.35,145.96L266.76,143.11L279.17,147.59L291.57,147.07L303.98,147.64L328.8,148.71" style="vector-effect: none; fill: none; stroke: rgb(106, 27, 154); stroke-opacity: 1; stroke-width: 4px; opacity: 1;"/></g><g class="points"/><g class="text"/></g><g class="trace scatter trace3ae961" style="stroke-miterlimit: 2; opacity: 1;"><g class="fills"/><g class="errorbars"/><g class="lines"><path class="js-line" d="M6.2,143.47L18.61,138.4L31.02,130.96L43.43,107.57L55.83,101.22L68.24,126.07L80.65,139.69L93.06,133.87L105.46,130.35L117.87,123.13L130.28,113.71L142.69,123.95L155.09,123.26L167.5,128.74L179.91,113.5L192.31,108.46L204.72,110.46L217.13,101.31L229.54,91L241.94,76.6L254.35,71.31L266.76,66.47L279.17,88.88L291.57,77.7L303.98,75.82L316.39,72.33L328.8,78.37" style="vector-effect: none; fill: none; stroke: rgb(0, 137, 123); stroke-opacity: 1; stroke-dasharray: 3px, 3px; stroke-width: 2.5px; opacity: 1;"/></g><g class="points"/><g class="text"/></g><g class="trace scatter traceffcb4c" style="stroke-miterlimit: 2; opacity: 1;"><g class="fills"/><g class="errorbars"/><g class="lines"><path class="js-line" d="M6.2,166L18.61,164.25L31.02,169.2L43.43,170.93L55.83,170.77L68.24,167.66L80.65,160.84L93.06,160.33L105.46,158.87L117.87,149.38L130.28,141.18L142.69,131.88L155.09,119.57L167.5,110.52L179.91,99.48L192.31,84.35L204.72,82.08L217.13,77.14L229.54,63.38L241.94,50.18L254.35,43.26L266.76,41.88L279.17,36.44L291.57,29.2L303.98,23.02L328.8,11.4" style="vector-effect: none; fill: none; stroke: rgb(230, 81, 0); stroke-opacity: 1; stroke-dasharray: 3px, 3px; stroke-width: 2.5px; opacity: 1;"/></g><g class="points"/><g class="text"/></g><g class="trace scatter traced32374" style="stroke-miterlimit: 2; opacity: 1;"><g class="fills"/><g class="errorbars"/><g class="lines"><path class="js-line" d="M6.2,182.76L18.61,210.32L31.02,207.69L43.43,210.64L55.83,192.55L68.24,200.17L80.65,201.86L105.46,180.69L117.87,179.19L130.28,142.36L142.69,90.28L155.09,114.6L167.5,95.09L179.91,95.28L192.31,27.5L204.72,33.9L217.13,90.56L229.54,13.55L241.94,101.61L254.35,82.29L266.76,85.68L279.17,105.85L291.57,107.59L303.98,116.31L316.39,120.49L328.8,128.05" style="vector-effect: none; fill: none; stroke: rgb(30, 136, 229); stroke-opacity: 1; stroke-dasharray: 3px, 3px; stroke-width: 2.5px; opacity: 1;"/></g><g class="points"/><g class="text"/></g></g></g></g><g class="zerolinelayer-above"/><path class="xlines-above crisp" d="M33.5,338.75H370" style="fill: none; stroke-width: 1.5px; stroke: rgb(0, 0, 0); stroke-opacity: 1;"/><path class="ylines-above crisp" d="M34.25,110V338" style="fill: none; stroke-width: 1.5px; stroke: rgb(0, 0, 0); stroke-opacity: 1;"/><g class="overlines-above"/><g class="xaxislayer-above"><path class="xtick ticks crisp" d="M0,338v-5" transform="translate(41.2,0)" style="stroke: rgb(68, 68, 68); stroke-opacity: 1; stroke-width: 1px;"/><path class="xtick ticks crisp" d="M0,338v-5" transform="translate(103.24,0)" style="stroke: rgb(68, 68, 68); stroke-opacity: 1; stroke-width: 1px;"/><path class="xtick ticks crisp" d="M0,338v-5" transform="translate(165.28,0)" style="stroke: rgb(68, 68, 68); stroke-opacity: 1; stroke-width: 1px;"/><path class="xtick ticks crisp" d="M0,338v-5" transform="translate(227.31,0)" style="stroke: rgb(68, 68, 68); stroke-opacity: 1; stroke-width: 1px;"/><path class="xtick ticks crisp" d="M0,338v-5" transform="translate(289.35,0)" style="stroke: rgb(68, 68, 68); stroke-opacity: 1; stroke-width: 1px;"/><path class="xtick ticks crisp" d="M0,338v-5" transform="translate(351.39,0)" style="stroke: rgb(68, 68, 68); stroke-opacity: 1; stroke-width: 1px;"/><g class="xtick"><text text-anchor="middle" x="0" y="356.3" transform="translate(41.2,0)" style="font-family: 'Open Sans', verdana, arial, sans-serif; font-size: 14px; fill: rgb(36, 36, 36); fill-opacity: 1; white-space: pre;">2005</text></g><g class="xtick"><text text-anchor="middle" x="0" y="356.3" style="font-family: 'Open Sans', verdana, arial, sans-serif; font-size: 14px; fill: rgb(36, 36, 36); fill-opacity: 1; white-space: pre;" transform="translate(103.24,0)">10</text></g><g class="xtick"><text text-anchor="middle" x="0" y="356.3" style="font-family: 'Open Sans', verdana, arial, sans-serif; font-size: 14px; fill: rgb(36, 36, 36); fill-opacity: 1; white-space: pre;" transform="translate(165.28,0)">15</text></g><g class="xtick"><text text-anchor="middle" x="0" y="356.3" style="font-family: 'Open Sans', verdana, arial, sans-serif; font-size: 14px; fill: rgb(36, 36, 36); fill-opacity: 1; white-space: pre;" transform="translate(227.31,0)">20</text></g><g class="xtick"><text text-anchor="middle" x="0" y="356.3" style="font-family: 'Open Sans', verdana, arial, sans-serif; font-size: 14px; fill: rgb(36, 36, 36); fill-opacity: 1; white-space: pre;" transform="translate(289.35,0)">25</text></g><g class="xtick"><text text-anchor="middle" x="0" y="356.3" style="font-family: 'Open Sans', verdana, arial, sans-serif; font-size: 14px; fill: rgb(36, 36, 36); fill-opacity: 1; white-space: pre;" transform="translate(351.39,0)">30</text></g></g><g class="yaxislayer-above"><path class="ytick ticks crisp" d="M35,0h5" transform="translate(0,282.97)" style="stroke: rgb(68, 68, 68); stroke-opacity: 1; stroke-width: 1px;"/><path class="ytick ticks crisp" d="M35,0h5" transform="translate(0,227.93)" style="stroke: rgb(68, 68, 68); stroke-opacity: 1; stroke-width: 1px;"/><path class="ytick ticks crisp" d="M35,0h5" transform="translate(0,172.9)" style="stroke: rgb(68, 68, 68); stroke-opacity: 1; stroke-width: 1px;"/><path class="ytick ticks crisp" d="M35,0h5" transform="translate(0,117.87)" style="stroke: rgb(68, 68, 68); stroke-opacity: 1; stroke-width: 1px;"/><g class="ytick"><text text-anchor="end" x="30.7" y="4.8999999999999995" transform="translate(0,338)" style="font-family: 'Open Sans', verdana, arial, sans-serif; font-size: 14px; fill: rgb(36, 36, 36); fill-opacity: 1; white-space: pre;">0</text></g><g class="ytick"><text text-anchor="end" x="30.7" y="4.8999999999999995" style="font-family: 'Open Sans', verdana, arial, sans-serif; font-size: 14px; fill: rgb(36, 36, 36); fill-opacity: 1; white-space: pre;" transform="translate(0,282.97)">10</text></g><g class="ytick"><text text-anchor="end" x="30.7" y="4.8999999999999995" style="font-family: 'Open Sans', verdana, arial, sans-serif; font-size: 14px; fill: rgb(36, 36, 36); fill-opacity: 1; white-space: pre;" transform="translate(0,227.93)">20</text></g><g class="ytick"><text text-anchor="end" x="30.7" y="4.8999999999999995" style="font-family: 'Open Sans', verdana, arial, sans-serif; font-size: 14px; fill: rgb(36, 36, 36); fill-opacity: 1; white-space: pre;" transform="translate(0,172.9)">30</text></g><g class="ytick"><text text-anchor="end" x="30.7" y="4.8999999999999995" style="font-family: 'Open Sans', verdana, arial, sans-serif; font-size: 14px; fill: rgb(36, 36, 36); fill-opacity: 1; white-space: pre;" transform="translate(0,117.87)">40</text></g></g><g class="overaxes-above"/></g></g><g class="polarlayer"/><g class="smithlayer"/><g class="ternarylayer"/><g class="geolayer"/><g class="funnelarealayer"/><g class="pielayer"/><g class="iciclelayer"/><g class="treemaplayer"/><g class="sunburstlayer"/><g class="glimages"/><defs id="topdefs-18f116"><g class="clips"/><clipPath id="legend18f116"><rect width="192" height="105" x="0" y="0"/></clipPath></defs><g class="layer-above"><g class="imagelayer"/><g class="shapelayer"/></g><g class="infolayer"><g class="legend" pointer-events="all" transform="translate(106.5,2.719999999999999)"><rect class="bg" shape-rendering="crispEdges" width="192" height="105" x="0" y="0" style="stroke: rgb(68, 68, 68); stroke-opacity: 1; fill: rgb(255, 255, 255); fill-opacity: 1; stroke-width: 0px;"/><g class="scrollbox" transform="" clip-path="url(#legend18f116)"><g class="groups"><g class="traces" transform="translate(0,14.5)" style="opacity: 1;"><text class="legendtext" text-anchor="start" x="40" y="4.680000000000001" style="font-family: 'Open Sans', verdana, arial, sans-serif; font-size: 12px; fill: rgb(36, 36, 36); fill-opacity: 1; white-space: pre;">LIDC interquartile range</text><g class="layers" style="opacity: 1;"><g class="legendfill"><path class="js-fill" d="M5,-2h30v6h-30z" style="stroke-width: 0; fill: rgb(106, 27, 154); fill-opacity: 0.2;"/></g><g class="legendlines"><path class="js-line" d="M5,-2h30" style="fill: none; stroke: rgb(255, 255, 255); stroke-opacity: 0; stroke-width: 2px;"/></g><g class="legendsymbols"><g class="legendpoints"/></g></g><rect class="legendtoggle" x="0" y="-9.5" width="188.59375" height="19" style="fill: rgb(0, 0, 0); fill-opacity: 0;"/></g><g class="traces" transform="translate(0,33.5)" style="opacity: 1;"><text class="legendtext" text-anchor="start" x="40" y="4.680000000000001" style="font-family: 'Open Sans', verdana, arial, sans-serif; font-size: 12px; fill: rgb(36, 36, 36); fill-opacity: 1; white-space: pre;">LIDC aggregate</text><g class="layers" style="opacity: 1;"><g class="legendfill"/><g class="legendlines"><path class="js-line" d="M5,0h30" style="fill: none; stroke: rgb(106, 27, 154); stroke-opacity: 1; stroke-width: 4px;"/></g><g class="legendsymbols"><g class="legendpoints"/></g></g><rect class="legendtoggle" x="0" y="-9.5" width="137.078125" height="19" style="fill: rgb(0, 0, 0); fill-opacity: 0;"/></g><g class="traces" transform="translate(0,52.5)" style="opacity: 1;"><text class="legendtext" text-anchor="start" x="40" y="4.680000000000001" style="font-family: 'Open Sans', verdana, arial, sans-serif; font-size: 12px; fill: rgb(36, 36, 36); fill-opacity: 1; white-space: pre;">Bangladesh</text><g class="layers" style="opacity: 1;"><g class="legendfill"/><g class="legendlines"><path class="js-line" d="M5,0h30" style="fill: none; stroke: rgb(0, 137, 123); stroke-opacity: 1; stroke-dasharray: 3px, 3px; stroke-width: 2.5px;"/></g><g class="legendsymbols"><g class="legendpoints"/></g></g><rect class="legendtoggle" x="0" y="-9.5" width="111.984375" height="19" style="fill: rgb(0, 0, 0); fill-opacity: 0;"/></g><g class="traces" transform="translate(0,71.5)" style="opacity: 1;"><text class="legendtext" text-anchor="start" x="40" y="4.680000000000001" style="font-family: 'Open Sans', verdana, arial, sans-serif; font-size: 12px; fill: rgb(36, 36, 36); fill-opacity: 1; white-space: pre;">Kenya</text><g class="layers" style="opacity: 1;"><g class="legendfill"/><g class="legendlines"><path class="js-line" d="M5,0h30" style="fill: none; stroke: rgb(230, 81, 0); stroke-opacity: 1; stroke-dasharray: 3px, 3px; stroke-width: 2.5px;"/></g><g class="legendsymbols"><g class="legendpoints"/></g></g><rect class="legendtoggle" x="0" y="-9.5" width="79.875" height="19" style="fill: rgb(0, 0, 0); fill-opacity: 0;"/></g><g class="traces" transform="translate(0,90.5)" style="opacity: 1;"><text class="legendtext" text-anchor="start" x="40" y="4.680000000000001" style="font-family: 'Open Sans', verdana, arial, sans-serif; font-size: 12px; fill: rgb(36, 36, 36); fill-opacity: 1; white-space: pre;">Nigeria</text><g class="layers" style="opacity: 1;"><g class="legendfill"/><g class="legendlines"><path class="js-line" d="M5,0h30" style="fill: none; stroke: rgb(30, 136, 229); stroke-opacity: 1; stroke-dasharray: 3px, 3px; stroke-width: 2.5px;"/></g><g class="legendsymbols"><g class="legendpoints"/></g></g><rect class="legendtoggle" x="0" y="-9.5" width="85.015625" height="19" style="fill: rgb(0, 0, 0); fill-opacity: 0;"/></g></g></g><rect class="scrollbar" rx="20" ry="3" width="0" height="0" x="0" y="0" style="fill: rgb(128, 139, 164); fill-opacity: 1;"/></g><g class="g-gtitle"/><g class="g-xtitle"/><g class="g-ytitle"/></g></svg>