<svg class="main-svg" xmlns="http://www.w3.org/2000/svg" xmlns:xlink="http://www.w3.org/1999/xlink" width="756" height="756" style="" viewBox="0 0 378 378"><rect x="0" y="0" width="378" height="378" style="fill: rgb(255, 255, 255); fill-opacity: 1;"/><defs id="defs-52d467"><g class="clips"><clipPath id="clip52d467xyplot" class="plotclip"><rect width="314" height="188"/></clipPath><clipPath class="axesclip" id="clip52d467x"><rect x="39" y="0" width="314" height="378"/></clipPath><clipPath class="axesclip" id="clip52d467y"><rect x="0" y="157" width="378" height="188"/></clipPath><clipPath class="axesclip" id="clip52d467xy"><rect x="39" y="157" width="314" height="188"/></clipPath></g><g class="gradients"/><g class="patterns"/></defs><g class="bglayer"/><g class="layer-below"><g class="imagelayer"/><g class="shapelayer"/></g><g class="cartesianlayer"><g class="subplot xy"><g class="layer-subplot"><g class="shapelayer"/><g class="imagelayer"/></g><g class="minor-gridlayer"><g class="x"/><g class="y"/></g><g class="gridlayer"><g class="x"/><g class="y"><path class="ygrid crisp" transform="translate(0,266.39)" d="M39,0h314" style="stroke: rgb(0, 0, 0); stroke-opacity: 0.15; stroke-width: 1px;"/><path class="ygrid crisp" transform="translate(0,226.44)" d="M39,0h314" style="stroke: rgb(0, 0, 0); stroke-opacity: 0.15; stroke-width: 1px;"/><path class="ygrid crisp" transform="translate(0,186.49)" d="M39,0h314" style="stroke: rgb(0, 0, 0); stroke-opacity: 0.15; stroke-width: 1px;"/></g></g><g class="zerolinelayer"><path class="yzl zl crisp" transform="translate(0,306.35)" d="M39,0h314" style="stroke: rgb(0, 0, 0); stroke-opacity: 1; stroke-width: 1px;"/></g><g class="layer-between"><g class="shapelayer"/><g class="imagelayer"/></g><path class="xlines-below"/><path class="ylines-below"/><g class="overlines-below"/><g class="xaxislayer-below"/><g class="yaxislayer-below"/><g class="overaxes-below"/><g class="overplot"><g class="xy" transform="translate(39,157)" clip-path="url(#clip52d467xyplot)"><g class="barlayer mlayer"><g class="trace bars" style="opacity: 0.8;"><g class="points"><g class="point"><path d="M8.58,149.35V135.64H32.82V149.35Z" style="vector-effect: none; opacity: 1; stroke-width: 0.5px; fill: rgb(74, 20, 140); fill-opacity: 1; stroke: rgb(255, 255, 255); stroke-opacity: 1;"/></g><g class="point"><path d="M38.87,149.35V105.7H63.1V149.35Z" style="vector-effect: none; opacity: 1; stroke-width: 0.5px; fill: rgb(74, 20, 140); fill-opacity: 1; stroke: rgb(255, 255, 255); stroke-opacity: 1;"/></g><g class="point"><path d="M69.16,149.35V99.43H93.39V149.35Z" style="vector-effect: none; opacity: 1; stroke-width: 0.5px; fill: rgb(74, 20, 140); fill-opacity: 1; stroke: rgb(255, 255, 255); stroke-opacity: 1;"/></g><g class="point"><path d="M99.45,149.35V103.03H123.68V149.35Z" style="vector-effect: none; opacity: 1; stroke-width: 0.5px; fill: rgb(74, 20, 140); fill-opacity: 1; stroke: rgb(255, 255, 255); stroke-opacity: 1;"/></g><g class="point"><path d="M129.74,149.35V110.17H153.97V149.35Z" style="vector-effect: none; opacity: 1; stroke-width: 0.5px; fill: rgb(74, 20, 140); fill-opacity: 1; stroke: rgb(255, 255, 255); stroke-opacity: 1;"/></g><g class="point"><path d="M160.03,149.35V114.47H184.26V149.35Z" style="vector-effect: none; opacity: 1; stroke-width: 0.5px; fill: rgb(74, 20, 140); fill-opacity: 1; stroke: rgb(255, 255, 255); stroke-opacity: 1;"/></g><g class="point"><path d="M190.32,149.35V114.59H214.55V149.35Z" style="vector-effect: none; opacity: 1; stroke-width: 0.5px; fill: rgb(74, 20, 140); fill-opacity: 1; stroke: rgb(255, 255, 255); stroke-opacity: 1;"/></g><g class="point"><path d="M220.61,149.35V113.71H244.84V149.35Z" style="vector-effect: none; opacity: 1; stroke-width: 0.5px; fill: rgb(74, 20, 140); fill-opacity: 1; stroke: rgb(255, 255, 255); stroke-opacity: 1;"/></g><g class="point"><path d="M250.9,149.35V110.35H275.13V149.35Z" style="vector-effect: none; opacity: 1; stroke-width: 0.5px; fill: rgb(74, 20, 140); fill-opacity: 1; stroke: rgb(255, 255, 255); stroke-opacity: 1;"/></g><g class="point"><path d="M281.18,149.35V109.7H305.42V149.35Z" style="vector-effect: none; opacity: 1; stroke-width: 0.5px; fill: rgb(74, 20, 140); fill-opacity: 1; stroke: rgb(255, 255, 255); stroke-opacity: 1;"/></g></g></g><g class="trace bars" style="opacity: 0.8;"><g class="points"><g class="point"><path d="M8.58,135.64V132.14H32.82V135.64Z" style="vector-effect: none; opacity: 1; stroke-width: 0.5px; fill: rgb(206, 147, 216); fill-opacity: 1; stroke: rgb(255, 255, 255); stroke-opacity: 1;"/></g><g class="point"><path d="M38.87,105.7V93.01H63.1V105.7Z" style="vector-effect: none; opacity: 1; stroke-width: 0.5px; fill: rgb(206, 147, 216); fill-opacity: 1; stroke: rgb(255, 255, 255); stroke-opacity: 1;"/></g><g class="point"><path d="M69.16,99.43V89.66H93.39V99.43Z" style="vector-effect: none; opacity: 1; stroke-width: 0.5px; fill: rgb(206, 147, 216); fill-opacity: 1; stroke: rgb(255, 255, 255); stroke-opacity: 1;"/></g><g class="point"><path d="M99.45,149.35V151.32H123.68V149.35Z" style="vector-effect: none; opacity: 1; stroke-width: 0.5px; fill: rgb(206, 147, 216); fill-opacity: 1; stroke: rgb(255, 255, 255); stroke-opacity: 1;"/></g><g class="point"><path d="M129.74,149.35V160.56H153.97V149.35Z" style="vector-effect: none; opacity: 1; stroke-width: 0.5px; fill: rgb(206, 147, 216); fill-opacity: 1; stroke: rgb(255, 255, 255); stroke-opacity: 1;"/></g><g class="point"><path d="M160.03,149.35V166.38H184.26V149.35Z" style="vector-effect: none; opacity: 1; stroke-width: 0.5px; fill: rgb(206, 147, 216); fill-opacity: 1; stroke: rgb(255, 255, 255); stroke-opacity: 1;"/></g><g class="point"><path d="M190.32,149.35V169.67H214.55V149.35Z" style="vector-effect: none; opacity: 1; stroke-width: 0.5px; fill: rgb(206, 147, 216); fill-opacity: 1; stroke: rgb(255, 255, 255); stroke-opacity: 1;"/></g><g class="point"><path d="M220.61,149.35V171.57H244.84V149.35Z" style="vector-effect: none; opacity: 1; stroke-width: 0.5px; fill: rgb(206, 147, 216); fill-opacity: 1; stroke: rgb(255, 255, 255); stroke-opacity: 1;"/></g><g class="point"><path d="M250.9,149.35V173.61H275.13V149.35Z" style="vector-effect: none; opacity: 1; stroke-width: 0.5px; fill: rgb(206, 147, 216); fill-opacity: 1; stroke: rgb(255, 255, 255); stroke-opacity: 1;"/></g><g class="point"><path d="M281.18,149.35V174.9H305.42V149.35Z" style="vector-effect: none; opacity: 1; stroke-width: 0.5px; fill: rgb(206, 147, 216); fill-opacity: 1; stroke: rgb(255, 255, 255); stroke-opacity: 1;"/></g></g></g><g class="trace bars" style="opacity: 0.8;"><g class="points"><g class="point"><path d="M8.58,132.14V128H32.82V132.14Z" style="vector-effect: none; opacity: 1; stroke-width: 0.5px; fill: rgb(173, 20, 87); fill-opacity: 1; stroke: rgb(255, 255, 255); stroke-opacity: 1;"/></g><g class="point"><path d="M38.87,93.01V78.77H63.1V93.01Z" style="vector-effect: none; opacity: 1; stroke-width: 0.5px; fill: rgb(173, 20, 87); fill-opacity: 1; stroke: rgb(255, 255, 255); stroke-opacity: 1;"/></g><g class="point"><path d="M69.16,89.66V69.93H93.39V89.66Z" style="vector-effect: none; opacity: 1; stroke-width: 0.5px; fill: rgb(173, 20, 87); fill-opacity: 1; stroke: rgb(255, 255, 255); stroke-opacity: 1;"/></g><g class="point"><path d="M99.45,103.03V82.7H123.68V103.03Z" style="vector-effect: none; opacity: 1; stroke-width: 0.5px; fill: rgb(173, 20, 87); fill-opacity: 1; stroke: rgb(255, 255, 255); stroke-opacity: 1;"/></g><g class="point"><path d="M129.74,110.17V90.58H153.97V110.17Z" style="vector-effect: none; opacity: 1; stroke-width: 0.5px; fill: rgb(173, 20, 87); fill-opacity: 1; stroke: rgb(255, 255, 255); stroke-opacity: 1;"/></g><g class="point"><path d="M160.03,114.47V98.57H184.26V114.47Z" style="vector-effect: none; opacity: 1; stroke-width: 0.5px; fill: rgb(173, 20, 87); fill-opacity: 1; stroke: rgb(255, 255, 255); stroke-opacity: 1;"/></g><g class="point"><path d="M190.32,114.59V101.85H214.55V114.59Z" style="vector-effect: none; opacity: 1; stroke-width: 0.5px; fill: rgb(173, 20, 87); fill-opacity: 1; stroke: rgb(255, 255, 255); stroke-opacity: 1;"/></g><g class="point"><path d="M220.61,113.71V100.1H244.84V113.71Z" style="vector-effect: none; opacity: 1; stroke-width: 0.5px; fill: rgb(173, 20, 87); fill-opacity: 1; stroke: rgb(255, 255, 255); stroke-opacity: 1;"/></g><g class="point"><path d="M250.9,110.35V96.51H275.13V110.35Z" style="vector-effect: none; opacity: 1; stroke-width: 0.5px; fill: rgb(173, 20, 87); fill-opacity: 1; stroke: rgb(255, 255, 255); stroke-opacity: 1;"/></g><g class="point"><path d="M281.18,109.7V95.84H305.42V109.7Z" style="vector-effect: none; opacity: 1; stroke-width: 0.5px; fill: rgb(173, 20, 87); fill-opacity: 1; stroke: rgb(255, 255, 255); stroke-opacity: 1;"/></g></g></g><g class="trace bars" style="opacity: 0.8;"><g class="points"><g class="point"><path d="M8.58,128V121.91H32.82V128Z" style="vector-effect: none; opacity: 1; stroke-width: 0.5px; fill: rgb(230, 81, 0); fill-opacity: 1; stroke: rgb(255, 255, 255); stroke-opacity: 1;"/></g><g class="point"><path d="M38.87,78.77V64.45H63.1V78.77Z" style="vector-effect: none; opacity: 1; stroke-width: 0.5px; fill: rgb(230, 81, 0); fill-opacity: 1; stroke: rgb(255, 255, 255); stroke-opacity: 1;"/></g><g class="point"><path d="M69.16,69.93V50.08H93.39V69.93Z" style="vector-effect: none; opacity: 1; stroke-width: 0.5px; fill: rgb(230, 81, 0); fill-opacity: 1; stroke: rgb(255, 255, 255); stroke-opacity: 1;"/></g><g class="point"><path d="M99.45,82.7V63.72H123.68V82.7Z" style="vector-effect: none; opacity: 1; stroke-width: 0.5px; fill: rgb(230, 81, 0); fill-opacity: 1; stroke: rgb(255, 255, 255); stroke-opacity: 1;"/></g><g class="point"><path d="M129.74,90.58V73.86H153.97V90.58Z" style="vector-effect: none; opacity: 1; stroke-width: 0.5px; fill: rgb(230, 81, 0); fill-opacity: 1; stroke: rgb(255, 255, 255); stroke-opacity: 1;"/></g><g class="point"><path d="M160.03,98.57V84.9H184.26V98.57Z" style="vector-effect: none; opacity: 1; stroke-width: 0.5px; fill: rgb(230, 81, 0); fill-opacity: 1; stroke: rgb(255, 255, 255); stroke-opacity: 1;"/></g><g class="point"><path d="M190.32,101.85V89.23H214.55V101.85Z" style="vector-effect: none; opacity: 1; stroke-width: 0.5px; fill: rgb(230, 81, 0); fill-opacity: 1; stroke: rgb(255, 255, 255); stroke-opacity: 1;"/></g><g class="point"><path d="M220.61,100.1V87.6H244.84V100.1Z" style="vector-effect: none; opacity: 1; stroke-width: 0.5px; fill: rgb(230, 81, 0); fill-opacity: 1; stroke: rgb(255, 255, 255); stroke-opacity: 1;"/></g><g class="point"><path d="M250.9,96.51V82.09H275.13V96.51Z" style="vector-effect: none; opacity: 1; stroke-width: 0.5px; fill: rgb(230, 81, 0); fill-opacity: 1; stroke: rgb(255, 255, 255); stroke-opacity: 1;"/></g><g class="point"><path d="M281.18,95.84V80.82H305.42V95.84Z" style="vector-effect: none; opacity: 1; stroke-width: 0.5px; fill: rgb(230, 81, 0); fill-opacity: 1; stroke: rgb(255, 255, 255); stroke-opacity: 1;"/></g></g></g><g class="trace bars" style="opacity: 0.8;"><g class="points"><g class="point"><path d="M8.58,121.91V95.06H32.82V121.91Z" style="vector-effect: none; opacity: 1; stroke-width: 0.5px; fill: rgb(0, 137, 123); fill-opacity: 1; stroke: rgb(255, 255, 255); stroke-opacity: 1;"/></g><g class="point"><path d="M38.87,64.45V30.76H63.1V64.45Z" style="vector-effect: none; opacity: 1; stroke-width: 0.5px; fill: rgb(0, 137, 123); fill-opacity: 1; stroke: rgb(255, 255, 255); stroke-opacity: 1;"/></g><g class="point"><path d="M69.16,50.08V20.04H93.39V50.08Z" style="vector-effect: none; opacity: 1; stroke-width: 0.5px; fill: rgb(0, 137, 123); fill-opacity: 1; stroke: rgb(255, 255, 255); stroke-opacity: 1;"/></g><g class="point"><path d="M99.45,63.72V39.12H123.68V63.72Z" style="vector-effect: none; opacity: 1; stroke-width: 0.5px; fill: rgb(0, 137, 123); fill-opacity: 1; stroke: rgb(255, 255, 255); stroke-opacity: 1;"/></g><g class="point"><path d="M129.74,73.86V56.76H153.97V73.86Z" style="vector-effect: none; opacity: 1; stroke-width: 0.5px; fill: rgb(0, 137, 123); fill-opacity: 1; stroke: rgb(255, 255, 255); stroke-opacity: 1;"/></g><g class="point"><path d="M160.03,84.9V74.08H184.26V84.9Z" style="vector-effect: none; opacity: 1; stroke-width: 0.5px; fill: rgb(0, 137, 123); fill-opacity: 1; stroke: rgb(255, 255, 255); stroke-opacity: 1;"/></g><g class="point"><path d="M190.32,89.23V82.71H214.55V89.23Z" style="vector-effect: none; opacity: 1; stroke-width: 0.5px; fill: rgb(0, 137, 123); fill-opacity: 1; stroke: rgb(255, 255, 255); stroke-opacity: 1;"/></g><g class="point"><path d="M220.61,87.6V82.82H244.84V87.6Z" style="vector-effect: none; opacity: 1; stroke-width: 0.5px; fill: rgb(0, 137, 123); fill-opacity: 1; stroke: rgb(255, 255, 255); stroke-opacity: 1;"/></g><g class="point"><path d="M250.9,82.09V77.9H275.13V82.09Z" style="vector-effect: none; opacity: 1; stroke-width: 0.5px; fill: rgb(0, 137, 123); fill-opacity: 1; stroke: rgb(255, 255, 255); stroke-opacity: 1;"/></g><g class="point"><path d="M281.18,80.82V76.6H305.42V80.82Z" style="vector-effect: none; opacity: 1; stroke-width: 0.5px; fill: rgb(0, 137, 123); fill-opacity: 1; stroke: rgb(255, 255, 255); stroke-opacity: 1;"/></g></g></g><g class="trace bars" style="opacity: 0.8;"><g class="points"><g class="point"><path d="M8.58,95.06V94.2H32.82V95.06Z" style="vector-effect: none; opacity: 1; stroke-width: 0.5px; fill: rgb(117, 117, 117); fill-opacity: 1; stroke: rgb(255, 255, 255); stroke-opacity: 1;"/></g><g class="point"><path d="M38.87,30.76V26.7H63.1V30.76Z" style="vector-effect: none; opacity: 1; stroke-width: 0.5px; fill: rgb(117, 117, 117); fill-opacity: 1; stroke: rgb(255, 255, 255); stroke-opacity: 1;"/></g><g class="point"><path d="M69.16,20.04V14.4H93.39V20.04Z" style="vector-effect: none; opacity: 1; stroke-width: 0.5px; fill: rgb(117, 117, 117); fill-opacity: 1; stroke: rgb(255, 255, 255); stroke-opacity: 1;"/></g><g class="point"><path d="M99.45,39.12V32.88H123.68V39.12Z" style="vector-effect: none; opacity: 1; stroke-width: 0.5px; fill: rgb(117, 117, 117); fill-opacity: 1; stroke: rgb(255, 255, 255); stroke-opacity: 1;"/></g><g class="point"><path d="M129.74,56.76V51.95H153.97V56.76Z" style="vector-effect: none; opacity: 1; stroke-width: 0.5px; fill: rgb(117, 117, 117); fill-opacity: 1; stroke: rgb(255, 255, 255); stroke-opacity: 1;"/></g><g class="point"><path d="M160.03,74.08V73.43H184.26V74.08Z" style="vector-effect: none; opacity: 1; stroke-width: 0.5px; fill: rgb(117, 117, 117); fill-opacity: 1; stroke: rgb(255, 255, 255); stroke-opacity: 1;"/></g><g class="point"><path d="M190.32,169.67V172.45H214.55V169.67Z" style="vector-effect: none; opacity: 1; stroke-width: 0.5px; fill: rgb(117, 117, 117); fill-opacity: 1; stroke: rgb(255, 255, 255); stroke-opacity: 1;"/></g><g class="point"><path d="M220.61,171.57V176.01H244.84V171.57Z" style="vector-effect: none; opacity: 1; stroke-width: 0.5px; fill: rgb(117, 117, 117); fill-opacity: 1; stroke: rgb(255, 255, 255); stroke-opacity: 1;"/></g><g class="point"><path d="M250.9,173.61V178.14H275.13V173.61Z" style="vector-effect: none; opacity: 1; stroke-width: 0.5px; fill: rgb(117, 117, 117); fill-opacity: 1; stroke: rgb(255, 255, 255); stroke-opacity: 1;"/></g><g class="point"><path d="M281.18,174.9V178.6H305.42V174.9Z" style="vector-effect: none; opacity: 1; stroke-width: 0.5px; fill: rgb(117, 117, 117); fill-opacity: 1; stroke: rgb(255, 255, 255); stroke-opacity: 1;"/></g></g></g></g><g class="scatterlayer mlayer"><g class="trace scatter trace7b4bc7" style="stroke-miterlimit: 2; opacity: 1;"><g class="fills"/><g class="errorbars"/><g class="lines"><path class="js-line" d="M20.7,94.2L50.99,26.7L81.28,14.4L111.57,34.85L141.86,63.17L172.14,90.46L202.43,105.82L232.72,109.48L263.01,106.7L293.3,105.86" style="vector-effect: none; fill: none; stroke: rgb(0, 0, 0); stroke-opacity: 1; stroke-width: 3px; opacity: 1;"/></g><g class="points"><path class="point" transform="translate(20.7,94.2)" d="M4,0A4,4 0 1,1 0,-4A4,4 0 0,1 4,0Z" style="opacity: 1; stroke-width: 0px; fill: rgb(0, 0, 0); fill-opacity: 1;"/><path class="point" transform="translate(50.99,26.7)" d="M4,0A4,4 0 1,1 0,-4A4,4 0 0,1 4,0Z" style="opacity: 1; stroke-width: 0px; fill: rgb(0, 0, 0); fill-opacity: 1;"/><path class="point" transform="translate(81.28,14.4)" d="M4,0A4,4 0 1,1 0,-4A4,4 0 0,1 4,0Z" style="opacity: 1; stroke-width: 0px; fill: rgb(0, 0, 0); fill-opacity: 1;"/><path class="point" transform="translate(111.57,34.85)" d="M4,0A4,4 0 1,1 0,-4A4,4 0 0,1 4,0Z" style="opacity: 1; stroke-width: 0px; fill: rgb(0, 0, 0); fill-opacity: 1;"/><path class="point" transform="translate(141.86,63.17)" d="M4,0A4,4 0 1,1 0,-4A4,4 0 0,1 4,0Z" style="opacity: 1; stroke-width: 0px; fill: rgb(0, 0, 0); fill-opacity: 1;"/><path class="point" transform="translate(172.14,90.46)" d="M4,0A4,4 0 1,1 0,-4A4,4 0 0,1 4,0Z" style="opacity: 1; stroke-width: 0px; fill: rgb(0, 0, 0); fill-opacity: 1;"/><path class="point" transform="translate(202.43,105.82)" d="M4,0A4,4 0 1,1 0,-4A4,4 0 0,1 4,0Z" style="opacity: 1; stroke-width: 0px; fill: rgb(0, 0, 0); fill-opacity: 1;"/><path class="point" transform="translate(232.72,109.48)" d="M4,0A4,4 0 1,1 0,-4A4,4 0 0,1 4,0Z" style="opacity: 1; stroke-width: 0px; fill: rgb(0, 0, 0); fill-opacity: 1;"/><path class="point" transform="translate(263.01,106.7)" d="M4,0A4,4 0 1,1 0,-4A4,4 0 0,1 4,0Z" style="opacity: 1; stroke-width: 0px; fill: rgb(0, 0, 0); fill-opacity: 1;"/><path class="point" transform="translate(293.3,105.86)" d="M4,0A4,4 0 1,1 0,-4A4,4 0 0,1 4,0Z" style="opacity: 1; stroke-width: 0px; fill: rgb(0, 0, 0); fill-opacity: 1;"/></g><g class="text"/></g></g></g></g><g class="zerolinelayer-above"/><path class="xlines-above crisp" d="M37.5,345.75H353" style="fill: none; stroke-width: 1.5px; stroke: rgb(0, 0, 0); stroke-opacity: 1;"/><path class="ylines-above crisp" d="M38.25,157V345" style="fill: none; stroke-width: 1.5px; stroke: rgb(0, 0, 0); stroke-opacity: 1;"/><g class="overlines-above"/><g class="xaxislayer-above"><path class="xtick ticks crisp" d="M0,345v-5" transform="translate(59.7,0)" style="stroke: rgb(68, 68, 68); stroke-opacity: 1; stroke-width: 1px;"/><path class="xtick ticks crisp" d="M0,345v-5" transform="translate(89.99000000000001,0)" style="stroke: rgb(68, 68, 68); stroke-opacity: 1; stroke-width: 1px;"/><path class="xtick ticks crisp" d="M0,345v-5" transform="translate(120.28,0)" style="stroke: rgb(68, 68, 68); stroke-opacity: 1; stroke-width: 1px;"/><path class="xtick ticks crisp" d="M0,345v-5" transform="translate(150.57,0)" style="stroke: rgb(68, 68, 68); stroke-opacity: 1; stroke-width: 1px;"/><path class="xtick ticks crisp" d="M0,345v-5" transform="translate(180.86,0)" style="stroke: rgb(68, 68, 68); stroke-opacity: 1; stroke-width: 1px;"/><path class="xtick ticks crisp" d="M0,345v-5" transform="translate(211.14,0)" style="stroke: rgb(68, 68, 68); stroke-opacity: 1; stroke-width: 1px;"/><path class="xtick ticks crisp" d="M0,345v-5" transform="translate(241.43,0)" style="stroke: rgb(68, 68, 68); stroke-opacity: 1; stroke-width: 1px;"/><path class="xtick ticks crisp" d="M0,345v-5" transform="translate(271.72,0)" style="stroke: rgb(68, 68, 68); stroke-opacity: 1; stroke-width: 1px;"/><path class="xtick ticks crisp" d="M0,345v-5" transform="translate(302.01,0)" style="stroke: rgb(68, 68, 68); stroke-opacity: 1; stroke-width: 1px;"/><path class="xtick ticks crisp" d="M0,345v-5" transform="translate(332.3,0)" style="stroke: rgb(68, 68, 68); stroke-opacity: 1; stroke-width: 1px;"/><g class="xtick"><text text-anchor="middle" x="0" y="363.3" transform="translate(59.7,0)" style="font-family: 'Open Sans', verdana, arial, sans-serif; font-size: 14px; fill: rgb(36, 36, 36); fill-opacity: 1; white-space: pre;">2025</text></g><g class="xtick"><text text-anchor="middle" x="0" y="363.3" transform="translate(120.28,0)" style="font-family: 'Open Sans', verdana, arial, sans-serif; font-size: 14px; fill: rgb(36, 36, 36); fill-opacity: 1; white-space: pre;">27</text></g><g class="xtick"><text text-anchor="middle" x="0" y="363.3" transform="translate(180.86,0)" style="font-family: 'Open Sans', verdana, arial, sans-serif; font-size: 14px; fill: rgb(36, 36, 36); fill-opacity: 1; white-space: pre;">29</text></g><g class="xtick"><text text-anchor="middle" x="0" y="363.3" transform="translate(241.43,0)" style="font-family: 'Open Sans', verdana, arial, sans-serif; font-size: 14px; fill: rgb(36, 36, 36); fill-opacity: 1; white-space: pre;">31</text></g><g class="xtick"><text text-anchor="middle" x="0" y="363.3" transform="translate(302.01,0)" style="font-family: 'Open Sans', verdana, arial, sans-serif; font-size: 14px; fill: rgb(36, 36, 36); fill-opacity: 1; white-space: pre;">33</text></g></g><g class="yaxislayer-above"><path class="ytick ticks crisp" d="M39,0h5" transform="translate(0,306.35)" style="stroke: rgb(68, 68, 68); stroke-opacity: 1; stroke-width: 1px;"/><path class="ytick ticks crisp" d="M39,0h5" transform="translate(0,266.39)" style="stroke: rgb(68, 68, 68); stroke-opacity: 1; stroke-width: 1px;"/><path class="ytick ticks crisp" d="M39,0h5" transform="translate(0,226.44)" style="stroke: rgb(68, 68, 68); stroke-opacity: 1; stroke-width: 1px;"/><path class="ytick ticks crisp" d="M39,0h5" transform="translate(0,186.49)" style="stroke: rgb(68, 68, 68); stroke-opacity: 1; stroke-width: 1px;"/><g class="ytick"><text text-anchor="end" x="34.7" y="4.8999999999999995" transform="translate(0,306.35)" style="font-family: 'Open Sans', verdana, arial, sans-serif; font-size: 14px; fill: rgb(36, 36, 36); fill-opacity: 1; white-space: pre;">0</text></g><g class="ytick"><text text-anchor="end" x="34.7" y="4.8999999999999995" style="font-family: 'Open Sans', verdana, arial, sans-serif; font-size: 14px; fill: rgb(36, 36, 36); fill-opacity: 1; white-space: pre;" transform="translate(0,266.39)">0.5</text></g><g class="ytick"><text text-anchor="end" x="34.7" y="4.8999999999999995" style="font-family: 'Open Sans', verdana, arial, sans-serif; font-size: 14px; fill: rgb(36, 36, 36); fill-opacity: 1; white-space: pre;" transform="translate(0,226.44)">1</text></g><g class="ytick"><text text-anchor="end" x="34.7" y="4.8999999999999995" style="font-family: 'Open Sans', verdana, arial, sans-serif; font-size: 14px; fill: rgb(36, 36, 36); fill-opacity: 1; white-space: pre;" transform="translate(0,186.49)">1.5</text></g></g><g class="overaxes-above"/></g></g><g class="polarlayer"/><g class="smithlayer"/><g class="ternarylayer"/><g class="geolayer"/><g class="funnelarealayer"/><g class="pielayer"/><g class="iciclelayer"/><g class="treemaplayer"/><g class="sunburstlayer"/><g class="glimages"/><defs id="topdefs-52d467"><g class="clips"/><clipPath id="legend52d467"><rect width="176" height="143" x="0" y="0"/></clipPath></defs><g class="layer-above"><g class="imagelayer"/><g class="shapelayer"/></g><g class="infolayer"><g class="legend" pointer-events="all" transform="translate(108,12.120000000000005)"><rect class="bg" shape-rendering="crispEdges" width="176" height="143" x="0" y="0" style="stroke: rgb(68, 68, 68); stroke-opacity: 1; fill: rgb(255, 255, 255); fill-opacity: 1; stroke-width: 0px;"/><g class="scrollbox" transform="" clip-path="url(#legend52d467)"><g class="groups"><g class="traces" transform="translate(0,14.5)" style="opacity: 1;"><text class="legendtext" text-anchor="start" x="40" y="4.680000000000001" style="font-family: 'Open Sans', verdana, arial, sans-serif; font-size: 12px; fill: rgb(36, 36, 36); fill-opacity: 1; white-space: pre;">Labor tax</text><g class="layers" style="opacity: 0.8;"><g class="legendfill"/><g class="legendlines"/><g class="legendsymbols"><g class="legendpoints"><path class="legendundefined" d="M6,6H-6V-6H6Z" transform="translate(20,0)" style="stroke-width: 0.5px; fill: rgb(74, 20, 140); fill-opacity: 1; stroke: rgb(255, 255, 255); stroke-opacity: 1;"/></g></g></g><rect class="legendtoggle" x="0" y="-9.5" width="99.53125" height="19" style="fill: rgb(0, 0, 0); fill-opacity: 0;"/></g><g class="traces" transform="translate(0,33.5)" style="opacity: 1;"><text class="legendtext" text-anchor="start" x="40" y="4.680000000000001" style="font-family: 'Open Sans', verdana, arial, sans-serif; font-size: 12px; fill: rgb(36, 36, 36); fill-opacity: 1; white-space: pre;">Low-income transfers</text><g class="layers" style="opacity: 0.8;"><g class="legendfill"/><g class="legendlines"/><g class="legendsymbols"><g class="legendpoints"><path class="legendundefined" d="M6,6H-6V-6H6Z" transform="translate(20,0)" style="stroke-width: 0.5px; fill: rgb(206, 147, 216); fill-opacity: 1; stroke: rgb(255, 255, 255); stroke-opacity: 1;"/></g></g></g><rect class="legendtoggle" x="0" y="-9.5" width="172.84375" height="19" style="fill: rgb(0, 0, 0); fill-opacity: 0;"/></g><g class="traces" transform="translate(0,52.5)" style="opacity: 1;"><text class="legendtext" text-anchor="start" x="40" y="4.680000000000001" style="font-family: 'Open Sans', verdana, arial, sans-serif; font-size: 12px; fill: rgb(36, 36, 36); fill-opacity: 1; white-space: pre;">General transfers</text><g class="layers" style="opacity: 0.8;"><g class="legendfill"/><g class="legendlines"/><g class="legendsymbols"><g class="legendpoints"><path class="legendundefined" d="M6,6H-6V-6H6Z" transform="translate(20,0)" style="stroke-width: 0.5px; fill: rgb(173, 20, 87); fill-opacity: 1; stroke: rgb(255, 255, 255); stroke-opacity: 1;"/></g></g></g><rect class="legendtoggle" x="0" y="-9.5" width="147.1875" height="19" style="fill: rgb(0, 0, 0); fill-opacity: 0;"/></g><g class="traces" transform="translate(0,71.5)" style="opacity: 1;"><text class="legendtext" text-anchor="start" x="40" y="4.680000000000001" style="font-family: 'Open Sans', verdana, arial, sans-serif; font-size: 12px; fill: rgb(36, 36, 36); fill-opacity: 1; white-space: pre;">Business tax</text><g class="layers" style="opacity: 0.8;"><g class="legendfill"/><g class="legendlines"/><g class="legendsymbols"><g class="legendpoints"><path class="legendundefined" d="M6,6H-6V-6H6Z" transform="translate(20,0)" style="stroke-width: 0.5px; fill: rgb(230, 81, 0); fill-opacity: 1; stroke: rgb(255, 255, 255); stroke-opacity: 1;"/></g></g></g><rect class="legendtoggle" x="0" y="-9.5" width="118.375" height="19" style="fill: rgb(0, 0, 0); fill-opacity: 0;"/></g><g class="traces" transform="translate(0,90.5)" style="opacity: 1;"><text class="legendtext" text-anchor="start" x="40" y="4.680000000000001" style="font-family: 'Open Sans', verdana, arial, sans-serif; font-size: 12px; fill: rgb(36, 36, 36); fill-opacity: 1; white-space: pre;">Investment subsidies</text><g class="layers" style="opacity: 0.8;"><g class="legendfill"/><g class="legendlines"/><g class="legendsymbols"><g class="legendpoints"><path class="legendundefined" d="M6,6H-6V-6H6Z" transform="translate(20,0)" style="stroke-width: 0.5px; fill: rgb(0, 137, 123); fill-opacity: 1; stroke: rgb(255, 255, 255); stroke-opacity: 1;"/></g></g></g><rect class="legendtoggle" x="0" y="-9.5" width="170.78125" height="19" style="fill: rgb(0, 0, 0); fill-opacity: 0;"/></g><g class="traces" transform="translate(0,109.5)" style="opacity: 1;"><text class="legendtext" text-anchor="start" x="40" y="4.680000000000001" style="font-family: 'Open Sans', verdana, arial, sans-serif; font-size: 12px; fill: rgb(36, 36, 36); fill-opacity: 1; white-space: pre;">Public consumption</text><g class="layers" style="opacity: 0.8;"><g class="legendfill"/><g class="legendlines"/><g class="legendsymbols"><g class="legendpoints"><path class="legendundefined" d="M6,6H-6V-6H6Z" transform="translate(20,0)" style="stroke-width: 0.5px; fill: rgb(117, 117, 117); fill-opacity: 1; stroke: rgb(255, 255, 255); stroke-opacity: 1;"/></g></g></g><rect class="legendtoggle" x="0" y="-9.5" width="158.890625" height="19" style="fill: rgb(0, 0, 0); fill-opacity: 0;"/></g><g class="traces" transform="translate(0,128.5)" style="opacity: 1;"><text class="legendtext" text-anchor="start" x="40" y="4.680000000000001" style="font-family: 'Open Sans', verdana, arial, sans-serif; font-size: 12px; fill: rgb(36, 36, 36); fill-opacity: 1; white-space: pre;">Total effect</text><g class="layers" style="opacity: 1;"><g class="legendfill"/><g class="legendlines"><path class="js-line" d="M5,0h30" style="fill: none; stroke: rgb(0, 0, 0); stroke-opacity: 1; stroke-width: 3px;"/></g><g class="legendsymbols"><g class="legendpoints"><path class="scatterpts" transform="translate(20,0)" d="M4,0A4,4 0 1,1 0,-4A4,4 0 0,1 4,0Z" style="opacity: 1; stroke-width: 0px; fill: rgb(0, 0, 0); fill-opacity: 1;"/></g></g></g><rect class="legendtoggle" x="0" y="-9.5" width="110.34375" height="19" style="fill: rgb(0, 0, 0); fill-opacity: 0;"/></g></g></g><rect class="scrollbar" rx="20" ry="3" width="0" height="0" x="0" y="0" style="fill: rgb(128, 139, 164); fill-opacity: 1;"/></g><g class="g-gtitle"/><g class="g-xtitle"/><g class="g-ytitle"/></g></svg>