<svg class="main-svg" xmlns="http://www.w3.org/2000/svg" xmlns:xlink="http://www.w3.org/1999/xlink" width="1134" height="756" style="" viewBox="0 0 567 378"><rect x="0" y="0" width="567" height="378" style="fill: rgb(255, 255, 255); fill-opacity: 1;"/><defs id="defs-5d3ad5"><g class="clips"><clipPath id="clip5d3ad5xyplot" class="plotclip"><rect width="497" height="250"/></clipPath><clipPath class="axesclip" id="clip5d3ad5x"><rect x="50" y="0" width="497" height="378"/></clipPath><clipPath class="axesclip" id="clip5d3ad5y"><rect x="0" y="88" width="567" height="250"/></clipPath><clipPath class="axesclip" id="clip5d3ad5xy"><rect x="50" y="88" width="497" height="250"/></clipPath></g><g class="gradients"/><g class="patterns"/></defs><g class="bglayer"/><g class="layer-below"><g class="imagelayer"/><g class="shapelayer"><g class="shape-group" data-index="0" clip-path="url(#clip5d3ad5x)"><path data-index="0" fill-rule="evenodd" d="M371.59,338H547V88H371.59Z" style="opacity: 0.3; stroke: rgb(0, 0, 0); stroke-opacity: 0; fill: rgb(128, 128, 128); fill-opacity: 0.3; stroke-width: 0px;"/></g></g></g><g class="cartesianlayer"><g class="subplot xy"><g class="layer-subplot"><g class="shapelayer"/><g class="imagelayer"/></g><g class="minor-gridlayer"><g class="x"/><g class="y"/></g><g class="gridlayer"><g class="x"><path class="xgrid crisp" transform="translate(64.62,0)" d="M0,88v250" style="stroke: rgb(0, 0, 0); stroke-opacity: 0.15; stroke-width: 1px;"/><path class="xgrid crisp" transform="translate(210.79,0)" d="M0,88v250" style="stroke: rgb(0, 0, 0); stroke-opacity: 0.15; stroke-width: 1px;"/><path class="xgrid crisp" transform="translate(356.97,0)" d="M0,88v250" style="stroke: rgb(0, 0, 0); stroke-opacity: 0.15; stroke-width: 1px;"/><path class="xgrid crisp" transform="translate(503.15,0)" d="M0,88v250" style="stroke: rgb(0, 0, 0); stroke-opacity: 0.15; stroke-width: 1px;"/></g><g class="y"><path class="ygrid crisp" transform="translate(0,258.61)" d="M50,0h497" style="stroke: rgb(0, 0, 0); stroke-opacity: 0.15; stroke-width: 1px;"/><path class="ygrid crisp" transform="translate(0,177.57)" d="M50,0h497" style="stroke: rgb(0, 0, 0); stroke-opacity: 0.15; stroke-width: 1px;"/></g></g><g class="zerolinelayer"><path class="yzl zl crisp" transform="translate(0,96.53)" d="M50,0h497" style="stroke: rgb(0, 0, 0); stroke-opacity: 1; stroke-width: 1px;"/></g><g class="layer-between"><g class="shapelayer"/><g class="imagelayer"/></g><path class="xlines-below"/><path class="ylines-below"/><g class="overlines-below"/><g class="xaxislayer-below"/><g class="yaxislayer-below"/><g class="overaxes-below"/><g class="overplot"><g class="xy" transform="translate(50,88)" clip-path="url(#clip5d3ad5xyplot)"><g class="scatterlayer mlayer"><g class="trace scatter trace2017b6" style="stroke-miterlimit: 2; opacity: 0.4;"><g class="fills"/><g class="errorbars"/><g class="lines"><path class="js-line" d="M14.62,49.05L43.85,62.45L73.09,62.65L102.32,76.64L131.56,105.86L160.79,163.53L190.03,104.19L219.26,127.16L248.5,117.26L277.74,123.73L306.97,136.05L336.21,140.68L365.44,144.01L423.91,138.69L453.15,137.81L482.38,138.42" style="vector-effect: none; fill: none; stroke: rgb(229, 57, 53); stroke-opacity: 1; stroke-width: 3px; opacity: 1;"/></g><g class="points"/><g class="text"/></g><g class="trace scatter trace01d35c" style="stroke-miterlimit: 2; opacity: 0.4;"><g class="fills"/><g class="errorbars"/><g class="lines"/><g class="points"><path class="point" transform="translate(306.97,136.05)" d="M5.5,0A5.5,5.5 0 1,1 0,-5.5A5.5,5.5 0 0,1 5.5,0Z" style="opacity: 1; stroke: rgb(229, 57, 53); stroke-opacity: 1; stroke-width: 1.8px; fill: none;"/><path class="point" transform="translate(482.38,138.42)" d="M5.5,0A5.5,5.5 0 1,1 0,-5.5A5.5,5.5 0 0,1 5.5,0Z" style="opacity: 1; stroke: rgb(229, 57, 53); stroke-opacity: 1; stroke-width: 1.8px; fill: none;"/></g><g class="text"/></g><g class="trace scatter trace56321c" style="stroke-miterlimit: 2; opacity: 0.4;"><g class="fills"/><g class="errorbars"/><g class="lines"><path class="js-line" d="M14.62,65.74L43.85,79.14L73.09,86.24L102.32,95L131.56,102.63L160.79,237.5L190.03,194.29L219.26,68.85L248.5,136.37L277.74,135.9L306.97,119.14L336.21,130.12L365.44,128.04L394.68,131.63L423.91,129.33L453.15,129.53L482.38,128.29" style="vector-effect: none; fill: none; stroke: rgb(67, 160, 71); stroke-opacity: 1; stroke-width: 3px; opacity: 1;"/></g><g class="points"/><g class="text"/></g><g class="trace scatter trace21cfe3" style="stroke-miterlimit: 2; opacity: 0.4;"><g class="fills"/><g class="errorbars"/><g class="lines"/><g class="points"><path class="point" transform="translate(306.97,119.14)" d="M5.5,0A5.5,5.5 0 1,1 0,-5.5A5.5,5.5 0 0,1 5.5,0Z" style="opacity: 1; stroke: rgb(67, 160, 71); stroke-opacity: 1; stroke-width: 1.8px; fill: none;"/><path class="point" transform="translate(482.38,128.29)" d="M5.5,0A5.5,5.5 0 1,1 0,-5.5A5.5,5.5 0 0,1 5.5,0Z" style="opacity: 1; stroke: rgb(67, 160, 71); stroke-opacity: 1; stroke-width: 1.8px; fill: none;"/></g><g class="text"/></g><g class="trace scatter trace343b45" style="stroke-miterlimit: 2; opacity: 0.4;"><g class="fills"/><g class="errorbars"/><g class="lines"><path class="js-line" d="M14.62,39.99L43.85,32.79L73.09,23.06L102.32,16.76L131.56,24.82L160.79,130.32L190.03,79.24L219.26,45.21L248.5,49.84L306.97,47.44L336.21,51.03L394.68,47.89L423.91,46.05L482.38,45.1" style="vector-effect: none; fill: none; stroke: rgb(30, 136, 229); stroke-opacity: 1; stroke-width: 2.5px; opacity: 1;"/></g><g class="points"/><g class="text"/></g><g class="trace scatter trace4d275e" style="stroke-miterlimit: 2; opacity: 0.4;"><g class="fills"/><g class="errorbars"/><g class="lines"/><g class="points"><path class="point" transform="translate(306.97,47.44)" d="M5.25,0A5.25,5.25 0 1,1 0,-5.25A5.25,5.25 0 0,1 5.25,0Z" style="opacity: 1; stroke: rgb(30, 136, 229); stroke-opacity: 1; stroke-width: 1.5px; fill: none;"/><path class="point" transform="translate(482.38,45.1)" d="M5.25,0A5.25,5.25 0 1,1 0,-5.25A5.25,5.25 0 0,1 5.25,0Z" style="opacity: 1; stroke: rgb(30, 136, 229); stroke-opacity: 1; stroke-width: 1.5px; fill: none;"/></g><g class="text"/></g><g class="trace scatter trace4e7735" style="stroke-miterlimit: 2; opacity: 0.4;"><g class="fills"/><g class="errorbars"/><g class="lines"><path class="js-line" d="M14.62,90.13L43.85,90.87L73.09,74.13L102.32,54.74L131.56,59.25L160.79,135.14L190.03,75.78L219.26,54.06L248.5,75.98L277.74,77.74L306.97,85.73L336.21,79.55L365.44,75.34L394.68,71.6L423.91,66.79L453.15,65.46L482.38,65.15" style="vector-effect: none; fill: none; stroke: rgb(255, 152, 0); stroke-opacity: 1; stroke-width: 2.5px; opacity: 1;"/></g><g class="points"/><g class="text"/></g><g class="trace scatter tracefe6f2c" style="stroke-miterlimit: 2; opacity: 0.4;"><g class="fills"/><g class="errorbars"/><g class="lines"/><g class="points"><path class="point" transform="translate(306.97,85.73)" d="M5.25,0A5.25,5.25 0 1,1 0,-5.25A5.25,5.25 0 0,1 5.25,0Z" style="opacity: 1; stroke: rgb(255, 152, 0); stroke-opacity: 1; stroke-width: 1.5px; fill: none;"/><path class="point" transform="translate(482.38,65.15)" d="M5.25,0A5.25,5.25 0 1,1 0,-5.25A5.25,5.25 0 0,1 5.25,0Z" style="opacity: 1; stroke: rgb(255, 152, 0); stroke-opacity: 1; stroke-width: 1.5px; fill: none;"/></g><g class="text"/></g><g class="trace scatter trace07ddcf" style="stroke-miterlimit: 2; opacity: 0.4;"><g class="fills"/><g class="errorbars"/><g class="lines"><path class="js-line" d="M14.62,59.64L43.85,61.04L73.09,66.4L102.32,62.1L131.56,68.98L160.79,89.46L190.03,76.8L219.26,76.44L248.5,69.55L277.74,56.91L306.97,53.22L336.21,65.49L365.44,60.9L423.91,59.47L453.15,59.18L482.38,58.89" style="vector-effect: none; fill: none; stroke: rgb(121, 85, 72); stroke-opacity: 1; stroke-width: 2.5px; opacity: 1;"/></g><g class="points"/><g class="text"/></g><g class="trace scatter trace759943" style="stroke-miterlimit: 2; opacity: 0.4;"><g class="fills"/><g class="errorbars"/><g class="lines"/><g class="points"><path class="point" transform="translate(306.97,53.22)" d="M5.25,0A5.25,5.25 0 1,1 0,-5.25A5.25,5.25 0 0,1 5.25,0Z" style="opacity: 1; stroke: rgb(121, 85, 72); stroke-opacity: 1; stroke-width: 1.5px; fill: none;"/><path class="point" transform="translate(482.38,58.89)" d="M5.25,0A5.25,5.25 0 1,1 0,-5.25A5.25,5.25 0 0,1 5.25,0Z" style="opacity: 1; stroke: rgb(121, 85, 72); stroke-opacity: 1; stroke-width: 1.5px; fill: none;"/></g><g class="text"/></g><g class="trace scatter trace0cbe2c" style="stroke-miterlimit: 2; opacity: 1;"><g class="fills"/><g class="errorbars"/><g class="lines"><path class="js-line" d="M14.62,50.58L43.85,47.16L73.09,32.62L102.32,12.5L131.56,20.42L160.79,119.61L190.03,35.69L219.26,63.14L248.5,92.74L277.74,113.48L306.97,122.18L336.21,117.87L365.44,111.7L394.68,101.24L423.91,95.93L453.15,89.95L482.38,86.52" style="vector-effect: none; fill: none; stroke: rgb(77, 182, 172); stroke-opacity: 1; stroke-width: 4px; opacity: 1;"/></g><g class="points"/><g class="text"/></g><g class="trace scatter trace2bd0f6" style="stroke-miterlimit: 2; opacity: 1;"><g class="fills"/><g class="errorbars"/><g class="lines"/><g class="points"><path class="point" transform="translate(306.97,122.18)" d="M6,0A6,6 0 1,1 0,-6A6,6 0 0,1 6,0Z" style="opacity: 1; stroke: rgb(77, 182, 172); stroke-opacity: 1; stroke-width: 2.4px; fill: none;"/><path class="point" transform="translate(482.38,86.52)" d="M6,0A6,6 0 1,1 0,-6A6,6 0 0,1 6,0Z" style="opacity: 1; stroke: rgb(77, 182, 172); stroke-opacity: 1; stroke-width: 2.4px; fill: none;"/></g><g class="text"/></g><g class="trace scatter trace21655f" style="stroke-miterlimit: 2; opacity: 1;"><g class="fills"/><g class="errorbars"/><g class="lines"><path class="js-line" d="M14.62,59.11L43.85,61.72L73.09,56.65L102.32,54.29L131.56,65.63L160.79,162.64L190.03,110.82L219.26,68.56L248.5,90.04L277.74,91.03L306.97,89.57L336.21,92.98L365.44,91.61L394.68,90.75L423.91,88.03L482.38,87.06" style="vector-effect: none; fill: none; stroke: rgb(106, 27, 154); stroke-opacity: 1; stroke-width: 6px; opacity: 1;"/></g><g class="points"/><g class="text"/></g><g class="trace scatter tracedc4645" style="stroke-miterlimit: 2; opacity: 1;"><g class="fills"/><g class="errorbars"/><g class="lines"/><g class="points"><path class="point" transform="translate(306.97,89.57)" d="M7,0A7,7 0 1,1 0,-7A7,7 0 0,1 7,0Z" style="opacity: 1; stroke: rgb(106, 27, 154); stroke-opacity: 1; stroke-width: 3.6px; fill: none;"/><path class="point" transform="translate(482.38,87.06)" d="M7,0A7,7 0 1,1 0,-7A7,7 0 0,1 7,0Z" style="opacity: 1; stroke: rgb(106, 27, 154); stroke-opacity: 1; stroke-width: 3.6px; fill: none;"/></g><g class="text"/></g></g></g></g><g class="zerolinelayer-above"/><path class="xlines-above crisp" d="M48.5,338.75H547" style="fill: none; stroke-width: 1.5px; stroke: rgb(0, 0, 0); stroke-opacity: 1;"/><path class="ylines-above crisp" d="M49.25,88V338" style="fill: none; stroke-width: 1.5px; stroke: rgb(0, 0, 0); stroke-opacity: 1;"/><g class="overlines-above"/><g class="xaxislayer-above"><path class="xtick ticks crisp" d="M0,338v-5" transform="translate(64.62,0)" style="stroke: rgb(68, 68, 68); stroke-opacity: 1; stroke-width: 1px;"/><path class="xtick ticks crisp" d="M0,338v-5" transform="translate(210.79,0)" style="stroke: rgb(68, 68, 68); stroke-opacity: 1; stroke-width: 1px;"/><path class="xtick ticks crisp" d="M0,338v-5" transform="translate(356.97,0)" style="stroke: rgb(68, 68, 68); stroke-opacity: 1; stroke-width: 1px;"/><path class="xtick ticks crisp" d="M0,338v-5" transform="translate(503.15,0)" style="stroke: rgb(68, 68, 68); stroke-opacity: 1; stroke-width: 1px;"/><g class="xtick"><text text-anchor="middle" x="0" y="356.3" transform="translate(64.62,0)" style="font-family: 'Open Sans', verdana, arial, sans-serif; font-size: 14px; fill: rgb(36, 36, 36); fill-opacity: 1; white-space: pre;">2015</text></g><g class="xtick"><text text-anchor="middle" x="0" y="356.3" style="font-family: 'Open Sans', verdana, arial, sans-serif; font-size: 14px; fill: rgb(36, 36, 36); fill-opacity: 1; white-space: pre;" transform="translate(210.79,0)">2020</text></g><g class="xtick"><text text-anchor="middle" x="0" y="356.3" style="font-family: 'Open Sans', verdana, arial, sans-serif; font-size: 14px; fill: rgb(36, 36, 36); fill-opacity: 1; white-space: pre;" transform="translate(356.97,0)">2025</text></g><g class="xtick"><text text-anchor="middle" x="0" y="356.3" style="font-family: 'Open Sans', verdana, arial, sans-serif; font-size: 14px; fill: rgb(36, 36, 36); fill-opacity: 1; white-space: pre;" transform="translate(503.15,0)">2030</text></g></g><g class="yaxislayer-above"><path class="ytick ticks crisp" d="M50,0h5" transform="translate(0,258.61)" style="stroke: rgb(68, 68, 68); stroke-opacity: 1; stroke-width: 1px;"/><path class="ytick ticks crisp" d="M50,0h5" transform="translate(0,177.57)" style="stroke: rgb(68, 68, 68); stroke-opacity: 1; stroke-width: 1px;"/><path class="ytick ticks crisp" d="M50,0h5" transform="translate(0,96.53)" style="stroke: rgb(68, 68, 68); stroke-opacity: 1; stroke-width: 1px;"/><g class="ytick"><text text-anchor="end" x="45.7" y="4.8999999999999995" transform="translate(0,258.61)" style="font-family: 'Open Sans', verdana, arial, sans-serif; font-size: 14px; fill: rgb(36, 36, 36); fill-opacity: 1; white-space: pre;">−10</text></g><g class="ytick"><text text-anchor="end" x="45.7" y="4.8999999999999995" style="font-family: 'Open Sans', verdana, arial, sans-serif; font-size: 14px; fill: rgb(36, 36, 36); fill-opacity: 1; white-space: pre;" transform="translate(0,177.57)">−5</text></g><g class="ytick"><text text-anchor="end" x="45.7" y="4.8999999999999995" style="font-family: 'Open Sans', verdana, arial, sans-serif; font-size: 14px; fill: rgb(36, 36, 36); fill-opacity: 1; white-space: pre;" transform="translate(0,96.53)">0</text></g></g><g class="overaxes-above"/></g></g><g class="polarlayer"/><g class="smithlayer"/><g class="ternarylayer"/><g class="geolayer"/><g class="funnelarealayer"/><g class="pielayer"/><g class="iciclelayer"/><g class="treemaplayer"/><g class="sunburstlayer"/><g class="glimages"/><defs id="topdefs-5d3ad5"><g class="clips"/><clipPath id="legend5d3ad5"><rect width="478" height="71" x="0" y="0"/></clipPath></defs><g class="layer-above"><g class="imagelayer"/><g class="shapelayer"/></g><g class="infolayer"><g class="legend" pointer-events="all" transform="translate(59.5,12)"><rect class="bg" shape-rendering="crispEdges" width="478" height="71" x="0" y="0" style="stroke: rgb(68, 68, 68); stroke-opacity: 1; fill: rgb(255, 255, 255); fill-opacity: 1; stroke-width: 0px;"/><g class="scrollbox" transform="" clip-path="url(#legend5d3ad5)"><g class="groups" transform=""><g class="traces" transform="translate(0,14.5)" style="opacity: 1;"><text class="legendtext" text-anchor="start" x="40" y="4.680000000000001" style="font-family: 'Open Sans', verdana, arial, sans-serif; font-size: 12px; fill: rgb(36, 36, 36); fill-opacity: 1; white-space: pre;">Global</text><g class="layers" style="opacity: 1;"><g class="legendfill"/><g class="legendlines"><path class="js-line" d="M5,0h30" style="fill: none; stroke: rgb(106, 27, 154); stroke-opacity: 1; stroke-width: 6px;"/></g><g class="legendsymbols"><g class="legendpoints"/></g></g><rect class="legendtoggle" x="0" y="-9.5" width="80.359375" height="19" style="fill: rgb(0, 0, 0); fill-opacity: 0;"/></g></g><g class="groups" transform="translate(82.859375,0)"><g class="traces" transform="translate(0,14.5)" style="opacity: 1;"><text class="legendtext" text-anchor="start" x="40" y="4.680000000000001" style="font-family: 'Open Sans', verdana, arial, sans-serif; font-size: 12px; fill: rgb(36, 36, 36); fill-opacity: 1; white-space: pre;">China</text><g class="layers" style="opacity: 0.4;"><g class="legendfill"/><g class="legendlines"><path class="js-line" d="M5,0h30" style="fill: none; stroke: rgb(229, 57, 53); stroke-opacity: 1; stroke-width: 3px;"/></g><g class="legendsymbols"><g class="legendpoints"/></g></g><rect class="legendtoggle" x="0" y="-9.5" width="76.578125" height="19" style="fill: rgb(0, 0, 0); fill-opacity: 0;"/></g></g><g class="groups" transform="translate(161.9375,0)"><g class="traces" transform="translate(0,14.5)" style="opacity: 1;"><text class="legendtext" text-anchor="start" x="40" y="4.680000000000001" style="font-family: 'Open Sans', verdana, arial, sans-serif; font-size: 12px; fill: rgb(36, 36, 36); fill-opacity: 1; white-space: pre;">USA</text><g class="layers" style="opacity: 0.4;"><g class="legendfill"/><g class="legendlines"><path class="js-line" d="M5,0h30" style="fill: none; stroke: rgb(67, 160, 71); stroke-opacity: 1; stroke-width: 3px;"/></g><g class="legendsymbols"><g class="legendpoints"/></g></g><rect class="legendtoggle" x="0" y="-9.5" width="67.703125" height="19" style="fill: rgb(0, 0, 0); fill-opacity: 0;"/></g></g><g class="groups" transform="translate(232.140625,0)"><g class="traces" transform="translate(0,14.5)" style="opacity: 1;"><text class="legendtext" text-anchor="start" x="40" y="4.680000000000001" style="font-family: 'Open Sans', verdana, arial, sans-serif; font-size: 12px; fill: rgb(36, 36, 36); fill-opacity: 1; white-space: pre;">Advanced Economies excl. USA</text><g class="layers" style="opacity: 0.4;"><g class="legendfill"/><g class="legendlines"><path class="js-line" d="M5,0h30" style="fill: none; stroke: rgb(30, 136, 229); stroke-opacity: 1; stroke-width: 2.5px;"/></g><g class="legendsymbols"><g class="legendpoints"/></g></g><rect class="legendtoggle" x="0" y="-9.5" width="231.34375" height="19" style="fill: rgb(0, 0, 0); fill-opacity: 0;"/></g></g><g class="groups" transform="translate(0,21)"><g class="traces" transform="translate(0,14.5)" style="opacity: 1;"><text class="legendtext" text-anchor="start" x="40" y="4.680000000000001" style="font-family: 'Open Sans', verdana, arial, sans-serif; font-size: 12px; fill: rgb(36, 36, 36); fill-opacity: 1; white-space: pre;">Emerging Markets excl. China</text><g class="layers" style="opacity: 0.4;"><g class="legendfill"/><g class="legendlines"><path class="js-line" d="M5,0h30" style="fill: none; stroke: rgb(255, 152, 0); stroke-opacity: 1; stroke-width: 2.5px;"/></g><g class="legendsymbols"><g class="legendpoints"/></g></g><rect class="legendtoggle" x="0" y="-9.5" width="222.4375" height="19" style="fill: rgb(0, 0, 0); fill-opacity: 0;"/></g></g><g class="groups" transform="translate(224.9375,21)"><g class="traces" transform="translate(0,14.5)" style="opacity: 1;"><text class="legendtext" text-anchor="start" x="40" y="4.680000000000001" style="font-family: 'Open Sans', verdana, arial, sans-serif; font-size: 12px; fill: rgb(36, 36, 36); fill-opacity: 1; white-space: pre;">Low-Income Developing Countries</text><g class="layers" style="opacity: 0.4;"><g class="legendfill"/><g class="legendlines"><path class="js-line" d="M5,0h30" style="fill: none; stroke: rgb(121, 85, 72); stroke-opacity: 1; stroke-width: 2.5px;"/></g><g class="legendsymbols"><g class="legendpoints"/></g></g><rect class="legendtoggle" x="0" y="-9.5" width="249.625" height="19" style="fill: rgb(0, 0, 0); fill-opacity: 0;"/></g></g><g class="groups" transform="translate(0,42)"><g class="traces" transform="translate(0,14.5)" style="opacity: 1;"><text class="legendtext" text-anchor="start" x="40" y="4.680000000000001" style="font-family: 'Open Sans', verdana, arial, sans-serif; font-size: 12px; fill: rgb(36, 36, 36); fill-opacity: 1; white-space: pre;">Poland</text><g class="layers" style="opacity: 1;"><g class="legendfill"/><g class="legendlines"><path class="js-line" d="M5,0h30" style="fill: none; stroke: rgb(77, 182, 172); stroke-opacity: 1; stroke-width: 4px;"/></g><g class="legendsymbols"><g class="legendpoints"/></g></g><rect class="legendtoggle" x="0" y="-9.5" width="82.59375" height="19" style="fill: rgb(0, 0, 0); fill-opacity: 0;"/></g></g></g><rect class="scrollbar" rx="20" ry="3" width="0" height="0" x="0" y="0" style="fill: rgb(128, 139, 164); fill-opacity: 1;"/></g><g class="g-gtitle"/><g class="g-xtitle"/><g class="g-ytitle"/></g></svg>