<svg class="main-svg" xmlns="http://www.w3.org/2000/svg" xmlns:xlink="http://www.w3.org/1999/xlink" width="2418" height="756" style="" viewBox="0 0 1209 378"><rect x="0" y="0" width="1209" height="378" style="fill: rgb(255, 255, 255); fill-opacity: 1;"/><defs id="defs-3b5fc2"><g class="clips"><clipPath id="clip3b5fc2xyplot" class="plotclip"><rect width="500.72" height="218"/></clipPath><clipPath id="clip3b5fc2x2y2plot" class="plotclip"><rect width="500.7199999999999" height="218"/></clipPath><clipPath class="axesclip" id="clip3b5fc2x"><rect x="50" y="0" width="500.72" height="378"/></clipPath><clipPath class="axesclip" id="clip3b5fc2y"><rect x="0" y="102" width="1209" height="218"/></clipPath><clipPath class="axesclip" id="clip3b5fc2xy"><rect x="50" y="102" width="500.72" height="218"/></clipPath><clipPath class="axesclip" id="clip3b5fc2y2"><rect x="0" y="102" width="1209" height="218"/></clipPath><clipPath class="axesclip" id="clip3b5fc2xy2"><rect x="50" y="102" width="500.72" height="218"/></clipPath><clipPath class="axesclip" id="clip3b5fc2x2"><rect x="687.2800000000001" y="0" width="500.7199999999999" height="378"/></clipPath><clipPath class="axesclip" id="clip3b5fc2x2y"><rect x="687.2800000000001" y="102" width="500.7199999999999" height="218"/></clipPath><clipPath class="axesclip" id="clip3b5fc2x2y2"><rect x="687.2800000000001" y="102" width="500.7199999999999" height="218"/></clipPath></g><g class="gradients"/><g class="patterns"/></defs><g class="bglayer"/><g class="layer-below"><g class="imagelayer"/><g class="shapelayer"/></g><g class="cartesianlayer"><g class="subplot xy"><g class="layer-subplot"><g class="shapelayer"/><g class="imagelayer"/></g><g class="minor-gridlayer"><g class="x"/><g class="y"/></g><g class="gridlayer"><g class="x"/><g class="y"><path class="ygrid crisp" transform="translate(0,213.5)" d="M50,0h500.72" style="stroke: rgb(0, 0, 0); stroke-opacity: 0.15; stroke-width: 1px;"/><path class="ygrid crisp" transform="translate(0,154)" d="M50,0h500.72" style="stroke: rgb(0, 0, 0); stroke-opacity: 0.15; stroke-width: 1px;"/></g></g><g class="zerolinelayer"><path class="yzl zl crisp" transform="translate(0,273.01)" d="M50,0h500.72" style="stroke: rgb(0, 0, 0); stroke-opacity: 1; stroke-width: 1.5px;"/></g><g class="layer-between"><g class="shapelayer"/><g class="imagelayer"/></g><path class="xlines-below"/><path class="ylines-below"/><g class="overlines-below"/><g class="xaxislayer-below"/><g class="yaxislayer-below"/><g class="overaxes-below"/><g class="overplot"><g class="xy" transform="translate(50,102)" clip-path="url(#clip3b5fc2xyplot)"><g class="scatterlayer mlayer"><g class="trace scatter trace974d70" style="stroke-miterlimit: 2; opacity: 1;"><g class="fills"/><g class="errorbars"/><g class="lines"><path class="js-line" d="M0,140.22L50.07,109.16L100.14,71.83L150.22,62.01L200.29,72.46L250.36,65.03L300.43,67.49L350.5,73.89L400.58,95.4L450.65,106.82L500.72,116.2" style="vector-effect: none; fill: none; stroke: rgb(106, 27, 154); stroke-opacity: 1; stroke-width: 3.5px; opacity: 1;"/></g><g class="points"/><g class="text"/></g><g class="trace scatter trace5cb06d" style="stroke-miterlimit: 2; opacity: 1;"><g class="fills"><g><path class="js-fill" d="M0,129.21L50.07,92.24L100.14,42.84L150.22,31.62L200.29,44.1L250.36,33.31L300.43,33.09L350.5,37.74L400.58,53.73L450.65,61.86L500.72,60.93L500.72,171.46L450.65,151.79L400.58,137.06L350.5,110.04L300.43,101.89L250.36,96.74L200.29,100.82L150.22,92.41L100.14,100.82L50.07,126.08L0,151.23Z" style="fill: rgb(106, 27, 154); fill-opacity: 0.25; stroke-width: 0;"/></g></g><g class="errorbars"/><g class="lines"><path class="js-line" d="M0,129.21L50.07,92.24L100.14,42.84L150.22,31.62L200.29,44.1L250.36,33.31L300.43,33.09L350.5,37.74L400.58,53.73L450.65,61.86L500.72,60.93L500.72,171.46L450.65,151.79L400.58,137.06L350.5,110.04L300.43,101.89L250.36,96.74L200.29,100.82L150.22,92.41L100.14,100.82L50.07,126.08L0,151.23" style="vector-effect: none; fill: none; stroke: rgb(0, 0, 0); stroke-opacity: 0; stroke-width: 2px; opacity: 1;"/></g><g class="points"/><g class="text"/></g><g class="trace scatter traceb04181" style="stroke-miterlimit: 2; opacity: 1;"><g class="fills"><g><path class="js-fill" d="M0,122.12L50.07,81.33L100.14,24.14L150.22,12.02L200.29,25.81L250.36,12.86L300.43,10.9L350.5,14.43L400.58,26.86L450.65,32.86L500.72,25.3L500.72,207.1L450.65,180.79L400.58,163.93L350.5,133.35L300.43,124.08L250.36,117.2L200.29,119.1L150.22,112.01L100.14,119.51L50.07,136.99L0,158.33Z" style="fill: rgb(106, 27, 154); fill-opacity: 0.12; stroke-width: 0;"/></g></g><g class="errorbars"/><g class="lines"><path class="js-line" d="M0,122.12L50.07,81.33L100.14,24.14L150.22,12.02L200.29,25.81L250.36,12.86L300.43,10.9L350.5,14.43L400.58,26.86L450.65,32.86L500.72,25.3L500.72,207.1L450.65,180.79L400.58,163.93L350.5,133.35L300.43,124.08L250.36,117.2L200.29,119.1L150.22,112.01L100.14,119.51L50.07,136.99L0,158.33" style="vector-effect: none; fill: none; stroke: rgb(0, 0, 0); stroke-opacity: 0; stroke-width: 2px; opacity: 1;"/></g><g class="points"/><g class="text"/></g></g></g></g><g class="zerolinelayer-above"/><path class="xlines-above crisp" d="M48.5,320.75H550.72" style="fill: none; stroke-width: 1.5px; stroke: rgb(0, 0, 0); stroke-opacity: 1;"/><path class="ylines-above crisp" d="M49.25,102V320" style="fill: none; stroke-width: 1.5px; stroke: rgb(0, 0, 0); stroke-opacity: 1;"/><g class="overlines-above"/><g class="xaxislayer-above"><path class="xtick ticks crisp" d="M0,320v-5" transform="translate(150.14,0)" style="stroke: rgb(68, 68, 68); stroke-opacity: 1; stroke-width: 1px;"/><path class="xtick ticks crisp" d="M0,320v-5" transform="translate(250.29,0)" style="stroke: rgb(68, 68, 68); stroke-opacity: 1; stroke-width: 1px;"/><path class="xtick ticks crisp" d="M0,320v-5" transform="translate(350.43,0)" style="stroke: rgb(68, 68, 68); stroke-opacity: 1; stroke-width: 1px;"/><path class="xtick ticks crisp" d="M0,320v-5" transform="translate(450.58,0)" style="stroke: rgb(68, 68, 68); stroke-opacity: 1; stroke-width: 1px;"/><g class="xtick"><text text-anchor="middle" x="0" y="338.3" transform="translate(50,0)" style="font-family: 'Open Sans', verdana, arial, sans-serif; font-size: 14px; fill: rgb(36, 36, 36); fill-opacity: 1; white-space: pre;">0</text></g><g class="xtick"><text text-anchor="middle" x="0" y="338.3" style="font-family: 'Open Sans', verdana, arial, sans-serif; font-size: 14px; fill: rgb(36, 36, 36); fill-opacity: 1; white-space: pre;" transform="translate(150.14,0)">2</text></g><g class="xtick"><text text-anchor="middle" x="0" y="338.3" style="font-family: 'Open Sans', verdana, arial, sans-serif; font-size: 14px; fill: rgb(36, 36, 36); fill-opacity: 1; white-space: pre;" transform="translate(250.29,0)">4</text></g><g class="xtick"><text text-anchor="middle" x="0" y="338.3" style="font-family: 'Open Sans', verdana, arial, sans-serif; font-size: 14px; fill: rgb(36, 36, 36); fill-opacity: 1; white-space: pre;" transform="translate(350.43,0)">6</text></g><g class="xtick"><text text-anchor="middle" x="0" y="338.3" style="font-family: 'Open Sans', verdana, arial, sans-serif; font-size: 14px; fill: rgb(36, 36, 36); fill-opacity: 1; white-space: pre;" transform="translate(450.58,0)">8</text></g><g class="xtick"><text text-anchor="middle" x="0" y="338.3" style="font-family: 'Open Sans', verdana, arial, sans-serif; font-size: 14px; fill: rgb(36, 36, 36); fill-opacity: 1; white-space: pre;" transform="translate(550.72,0)">10</text></g></g><g class="yaxislayer-above"><path class="ytick ticks crisp" d="M50,0h5" transform="translate(0,273.01)" style="stroke: rgb(68, 68, 68); stroke-opacity: 1; stroke-width: 1px;"/><path class="ytick ticks crisp" d="M50,0h5" transform="translate(0,213.5)" style="stroke: rgb(68, 68, 68); stroke-opacity: 1; stroke-width: 1px;"/><path class="ytick ticks crisp" d="M50,0h5" transform="translate(0,154)" style="stroke: rgb(68, 68, 68); stroke-opacity: 1; stroke-width: 1px;"/><g class="ytick"><text text-anchor="end" x="45.7" y="4.8999999999999995" transform="translate(0,273.01)" style="font-family: 'Open Sans', verdana, arial, sans-serif; font-size: 14px; fill: rgb(36, 36, 36); fill-opacity: 1; white-space: pre;">0</text></g><g class="ytick"><text text-anchor="end" x="45.7" y="4.8999999999999995" style="font-family: 'Open Sans', verdana, arial, sans-serif; font-size: 14px; fill: rgb(36, 36, 36); fill-opacity: 1; white-space: pre;" transform="translate(0,213.5)">0.5</text></g><g class="ytick"><text text-anchor="end" x="45.7" y="4.8999999999999995" style="font-family: 'Open Sans', verdana, arial, sans-serif; font-size: 14px; fill: rgb(36, 36, 36); fill-opacity: 1; white-space: pre;" transform="translate(0,154)">1</text></g></g><g class="overaxes-above"/></g><g class="subplot x2y2"><g class="layer-subplot"><g class="shapelayer"/><g class="imagelayer"/></g><g class="minor-gridlayer"><g class="x2"/><g class="y2"/></g><g class="gridlayer"><g class="x2"/><g class="y2"><path class="y2grid crisp" transform="translate(0,314.06)" d="M687.2800000000001,0h500.7199999999999" style="stroke: rgb(0, 0, 0); stroke-opacity: 0.15; stroke-width: 1px;"/><path class="y2grid crisp" transform="translate(0,265.14)" d="M687.2800000000001,0h500.7199999999999" style="stroke: rgb(0, 0, 0); stroke-opacity: 0.15; stroke-width: 1px;"/><path class="y2grid crisp" transform="translate(0,216.22)" d="M687.2800000000001,0h500.7199999999999" style="stroke: rgb(0, 0, 0); stroke-opacity: 0.15; stroke-width: 1px;"/><path class="y2grid crisp" transform="translate(0,118.37)" d="M687.2800000000001,0h500.7199999999999" style="stroke: rgb(0, 0, 0); stroke-opacity: 0.15; stroke-width: 1px;"/></g></g><g class="zerolinelayer"><path class="y2zl zl crisp" transform="translate(0,167.3)" d="M687.2800000000001,0h500.7199999999999" style="stroke: rgb(0, 0, 0); stroke-opacity: 1; stroke-width: 1.5px;"/></g><g class="layer-between"><g class="shapelayer"/><g class="imagelayer"/></g><path class="xlines-below"/><path class="ylines-below"/><g class="overlines-below"/><g class="xaxislayer-below"/><g class="yaxislayer-below"/><g class="overaxes-below"/><g class="overplot"><g class="x2y2" transform="translate(687.2800000000001,102)" clip-path="url(#clip3b5fc2x2y2plot)"><g class="scatterlayer mlayer"><g class="trace scatter trace94392f" style="stroke-miterlimit: 2; opacity: 1;"><g class="fills"/><g class="errorbars"/><g class="lines"><path class="js-line" d="M0,68.98L41.73,100.34L62.59,115.56L83.45,115.57L104.32,129.03L125.18,141.05L146.04,129.19L166.91,131.24L187.77,141.62L208.63,138.35L229.5,138.78L250.36,131.93L271.22,131.79L292.09,122.94L312.95,116.05L333.81,101.83L354.68,92.25L375.54,89.39L396.4,90.26L417.27,96.5L438.13,95.74L458.99,96.02L479.86,80.76L500.72,74.95" style="vector-effect: none; fill: none; stroke: rgb(106, 27, 154); stroke-opacity: 1; stroke-width: 3.5px; opacity: 1;"/></g><g class="points"/><g class="text"/></g><g class="trace scatter tracef2ab52" style="stroke-miterlimit: 2; opacity: 1;"><g class="fills"><g><path class="js-fill" d="M0,61.32L20.86,71.08L41.73,79.19L62.59,89L83.45,88L104.32,99.15L125.18,108.14L146.04,91.86L166.91,93.02L187.77,101.98L208.63,96.64L229.5,97.12L250.36,89.84L271.22,89.68L292.09,78.75L312.95,73.33L333.81,57.07L354.68,49.21L375.54,46.65L396.4,48.5L417.27,54.11L438.13,54.17L458.99,55.04L479.86,40.87L500.72,35.89L500.72,114L479.86,120.65L458.99,136.99L438.13,137.3L417.27,138.89L396.4,132.01L375.54,132.14L354.68,135.29L333.81,146.59L312.95,158.77L292.09,167.13L271.22,173.9L250.36,174.01L229.5,180.44L208.63,180.06L187.77,181.26L166.91,169.45L146.04,166.51L125.18,173.96L104.32,158.91L83.45,143.14L62.59,142.11L41.73,121.49L20.86,98.9L0,76.64Z" style="fill: rgb(106, 27, 154); fill-opacity: 0.25; stroke-width: 0;"/></g></g><g class="errorbars"/><g class="lines"><path class="js-line" d="M0,61.32L20.86,71.08L41.73,79.19L62.59,89L83.45,88L104.32,99.15L125.18,108.14L146.04,91.86L166.91,93.02L187.77,101.98L208.63,96.64L229.5,97.12L250.36,89.84L271.22,89.68L292.09,78.75L312.95,73.33L333.81,57.07L354.68,49.21L375.54,46.65L396.4,48.5L417.27,54.11L438.13,54.17L458.99,55.04L479.86,40.87L500.72,35.89L500.72,114L479.86,120.65L458.99,136.99L438.13,137.3L417.27,138.89L396.4,132.01L375.54,132.14L354.68,135.29L333.81,146.59L312.95,158.77L292.09,167.13L271.22,173.9L250.36,174.01L229.5,180.44L208.63,180.06L187.77,181.26L166.91,169.45L146.04,166.51L125.18,173.96L104.32,158.91L83.45,143.14L62.59,142.11L41.73,121.49L20.86,98.9L0,76.64" style="vector-effect: none; fill: none; stroke: rgb(0, 0, 0); stroke-opacity: 0; stroke-width: 2px; opacity: 1;"/></g><g class="points"/><g class="text"/></g><g class="trace scatter trace81a894" style="stroke-miterlimit: 2; opacity: 1;"><g class="fills"><g><path class="js-fill" d="M0,56.42L20.86,62.18L41.73,65.65L62.59,72.01L83.45,70.35L104.32,80.03L125.18,87.08L146.04,67.97L166.91,68.56L187.77,76.61L208.63,69.95L229.5,70.46L250.36,62.9L271.22,62.73L292.09,50.47L312.95,45.99L333.81,28.42L354.68,21.66L375.54,19.29L396.4,21.77L417.27,26.99L458.99,28.81L479.86,15.34L500.72,10.9L500.72,138.99L479.86,146.18L458.99,163.22L438.13,163.9L417.27,166.01L396.4,158.74L375.54,159.5L354.68,162.84L333.81,175.24L312.95,186.1L292.09,195.41L271.22,200.84L250.36,200.95L229.5,207.1L208.63,206.75L187.77,206.63L166.91,193.91L146.04,190.4L125.18,195.02L83.45,160.79L62.59,159.1L41.73,135.03L20.86,107.81L0,81.55Z" style="fill: rgb(106, 27, 154); fill-opacity: 0.12; stroke-width: 0;"/></g></g><g class="errorbars"/><g class="lines"><path class="js-line" d="M0,56.42L20.86,62.18L41.73,65.65L62.59,72.01L83.45,70.35L104.32,80.03L125.18,87.08L146.04,67.97L166.91,68.56L187.77,76.61L208.63,69.95L229.5,70.46L250.36,62.9L271.22,62.73L292.09,50.47L312.95,45.99L333.81,28.42L354.68,21.66L375.54,19.29L396.4,21.77L417.27,26.99L458.99,28.81L479.86,15.34L500.72,10.9L500.72,138.99L479.86,146.18L458.99,163.22L438.13,163.9L417.27,166.01L396.4,158.74L375.54,159.5L354.68,162.84L333.81,175.24L312.95,186.1L292.09,195.41L271.22,200.84L250.36,200.95L229.5,207.1L208.63,206.75L187.77,206.63L166.91,193.91L146.04,190.4L125.18,195.02L83.45,160.79L62.59,159.1L41.73,135.03L20.86,107.81L0,81.55" style="vector-effect: none; fill: none; stroke: rgb(0, 0, 0); stroke-opacity: 0; stroke-width: 2px; opacity: 1;"/></g><g class="points"/><g class="text"/></g></g></g></g><g class="zerolinelayer-above"/><path class="xlines-above crisp" d="M685.7800000000001,320.75H1188" style="fill: none; stroke-width: 1.5px; stroke: rgb(0, 0, 0); stroke-opacity: 1;"/><path class="ylines-above crisp" d="M686.5300000000001,102V320" style="fill: none; stroke-width: 1.5px; stroke: rgb(0, 0, 0); stroke-opacity: 1;"/><g class="overlines-above"/><g class="xaxislayer-above"><path class="x2tick ticks crisp" d="M0,320v-5" transform="translate(791.6000000000001,0)" style="stroke: rgb(68, 68, 68); stroke-opacity: 1; stroke-width: 1px;"/><path class="x2tick ticks crisp" d="M0,320v-5" transform="translate(895.9100000000001,0)" style="stroke: rgb(68, 68, 68); stroke-opacity: 1; stroke-width: 1px;"/><path class="x2tick ticks crisp" d="M0,320v-5" transform="translate(1000.23,0)" style="stroke: rgb(68, 68, 68); stroke-opacity: 1; stroke-width: 1px;"/><path class="x2tick ticks crisp" d="M0,320v-5" transform="translate(1104.5500000000002,0)" style="stroke: rgb(68, 68, 68); stroke-opacity: 1; stroke-width: 1px;"/><g class="x2tick"><text text-anchor="middle" x="0" y="338.3" transform="translate(687.2800000000001,0)" style="font-family: 'Open Sans', verdana, arial, sans-serif; font-size: 14px; fill: rgb(36, 36, 36); fill-opacity: 1; white-space: pre;">0</text></g><g class="x2tick"><text text-anchor="middle" x="0" y="338.3" style="font-family: 'Open Sans', verdana, arial, sans-serif; font-size: 14px; fill: rgb(36, 36, 36); fill-opacity: 1; white-space: pre;" transform="translate(791.6000000000001,0)">5</text></g><g class="x2tick"><text text-anchor="middle" x="0" y="338.3" style="font-family: 'Open Sans', verdana, arial, sans-serif; font-size: 14px; fill: rgb(36, 36, 36); fill-opacity: 1; white-space: pre;" transform="translate(895.9100000000001,0)">10</text></g><g class="x2tick"><text text-anchor="middle" x="0" y="338.3" style="font-family: 'Open Sans', verdana, arial, sans-serif; font-size: 14px; fill: rgb(36, 36, 36); fill-opacity: 1; white-space: pre;" transform="translate(1000.23,0)">15</text></g><g class="x2tick"><text text-anchor="middle" x="0" y="338.3" style="font-family: 'Open Sans', verdana, arial, sans-serif; font-size: 14px; fill: rgb(36, 36, 36); fill-opacity: 1; white-space: pre;" transform="translate(1104.5500000000002,0)">20</text></g></g><g class="yaxislayer-above"><path class="y2tick ticks crisp" d="M687.2800000000001,0h5" transform="translate(0,314.06)" style="stroke: rgb(68, 68, 68); stroke-opacity: 1; stroke-width: 1px;"/><path class="y2tick ticks crisp" d="M687.2800000000001,0h5" transform="translate(0,265.14)" style="stroke: rgb(68, 68, 68); stroke-opacity: 1; stroke-width: 1px;"/><path class="y2tick ticks crisp" d="M687.2800000000001,0h5" transform="translate(0,216.22)" style="stroke: rgb(68, 68, 68); stroke-opacity: 1; stroke-width: 1px;"/><path class="y2tick ticks crisp" d="M687.2800000000001,0h5" transform="translate(0,167.3)" style="stroke: rgb(68, 68, 68); stroke-opacity: 1; stroke-width: 1px;"/><path class="y2tick ticks crisp" d="M687.2800000000001,0h5" transform="translate(0,118.37)" style="stroke: rgb(68, 68, 68); stroke-opacity: 1; stroke-width: 1px;"/><g class="y2tick"><text text-anchor="end" x="682.9800000000001" y="4.8999999999999995" transform="translate(0,314.06)" style="font-family: 'Open Sans', verdana, arial, sans-serif; font-size: 14px; fill: rgb(36, 36, 36); fill-opacity: 1; white-space: pre;">−1.5</text></g><g class="y2tick"><text text-anchor="end" x="682.9800000000001" y="4.8999999999999995" style="font-family: 'Open Sans', verdana, arial, sans-serif; font-size: 14px; fill: rgb(36, 36, 36); fill-opacity: 1; white-space: pre;" transform="translate(0,265.14)">−1</text></g><g class="y2tick"><text text-anchor="end" x="682.9800000000001" y="4.8999999999999995" style="font-family: 'Open Sans', verdana, arial, sans-serif; font-size: 14px; fill: rgb(36, 36, 36); fill-opacity: 1; white-space: pre;" transform="translate(0,216.22)">−0.5</text></g><g class="y2tick"><text text-anchor="end" x="682.9800000000001" y="4.8999999999999995" style="font-family: 'Open Sans', verdana, arial, sans-serif; font-size: 14px; fill: rgb(36, 36, 36); fill-opacity: 1; white-space: pre;" transform="translate(0,167.3)">0</text></g><g class="y2tick"><text text-anchor="end" x="682.9800000000001" y="4.8999999999999995" style="font-family: 'Open Sans', verdana, arial, sans-serif; font-size: 14px; fill: rgb(36, 36, 36); fill-opacity: 1; white-space: pre;" transform="translate(0,118.37)">0.5</text></g></g><g class="overaxes-above"/></g></g><g class="polarlayer"/><g class="smithlayer"/><g class="ternarylayer"/><g class="geolayer"/><g class="funnelarealayer"/><g class="pielayer"/><g class="iciclelayer"/><g class="treemaplayer"/><g class="sunburstlayer"/><g class="glimages"/><defs id="topdefs-3b5fc2"><g class="clips"/><clipPath id="legend3b5fc2"><rect width="588" height="29" x="0" y="0"/></clipPath></defs><g class="layer-above"><g class="imagelayer"/><g class="shapelayer"><g class="shape-group" data-index="0" clip-path="url(#clip3b5fc2y)"><path data-index="0" fill-rule="evenodd" d="M50,273.01L550.72,273.01" style="opacity: 0.6; stroke: rgb(0, 0, 0); stroke-opacity: 0; fill: rgb(0, 0, 0); fill-opacity: 1; stroke-width: 0px;"/></g><g class="shape-group" data-index="1" clip-path="url(#clip3b5fc2y2)"><path data-index="1" fill-rule="evenodd" d="M687.2800000000001,167.3L1188,167.3" style="opacity: 0.6; stroke: rgb(0, 0, 0); stroke-opacity: 0; fill: rgb(0, 0, 0); fill-opacity: 1; stroke-width: 0px;"/></g></g></g><g class="infolayer"><g class="legend" pointer-events="all" transform="translate(325,11.959999999999994)"><rect class="bg" shape-rendering="crispEdges" width="588" height="29" x="0" y="0" style="stroke: rgb(68, 68, 68); stroke-opacity: 1; fill: rgb(255, 255, 255); fill-opacity: 1; stroke-width: 0px;"/><g class="scrollbox" transform="" clip-path="url(#legend3b5fc2)"><g class="groups"><g class="traces" transform="translate(0,14.5)" style="opacity: 1;"><text class="legendtext" text-anchor="start" x="40" y="4.680000000000001" style="font-family: 'Open Sans', verdana, arial, sans-serif; font-size: 12px; fill: rgb(36, 36, 36); fill-opacity: 1; white-space: pre;">Point estimate</text><g class="layers" style="opacity: 1;"><g class="legendfill"/><g class="legendlines"><path class="js-line" d="M5,0h30" style="fill: none; stroke: rgb(106, 27, 154); stroke-opacity: 1; stroke-width: 3.5px;"/></g><g class="legendsymbols"><g class="legendpoints"/></g></g><rect class="legendtoggle" x="0" y="-9.5" width="129.03125" height="19" style="fill: rgb(0, 0, 0); fill-opacity: 0;"/></g><g class="traces" transform="translate(131.53125,14.5)" style="opacity: 1;"><text class="legendtext" text-anchor="start" x="40" y="4.680000000000001" style="font-family: 'Open Sans', verdana, arial, sans-serif; font-size: 12px; fill: rgb(36, 36, 36); fill-opacity: 1; white-space: pre;">68 percent confidence interval</text><g class="layers" style="opacity: 1;"><g class="legendfill"><path class="js-fill" d="M5,-2h30v6h-30z" style="stroke-width: 0; fill: rgb(106, 27, 154); fill-opacity: 0.25;"/></g><g class="legendlines"><path class="js-line" d="M5,-2h30" style="fill: none; stroke: rgb(0, 0, 0); stroke-opacity: 0; stroke-width: 2px;"/></g><g class="legendsymbols"><g class="legendpoints"/></g></g><rect class="legendtoggle" x="0" y="-9.5" width="225.640625" height="19" style="fill: rgb(0, 0, 0); fill-opacity: 0;"/></g><g class="traces" transform="translate(359.671875,14.5)" style="opacity: 1;"><text class="legendtext" text-anchor="start" x="40" y="4.680000000000001" style="font-family: 'Open Sans', verdana, arial, sans-serif; font-size: 12px; fill: rgb(36, 36, 36); fill-opacity: 1; white-space: pre;">90 percent confidence interval</text><g class="layers" style="opacity: 1;"><g class="legendfill"><path class="js-fill" d="M5,-2h30v6h-30z" style="stroke-width: 0; fill: rgb(106, 27, 154); fill-opacity: 0.12;"/></g><g class="legendlines"><path class="js-line" d="M5,-2h30" style="fill: none; stroke: rgb(0, 0, 0); stroke-opacity: 0; stroke-width: 2px;"/></g><g class="legendsymbols"><g class="legendpoints"/></g></g><rect class="legendtoggle" x="0" y="-9.5" width="225.640625" height="19" style="fill: rgb(0, 0, 0); fill-opacity: 0;"/></g></g></g><rect class="scrollbar" rx="20" ry="3" width="0" height="0" x="0" y="0" style="fill: rgb(128, 139, 164); fill-opacity: 1;"/></g><g class="g-gtitle"/><g class="g-xtitle"><text class="xtitle" x="300.36" y="365.3625" text-anchor="middle" style="opacity: 1; font-family: 'Open Sans', verdana, arial, sans-serif; font-size: 14px; fill: rgb(36, 36, 36); fill-opacity: 1; white-space: pre;">Days after shock</text></g><g class="g-x2title"><text class="x2title" x="937.6400000000001" y="365.3625" text-anchor="middle" style="opacity: 1; font-family: 'Open Sans', verdana, arial, sans-serif; font-size: 14px; fill: rgb(36, 36, 36); fill-opacity: 1; white-space: pre;">Quarters after shock</text></g><g class="g-ytitle"/><g class="g-y2title"/><g class="annotation" data-index="0" style="opacity: 1;"><g class="annotation-text-g" transform="rotate(0,300.36,73.49999999999999)"><g class="cursor-pointer" transform="translate(138,45)"><rect class="bg" x="0.5" y="0.5" width="324" height="56" style="stroke-width: 1px; stroke: rgb(0, 0, 0); stroke-opacity: 0; fill: rgb(0, 0, 0); fill-opacity: 0;"/><text class="annotation-text" text-anchor="middle" x="162.265625" y="16" style="font-family: 'Open Sans', verdana, arial, sans-serif; font-size: 14px; fill: rgb(36, 36, 36); fill-opacity: 1; white-space: pre;"><tspan class="line" dy="0em" x="162.265625" y="16">Response of 10-Year Yield to One-Basis-Point</tspan><tspan class="line" dy="1.3em" x="162.265625" y="16">Shock Arising from Treasury Auction</tspan><tspan class="line" dy="2.6em" x="162.265625" y="16">(Basis points)</tspan></text></g></g></g><g class="annotation" data-index="1" style="opacity: 1;"><g class="annotation-text-g" transform="rotate(0,937.64,73.49999999999999)"><g class="cursor-pointer" transform="translate(748,45)"><rect class="bg" x="0.5" y="0.5" width="378" height="56" style="stroke-width: 1px; stroke: rgb(0, 0, 0); stroke-opacity: 0; fill: rgb(0, 0, 0); fill-opacity: 0;"/><text class="annotation-text" text-anchor="middle" x="189.484375" y="16" style="font-family: 'Open Sans', verdana, arial, sans-serif; font-size: 14px; fill: rgb(36, 36, 36); fill-opacity: 1; white-space: pre;"><tspan class="line" dy="0em" x="189.484375" y="16">Response of Industrial Production to</tspan><tspan class="line" dy="1.3em" x="189.484375" y="16">One-Basis-Point Shock Arising from Treasury Auction</tspan><tspan class="line" dy="2.6em" x="189.484375" y="16">(Cumulative percent)</tspan></text></g></g></g></g></svg>