<svg class="main-svg" xmlns="http://www.w3.org/2000/svg" xmlns:xlink="http://www.w3.org/1999/xlink" width="1134" height="756" style="" viewBox="0 0 567 378"><rect x="0" y="0" width="567" height="378" style="fill: rgb(255, 255, 255); fill-opacity: 1;"/><defs id="defs-1e2f63"><g class="clips"><clipPath id="clip1e2f63xyplot" class="plotclip"><rect width="244.44" height="246"/></clipPath><clipPath id="clip1e2f63xy2plot" class="plotclip"><rect width="244.44" height="246"/></clipPath><clipPath id="clip1e2f63x2y3plot" class="plotclip"><rect width="162.95999999999998" height="246"/></clipPath><clipPath id="clip1e2f63x2y4plot" class="plotclip"><rect width="162.95999999999998" height="246"/></clipPath><clipPath class="axesclip" id="clip1e2f63x"><rect x="57" y="0" width="244.44" height="378"/></clipPath><clipPath class="axesclip" id="clip1e2f63y"><rect x="0" y="80" width="567" height="246"/></clipPath><clipPath class="axesclip" id="clip1e2f63xy"><rect x="57" y="80" width="244.44" height="246"/></clipPath><clipPath class="axesclip" id="clip1e2f63y2"><rect x="0" y="80" width="567" height="246"/></clipPath><clipPath class="axesclip" id="clip1e2f63xy2"><rect x="57" y="80" width="244.44" height="246"/></clipPath><clipPath class="axesclip" id="clip1e2f63y3"><rect x="0" y="80" width="567" height="246"/></clipPath><clipPath class="axesclip" id="clip1e2f63xy3"><rect x="57" y="80" width="244.44" height="246"/></clipPath><clipPath class="axesclip" id="clip1e2f63y4"><rect x="0" y="80" width="567" height="246"/></clipPath><clipPath class="axesclip" id="clip1e2f63xy4"><rect x="57" y="80" width="244.44" height="246"/></clipPath><clipPath class="axesclip" id="clip1e2f63x2"><rect x="349.94" y="0" width="162.95999999999998" height="378"/></clipPath><clipPath class="axesclip" id="clip1e2f63x2y"><rect x="349.94" y="80" width="162.95999999999998" height="246"/></clipPath><clipPath class="axesclip" id="clip1e2f63x2y2"><rect x="349.94" y="80" width="162.95999999999998" height="246"/></clipPath><clipPath class="axesclip" id="clip1e2f63x2y3"><rect x="349.94" y="80" width="162.95999999999998" height="246"/></clipPath><clipPath class="axesclip" id="clip1e2f63x2y4"><rect x="349.94" y="80" width="162.95999999999998" height="246"/></clipPath></g><g class="gradients"/><g class="patterns"/></defs><g class="bglayer"/><g class="layer-below"><g class="imagelayer"/><g class="shapelayer"><g class="shape-group" data-index="0" clip-path="url(#clip1e2f63x)"><path data-index="0" fill-rule="evenodd" d="M284.78,326H301.44V80H284.78Z" style="opacity: 0.3; stroke: rgb(0, 0, 0); stroke-opacity: 0; fill: rgb(0, 0, 0); fill-opacity: 0.15; stroke-width: 0px;"/></g><g class="shape-group" data-index="1" clip-path="url(#clip1e2f63x2)"><path data-index="1" fill-rule="evenodd" d="M349.94,326H512.9V80H349.94Z" style="opacity: 0.3; stroke: rgb(0, 0, 0); stroke-opacity: 0; fill: rgb(0, 0, 0); fill-opacity: 0.15; stroke-width: 0px;"/></g></g></g><g class="cartesianlayer"><g class="subplot xy"><g class="layer-subplot"><g class="shapelayer"/><g class="imagelayer"/></g><g class="minor-gridlayer"><g class="x"/><g class="y"/><g class="y2"/></g><g class="gridlayer"><g class="x"><path class="xgrid crisp" transform="translate(167.24,0)" d="M0,80v246" style="stroke: rgb(0, 0, 0); stroke-opacity: 0.15; stroke-width: 0.5px;"/><path class="xgrid crisp" transform="translate(277.53,0)" d="M0,80v246" style="stroke: rgb(0, 0, 0); stroke-opacity: 0.15; stroke-width: 0.5px;"/></g><g class="y"><path class="ygrid crisp" transform="translate(0,318.78)" d="M57,0h244.44" style="stroke: rgb(0, 0, 0); stroke-opacity: 0.15; stroke-width: 0.5px;"/><path class="ygrid crisp" transform="translate(0,239.34)" d="M57,0h244.44" style="stroke: rgb(0, 0, 0); stroke-opacity: 0.15; stroke-width: 0.5px;"/><path class="ygrid crisp" transform="translate(0,159.91)" d="M57,0h244.44" style="stroke: rgb(0, 0, 0); stroke-opacity: 0.15; stroke-width: 0.5px;"/></g><g class="y2"><path class="y2grid crisp" transform="translate(0,275.33000000000004)" d="M57,0h244.44" style="stroke: rgb(0, 0, 0); stroke-opacity: 0.15; stroke-width: 0.5px;"/><path class="y2grid crisp" transform="translate(0,215.22)" d="M57,0h244.44" style="stroke: rgb(0, 0, 0); stroke-opacity: 0.15; stroke-width: 0.5px;"/><path class="y2grid crisp" transform="translate(0,155.1)" d="M57,0h244.44" style="stroke: rgb(0, 0, 0); stroke-opacity: 0.15; stroke-width: 0.5px;"/><path class="y2grid crisp" transform="translate(0,94.99)" d="M57,0h244.44" style="stroke: rgb(0, 0, 0); stroke-opacity: 0.15; stroke-width: 0.5px;"/></g></g><g class="zerolinelayer"/><g class="layer-between"><g class="shapelayer"/><g class="imagelayer"/></g><path class="xlines-below"/><path class="ylines-below"/><g class="overlines-below"><path class="xy2-x"/><path class="xy2-y"/></g><g class="xaxislayer-below"/><g class="yaxislayer-below"/><g class="overaxes-below"><g class="xy2-x"/><g class="xy2-y"/></g><g class="overplot"><g class="xy" transform="translate(57,80)" clip-path="url(#clip1e2f63xyplot)"><g class="scatterlayer mlayer"><g class="trace scatter trace6667b4" style="stroke-miterlimit: 2; opacity: 1;"><g class="fills"/><g class="errorbars"/><g class="lines"><path class="js-line" d="M0,222.89L3.56,219.37L5.43,229.48L9.12,220.65L10.93,218.26L12.8,223.5L14.67,218.77L16.48,209.46L18.35,224.22L20.16,229.09L22.04,218.31L23.91,222.1L25.66,220.21L27.53,222.16L29.34,207.94L31.21,208.32L33.02,190.58L34.89,192.36L36.77,188.8L38.58,209.68L40.45,203.4L42.26,197.47L44.13,163.42L46,163.54L47.69,185.77L49.56,210.78L51.38,206.21L53.25,212.27L55.06,210.53L56.93,200.51L58.8,208.19L62.48,199.61L64.29,185.89L66.17,193.74L68.04,215.43L69.73,221.25L71.6,216.78L73.41,202.74L75.28,195.67L77.09,194.57L78.96,192.26L80.84,192.87L82.65,197.16L84.52,212.37L86.33,206.42L88.2,192.83L90.07,171.42L91.76,140.36L93.63,195.93L95.45,157.72L97.32,191.85L99.13,213.74L101,197.16L102.87,191.79L104.68,169.92L106.55,186.51L108.36,147.29L110.24,189.93L112.11,202.62L113.86,161.37L115.73,230.64L117.54,234.82L119.41,226.48L121.22,222.24L123.1,228.05L124.97,204.63L126.78,214.92L128.65,211.19L130.46,231.92L132.33,228.49L134.2,232.93L135.89,233.1L137.77,229.66L139.58,226.27L141.45,220.58L145.13,216.68L147,207.81L148.81,223.71L150.68,207.47L152.5,219.65L154.37,215.61L156.24,210.51L157.93,214.94L159.8,206.74L161.61,219.02L163.48,213.47L165.29,224.43L167.17,214.42L169.04,212.29L170.85,205.75L172.72,154.86L174.53,216.61L176.4,228.59L178.27,216.18L179.96,215.08L181.84,227.49L183.65,170.3L185.52,231.43L187.33,230.49L189.2,210.02L191.07,203.49L192.88,214.62L194.76,203.18L196.57,202.66L198.44,200.5L200.31,199.31L202.06,196.75L203.93,199.9L205.74,205.59L207.61,207.14L209.43,206.38L211.3,198.77L213.17,203.52L214.98,205.09L216.85,203.32L218.66,194.96L220.53,163.06L222.4,143.98L224.1,134.53L225.97,95.51L227.78,116.56L229.65,118.03L231.46,88.35L233.33,59.29L235.2,11.18L237.01,25.88L238.89,65.38L240.7,73.49L242.57,121.64L244.44,108.92" style="vector-effect: none; fill: none; stroke: rgb(106, 27, 154); stroke-opacity: 1; stroke-width: 2.5px; opacity: 1;"/></g><g class="points"/><g class="text"/></g></g></g><g class="xy2" transform="translate(57,80)" clip-path="url(#clip1e2f63xy2plot)"><g class="scatterlayer mlayer"><g class="trace scatter trace3e812e" style="stroke-miterlimit: 2; opacity: 1;"><g class="fills"/><g class="errorbars"/><g class="lines"><path class="js-line" d="M0,135.22L1.87,169.74L3.56,177.62L5.43,153.56L7.24,166.94L9.12,156.37L10.93,170.52L12.8,210.3L14.67,161.6L16.48,177.18L18.35,185.49L22.04,165.59L23.91,147.96L25.66,156.33L27.53,172.26L29.34,156.68L31.21,118.56L33.02,130.52L34.89,189.86L36.77,158.53L38.58,148.32L40.45,101.65L42.26,137.76L44.13,112.83L46,117.84L47.69,118.98L49.56,135.91L51.38,151.75L53.25,148.18L55.06,184.91L56.93,181.35L58.8,147.85L60.61,143.5L62.48,153.56L64.29,134.99L66.17,176.95L68.04,186.26L69.73,176.3L71.6,205.52L75.28,168.14L77.09,202.41L80.84,184.25L82.65,146.75L84.52,180.72L86.33,167.74L88.2,168.17L90.07,200.52L91.76,182.92L93.63,180.12L97.32,161.44L99.13,170.13L101,146.62L102.87,163.57L104.68,178.1L106.55,169.85L108.36,174.1L110.24,185.63L112.11,180.3L113.86,89.42L115.73,119.21L117.54,129.66L119.41,158.69L121.22,160.78L123.1,171.56L124.97,160.97L126.78,131.6L128.65,140.27L132.33,172.91L134.2,185.15L135.89,173.9L137.77,195.91L139.58,215.59L141.45,209.08L143.26,209.81L145.13,234.82L147,149.53L148.81,147.1L150.68,215.7L152.5,197.5L154.37,218.15L156.24,219.71L157.93,188.43L159.8,195.63L161.61,187.93L163.48,170.74L165.29,152.51L167.17,197.03L169.04,115.45L170.85,76.8L172.72,167.31L174.53,182.61L176.4,161.38L178.27,188.86L179.96,176.85L181.84,186.59L183.65,95.7L185.52,173.65L187.33,202.59L189.2,172.4L191.07,169.74L192.88,163.37L194.76,165.6L196.57,180.09L200.31,200.3L202.06,172.86L203.93,193.54L205.74,187.64L207.61,132.86L209.43,154.15L211.3,185.54L213.17,146.15L216.85,80.23L218.66,89.33L220.53,68.96L222.4,107.92L224.1,31.49L225.97,11.18L227.78,91.22L229.65,105.66L231.46,120.75L233.33,171.96L235.2,116.63L237.01,123.17L238.89,113.26L240.7,157.48L244.44,170.21" style="vector-effect: none; fill: none; stroke: rgb(230, 81, 0); stroke-opacity: 1; stroke-width: 2.5px; opacity: 1;"/></g><g class="points"/><g class="text"/></g></g></g></g><g class="zerolinelayer-above"/><path class="xlines-above crisp" d="M55.5,326.75H302.94" style="fill: none; stroke-width: 1.5px; stroke: rgb(0, 0, 0); stroke-opacity: 1;"/><path class="ylines-above crisp" d="M56.25,80V326" style="fill: none; stroke-width: 1.5px; stroke: rgb(0, 0, 0); stroke-opacity: 1;"/><g class="overlines-above"><path class="xy2-x crisp" d="M0,0" style="fill: none;"/><path class="xy2-y crisp" d="M302.19,80V326" style="fill: none; stroke-width: 1.5px; stroke: rgb(0, 0, 0); stroke-opacity: 1;"/></g><g class="xaxislayer-above"><path class="xtick ticks crisp" d="M0,326v-5" transform="translate(167.24,0)" style="stroke: rgb(68, 68, 68); stroke-opacity: 1; stroke-width: 1px;"/><path class="xtick ticks crisp" d="M0,326v-5" transform="translate(277.53,0)" style="stroke: rgb(68, 68, 68); stroke-opacity: 1; stroke-width: 1px;"/><g class="xtick"><text text-anchor="middle" x="0" y="344.3" transform="translate(57,0)" style="font-family: 'Open Sans', verdana, arial, sans-serif; font-size: 14px; fill: rgb(36, 36, 36); fill-opacity: 1; white-space: pre;">2015</text></g><g class="xtick"><text text-anchor="middle" x="0" y="344.3" style="font-family: 'Open Sans', verdana, arial, sans-serif; font-size: 14px; fill: rgb(36, 36, 36); fill-opacity: 1; white-space: pre;" transform="translate(167.24,0)">20</text></g><g class="xtick"><text text-anchor="middle" x="0" y="344.3" style="font-family: 'Open Sans', verdana, arial, sans-serif; font-size: 14px; fill: rgb(36, 36, 36); fill-opacity: 1; white-space: pre;" transform="translate(277.53,0)">25</text></g></g><g class="yaxislayer-above"><path class="ytick ticks crisp" d="M57,0h5" transform="translate(0,318.78)" style="stroke: rgb(68, 68, 68); stroke-opacity: 1; stroke-width: 1px;"/><path class="ytick ticks crisp" d="M57,0h5" transform="translate(0,239.34)" style="stroke: rgb(68, 68, 68); stroke-opacity: 1; stroke-width: 1px;"/><path class="ytick ticks crisp" d="M57,0h5" transform="translate(0,159.91)" style="stroke: rgb(68, 68, 68); stroke-opacity: 1; stroke-width: 1px;"/><g class="ytick"><text text-anchor="end" x="52.7" y="4.8999999999999995" transform="translate(0,318.78)" style="font-family: 'Open Sans', verdana, arial, sans-serif; font-size: 14px; fill: rgb(36, 36, 36); fill-opacity: 1; white-space: pre;">0</text></g><g class="ytick"><text text-anchor="end" x="52.7" y="4.8999999999999995" style="font-family: 'Open Sans', verdana, arial, sans-serif; font-size: 14px; fill: rgb(36, 36, 36); fill-opacity: 1; white-space: pre;" transform="translate(0,239.34)">500</text></g><g class="ytick"><text text-anchor="end" x="52.7" y="4.8999999999999995" style="font-family: 'Open Sans', verdana, arial, sans-serif; font-size: 14px; fill: rgb(36, 36, 36); fill-opacity: 1; white-space: pre;" transform="translate(0,159.91)">1,000</text></g><g class="ytick"><text text-anchor="end" x="52.7" y="4.8999999999999995" style="font-family: 'Open Sans', verdana, arial, sans-serif; font-size: 14px; fill: rgb(36, 36, 36); fill-opacity: 1; white-space: pre;" transform="translate(0,80.47)">1,500</text></g></g><g class="overaxes-above"><g class="xy2-x"/><g class="xy2-y"><path class="y2tick ticks crisp" d="M301.44,0h-5" transform="translate(0,275.33000000000004)" style="stroke: rgb(68, 68, 68); stroke-opacity: 1; stroke-width: 1px;"/><path class="y2tick ticks crisp" d="M301.44,0h-5" transform="translate(0,215.22)" style="stroke: rgb(68, 68, 68); stroke-opacity: 1; stroke-width: 1px;"/><path class="y2tick ticks crisp" d="M301.44,0h-5" transform="translate(0,155.1)" style="stroke: rgb(68, 68, 68); stroke-opacity: 1; stroke-width: 1px;"/><path class="y2tick ticks crisp" d="M301.44,0h-5" transform="translate(0,94.99)" style="stroke: rgb(68, 68, 68); stroke-opacity: 1; stroke-width: 1px;"/></g></g></g><g class="subplot x2y3"><g class="layer-subplot"><g class="shapelayer"/><g class="imagelayer"/></g><g class="minor-gridlayer"><g class="x2"/><g class="y3"/><g class="y4"/></g><g class="gridlayer"><g class="x2"><path class="x2grid crisp" transform="translate(404.26,0)" d="M0,80v246" style="stroke: rgb(0, 0, 0); stroke-opacity: 0.15; stroke-width: 0.5px;"/><path class="x2grid crisp" transform="translate(458.58,0)" d="M0,80v246" style="stroke: rgb(0, 0, 0); stroke-opacity: 0.15; stroke-width: 0.5px;"/></g><g class="y3"><path class="y3grid crisp" transform="translate(0,318.78)" d="M349.94,0h162.95999999999998" style="stroke: rgb(0, 0, 0); stroke-opacity: 0.15; stroke-width: 0.5px;"/><path class="y3grid crisp" transform="translate(0,239.34)" d="M349.94,0h162.95999999999998" style="stroke: rgb(0, 0, 0); stroke-opacity: 0.15; stroke-width: 0.5px;"/><path class="y3grid crisp" transform="translate(0,159.91)" d="M349.94,0h162.95999999999998" style="stroke: rgb(0, 0, 0); stroke-opacity: 0.15; stroke-width: 0.5px;"/></g><g class="y4"><path class="y4grid crisp" transform="translate(0,275.33000000000004)" d="M349.94,0h162.95999999999998" style="stroke: rgb(0, 0, 0); stroke-opacity: 0.15; stroke-width: 0.5px;"/><path class="y4grid crisp" transform="translate(0,215.22)" d="M349.94,0h162.95999999999998" style="stroke: rgb(0, 0, 0); stroke-opacity: 0.15; stroke-width: 0.5px;"/><path class="y4grid crisp" transform="translate(0,155.1)" d="M349.94,0h162.95999999999998" style="stroke: rgb(0, 0, 0); stroke-opacity: 0.15; stroke-width: 0.5px;"/><path class="y4grid crisp" transform="translate(0,94.99)" d="M349.94,0h162.95999999999998" style="stroke: rgb(0, 0, 0); stroke-opacity: 0.15; stroke-width: 0.5px;"/></g></g><g class="zerolinelayer"/><g class="layer-between"><g class="shapelayer"/><g class="imagelayer"/></g><path class="xlines-below"/><path class="ylines-below"/><g class="overlines-below"><path class="x2y4-x"/><path class="x2y4-y"/></g><g class="xaxislayer-below"/><g class="yaxislayer-below"/><g class="overaxes-below"><g class="x2y4-x"/><g class="x2y4-y"/></g><g class="overplot"><g class="x2y3" transform="translate(349.94,80)" clip-path="url(#clip1e2f63x2y3plot)"><g class="scatterlayer mlayer"><g class="trace scatter tracee129ca" style="stroke-miterlimit: 2; opacity: 1;"><g class="fills"/><g class="errorbars"/><g class="lines"><path class="js-line" d="M0,116.56L18.3,118.03L36.02,88.35L54.32,59.29L72.62,11.18L90.34,25.88L108.64,65.38L126.35,73.49L144.66,121.64L162.96,108.92" style="vector-effect: none; fill: none; stroke: rgb(106, 27, 154); stroke-opacity: 1; stroke-width: 3.5px; opacity: 1;"/></g><g class="points"/><g class="text"/></g></g></g><g class="x2y4" transform="translate(349.94,80)" clip-path="url(#clip1e2f63x2y4plot)"><g class="scatterlayer mlayer"><g class="trace scatter tracee6df0b" style="stroke-miterlimit: 2; opacity: 1;"><g class="fills"/><g class="errorbars"/><g class="lines"><path class="js-line" d="M0,91.22L36.02,120.75L54.32,171.96L72.62,116.63L90.34,123.17L108.64,113.26L126.35,157.48L162.96,170.21" style="vector-effect: none; fill: none; stroke: rgb(230, 81, 0); stroke-opacity: 1; stroke-width: 3.5px; opacity: 1;"/></g><g class="points"/><g class="text"/></g></g></g></g><g class="zerolinelayer-above"/><path class="xlines-above crisp" d="M348.44,326.75H514.4" style="fill: none; stroke-width: 1.5px; stroke: rgb(0, 0, 0); stroke-opacity: 1;"/><path class="ylines-above crisp" d="M349.19,80V326" style="fill: none; stroke-width: 1.5px; stroke: rgb(0, 0, 0); stroke-opacity: 1;"/><g class="overlines-above"><path class="x2y4-x crisp" d="M0,0" style="fill: none;"/><path class="x2y4-y crisp" d="M513.65,80V326" style="fill: none; stroke-width: 1.5px; stroke: rgb(0, 0, 0); stroke-opacity: 1;"/></g><g class="xaxislayer-above"><path class="x2tick ticks crisp" d="M0,326v-5" transform="translate(404.26,0)" style="stroke: rgb(68, 68, 68); stroke-opacity: 1; stroke-width: 1px;"/><path class="x2tick ticks crisp" d="M0,326v-5" transform="translate(458.58,0)" style="stroke: rgb(68, 68, 68); stroke-opacity: 1; stroke-width: 1px;"/><g class="x2tick"><text text-anchor="middle" x="0" y="344.3" transform="translate(349.94,0)" style="font-family: 'Open Sans', verdana, arial, sans-serif; font-size: 14px; fill: rgb(36, 36, 36); fill-opacity: 1; white-space: pre;"><tspan class="line" dy="0em" x="0" y="344.3">May</tspan><tspan class="line" dy="1.3em" x="0" y="344.3">25</tspan></text></g><g class="x2tick"><text text-anchor="middle" x="0" y="344.3" style="font-family: 'Open Sans', verdana, arial, sans-serif; font-size: 14px; fill: rgb(36, 36, 36); fill-opacity: 1; white-space: pre;" transform="translate(404.26,0)"><tspan class="line" dy="0em" x="0" y="344.3">Aug</tspan><tspan class="line" dy="1.3em" x="0" y="344.3">25</tspan></text></g><g class="x2tick"><text text-anchor="middle" x="0" y="344.3" style="font-family: 'Open Sans', verdana, arial, sans-serif; font-size: 14px; fill: rgb(36, 36, 36); fill-opacity: 1; white-space: pre;" transform="translate(458.58,0)"><tspan class="line" dy="0em" x="0" y="344.3">Nov</tspan><tspan class="line" dy="1.3em" x="0" y="344.3">25</tspan></text></g><g class="x2tick"><text text-anchor="middle" x="0" y="344.3" style="font-family: 'Open Sans', verdana, arial, sans-serif; font-size: 14px; fill: rgb(36, 36, 36); fill-opacity: 1; white-space: pre;" transform="translate(512.9,0)"><tspan class="line" dy="0em" x="0" y="344.3">Feb</tspan><tspan class="line" dy="1.3em" x="0" y="344.3">26</tspan></text></g></g><g class="yaxislayer-above"><path class="y3tick ticks crisp" d="M349.94,0h5" transform="translate(0,318.78)" style="stroke: rgb(68, 68, 68); stroke-opacity: 1; stroke-width: 1px;"/><path class="y3tick ticks crisp" d="M349.94,0h5" transform="translate(0,239.34)" style="stroke: rgb(68, 68, 68); stroke-opacity: 1; stroke-width: 1px;"/><path class="y3tick ticks crisp" d="M349.94,0h5" transform="translate(0,159.91)" style="stroke: rgb(68, 68, 68); stroke-opacity: 1; stroke-width: 1px;"/></g><g class="overaxes-above"><g class="x2y4-x"/><g class="x2y4-y"><path class="y4tick ticks crisp" d="M512.9,0h-5" transform="translate(0,275.33000000000004)" style="stroke: rgb(68, 68, 68); stroke-opacity: 1; stroke-width: 1px;"/><path class="y4tick ticks crisp" d="M512.9,0h-5" transform="translate(0,215.22)" style="stroke: rgb(68, 68, 68); stroke-opacity: 1; stroke-width: 1px;"/><path class="y4tick ticks crisp" d="M512.9,0h-5" transform="translate(0,155.1)" style="stroke: rgb(68, 68, 68); stroke-opacity: 1; stroke-width: 1px;"/><path class="y4tick ticks crisp" d="M512.9,0h-5" transform="translate(0,94.99)" style="stroke: rgb(68, 68, 68); stroke-opacity: 1; stroke-width: 1px;"/><g class="y4tick"><text text-anchor="start" x="517.1999999999999" y="4.8999999999999995" transform="translate(0,275.33000000000004)" style="font-family: 'Open Sans', verdana, arial, sans-serif; font-size: 14px; fill: rgb(36, 36, 36); fill-opacity: 1; white-space: pre;">99</text></g><g class="y4tick"><text text-anchor="start" x="517.1999999999999" y="4.8999999999999995" style="font-family: 'Open Sans', verdana, arial, sans-serif; font-size: 14px; fill: rgb(36, 36, 36); fill-opacity: 1; white-space: pre;" transform="translate(0,215.22)">100</text></g><g class="y4tick"><text text-anchor="start" x="517.1999999999999" y="4.8999999999999995" style="font-family: 'Open Sans', verdana, arial, sans-serif; font-size: 14px; fill: rgb(36, 36, 36); fill-opacity: 1; white-space: pre;" transform="translate(0,155.1)">101</text></g><g class="y4tick"><text text-anchor="start" x="517.1999999999999" y="4.8999999999999995" style="font-family: 'Open Sans', verdana, arial, sans-serif; font-size: 14px; fill: rgb(36, 36, 36); fill-opacity: 1; white-space: pre;" transform="translate(0,94.99)">102</text></g></g></g></g><g class="subplot xy2"/><g class="subplot x2y4"/></g><g class="polarlayer"/><g class="smithlayer"/><g class="ternarylayer"/><g class="geolayer"/><g class="funnelarealayer"/><g class="pielayer"/><g class="iciclelayer"/><g class="treemaplayer"/><g class="sunburstlayer"/><g class="glimages"/><defs id="topdefs-1e2f63"><g class="clips"/><clipPath id="legend1e2f63"><rect width="350" height="48" x="0" y="0"/></clipPath></defs><g class="layer-above"><g class="imagelayer"/><g class="shapelayer"/></g><g class="infolayer"><g class="legend" pointer-events="all" transform="translate(124.5,12.319999999999979)"><rect class="bg" shape-rendering="crispEdges" width="350" height="48" x="0" y="0" style="stroke: rgb(68, 68, 68); stroke-opacity: 1; fill: rgb(255, 255, 255); fill-opacity: 1; stroke-width: 0px;"/><g class="scrollbox" transform="" clip-path="url(#legend1e2f63)"><g class="groups"><g class="traces" transform="translate(0,14.5)" style="opacity: 1;"><text class="legendtext" text-anchor="start" x="40" y="4.680000000000001" style="font-family: 'Open Sans', verdana, arial, sans-serif; font-size: 12px; fill: rgb(36, 36, 36); fill-opacity: 1; white-space: pre;">World Policy Uncertainty Index</text><g class="layers" style="opacity: 1;"><g class="legendfill"/><g class="legendlines"><path class="js-line" d="M5,0h30" style="fill: none; stroke: rgb(106, 27, 154); stroke-opacity: 1; stroke-width: 2.5px;"/></g><g class="legendsymbols"><g class="legendpoints"/></g></g><rect class="legendtoggle" x="0" y="-9.5" width="228.578125" height="19" style="fill: rgb(0, 0, 0); fill-opacity: 0;"/></g><g class="traces" transform="translate(0,33.5)" style="opacity: 1;"><text class="legendtext" text-anchor="start" x="40" y="4.680000000000001" style="font-family: 'Open Sans', verdana, arial, sans-serif; font-size: 12px; fill: rgb(36, 36, 36); fill-opacity: 1; white-space: pre;">Global Fiscal Policy Uncertainty Index (right scale)</text><g class="layers" style="opacity: 1;"><g class="legendfill"/><g class="legendlines"><path class="js-line" d="M5,0h30" style="fill: none; stroke: rgb(230, 81, 0); stroke-opacity: 1; stroke-width: 2.5px;"/></g><g class="legendsymbols"><g class="legendpoints"/></g></g><rect class="legendtoggle" x="0" y="-9.5" width="346.515625" height="19" style="fill: rgb(0, 0, 0); fill-opacity: 0;"/></g></g></g><rect class="scrollbar" rx="20" ry="3" width="0" height="0" x="0" y="0" style="fill: rgb(128, 139, 164); fill-opacity: 1;"/></g><g class="g-gtitle"/><g class="g-xtitle"/><g class="g-x2title"/><g class="g-ytitle"/><g class="g-y2title"/><g class="g-y3title"/><g class="g-y4title"/></g></svg>